/* XPM */
static char *result[] = {
/* columns rows colors chars-per-pixel */
"50 50 138 2 ",
"   c #010101",
".  c #080706",
"X  c #0A0907",
"o  c #0C0C0B",
"O  c #100F0C",
"+  c #12110E",
"@  c #0F1010",
"#  c #141413",
"$  c #191713",
"%  c #1B1915",
"&  c #171718",
"*  c #171818",
"=  c #1B1B1B",
"-  c #281915",
";  c #211F1B",
":  c #22201B",
">  c #29281F",
",  c #1F1F20",
"<  c #1F2020",
"1  c #232324",
"2  c #2C2A21",
"3  c #272728",
"4  c #272828",
"5  c #2B2C2C",
"6  c #343327",
"7  c #36332A",
"8  c #383629",
"9  c #3B392C",
"0  c #2F2F30",
"q  c #323333",
"w  c #373738",
"e  c #373839",
"r  c #3B3B3C",
"t  c #511F18",
"y  c #562D23",
"u  c #413F31",
"i  c #722A20",
"p  c #494636",
"a  c #4A4837",
"s  c #454333",
"d  c #514E3C",
"f  c #53513E",
"g  c #674938",
"h  c #3F3F40",
"j  c #3F4041",
"k  c #404142",
"l  c #464749",
"z  c #474849",
"x  c #4A4B4C",
"c  c #595642",
"v  c #5A5843",
"b  c #4E4E50",
"n  c #4F5052",
"m  c #525354",
"M  c #565759",
"N  c #57585A",
"B  c #58595B",
"V  c #615F48",
"C  c #67624B",
"Z  c #69664E",
"A  c #6E6B51",
"S  c #726F54",
"D  c #79765A",
"F  c #7E7A5D",
"G  c #5F6061",
"H  c #656566",
"J  c #656668",
"K  c #6B6B6D",
"L  c #6E6F71",
"P  c #737475",
"I  c #777779",
"U  c #7B7C7E",
"Y  c #862E23",
"T  c #883227",
"R  c #9E3226",
"E  c #9F3528",
"W  c #943529",
"Q  c #A03629",
"!  c #A23A2D",
"~  c #A53E31",
"^  c #A83F34",
"/  c #A64335",
"(  c #A94135",
")  c #AD453A",
"_  c #AD483B",
"`  c #B0493E",
"'  c #AB4F40",
"]  c #B44F44",
"[  c #B35245",
"{  c #B9554A",
"}  c #B76352",
"|  c #BC7D60",
" . c #C05E53",
".. c #C16055",
"X. c #C5645A",
"o. c #CD6F65",
"O. c #D2756B",
"+. c #D4796F",
"@. c #D77C72",
"#. c #D97E74",
"$. c #8F8B6A",
"%. c #948F6E",
"&. c #95906E",
"*. c #999370",
"=. c #A09C77",
"-. c #AAA57F",
";. c #DB8177",
":. c #DD837A",
">. c #7E7F81",
",. c #7F8082",
"<. c #818284",
"1. c #898A8A",
"2. c gray59",
"3. c #9A9A9B",
"4. c #B5AF86",
"5. c #B5B086",
"6. c #A2A2A2",
"7. c #AAAAAB",
"8. c #E48D84",
"9. c #C5BF92",
"0. c #C6C193",
"q. c #C9C395",
"w. c #CEC899",
"e. c #D4CE9D",
"r. c #D6D09F",
"t. c #E1DAA6",
"y. c #EBE4AE",
"u. c #EEE7B0",
"i. c #EFE8B1",
"p. c #C3C3C3",
"a. c #C8C8C9",
"s. c gray82",
"d. c #DADADA",
"f. c #E1E1E2",
"g. c #ECECEC",
"h. c #FDFDFD",
"j. c gray95",
"k. c None",
/* pixels */
"k.k.k.k.k.k.k.k.k.k.k.k.k.k.k.k.k.k.k.k.k.k.k.k.k.k.k.k.k.k.k.k.k.k.k.k.k.k.k.k.k.k.k.k.k.} k.k.k.k.",
"k.k.k.k.k.k.k.k.k.k.k.k.k.k.k.k.k.k.k.k.k.k.k.k.k.k.k.k.k.k.k.k.k.k.k.k.k.k.k./ k.k.k.k./ ! k.k.k.k.",
"k.k.k.k.k.k.k.k.k.k.k.k.k.k.k.k.k.k.k.k.k.k.k.k.k.k.k.k.k.k.k.k.k.k.k.k.k.k.k./ ! k.k.k.Q [ k.k.k.k.",
"k.k.k.k.k.k.k.k.k.k.k.k.k.k.k.k.k.k.k.k.k.k.k.k.k.k.k.k.k.k.k.k.k.k.k.k.k.k.k.~ R ~ k.! R k.k.k.k.k.",
"k.k.k.k.k.k.k.k.k.k.k.k.k.k.k.k.k.k.k.k.k.k.k.k.k.k.k.k.k.k.k.+ $ 9 g i t - k.' R E Q Q R k.k.k.) / ",
"k.k.k.k.k.k.k.k.k.k.k.k.k.k.k.k.k.k.k.k.k.k.k.k.k.k.k.k.k.$ u -.*.e.*.| Q R Y W ^ [ R  .R / Q Q E k.",
"k.k.k.k.k.k.k.k.k.k.k.k.k.k.k.k.k.k.k.k.k.k.k.k.k.k.k.k.9 F w.s 8 p 2 C y R ! ) ) #.O.+.! ` Q Q k.k.",
"k.k.k.k.k.k.k.k.k.k.k.k.k.k.k.k.k.k.k.k.k.k.X         o %.*.+ # k.k.k.k.# t R { :.8.8.8.:.` ! k.k.k.",
"k.k.k.k.k.k.k.k.k.k.k.k.k.k.k.k.k.k.k.k.k.=             + > % k.k.k.k.k.k.T Q _ :.8.8.8.+.( Q / k.k.",
"k.k.k.k.k.k.k.k.k.k.k.k.k.k.k.# & * 1 #     X               X k.k.k.k.! E R ` X.:.8.8.8.+.../ R Q / ",
"k.k.k.k.k.k.k.k.k.k.k.k.= % 1 q r m M h 0 q e 3 5 3 5 * .   k.k.k.k.k./ ! ~ E Q o.#.8.@. .Q ! ! / / ",
"k.k.k.k.k.k.k.k.k.k.k.+ * w r w 1.p.a.1.h h k k k h k r 5 o # k.k.k.k.k.k.k.~ ~  .] :.^ ..R / k.k.k.",
"k.k.k.k.k.k.k.k.k.% 1 r 5 M K x 7.d.f.6.u k k h k k k h h e   O k.k.k.k.k.k.R R Q ~ ] Q Q R Q k.k.k.",
"k.k.k.k.k.k.k.k.O 3 1 r s.h.f.J B B B B M m l k h h k k h k & 3 . % k.k.k./ R ~ k.Q Q ! k.! E k.k.k.",
"k.k.k.k.k.k.k.o * = P d.h.h.7.B B B B B B B M b k k h k k k 3 5 . o k.k.k.! / k.k.! R ^ k.k.! / k.k.",
"k.k.k.k.k.k.# o * 2.h.h.h.3.m x M B B B B B N B M z k k h r w q & 1 X k.k.k.k.k.k.( Q k.k.k.k.k.k.k.",
"k.k.k.k.k.k.  1 6.h.h.h.3.k n B B N x k z N M B B m l j k k h w 3 5 o @ k.k.k.k.k.k./ k.k.k.k.k.k.k.",
"k.k.k.k.k.o   6.h.h.h.p.m B B B m w 3 k m l x B B B m k j k k j 0 q = , & k.k.k.k.k.k.k.k.k.k.k.k.k.",
"k.k.k.k.#   J h.h.g.1.B B B B j 5 k n 5 0 x B B B B B m k h h k h r 5 0 . k.k.k.k.k.k.k.k.k.k.k.k.k.",
"k.k.k.k.  X f.j.7.B B B B B j j m r q m B B B B B B B B M x k k h h h w o # k.k.k.k.k.k.k.k.k.k.k.k.",
"k.k.k.$   w m * q B B B B z z B k x B B B B B B B B B B B B m k h k k h &   k.k.k.k.k.k.k.k.k.k.k.k.",
"k.k.k.o = 1   w m B B B B m B B N B B B B B B B B B B B B B B k k k h h *   k.k.k.k.k.k.k.k.k.k.k.k.",
"k.k.k.o <   1 N B B B B B B B B B B B B B B B B B B B B B B M k k h h r *   + k.k.k.k.k.k.k.k.k.k.k.",
"k.k.k.    X m B B B B B B B B B B B B B B B B B B B B B B M l h k k u e &   o k.k.k.k.k.k.k.k.k.k.k.",
"k.k.%     q B B B B B B B B B B B B B B B B B B B B B B m k k k k h r 0 o   X k.k.k.k.k.k.k.k.k.k.k.",
"k.k.X   & N B B l m B B B B B B B B B B B B B N b B B m k k k k r h q 1       k.k.k.k.k.k.k.k.k.k.k.",
"k.k.# . l B m 5 = k B B B B B B B B B B B N m , k N N z h k k h q h 0 o       k.k.k.k.k.k.k.k.k.k.k.",
"k.k.% * k < # .   5 B B B B B B B B B M b l *   , h B l k k h k 1 r 3         k.k.k.k.k.k.k.k.k.k.k.",
"k.k.o & o % 9 %   @ m B B B B B B B x , o .       5 m b h k k h & e *         k.k.k.k.k.k.k.k.k.k.k.",
"k.k.%   a w.u.0.8   q B B B B B B b X     6 Z d #   , m k k h e @ w O         k.k.k.k.k.k.k.k.k.k.k.",
"k.k.k.  D i.i.i.5.o & m B B B B b *   o %.y.i.i.-.9   0 b h k 5 @ 5 .       O k.k.k.k.k.k.k.k.k.k.k.",
"k.k.k.. 9 i.i.i.y.C   q B B B M 3   . 5.i.i.i.i.t.>   , x l h = # =         o k.k.k.k.k.k.k.k.k.k.k.",
"k.k.k.X . e.i.i.i.q.& # M N N z .   $.i.i.i.i.i.i.% . z x k k . X           k.k.k.k.k.k.k.k.k.k.k.k.",
"k.k.k.+   =.i.i.u.y.v   5 x x 1   9 t.i.i.i.i.i.i.% @ n x k w               k.k.k.k.k.k.k.k.k.k.k.k.",
"k.k.k.k.  Z u.u.y.0.f X   X X   9 q.i.u.i.i.i.i.q.. 5 x k k &             o k.k.k.k.k.k.k.k.k.k.k.k.",
"k.k.k.k.o X A F d # ; z k 0 3 = = p &.0.t.y.y.9.9 o j j k 5               k.k.k.k.k.k.k.k.k.k.k.k.k.",
"k.k.k.k.k.        o 5 b B B B m q o   2 v D S 2   5 h h q o             X k.k.k.k.k.k.k.k.k.k.k.k.k.",
"k.k.k.k.k.%     # e , o 0 z n n m m r = o X o * w k r 1               X k.k.k.k.k.k.k.k.k.k.k.k.k.k.",
"k.k.k.k.k.k.o       & 1 = X & 0 r k k h k j k k w = X                 k.k.k.k.k.k.k.k.k.k.k.k.k.k.k.",
"k.k.k.k.k.k.k.          @ @ X X & 3 w r w q 3 * X                   + k.k.k.k.k.k.k.k.k.k.k.k.k.k.k.",
"k.k.k.k.k.k.k.&                     . X X                           % k.k.k.k.k.k.k.k.k.k.k.k.k.k.k.",
"k.k.k.k.k.k.# X o @                                     # = 1 3 1 , # X X k.k.k.k.k.k.k.k.k.k.k.k.k.",
"k.k.k.k.k.;   X 3 w @                                 & w r k h h k h 5 & . k.k.k.k.k.k.k.k.k.k.k.k.",
"k.k.k.k.%   # r h h h q #                           5 r k k h h k h h h r , X k.k.k.k.k.k.k.k.k.k.k.",
"k.k.k.% .   3 q q q 0 q w q < o                   # 5 q q q 0 q h h k h q 5 X # k.k.k.k.k.k.k.k.k.k.",
"k.k.k.# G N 4 = * = , = o 0 h h w 1 .   ; 7 % = L r 1 * = = , & & e k h j & * X k.k.k.k.k.k.k.k.k.k.",
"k.k.k.= I ,.>.>.>.U >.>.G # q h h h # . 7 k.: x <.<.U U U U >.I 3 , r h r 3 o . k.k.k.k.k.k.k.k.k.k.",
"k.k.k.X 1 B I <.<.,.<.<.B # , 3 5 r @   k.k.o o h L >.<.<.<.<.P w & 1 5 q 5   X k.k.k.k.k.k.k.k.k.k.",
"k.k.k.X   3 K <.<.<.<.<.5   % o o @   + k.k.k.  o b >.<.<.<.<.B # o # o X X X k.k.k.k.k.k.k.k.k.k.k.",
"k.k.k.k.k.O o & = 1 3 1 .     . X O k.k.k.k.k.k.+ o o = 1 3 1 #       X X % k.k.k.k.k.k.k.k.k.k.k.k."
};
