/* XPM */
static char *result[] = {
/* columns rows colors chars-per-pixel */
"50 50 122 2 ",
"   c #010101",
".  c #080707",
"X  c #090806",
"o  c #0C0C0B",
"O  c #100F0D",
"+  c #12110E",
"@  c #0F0F10",
"#  c #0F1010",
"$  c #141312",
"%  c #191714",
"&  c #1B1A15",
"*  c #171718",
"=  c #1B1B1B",
"-  c #201E18",
";  c #24231B",
":  c #28271E",
">  c #302515",
",  c #322C1D",
"<  c #232323",
"1  c #2A2721",
"2  c #2C2B21",
"3  c #272728",
"4  c #2D2D2D",
"5  c #302F24",
"6  c #353327",
"7  c #373629",
"8  c #39372B",
"9  c #3A382B",
"0  c #2F2F30",
"q  c #333334",
"w  c #373738",
"e  c #373839",
"r  c #3B3B3C",
"t  c #4F3817",
"y  c #5B4320",
"u  c #494736",
"i  c #4D4B3A",
"p  c #7C6234",
"a  c #3F3F40",
"s  c #414142",
"d  c #464749",
"f  c #474849",
"g  c #4B4B4D",
"h  c #575541",
"j  c #4E4F51",
"k  c #4F5052",
"l  c #525355",
"z  c #565758",
"x  c #57585A",
"c  c #58595B",
"v  c #66634C",
"b  c #6F6C52",
"n  c #767257",
"m  c #777358",
"M  c #78755A",
"N  c #7C785C",
"B  c #5F5F61",
"V  c #616264",
"C  c #676869",
"Z  c #6C6C6E",
"A  c #6D6E70",
"S  c #747577",
"D  c #7A7B7C",
"F  c #F05C28",
"G  c #F2632B",
"H  c #F26B2D",
"J  c #F47D32",
"K  c #817D60",
"L  c #C98D34",
"P  c #C9933F",
"I  c #D19336",
"U  c #DA9A3B",
"Y  c #F58334",
"T  c #F79539",
"R  c #F89D3B",
"E  c #E6A13B",
"W  c #F9A53D",
"Q  c #F5AB3F",
"!  c #F9AA3F",
"~  c #868263",
"^  c #888465",
"/  c #908C6B",
"(  c #95916E",
")  c #9B9673",
"_  c #9C9874",
"`  c #A29D78",
"'  c #ABA67F",
"]  c #FAAF41",
"[  c #FAB144",
"{  c #FAB34B",
"}  c #EFB053",
"|  c #FAB651",
" . c #FABA5A",
".. c #7E7F81",
"X. c #818284",
"o. c #8B8B8C",
"O. c #909090",
"+. c #ACA780",
"@. c #B0AB82",
"#. c #B8B288",
"$. c #A3A4A4",
"%. c #A9A9AA",
"&. c #C1BB8F",
"*. c #C8C294",
"=. c #D4CE9D",
"-. c #D6D09F",
";. c #E0D299",
":. c #D9D2A1",
">. c #DFD8A5",
",. c #E0DAA6",
"<. c #E4DDA9",
"1. c #EDE6AF",
"2. c #EEE7B0",
"3. c #EFE8B1",
"4. c #C5C5C5",
"5. c #D2D2D2",
"6. c #DBDBDB",
"7. c #E7E7E7",
"8. c #EBEBEC",
"9. c #F2F2F2",
"0. c #FEFEFE",
"q. c None",
/* pixels */
"q.q.q.q.q.q.q.q.q.q.q.q.q.q.q.q.q.q.q.q.q.q.q.q.q.q.q.q.q.q.q.q.q.q.q.q.q.q.q.q.q.q.q.q.q.q.q.q.q.q.",
"q.q.q.q.q.q.q.q.q.q.q.q.q.q.q.q.q.q.q.q.q.q.q.q.q.q.q.q.q.q.q.q.q.q.q.q.q.q.q.q.q.q.q.q.q.q.q.q.q.q.",
"q.q.q.q.q.q.q.q.q.q.q.q.q.q.q.q.q.q.q.q.q.q.q.q.q.q.q.q.q.q.q.q.q.q.q.q.q.q.q.q.q.q.q.q.q.q.q.q.q.q.",
"q.q.q.q.q.q.q.q.q.q.q.q.q.q.q.q.q.q.q.q.q.q.q.q.q.q.q.q.q.q.q.q.q.q.q.q.q.q. .q.q.q.q. .q.q.q.q.q.q.",
"q.q.q.q.q.q.q.q.q.q.q.q.q.q.q.q.q.q.q.q.q.q.q.q.q.q.q.q.q.q.q.q.q.q.q.q.q.q.[ { q.q.{ { q.q.q.q.q.q.",
"q.q.q.q.q.q.q.q.q.q.q.q.q.q.q.q.q.q.q.q.q.q.q.q.q.q.q.q.q.q.q.q.: 2 ; q.q.q.{ ! { q.] | q.q.q.q.q.q.",
"q.q.q.q.q.q.q.q.q.q.q.q.q.q.q.q.q.q.q.q.q.q.q.q.q.q.q.q.q.% 2 i M M p t > q.} ! [ [ ] { q.q.q.q.q.q.",
"q.q.q.q.q.q.q.q.q.q.q.q.q.q.q.q.q.q.q.q.q.q.q.q.q.q.q.q.8 ^ @./ *.v ;.L Q I U W T R R [ [ [ [ q.q.q.",
"q.q.q.q.q.q.q.q.q.q.q.q.q.q.q.q.q.q.q.q.q.q.$ % % % + v ( N 2 : - $ : , P ! T R G G T T ] [ q.q.q.q.",
"q.q.q.q.q.q.q.q.q.q.q.q.q.q.q.q.q.q.q.q.q.X           & h $ q.q.q.q.q.q.y E T G F F F R ] q.q.q.q.q.",
"q.q.q.q.q.q.q.q.q.q.q.q.q.q.q.q.= % .                     q.q.q.q.q.q.{ [ W J F F F F Y W ] | q.q.q.",
"q.q.q.q.q.q.q.q.q.q.q.q.q.% & < 4 w w = $ < $ @ o o .     + q.q.q.q.{ [ [ ! T H F F H T ] ] [ { q.q.",
"q.q.q.q.q.q.q.q.q.q.q.% < 0 w r O.%.o.l a s r r r r q < X = q.q.q.q.q.q.q.{ W Y Y J J ] { q.q.q.q.q.",
"q.q.q.q.q.q.q.q.q.% < w r l d l 6.8.6.D s s s s s a a s 0 X % q.q.q.q.q.q.] ] ] W R ] ] [ q.q.q.q.q.",
"q.q.q.q.q.q.q.q.o 0 < r 4.0.$.x V S V l g s a s s s a s r $ % X q.q.q.q.q.[ { q.] ] q.] ] q.q.q.q.q.",
"q.q.q.q.q.q.q.& < $ D 8.0.7.Z x x c c x c x g s s a s a a < 3 o + q.q.q.{ { q.q.{ { q.q.{ { q.q.q.q.",
"q.q.q.q.q.q.% # & 4.0.0.9.D d l x x c c x x c x d s s a s 4 q = = o q.q.q.q.q.q.{ { q.q.q.q.q.q.q.q.",
"q.q.q.q.q.+   = 5.0.0.9.Z d x x x x g d l x c c x d s s a r r 4 0   % q.q.q.q.q.q.q.q.q.q.q.q.q.q.q.",
"q.q.q.q.q.  o 5.0.0.8.D x x x x r < r l s d x c x z s s s a a w r & % q.q.q.q.q.q.q.q.q.q.q.q.q.q.q.",
"q.q.q.q.o o Z 0.0.5.D c x x l w q g r q s l c c x x g s a a a r s < 3 X q.q.q.q.q.q.q.q.q.q.q.q.q.q.",
"q.q.q.q.  s 6.6.o.B x x x j w g g q s l c c c c c c c l g s a s a r q   q.q.q.q.q.q.q.q.q.q.q.q.q.q.",
"q.q.q.$ @ w e 4 g c c c x f z k s x c c c c c c c c c x x g s a s a w   o q.q.q.q.q.q.q.q.q.q.q.q.q.",
"q.q.q.X < . . g c c c c x x c x c c c c c c c c c c c c c l d a a s r   . q.q.q.q.q.q.q.q.q.q.q.q.q.",
"q.q.q.o * . 4 c c c c c c c c c c c c c c c c c c c c c c l s a s a r     q.q.q.q.q.q.q.q.q.q.q.q.q.",
"q.q.q.    3 x c x x c c c c c c c c c c c c c c c c c c l d r a a a e     O q.q.q.q.q.q.q.q.q.q.q.q.",
"q.q.$   $ k c c z x c c c x c c c c c c c c c c c c c l d a s a s q 4     o q.q.q.q.q.q.q.q.q.q.q.q.",
"q.q.+   r x x l 0 x c c c c c c c c c c c c l f c c j a a a a r s 3 =     X q.q.q.q.q.q.q.q.q.q.q.q.",
"q.q.$ o g g s = @ x c c c c c c c c c c c j < w l c d a s a r 4 s < o     . q.q.q.q.q.q.q.q.q.q.q.q.",
"q.q.$ < < .       s x c c c c c c c l f e *   O q c f a s a w - s *       X q.q.q.q.q.q.q.q.q.q.q.q.",
"q.q.O X : n ( u   = x x c c c c c s * .   .     * g g a a s 0 * s X       X q.q.q.q.q.q.q.q.q.q.q.q.",
"q.q.$   ) 3.2.>.6   r x c c x x d .   & ~ #.+.m + @ j f s a 3 O w         O q.q.q.q.q.q.q.q.q.q.q.q.",
"q.q.q.  ) 3.3.3.)   = x c c x x &   % ( 2.3.3.:.u   0 j d a = @ <         O q.q.q.q.q.q.q.q.q.q.q.q.",
"q.q.q.. v 3.3.3.3.6 . f x c x s   o &.3.3.3.3.3.7   0 d d a o $ @         q.q.q.q.q.q.q.q.q.q.q.q.q.",
"q.q.q.. 2 ,.3.3.3.'   < z c k #   _ 3.3.3.3.3.3.9 o x k s 0             . q.q.q.q.q.q.q.q.q.q.q.q.q.",
"q.q.q.$ $ *.3.3.3.>.,   o = o   b 3.3.3.3.3.3.2.: < l d r &             + q.q.q.q.q.q.q.q.q.q.q.q.q.",
"q.q.q.q.  b -.=.) % # 3 # .   o @.<.3.3.3.3.2.+.  r s a w .             q.q.q.q.q.q.q.q.q.q.q.q.q.q.",
"q.q.q.q.+ X ; - . o d x k f d 4 $ 7 n _ &.&.K = % a s a =             o q.q.q.q.q.q.q.q.q.q.q.q.q.q.",
"q.q.q.q.q..     3 < $ 0 g l z l d 3 o . + + o = r a 0 *             . q.q.q.q.q.q.q.q.q.q.q.q.q.q.q.",
"q.q.q.q.q.q.      = < = # < w s d s r w 6 0 r r q &                 q.q.q.q.q.q.q.q.q.q.q.q.q.q.q.q.",
"q.q.q.q.q.q.$         o = #   * q a a a a a < $                   $ q.q.q.q.q.q.q.q.q.q.q.q.q.q.q.q.",
"q.q.q.q.q.q.q.=                   X = % o                       o q.q.q.q.q.q.q.q.q.q.q.q.q.q.q.q.q.",
"q.q.q.q.q.q.q.1                                   o & = < < = % . X q.q.q.q.q.q.q.q.q.q.q.q.q.q.q.q.",
"q.q.q.q.q.q.=   # < .                           @ q s a a a s s r < . $ q.q.q.q.q.q.q.q.q.q.q.q.q.q.",
"q.q.q.q.q.O   = r s r < .                     = a a a s s a a s a r 4   q.q.q.q.q.q.q.q.q.q.q.q.q.q.",
"q.q.q.q.q.o X = 0 0 4 4 = @ X             X . < 0 q 4 4 0 w a a a w 4 + $ q.q.q.q.q.q.q.q.q.q.q.q.q.",
"q.q.q.q.$ k C g r e r a e = < q < & o   . l B g r e r r q < 0 s s a & < X q.q.q.q.q.q.q.q.q.q.q.q.q.",
"q.q.q.q.$ B ..X.X.X.X.X.X.x @ w r r 4 o o V X.X.X.X.X.X.X.x = q r r 4 o   q.q.q.q.q.q.q.q.q.q.q.q.q.",
"q.q.q.q.X o w Z X.X.X.X.D s . < < < < .   # f A X.X.X.X.D a $ < < < <   o q.q.q.q.q.q.q.q.q.q.q.q.q.",
"q.q.q.q.q.X % d C S D D Z =   $ X .   o o . < d C S D D C & o $ o .   O q.q.q.q.q.q.q.q.q.q.q.q.q.q.",
"q.q.q.q.q.q.q.o + .           o + q.q.q.q.q.q.+ + .           o $ q.q.q.q.q.q.q.q.q.q.q.q.q.q.q.q.q."
};
