/* XPM */
static char *result[] = {
/* columns rows colors chars-per-pixel */
"50 50 129 2 ",
"   c #020101",
".  c #080706",
"X  c #090807",
"o  c #0C0B0B",
"O  c #110F0D",
"+  c #12110E",
"@  c #0F0F10",
"#  c #141313",
"$  c #181613",
"%  c #1C1A16",
"&  c #171718",
"*  c #1C1C1C",
"=  c #211F1A",
"-  c #25221C",
";  c #28261E",
":  c #1F2020",
">  c #232324",
",  c #2A2721",
"<  c #2D2B21",
"1  c #272728",
"2  c #2C2C2C",
"3  c #3A2721",
"4  c #323125",
"5  c #39372A",
"6  c #3A382C",
"7  c #2F2F30",
"8  c #2F3031",
"9  c #333334",
"0  c #373738",
"q  c #373839",
"w  c #3B3B3C",
"e  c #421F19",
"r  c #59231B",
"t  c #60261D",
"y  c #522F24",
"u  c #403D2F",
"i  c #483A2C",
"p  c #454333",
"a  c #484535",
"s  c #4A4837",
"d  c #514F3C",
"f  c #54523E",
"g  c #3F3F40",
"h  c #404042",
"j  c #464648",
"k  c #4B4B4D",
"l  c #5A5742",
"z  c #4E4F50",
"x  c #4F5052",
"c  c #525355",
"v  c #565759",
"b  c #57585A",
"n  c #58595B",
"m  c #625F48",
"M  c #67644C",
"N  c #69664E",
"B  c #6C6950",
"V  c #7A765A",
"C  c #5E5E60",
"Z  c #5F6061",
"A  c #616263",
"S  c #6C6C6E",
"D  c #747576",
"F  c #767779",
"G  c #77787A",
"H  c #7B7B7D",
"J  c #8D2E23",
"K  c #973226",
"L  c #9E3226",
"P  c #943428",
"I  c #9F3428",
"U  c #963A2D",
"Y  c #A03629",
"T  c #A33A2E",
"R  c #A53D30",
"E  c #A83F33",
"W  c #A64234",
"Q  c #A94336",
"!  c #AC4439",
"~  c #AB4B3D",
"^  c #B35447",
"/  c #BA574C",
"(  c #BC584D",
")  c #BE5C52",
"_  c #827E60",
"`  c #C15F54",
"'  c #C16056",
"]  c #C46359",
"[  c #CD6F65",
"{  c #CF7268",
"}  c #D1756B",
"|  c #D5796F",
" . c #D67B71",
".. c #DA7F76",
"X. c #898566",
"o. c #938F6D",
"O. c #9C9774",
"+. c #9F9A76",
"@. c #DB8077",
"#. c #DF867D",
"$. c #E1887F",
"%. c #818284",
"&. c #898A8B",
"*. c #969696",
"=. c #969798",
"-. c #ADA981",
";. c #BCB68B",
":. c #A2A3A3",
">. c #A9A9AA",
",. c #AFB0B1",
"<. c #E58E85",
"1. c #CCB188",
"2. c #C0BA8E",
"3. c #C4BE91",
"4. c #C7C193",
"5. c #CFC999",
"6. c #D4CE9D",
"7. c #DDD6A3",
"8. c #E2DBA7",
"9. c #E4DEA9",
"0. c #EAE3AD",
"q. c #EEE7B0",
"w. c #EFE8B1",
"e. c gray78",
"r. c LightGray",
"t. c #E2E2E2",
"y. c #F2F2F2",
"u. c #FDFDFD",
"i. c None",
/* pixels */
"i.i.i.i.i.i.i.i.i.i.i.i.i.i.i.i.i.i.i.i.i.i.i.i.i.i.i.i.i.i.i.i.i.i.i.i.i.i.i.i.i.i.i.i.i.i.i.i.i.i.",
"i.i.i.i.i.i.i.i.i.i.i.i.i.i.i.i.i.i.i.i.i.i.i.i.i.i.i.i.i.i.i.i.i.i.i.i.i.i.i.i.i.i.i.i.i.i.i.i.i.i.",
"i.i.i.i.i.i.i.i.i.i.i.i.i.i.i.i.i.i.i.i.i.i.i.i.i.i.i.i.i.i.i.i.i.i.i.i.i.i.i.i.i.i.i.i.i.i.i.i.i.i.",
"i.i.i.i.i.i.i.i.i.i.i.i.i.i.i.i.i.i.i.i.i.i.i.i.i.i.i.i.i.i.i.i.i.i.i.i.i.i.i.T i.i.i.i.i.Q i.i.i.i.",
"i.i.i.i.i.i.i.i.i.i.i.i.i.i.i.i.i.i.i.i.i.i.i.i.i.i.i.i.i.i.i.i.i.i.i.i.i.i.i.Q T i.i.i.Y Q i.i.i.i.",
"i.i.i.i.i.i.i.i.i.i.i.i.i.i.i.i.i.i.i.i.i.i.i.i.i.i.i.i.i.i.i.i.i.i.i.i.i.i.i.^ I T i.T L i.i.i.i.i.",
"i.i.i.i.i.i.i.i.i.i.i.i.i.i.i.i.i.i.i.i.i.i.i.i.i.i.i.i.i.i.i.% $ , i t e 3 i.i.I L W L Y i.i.i.i.i.",
"i.i.i.i.i.i.i.i.i.i.i.i.i.i.i.i.i.i.i.i.i.i.i.i.i.i.i.i.i.$ 6 o.;.3.+.1.I L J P T ^ L ` I T T Y I i.",
"i.i.i.i.i.i.i.i.i.i.i.i.i.i.i.i.i.i.i.i.i.i.i.i.i.i.i.i.< V -.M N u u B y K Y Q E | `  .T E L T i.i.",
"i.i.i.i.i.i.i.i.i.i.i.i.i.i.i.i.i.i.i.i.i.i.$           p ;., ; $ i.i.# + r I ) | <.<.#.} / Y i.i.i.",
"i.i.i.i.i.i.i.i.i.i.i.i.i.i.i.i.i.i.- # , , .             o % i.i.i.i.i.i.U L E ..<.<.<.[ T Y ~ i.i.",
"i.i.i.i.i.i.i.i.i.i.i.i.i.i.$ + % 1 2 7 # X $ o             + i.i.i.i.T Y L Q ] ..<.<.<. .` T L T W ",
"i.i.i.i.i.i.i.i.i.i.i.i.% $ 1 0 g v S n w q w q 7 9 7 1 o   O i.i.i.i.W R T Y Y [ $.<.<.) I Y T T T ",
"i.i.i.i.i.i.i.i.i.i.i.# 2 w 1 * k u.u.u.&.h h h h h g g h 1 . i.i.i.i.i.i.i.E R / ! ..T ` Y i.i.i.i.",
"i.i.i.i.i.i.i.i.i.$ * 0 > %.t.>.n H =.&.c h h h g h h h h g # X % i.i.i.i.i.Y L L L / L L L T i.i.i.",
"i.i.i.i.i.i.i.i.* % : n r.u.u.%.n n n n n n c j h h g h h g 1 * X & i.i.i.W L R i.Y L Q i.T I i.i.i.",
"i.i.i.i.i.i.i.# @ & F y.u.u.,.x b n n n b C b b z j h h h h 8 : % @ @ i.i.E Q i.i.E L i.i.i.E W i.i.",
"i.i.i.i.i.i.i.. # =.u.u.u.>.9 x n n n n c b b b b x h h h h q 7 2 > X = i.i.i.i.i.i.Y i.i.i.i.i.i.i.",
"i.i.i.i.i.i.  . >.u.u.u.:.x b b b c 0 9 j c z c b b x h g h g w 0 9 # # i.i.i.i.i.i.T i.i.i.i.i.i.i.",
"i.i.i.i.i.+   G u.u.y.*.C b b b h 2 w k 0 q z b C b b k h h g h w w : 9 # i.i.i.i.i.i.i.i.i.i.i.i.i.",
"i.i.i.i.i.  % u.u.e.Z b b b b q w v q 1 k b b b n n n n z h h h g h 9 w   i.i.i.i.i.i.i.i.i.i.i.i.i.",
"i.i.i.i.@ . z F q h n n b C g z x 0 z n b b b b n n n n b c j h h h g g X + i.i.i.i.i.i.i.i.i.i.i.i.",
"i.i.i.i.. > #   g n n n b b c n c b n n b b b C n n n n b n c j h g h g o . i.i.i.i.i.i.i.i.i.i.i.i.",
"i.i.i.i.o %   9 b n n n b b C b b n n n b C b b n b n n n b b j h g h h @   $ i.i.i.i.i.i.i.i.i.i.i.",
"i.i.i.#     * v b b b n b n n n n n b n n n b n n n n n n n z h h g h g o   o i.i.i.i.i.i.i.i.i.i.i.",
"i.i.i.X   . z n b b n n n n n n n n n n n n n n n n b n n z h h h h w g .   X i.i.i.i.i.i.i.i.i.i.i.",
"i.i.i..   7 n n c j n n n n n n n n n n n n b b b n n b j h h h g h 9 7     . i.i.i.i.i.i.i.i.i.i.i.",
"i.i.i.X @ z b c 2 > b n n n n n n n n n n n b j h n n z h h g h 9 g 9 *     . i.i.i.i.i.i.i.i.i.i.i.",
"i.i.i.X 9 w o .   . z b n n n b n n n n n n 0 . 0 w n j h h h g > h 1 .     X i.i.i.i.i.i.i.i.i.i.i.",
"i.i.i.X &   o *     0 b n n n n n n n h * o       9 n k h h h w $ h *       X i.i.i.i.i.i.i.i.i.i.i.",
"i.i.i.. . X.0.q._ X o x n n n n n c >     % 6 < +   0 c h h h 0 @ w o       . i.i.i.i.i.i.i.i.i.i.i.",
"i.i.i.X . ;.w.w.7.l   w n n n n b 2     d 6.0.9.o., X w k g h 7 o 7 .       X i.i.i.i.i.i.i.i.i.i.i.",
"i.i.i.%   O.q.w.w.2.o - c n n n j     M 0.q.w.w.6.s o & c h h : o *         + i.i.i.i.i.i.i.i.i.i.i.",
"i.i.i.i.  M w.w.w.0.l X j b n c *   l 7.w.q.w.w.8.< . w k h w # o X         i.i.i.i.i.i.i.i.i.i.i.i.",
"i.i.i.i.X 4 w.w.w.w.4.+ & g c 7   ; 5.w.w.w.w.w.0.< # x k h 2             . i.i.i.i.i.i.i.i.i.i.i.i.",
"i.i.i.i.+ o 7.w.w.9.o.+         # 4.w.q.w.w.w.w.6.$ 2 k h h $             # i.i.i.i.i.i.i.i.i.i.i.i.",
"i.i.i.i.i.. $ B p # . j z q > & X a -.0.w.w.w.9.p   q h h 9               i.i.i.i.i.i.i.i.i.i.i.i.i.",
"i.i.i.i.i.#     . * @ 0 c b b v j * . $ s B B 4 X 2 h h 9 X             $ i.i.i.i.i.i.i.i.i.i.i.i.i.",
"i.i.i.i.i.i..   . > 8 # * w k z c x q * o X o & 8 h w 1 X             . i.i.i.i.i.i.i.i.i.i.i.i.i.i.",
"i.i.i.i.i.i.i.      X * > o @ 2 w h h h g g w g q 1 o                 i.i.i.i.i.i.i.i.i.i.i.i.i.i.i.",
"i.i.i.i.i.i.i.i.        . X .   X & 1 9 9 2 * # .                   * i.i.i.i.i.i.i.i.i.i.i.i.i.i.i.",
"i.i.i.i.i.i.i.i.# .                 . . .           X o o o .     $ i.i.i.i.i.i.i.i.i.i.i.i.i.i.i.i.",
"i.i.i.i.i.i.i.i.i.X                             # 0 h h h h g 0 % . + i.i.i.i.i.i.i.i.i.i.i.i.i.i.i.",
"i.i.i.i.i.i.i.i..   > o                       * g g g h h g h h g 9 o $ i.i.i.i.i.i.i.i.i.i.i.i.i.i.",
"i.i.i.i.i.i.i.o   * 0 0 > .                 & q 0 q q q q g h g g 7 1   i.i.i.i.i.i.i.i.i.i.i.i.i.i.",
"i.i.i.i.i.i.i.> h > * * % * # .         # j 1 * * * : * * 1 g h g 2 > . i.i.i.i.i.i.i.i.i.i.i.i.i.i.",
"i.i.i.i.i.i.@ C %.%.H G H H H A # 9 7 @ h %.%.H H H H H D # 9 g h g & @ i.i.i.i.i.i.i.i.i.i.i.i.i.i.",
"i.i.i.i.i.i.@ * b G %.%.%.%.%.S > 1 2 # # z F %.%.%.%.%.F 2 * 1 2 w *   i.i.i.i.i.i.i.i.i.i.i.i.i.i.",
"i.i.i.i.i.i.$   * c H %.%.%.%.h @ : $ X   # z G %.%.%.%.b $ # @ @ & . X i.i.i.i.i.i.i.i.i.i.i.i.i.i.",
"i.i.i.i.i.i.i.i.o X o % > 1 > X       X o o o X & > 1 > o       X o - i.i.i.i.i.i.i.i.i.i.i.i.i.i.i."
};
