/* XPM */
static char *result[] = {
/* columns rows colors chars-per-pixel */
"50 50 124 2 ",
"   c #010101",
".  c #080706",
"X  c #090807",
"o  c #070708",
"O  c #0C0C0B",
"+  c #100F0D",
"@  c #12110E",
"#  c #0F1010",
"$  c #141413",
"%  c #1B1915",
"&  c #171718",
"*  c #1B1B1B",
"=  c #211D17",
"-  c #211F1B",
";  c #24221C",
":  c #3F2D14",
">  c #31281A",
",  c #1F1F20",
"<  c #1F2020",
"1  c #232424",
"2  c #2E2C23",
"3  c #272728",
"4  c #2B2B2C",
"5  c #333126",
"6  c #38372A",
"7  c #3E3C2E",
"8  c #2F2F30",
"9  c #2F3031",
"0  c #333334",
"q  c #373738",
"w  c #373839",
"e  c #3B3C3D",
"r  c #573E1B",
"t  c #413F30",
"y  c #464434",
"u  c #484636",
"i  c #4A4837",
"p  c #4E4C3A",
"a  c #53503D",
"s  c #72592F",
"d  c #786238",
"f  c #3F3F40",
"g  c #404041",
"h  c #474749",
"j  c #47484A",
"k  c #4A4B4C",
"l  c #575541",
"z  c #595642",
"x  c #4E4F51",
"c  c #4F5052",
"v  c #525254",
"b  c #565759",
"n  c #57585A",
"m  c #58595B",
"M  c #605E47",
"N  c #69664E",
"B  c #6F6B51",
"V  c #716D53",
"C  c #757257",
"Z  c #767358",
"A  c #7A765A",
"S  c #7C785C",
"D  c #5E5F61",
"F  c #626364",
"G  c #6A6B6C",
"H  c #6F6F71",
"J  c #6F7072",
"K  c #747576",
"L  c #7A7B7C",
"P  c #A6752C",
"I  c #F05B28",
"U  c #F1632B",
"Y  c #F26B2D",
"T  c #F37730",
"R  c #F47B31",
"E  c #CF933B",
"W  c #D89737",
"Q  c #F58133",
"!  c #F68F37",
"~  c #F79539",
"^  c #F7983A",
"/  c #F89C3B",
"(  c #E9A43D",
")  c #F9A33D",
"_  c #F6AC3F",
"`  c #F9AA3F",
"'  c #938F6D",
"]  c #979370",
"[  c #ACA77F",
"{  c #EEAA45",
"}  c #F6AF44",
"|  c #FAAF40",
" . c #FAB145",
".. c #F3B14E",
"X. c #FAB34B",
"o. c #FAB752",
"O. c #FAB854",
"+. c #7E7F81",
"@. c #7F8082",
"#. c #818284",
"$. c #8D8D8E",
"%. c #9E9E9E",
"&. c #ACA780",
"*. c #B8B288",
"=. c #BDB88C",
"-. c #A2A2A3",
";. c #B1B1B1",
":. c #BBBBBB",
">. c #C7C193",
",. c #C9C395",
"<. c #CEC899",
"1. c #D6CF9E",
"2. c #E8D393",
"3. c #DBD5A3",
"4. c #E0DAA6",
"5. c #EBE4AE",
"6. c #EDE6B0",
"7. c #EFE8B1",
"8. c gray76",
"9. c #D9D9D9",
"0. c gray91",
"q. c #F3F3F3",
"w. c #FDFDFD",
"e. c None",
/* pixels */
"e.e.e.e.e.e.e.e.e.e.e.e.e.e.e.e.e.e.e.e.e.e.e.e.e.e.e.e.e.e.e.e.e.e.e.e.e.e.e.e.e.e.e.e.e.e.e.e.e.e.",
"e.e.e.e.e.e.e.e.e.e.e.e.e.e.e.e.e.e.e.e.e.e.e.e.e.e.e.e.e.e.e.e.e.e.e.e.e.e.e.e.e.e.e.e.e.e.e.e.e.e.",
"e.e.e.e.e.e.e.e.e.e.e.e.e.e.e.e.e.e.e.e.e.e.e.e.e.e.e.e.e.e.e.e.e.e.e.e.e.e.e.e.e.e.e.e.e.e.e.e.e.e.",
"e.e.e.e.e.e.e.e.e.e.e.e.e.e.e.e.e.e.e.e.e.e.e.e.e.e.e.e.e.e.e.e.e.e.e.e.e.e.e.e.e.e.e.e.e.e.e.e.e.e.",
"e.e.e.e.e.e.e.e.e.e.e.e.e.e.e.e.e.e.e.e.e.e.e.e.e.e.e.e.e.e.e.e.e.e.e.e.e.e.e.X.X.e.e.e. .e.e.e.e.e.",
"e.e.e.e.e.e.e.e.e.e.e.e.e.e.e.e.e.e.e.e.e.e.e.e.e.e.e.e.e.e.e.e.e.e.e.e.e.e.e.o. .e.e. . .e.e.e.e.e.",
"e.e.e.e.e.e.e.e.e.e.e.e.e.e.e.e.e.e.e.e.e.e.e.e.e.e.e.e.e.e.% 5 z C B s : > e...|  . .| X.e.e.e.e.e.",
"e.e.e.e.e.e.e.e.e.e.e.e.e.e.e.e.e.e.e.e.e.e.e.e.e.e.e.e.$ 7 S ,.A 3.Z 2.( W P E ) ) ` )  .e.X. .O.e.",
"e.e.e.e.e.e.e.e.e.e.e.e.e.e.e.e.e.e.e.e.e.e.% + X @ % % ' B [ ; % 5 @ u d } ` ` ) Y T ~ | ` | X.e.e.",
"e.e.e.e.e.e.e.e.e.e.e.e.e.e.e.e.e.e.e.e.e.e.            N B O e.e.e.e.e.% r _ Q U I I Y T ` X.e.e.e.",
"e.e.e.e.e.e.e.e.e.e.e.e.e.e.e.e.$ + O X X                 o e.e.e.e.e.e.e.{ ` ^ U I I I ^  .X.e.e.e.",
"e.e.e.e.e.e.e.e.e.e.e.e.e.$ $ ; 0 e f 0 $ & * O O o o       e.e.e.e.e.X.| | / Q U I I U R ^ | | X.e.",
"e.e.e.e.e.e.e.e.e.e.e.$ & e e q L -.%.F g g g g g g e 1 O o e.e.e.e.e.e.e.X.| ` U Y Y Y ` X. .X.X.e.",
"e.e.e.e.e.e.e.e.e.* & e 0 0 e e 9.w.w.8.g g g g g g g g e O + e.e.e.e.e.e.e. .) ) ! ^ ) )  .e.e.e.e.",
"e.e.e.e.e.e.e.e.+ 3 1 e :.q.9.m F G K b k g g g g g f g f 0 O O e.e.e.e.e.e. . .X.` `  . . .e.e.e.e.",
"e.e.e.e.e.e.e.% 1 + K q.w.w.$.b m m m m m n v g g g g g f g O 1 o e.e.e.e. . .e.e. . .e.e. .X.e.e.e.",
"e.e.e.e.e.e.O O & ;.w.w.w.-.j c m m m m m m m m j g f g g g $ w # O e.e.e.e.e.e.e.X.X.e.e.e.X.e.e.e.",
"e.e.e.e.e.&   $ 8.w.w.w.$.e c m m m m v c m m m b k g g f g 3 f & * O e.e.e.e.e.e.X.e.e.e.e.e.e.e.e.",
"e.e.e.e.e.  $ 8.w.w.w.$.c n n m v 0 4 e b j x m m b h g g g e g 3 3 $ # e.e.e.e.e.e.e.e.e.e.e.e.e.e.",
"e.e.e.e.O o %.w.w.0.K m m n n e 1 g v 0 4 k m m m m v g f f g g 0 8 8 $ e.e.e.e.e.e.e.e.e.e.e.e.e.e.",
"e.e.e.e.  8 w.q.$.v m m m m 0 h m q 4 c m m m m m m m n g g g g f 0 f 1 O e.e.e.e.e.e.e.e.e.e.e.e.e.",
"e.e.e.O O g q $ j m m m m g c b e k m m m m m m m m m m m x g g g f f 3 o e.e.e.e.e.e.e.e.e.e.e.e.e.",
"e.e.e.o 4 o O j m m m m m n m n n m m m m m m m m m m m m m k g g f y 4   - e.e.e.e.e.e.e.e.e.e.e.e.",
"e.e.% o $   e m m m m m m m m m m m m m m m m m m m m m m m k g f f f 4   O e.e.e.e.e.e.e.e.e.e.e.e.",
"e.e.$     4 b m n m m m m m m m m m m m m m m m m m m m m v g g g g g 3     e.e.e.e.e.e.e.e.e.e.e.e.",
"e.e.O   + v m m n m m m m m m m m m m m m m m m m m m m v g g g f g e 1     e.e.e.e.e.e.e.e.e.e.e.e.",
"e.e.    g m b b e m m m m m m m m m m m m m m b m m n k f g g g f g 4 $     e.e.e.e.e.e.e.e.e.e.e.e.",
"e.e.  $ b v g 1 # m m m m m m m m m m m m m k 8 m m v g g g f e g f * O     ; e.e.e.e.e.e.e.e.e.e.e.",
"e.e.  e ,         j m m m m m m m m m m m e o * 4 m v g g g g 4 g e O       2 e.e.e.e.e.e.e.e.e.e.e.",
"e.e.  O O 7 p O   4 m m m m m m m m g & .       , b v g f g g * e 0         e.e.e.e.e.e.e.e.e.e.e.e.",
"e.e.. . ,.7.7.*.X   v m m m m m b 1     O 6 2 O   , b g g g g $ g 1         e.e.e.e.e.e.e.e.e.e.e.e.",
"e.e.$   <.7.7.7.z   0 m m m m m 4     u 3.7.7.3.5 O 4 v f g e   f O         e.e.e.e.e.e.e.e.e.e.e.e.",
"e.e.+   [ 7.7.7.3.@ $ b n m m j     z 5.7.7.7.5.a @ $ j j g 8   0           e.e.e.e.e.e.e.e.e.e.e.e.",
"e.e.e.  C 7.7.7.7.N   k m m m *   5 4.7.7.7.7.7.i   f g j g & o $         $ e.e.e.e.e.e.e.e.e.e.e.e.",
"e.e.e.X 2 7.7.7.7.3.O O q k 4   ; <.7.7.7.7.7.7.p o v v g g               e.e.e.e.e.e.e.e.e.e.e.e.e.",
"e.e.e.$ O >.7.5.<.C O X       O =.7.7.7.7.7.7.5.> & c g g 1             o e.e.e.e.e.e.e.e.e.e.e.e.e.",
"e.e.e.e.  % a 5 o o k v e 3 < O 7 ] 1.7.7.7.5.C   0 g g e o             % e.e.e.e.e.e.e.e.e.e.e.e.e.",
"e.e.e.e.+     O 3 O q b n n m j &   @ i V Z y o < g g f &               e.e.e.e.e.e.e.e.e.e.e.e.e.e.",
"e.e.e.e.e.O     * w $ # q k x x v g 1 O     $ 4 g g 8 O               * e.e.e.e.e.e.e.e.e.e.e.e.e.e.",
"e.e.e.e.e.e.      o 1 1 o O 4 f g g g g g e g f 9 #                 % e.e.e.e.e.e.e.e.e.e.e.e.e.e.e.",
"e.e.e.e.e.e.*           O O     & 0 e e 0 4 $ o                   @ e.e.e.e.e.e.e.e.e.e.e.e.e.e.e.e.",
"e.e.e.e.e.e.e.@                               # & * & & O       + e.e.e.e.e.e.e.e.e.e.e.e.e.e.e.e.e.",
"e.e.e.e.e.e.e.e.;                         O 4 f g g g g g g 1 o O e.e.e.e.e.e.e.e.e.e.e.e.e.e.e.e.e.",
"e.e.e.e.e.e.e.e.O   o                   O q f g g g g f g g f 9   ; e.e.e.e.e.e.e.e.e.e.e.e.e.e.e.e.",
"e.e.e.e.e.e.e.$   O 8 ,                 3 q q q q q e e f g f 3 1 . e.e.e.e.e.e.e.e.e.e.e.e.e.e.e.e.",
"e.e.e.e.e.e.e.O F g 1 < , 1 * O     k v 4 1 < 1 1 1 $ 4 f y f 3 1 . e.e.e.e.e.e.e.e.e.e.e.e.e.e.e.e.",
"e.e.e.e.e.e.* 4 #.#.#.#.#.#.#.L f   K #.#.#.#.#.#.#.G O e f f e O o e.e.e.e.e.e.e.e.e.e.e.e.e.e.e.e.",
"e.e.e.e.e.e.%   w H @.#.#.#.#.L h   1 m +.#.#.#.#.#.F $ 3 4 1 g X   e.e.e.e.e.e.e.e.e.e.e.e.e.e.e.e.",
"e.e.e.e.e.e.e.  X 0 G #.#.#.#.G &     * m @.#.#.#.#.1 X $ O o O   @ e.e.e.e.e.e.e.e.e.e.e.e.e.e.e.e.",
"e.e.e.e.e.e.e.e.= + X $ & & & +     X X X @ $ & & $     o O O @ e.e.e.e.e.e.e.e.e.e.e.e.e.e.e.e.e.e."
};
