/* XPM */
static char *result[] = {
/* columns rows colors chars-per-pixel */
"50 50 132 2 ",
"   c #010101",
".  c #080706",
"X  c #090907",
"o  c #0C0B0B",
"O  c #100E0D",
"+  c #13120E",
"@  c #0F0F10",
"#  c #141313",
"$  c #191613",
"%  c #1B1A15",
"&  c #171818",
"*  c #1B1B1B",
"=  c #211E1A",
"-  c #25221D",
";  c #29291E",
":  c #37241E",
">  c #1F1F20",
",  c #232324",
"<  c #2D2C21",
"1  c #272728",
"2  c #272829",
"3  c #2C2C2C",
"4  c #353428",
"5  c #3F3D2F",
"6  c #2F2F30",
"7  c #333334",
"8  c #373738",
"9  c #373839",
"0  c #3B3B3C",
"q  c #441D17",
"w  c #63221A",
"e  c #6D291F",
"r  c #7F281F",
"t  c #444233",
"y  c #484635",
"u  c #4A4836",
"i  c #53513E",
"p  c #3F3F40",
"a  c #404041",
"s  c #464748",
"d  c #47484A",
"f  c #4B4B4C",
"g  c #575541",
"h  c #5D5A45",
"j  c #4E4F50",
"k  c #4F5052",
"l  c #525354",
"z  c #565759",
"x  c #57585A",
"c  c #58595B",
"v  c #605E47",
"b  c #795541",
"n  c #64624A",
"m  c #68654D",
"M  c #726D54",
"N  c #757256",
"B  c #777458",
"V  c #7B775B",
"C  c #7D795D",
"Z  c #5E5F61",
"A  c #656565",
"S  c #696A6C",
"D  c #6D6E70",
"F  c #727374",
"G  c #767779",
"H  c #777879",
"J  c #7A7B7C",
"K  c #872F24",
"L  c #922E23",
"P  c #923227",
"I  c #9E3226",
"U  c #9F3529",
"Y  c #A1362A",
"T  c #A23A2D",
"R  c #A43E31",
"E  c #A83F34",
"W  c #A64235",
"Q  c #A94437",
"!  c #AA4539",
"~  c #AA4B3C",
"^  c #AD4F40",
"/  c #B34D42",
"(  c #AD5040",
")  c #B75347",
"_  c #B9554A",
"`  c #B15848",
"'  c #BD5B50",
"]  c #BD765B",
"[  c #827F61",
"{  c #C26156",
"}  c #C6655B",
"|  c #C9695F",
" . c #CF7268",
".. c #D3776D",
"X. c #D67B71",
"o. c #96926F",
"O. c #999571",
"+. c #A39E79",
"@. c #ABA67E",
"#. c #DB8177",
"$. c #DD837A",
"%. c #7D7E80",
"&. c #7F8082",
"*. c #818284",
"=. c #898989",
"-. c #979798",
";. c #AFA981",
":. c #B7B187",
">. c #BBB58B",
",. c #9FA0A1",
"<. c #A0A0A0",
"1. c gray70",
"2. c #E48D84",
"3. c #C1BB8F",
"4. c #C4BE91",
"5. c #C8C294",
"6. c #CEC898",
"7. c #D0CA9A",
"8. c #D6D09E",
"9. c #DAD4A1",
"0. c #E2DCA7",
"q. c #E5DEAA",
"w. c #E6E0AB",
"e. c #EBE4AE",
"r. c #EEE7B0",
"t. c #EFE8B1",
"y. c #CDCDCD",
"u. c gainsboro",
"i. c #EBEBEB",
"p. c #F6F6F6",
"a. c #FEFEFE",
"s. c None",
/* pixels */
"s.s.s.s.s.s.s.s.s.s.s.s.s.s.s.s.s.s.s.s.s.s.s.s.s.s.s.s.s.s.s.s.s.s.s.s.s.s.s.s.s.s.s.s.s.s.s.s.s.s.",
"s.s.s.s.s.s.s.s.s.s.s.s.s.s.s.s.s.s.s.s.s.s.s.s.s.s.s.s.s.s.s.s.s.s.s.s.s.s.W s.s.s.s.s.^ s.s.s.s.s.",
"s.s.s.s.s.s.s.s.s.s.s.s.s.s.s.s.s.s.s.s.s.s.s.s.s.s.s.s.s.s.s.s.s.s.s.s.s.s.W T s.s.s.Y s.s.s.s.s.s.",
"s.s.s.s.s.s.s.s.s.s.s.s.s.s.s.s.s.s.s.s.s.s.s.s.s.s.s.s.s.s.s.s.s.s.s.s.s.s.I I W s.T I s.s.s.s.s.s.",
"s.s.s.s.s.s.s.s.s.s.s.s.s.s.s.s.s.s.s.s.s.s.s.s.s.s.s.s.s.% % 4 i b w q : s.T Y U R Y I s.s.s.s.s.s.",
"s.s.s.s.s.s.s.s.s.s.s.s.s.s.s.s.s.s.s.s.s.s.s.s.s.s.s.* < N 6.V q.C ] I L K U E ! I _ I ~ W T T Q s.",
"s.s.s.s.s.s.s.s.s.s.s.s.s.s.s.s.s.s.s.s.s.- % % $ s.$ B o.:.5 % u $ M e I Y T Q #.{ | Y T I I Q s.s.",
"s.s.s.s.s.s.s.s.s.s.s.s.s.s.s.s.s.s.s.s.=           $ O.g $ $ s.s.s.% + K Y ..X.2.2.X...) I Q s.s.s.",
"s.s.s.s.s.s.s.s.s.s.s.s.s.s.s.% # X X                   X s.s.s.s.s.s.s.P I / 2.2.2.2.| I T s.s.s.s.",
"s.s.s.s.s.s.s.s.s.s.s.s.o # , 6 0 9 * . # #               s.s.s.s.s.T I Y ' $.2.2.2.2.$.{ Y Y W s.s.",
"s.s.s.s.s.s.s.s.s.s.+ > 0 0 a J -.J s a p p 0 0 0 7 #   X s.s.s.s.Q W T U I T $.2.2.2.Q I I U U T Q ",
"s.s.s.s.s.s.s.s.# > a 6 3 - c p.a.a.=.p a a a a 0 a p 6 . - s.s.s.s.s.s.s.Y _ } | ..} ' U ( s.s.s.s.",
"s.s.s.s.s.s.s.O 8 > l y.a.,.c S *.G l s a a a p a p a p > . # s.s.s.s.s.! I Y I ! / I T I ~ s.s.s.s.",
"s.s.s.s.s.s.# , # ,.a.a.i.S c c c c c x z d a a a a a a 8 o # + s.s.s.s.Y I R ! Y Y ! Y I R s.s.s.s.",
"s.s.s.s.s.o o 8 i.a.a.p.H f z c c c c c c c l a a p p a p # 3 X # s.s.s.U s.s.s.I I s.s.W I s.s.s.s.",
"s.s.s.s..   f i.a.a.p.S 0 l c c c c c c c c c l a a a a p > 9 & o % s.~ s.s.s.s.T R s.s.s.s.~ s.s.s.",
"s.s.s.O   f p.a.a.i.A z c c c l 8 1 a z l x x c l p a p a 8 0 * * . s.s.s.s.s.s.R Q s.s.s.s.s.s.s.s.",
"s.s.s.  , i.a.a.y.S x c c c 9 > a l 9 3 s x x c x f a a a p a 3 , 3 o s.s.s.s.s.` s.s.s.s.s.s.s.s.s.",
"s.s.o   1.a.u.J z x c c l 6 s x 8 1 d c c c c c x c d a a a a 0 3 0 # % s.s.s.s.s.s.s.s.s.s.s.s.s.s.",
"s.s.  2 A l 3 z c x c c 9 j k 7 s c c c c c c c c c c l a a a a 8 a * X s.s.s.s.s.s.s.s.s.s.s.s.s.s.",
"s.o # 1   * x c c c c z x c k c c c c c c c c c c c c c c s p p p a ,   s.s.s.s.s.s.s.s.s.s.s.s.s.s.",
"s.. 1   # k c c c c c x c c c c c c c c c c c c c c c c c f a a a a ,   $ s.s.s.s.s.s.s.s.s.s.s.s.s.",
"s.    . j c c c c x c c c c c c c c c c c c c c c c c c z a p a a a *   . s.s.s.s.s.s.s.s.s.s.s.s.s.",
"#     7 c c c c c c c c c c c c c c c c c c c c c c x z s p a a a a *   . s.s.s.s.s.s.s.s.s.s.s.s.s.",
"o   & x c c a x c c c c c c c c c c c c c c c c c c l a a a p a a 7 o     s.s.s.s.s.s.s.s.s.s.s.s.s.",
"o   s c x 7 * s c c c c c c c c c c c c c x d c c l a p p a 0 a 0 , .     s.s.s.s.s.s.s.s.s.s.s.s.s.",
"  * a & X .   3 c c c c c c c c c c c c s o s k c s p a a a 3 p 8 #       - s.s.s.s.s.s.s.s.s.s.s.s.",
". * .   #     @ c c c c c c c c c l 0 2     X 7 c s a a a a = p 3         s.s.s.s.s.s.s.s.s.s.s.s.s.",
"+   m 9.t.>.o   a c c c c c x x ,             * z k a a a a o p *         s.s.s.s.s.s.s.s.s.s.s.s.s.",
"+   @.t.t.t.C   * c c c c c x 1     < o.:.O.<   * z a a a 0 X 0 X         s.s.s.s.s.s.s.s.s.s.s.s.s.",
"*   C t.t.t.w.<   j c c c c 7     i w.t.t.t.@.g   1 k a a 3 o 7         . s.s.s.s.s.s.s.s.s.s.s.s.s.",
"s.  t t.t.t.t.O.  8 c c c l .   y q.t.t.t.t.6.<   , z a a & @ *         o s.s.s.s.s.s.s.s.s.s.s.s.s.",
"s.X + 9.t.t.t.t.% X j z z ,   - w.t.t.t.t.t.9.+ o x f a 0   X           - s.s.s.s.s.s.s.s.s.s.s.s.s.",
"s.- X 5.t.t.t.w.g   . & &   $ 4.t.t.t.t.t.t.8.o 2 x s a ,               s.s.s.s.s.s.s.s.s.s.s.s.s.s.",
"s.s.  ; >.:.n $ # 0 * X     M 9.t.t.t.t.t.t.M   s a p 0 .             + s.s.s.s.s.s.s.s.s.s.s.s.s.s.",
"s.s.o           s x c l f 9 . O h ;.0.t.e.O.. & a a a ,               s.s.s.s.s.s.s.s.s.s.s.s.s.s.s.",
"s.s.s..     8 9 . , l x x c z 6 X     o .   * 0 a p * .             % s.s.s.s.s.s.s.s.s.s.s.s.s.s.s.",
"s.s.s.s.      # 6 & X 1 a a s d a 6 * * * 7 a p 7 o               . s.s.s.s.s.s.s.s.s.s.s.s.s.s.s.s.",
"s.s.s.s.#         @ * o . * 8 p a p a a 0 9 , X                   s.s.s.s.s.s.s.s.s.s.s.s.s.s.s.s.s.",
"s.s.s.s.s.$                   o , 1 , # X                       s.s.s.s.s.s.s.s.s.s.s.s.s.s.s.s.s.s.",
"s.s.s.s.s.s.O                         @ 2 7 8 8 7 3 * .       s.s.s.s.s.s.s.s.s.s.s.s.s.s.s.s.s.s.s.",
"s.s.s.s.s.s.s.%                     # 8 a a a a p a p 0 #   s.s.s.s.s.s.s.s.s.s.s.s.s.s.s.s.s.s.s.s.",
"s.s.s.s.s.s.s.,   .               , a a p a a a p p a 9 0 & O s.s.s.s.s.s.s.s.s.s.s.s.s.s.s.s.s.s.s.",
"s.s.s.s.s.s.s.X X X .         X   * , 1 , , , 3 p a a a * 7   s.s.s.s.s.s.s.s.s.s.s.s.s.s.s.s.s.s.s.",
"s.s.s.s.s.s.% 6 *.S l f d 8 . S J Z f f j k j 6 * 0 a a 0 # . , s.s.s.s.s.s.s.s.s.s.s.s.s.s.s.s.s.s.",
"s.s.s.s.s.s.X a *.*.*.*.*.S o F *.*.*.*.*.&.&.H @ 7 9 0 a o . . s.s.s.s.s.s.s.s.s.s.s.s.s.s.s.s.s.s.",
"s.s.s.s.s.s.O   1 x %.&.&.F   X p D *.*.*.*.*.x o 1 * * 8 #   s.s.s.s.s.s.s.s.s.s.s.s.s.s.s.s.s.s.s.",
"s.s.s.s.s.s.s.X X 7 Z F H J 7   > d S F J %.H >   # . . . . s.s.s.s.s.s.s.s.s.s.s.s.s.s.s.s.s.s.s.s.",
"s.s.s.s.s.s.s.s.s.$ o +             + X           X + $ s.s.s.s.s.s.s.s.s.s.s.s.s.s.s.s.s.s.s.s.s.s.",
"s.s.s.s.s.s.s.s.s.s.s.s.s.s.s.s.s.s.s.s.s.s.s.s.s.s.s.s.s.s.s.s.s.s.s.s.s.s.s.s.s.s.s.s.s.s.s.s.s.s."
};
