/* XPM */
static char *result[] = {
/* columns rows colors chars-per-pixel */
"50 50 124 2 ",
"   c #010101",
".  c #080706",
"X  c #080807",
"o  c #0C0B0B",
"O  c #100F0C",
"+  c #12110E",
"@  c #1C170F",
"#  c #0F0F10",
"$  c #141312",
"%  c #181715",
"&  c #1C1A15",
"*  c #1C1C1B",
"=  c #211F1B",
"-  c #24231B",
";  c #28271E",
":  c #29281F",
">  c #332614",
",  c #1F1F20",
"<  c #232324",
"1  c #2F2C26",
"2  c #272728",
"3  c #2B2B2C",
"4  c #312F24",
"5  c #313024",
"6  c #363528",
"7  c #3C3A2D",
"8  c #2F2F30",
"9  c #2F3030",
"0  c #333334",
"q  c #373738",
"w  c #3B3B3C",
"e  c #423926",
"r  c #433C29",
"t  c #474535",
"y  c #4B4837",
"u  c #4E4C3A",
"i  c #514E3C",
"p  c #614821",
"a  c #3F3F40",
"s  c #3F4041",
"d  c #404142",
"f  c #464748",
"g  c #47484A",
"h  c #4B4B4D",
"j  c #575541",
"k  c #595742",
"l  c #5E5B46",
"z  c #4E4F51",
"x  c #4F5051",
"c  c #535355",
"v  c #565758",
"b  c #57585A",
"n  c #58595B",
"m  c #65624B",
"M  c #69664E",
"N  c #6D6A51",
"B  c #7D795D",
"V  c #646466",
"C  c #656668",
"Z  c #6D6D6E",
"A  c #727375",
"S  c #7C7C7E",
"D  c #996B28",
"F  c #F05B28",
"G  c #F1632B",
"H  c #F3712F",
"J  c #F47630",
"K  c #F47B32",
"L  c #817D5F",
"P  c #BC8636",
"I  c #C28833",
"U  c #D79737",
"Y  c #F58334",
"T  c #F68D37",
"R  c #F79137",
"E  c #F79739",
"W  c #F89C3B",
"Q  c #F9A53D",
"!  c #FAAA3F",
"~  c #8A8666",
"^  c #8F8B6A",
"/  c #918C6B",
"(  c #94906E",
")  c #989471",
"_  c #A39F79",
"`  c #A9A37B",
"'  c #DB9C40",
"]  c #D49F48",
"[  c #FAAF40",
"{  c #FAB144",
"}  c #FAB44C",
"|  c #FAB752",
" . c #FAB856",
".. c #FAB959",
"X. c #E7BA67",
"o. c #7F8082",
"O. c #818284",
"+. c #929292",
"@. c #989898",
"#. c #AFAA82",
"$. c #B3AE85",
"%. c #B9B489",
"&. c #BFB98D",
"*. c #A2A2A3",
"=. c #A7A7A8",
"-. c #AAAAAA",
";. c #B3B3B3",
":. c #C1BB8F",
">. c #C4BE91",
",. c #C9C395",
"<. c #D3CD9C",
"1. c #DCD5A3",
"2. c #DFD9A6",
"3. c #E3DCA8",
"4. c #EBE4AE",
"5. c #EDE6B0",
"6. c #EFE8B1",
"7. c #CACACA",
"8. c #D0D0D0",
"9. c gray89",
"0. c #EDEDEE",
"q. c #F6F6F6",
"w. c #FEFEFE",
"e. c None",
/* pixels */
"e.e.e.e.e.e.e.e.e.e.e.e.e.e.e.e.e.e.e.e.e.e.e.e.e.e.e.e.e.e.e.e.e.e.e.e.e.e.e.e.e.e.e.e.e.e.e.e.e.e.",
"e.e.e.e.e.e.e.e.e.e.e.e.e.e.e.e.e.e.e.e.e.e.e.e.e.e.e.e.e.e.e.e.e.e.e.e.e.e.e.e.e.e.e.e.e.e.e.e.e.e.",
"e.e.e.e.e.e.e.e.e.e.e.e.e.e.e.e.e.e.e.e.e.e.e.e.e.e.e.e.e.e.e.e.e.e.e.e.e.e.e.e.e.e.e.e.e.e.e.e.e.e.",
"e.e.e.e.e.e.e.e.e.e.e.e.e.e.e.e.e.e.e.e.e.e.e.e.e.e.e.e.e.e.e.e.e.e.e.e.e.e.e.| e.e.e.e.| e.e.e.e.e.",
"e.e.e.e.e.e.e.e.e.e.e.e.e.e.e.e.e.e.e.e.e.e.e.e.e.e.e.e.e.e.e.e.e.e.e.e.e.e.e.{ { e.e.} } e.e.e.e.e.",
"e.e.e.e.e.e.e.e.e.e.e.e.e.e.e.e.e.e.e.e.e.e.e.e.e.e.e.e.e.e.& : 5 t r > @ e.e.{ { } } ! { e.e.e.e.e.",
"e.e.e.e.e.e.e.e.e.e.e.e.e.e.e.e.e.e.e.e.e.e.e.e.e.e.e.e.$ y / >.` %.` X.U D p U ! ! ! ! | e.e.e...e.",
"e.e.e.e.e.e.e.e.e.e.e.e.e.e.e.e.e.e.e.e.e.e.$   O e.= 4 / _ j m : i i i ] { ! { R T Y Q { ! ! { e.e.",
"e.e.e.e.e.e.e.e.e.e.e.e.e.e.e.e.e.e.e.e.e..           7 $.- & % e.e.e.$ e I ! Y H G F T R ! { e.e.e.",
"e.e.e.e.e.e.e.e.e.e.e.e.e.e.e.+ X o     X               o + e.e.e.e.e.e.e.P ! R F F F G W { e.e.e.e.",
"e.e.e.e.e.e.e.e.e.e.e.e.$ % < 3 w a w * % , o X . .       X e.e.e.e.e.} { ! W H F F F F K ! { } e.e.",
"e.e.e.e.e.e.e.e.e.e.o , 0 w w V -.-.S a d s a a q q 2 o   & e.e.e.e.e.} } { ! W F F F K Q ! ! { } ..",
"e.e.e.e.e.e.e.e.* * d 0 q d 0 -.q.w.0.h r s s a d d d w < . e.e.e.e.e.e.e.e.{ E W H E K ! } e.e.e.e.",
"e.e.e.e.e.e.e.O 2 < q ;.q.q.n n Z A V h f a s f d d d d d X X e.e.e.e.e.e.| ! { { E ! ! ! } e.e.e.e.",
"e.e.e.e.e.e.$ * % Z q.w.w.*.n n n n n n n x f d a d d d d * 2 . 5 e.e.e.e.{ { e.} ! { e.{ [ e.e.e.e.",
"e.e.e.e.e.+ o * -.w.w.w.;.g z b n n n n b n v h d a d d d 0 2 # $ e.e.e.e.} e.e.e.! | e.e.} } e.e.e.",
"e.e.e.e.$   % 7.w.w.w.*.a z b b n b n v n n n b h s d d a q 8 * < . e.e.e.e.e.e.e.{ e.e.e.e.e.e.e.e.",
"e.e.e.e.  % 8.w.w.q.@.c b n n v f 3 8 h x v n n b f s d d w w 0 0   + e.e.e.e.e.e.| e.e.e.e.e.e.e.e.",
"e.e.e.X   ;.w.w.9.O.n n b b g < 0 c f 8 q v n n n v d d d a a q w $ * * e.e.e.e.e.e.e.e.e.e.e.e.e.e.",
"e.e.=   w q.9.+.n n n n b a 0 c f 2 0 v n n n n n n v d d d d w a < 0 o e.e.e.e.e.e.e.e.e.e.e.e.e.e.",
"e.e.. * q < * z n n n n f g b a s v n n n n n b n n n v h a d d a w w X & e.e.e.e.e.e.e.e.e.e.e.e.e.",
"e.e.. 2   o z n n n n n v n v b b b n n n n n n n n n n n z d a a d w X o e.e.e.e.e.e.e.e.e.e.e.e.e.",
"e.% # o . f n n n n n n n n n n b n n n n n n n n n n n n v d d a d w o   e.e.e.e.e.e.e.e.e.e.e.e.e.",
"e.X     q n n n n n n n n n n n n n n n n n n n n n n n n h d d d a a X   & e.e.e.e.e.e.e.e.e.e.e.e.",
"e.    , v n n v n n n n n n n n n n n n n n n n n n n n x d a d d a w X   o e.e.e.e.e.e.e.e.e.e.e.e.",
"e.  X g n n v a n n n n n n n n n n n n n n n b n n v g d d a d a q 3     $ e.e.e.e.e.e.e.e.e.e.e.e.",
"e.  2 v z q 2 * n n n n n n n n n n n n n v f v n v f d a a a r a 3 *     X e.e.e.e.e.e.e.e.e.e.e.e.",
"e.X d , o X   o x n n n n n n n n n n n c , < g v v d a a a q a a < o       e.e.e.e.e.e.e.e.e.e.e.e.",
"e.o o X 1 -     w n n n n n n n n v a 3 $   X $ b c a a a s 8 0 a X       . e.e.e.e.e.e.e.e.e.e.e.e.",
"e.  : <.6.4.l   % v n n n n n n a o           X a n a a a s , 8 w         $ e.e.e.e.e.e.e.e.e.e.e.e.",
"e.  6 6.6.6.3.&   s n n n n b w .   o ~ >.%.B # X a z a a a % 8 3         o e.e.e.e.e.e.e.e.e.e.e.e.",
"e.. - 3.6.6.6.)   3 n n n n h X   - ,.6.5.5.4.m * o c f a a o 8 o         & e.e.e.e.e.e.e.e.e.e.e.e.",
"e.+ o :.6.6.6.1.< X v v n v ,   + ,.5.6.6.6.6.l o - q h a q   3           e.e.e.e.e.e.e.e.e.e.e.e.e.",
"e.=   ^ 6.6.6.6./   8 z v a   # $.6.6.6.6.6.6.i   f c g a *   X         . e.e.e.e.e.e.e.e.e.e.e.e.e.",
"e.e.  m 5.6.6.1.L o   o % . X / 5.6.6.5.6.6.6.u X v h d w .             $ e.e.e.e.e.e.e.e.e.e.e.e.e.",
"e.e.$ o N ( M - o w 6 $     - $.5.6.6.5.6.6.:.+ < g d s <               e.e.e.e.e.e.e.e.e.e.e.e.e.e.",
"e.e.e.      . X < c n n v z ,   < B :.3.3.$.- X w d a q .             % e.e.e.e.e.e.e.e.e.e.e.e.e.e.",
"e.e.e.%     $ w , # s v v n b a %     & & . o 0 d s q o             . e.e.e.e.e.e.e.e.e.e.e.e.e.e.e.",
"e.e.e.e.X     . , < o $ 9 a d g f w < * * 3 a a q *                 e.e.e.e.e.e.e.e.e.e.e.e.e.e.e.e.",
"e.e.e.e.e.        X % # X % 3 w d s s a a w 3 *                   o e.e.e.e.e.e.e.e.e.e.e.e.e.e.e.e.",
"e.e.e.e.e.e..                   % < * $ o                       & e.e.e.e.e.e.e.e.e.e.e.e.e.e.e.e.e.",
"e.e.e.e.e.e.e..                     o * < < < < % X           $ e.e.e.e.e.e.e.e.e.e.e.e.e.e.e.e.e.e.",
"e.e.e.e.e.e.e.e.o                 # 0 a a d d d a w 3 X     * e.e.e.e.e.e.e.e.e.e.e.e.e.e.e.e.e.e.e.",
"e.e.e.e.e.e.e.e.e.$             * a a a a s a d d a w q X + e.e.e.e.e.e.e.e.e.e.e.e.e.e.e.e.e.e.e.e.",
"e.e.e.e.e.e.e.e.e..           X 8 0 q 0 0 q w d s d w 2 2 . e.e.e.e.e.e.e.e.e.e.e.e.e.e.e.e.e.e.e.e.",
"e.e.e.e.e.e.e.e.$ w V w * . Z c 9 < < 2 2 < $ 3 d a d 2 2   e.e.e.e.e.e.e.e.e.e.e.e.e.e.e.e.e.e.e.e.",
"e.e.e.e.e.e.e.e.X n o.O.z * O.O.O.O.O.O.O.O.n $ w a a w $   e.e.e.e.e.e.e.e.e.e.e.e.e.e.e.e.e.e.e.e.",
"e.e.e.e.e.e.e.e.X % z S g . 9 V o.O.O.O.O.S v $ 3 8 < d O   e.e.e.e.e.e.e.e.e.e.e.e.e.e.e.e.e.e.e.e.",
"e.e.e.e.e.e.e.e.+   * v V o . 0 V S o.o.o.A , X , # X # . o e.e.e.e.e.e.e.e.e.e.e.e.e.e.e.e.e.e.e.e.",
"e.e.e.e.e.e.e.e.e.e.+ O $ o     X # $ % % $       X X $ e.e.e.e.e.e.e.e.e.e.e.e.e.e.e.e.e.e.e.e.e.e."
};
