/* XPM */
static char *result[] = {
/* columns rows colors chars-per-pixel */
"50 50 130 2 ",
"   c #010101",
".  c #080706",
"X  c #090807",
"o  c #070708",
"O  c #0C0B0B",
"+  c #100F0C",
"@  c #12110F",
"#  c #0F0F10",
"$  c #141414",
"%  c #181713",
"&  c #1C1A16",
"*  c #171718",
"=  c #1C1C1D",
"-  c #221F1B",
";  c #311A15",
":  c #23211B",
">  c #2A261D",
",  c #2A291F",
"<  c #1F1F20",
"1  c #232323",
"2  c #292621",
"3  c #2B2A20",
"4  c #272728",
"5  c #2B2B2C",
"6  c #333126",
"7  c #363428",
"8  c #3B3A2C",
"9  c #2F2F30",
"0  c #333334",
"q  c #373738",
"w  c #373839",
"e  c #3C3C3D",
"r  c #66251C",
"t  c #6C251D",
"y  c #5B2920",
"u  c #403E2F",
"i  c #5B3229",
"p  c #7C3F33",
"a  c #434131",
"s  c #52503D",
"d  c #3F3F40",
"f  c #3F4041",
"g  c #404041",
"h  c #464748",
"j  c #474848",
"k  c #4A4B4C",
"l  c #595742",
"z  c #5E5B45",
"x  c #4E4F51",
"c  c #4F5052",
"v  c #525355",
"b  c #565759",
"n  c #57585A",
"m  c #58595B",
"M  c #625F49",
"N  c #67644C",
"B  c #706D53",
"V  c #767357",
"C  c #777358",
"Z  c #5F5F61",
"A  c #5F6062",
"S  c #626263",
"D  c #676868",
"F  c #6A6A6C",
"G  c #727273",
"H  c #757678",
"J  c #7C7D7F",
"K  c #8F2D22",
"L  c #9E3226",
"P  c #9F3428",
"I  c #A0362A",
"U  c #A23A2D",
"Y  c #A43E30",
"T  c #A83F33",
"R  c #82503D",
"E  c #A54133",
"W  c #AA4237",
"Q  c #AC453A",
"!  c #AE4C3E",
"~  c #B04A3F",
"^  c #B24D41",
"/  c #B65146",
"(  c #B9554A",
")  c #837F61",
"_  c #C15F54",
"`  c #C46459",
"'  c #CE7066",
"]  c #D1756B",
"[  c #D4796F",
"{  c #D77C72",
"}  c #D87D73",
"|  c #868364",
" . c #8E8A69",
".. c #938E6D",
"X. c #96926F",
"o. c #9E9975",
"O. c #A09C76",
"+. c #A29D78",
"@. c #A6A17B",
"#. c #ACA77F",
"$. c #E0887F",
"%. c #CAA37D",
"&. c #7F8082",
"*. c #818284",
"=. c #868788",
"-. c #8A8B8C",
";. c #AFA981",
":. c #B3AE84",
">. c #BFB98D",
",. c #B0B0B1",
"<. c gray74",
"1. c #E58D84",
"2. c #C9C395",
"3. c #CDC798",
"4. c #CFC899",
"5. c #D3CC9C",
"6. c #D9D3A1",
"7. c #DFD8A5",
"8. c #E1DBA7",
"9. c #E6DFAA",
"0. c #EAE3AD",
"q. c #EEE7B0",
"w. c #EFE8B1",
"e. c #C1C1C2",
"r. c LightGray",
"t. c #DADADA",
"y. c gray92",
"u. c #F5F5F5",
"i. c #FEFEFE",
"p. c None",
/* pixels */
"p.p.p.p.p.p.p.p.p.p.p.p.p.p.p.p.p.p.p.p.p.p.p.p.p.p.p.p.p.p.p.p.p.p.p.p.p.p.p.p.p.p.p.p.p.p.p.p.p.p.",
"p.p.p.p.p.p.p.p.p.p.p.p.p.p.p.p.p.p.p.p.p.p.p.p.p.p.p.p.p.p.p.p.p.p.p.p.p.p.p.Y p.p.p.p.p.p.p.p.p.p.",
"p.p.p.p.p.p.p.p.p.p.p.p.p.p.p.p.p.p.p.p.p.p.p.p.p.p.p.p.p.p.p.p.p.p.p.p.p.p.p.L p.p.p.p.L p.p.p.p.p.",
"p.p.p.p.p.p.p.p.p.p.p.p.p.p.p.p.p.p.p.p.p.p.p.p.p.p.p.p.p.p.p.p.p.p.p.p.p.p.p.L I p.p.I P p.p.p.p.p.",
"p.p.p.p.p.p.p.p.p.p.p.p.p.p.p.p.p.p.p.p.p.p.p.p.p.p.p.p.p.p.$ O : > y ; p.p.p.L L U I L I p.p.p.p.p.",
"p.p.p.p.p.p.p.p.p.p.p.p.p.p.p.p.p.p.p.p.p.p.p.p.p.p.p.p.@ 8 o.#.6.#.%.L K t p L ~ L I T U p.p.p.E ! ",
"p.p.p.p.p.p.p.p.p.p.p.p.p.p.p.p.p.p.p.p.p.p.2 & p.p.% > | 7.8  .l l O.R L L L L ' Q ` Q L L L L E p.",
"p.p.p.p.p.p.p.p.p.p.p.p.p.p.p.p.p.p.p.p.p.            ..>.& + % X & O X r L _ _ ] $.1.~ / T L U p.p.",
"p.p.p.p.p.p.p.p.p.p.p.p.p.p.p.% O + . o O               O & p.p.p.p.p.p.i L P { 1.1.1.1._ L E p.p.p.",
"p.p.p.p.p.p.p.p.p.p.p.p.O O 1 0 e e 1   O #               p.p.p.p.p.p.U L U ` $.1.1.1.1.( I I p.p.p.",
"p.p.p.p.p.p.p.p.p.% o 1 e g e D =.G g g g g 0 d 5 5 O     p.p.p.p.Y I I L I W ` 1.1.1.{ ` ~ L L U p.",
"p.p.p.p.p.p.p.p.O 5 h 5 5 < j i.i.i.<.f g g g g g g g 0 . & p.p.p.p.p.p.p.U L { ' 1.[ { L I Y I E I ",
"p.p.p.p.p.p.p.O w * v r.i.,.m F -.=.b h u g g g g g f f 5   O p.p.p.p.p.p.I U Q I { I / U U p.p.p.p.",
"p.p.p.p.p.2 $ = = <.i.i.u.D m m m m m m v h g g f f g f d . = . p.p.p.p.p.L I I L ~ L I L I p.p.p.p.",
"p.p.p.p.p.O o k y.i.i.i.*.k v m m m m m m m v g g g f f d $ q   o p.p.p.I I E p.I L I p.I L E p.p.p.",
"p.p.p.p.    F i.i.i.u.m q b m m m m m m m m m v g g f f d 1 e O = @ p.p.U p.p.p.U I p.p.p.Y U p.p.p.",
"p.p.p..   G i.i.i.y.Z b m m m m h 4 q v m m m m v d g f f 9 f * 5   p.p.p.p.p.p.p.I p.p.p.p.p.p.p.p.",
"p.p.@   g i.i.i.e.Z m m m m d = q v j 0 e b m m m h f g f f f 4 0 * o p.p.p.p.p.p.U p.p.p.p.p.p.p.p.",
"p.p.  . t.i.t.D b m m m n 5 d b g < w b m m m m m n h f g u f q q 4 - % p.p.p.p.p.p.p.p.p.p.p.p.p.p.",
"p.+   g k 0 9 m m m m n 0 v b 9 d n m m m m m m m m n k g g f f q d 5 . p.p.p.p.p.p.p.p.p.p.p.p.p.p.",
"p.. 1 $   5 m m m m m c m m k n m m m m m m m m m m m m b d d d f f 0   p.p.p.p.p.p.p.p.p.p.p.p.p.p.",
"p.  1   < m m m m m m m m m m m m m m m m m m m m m m m Z x g g f f 0   O p.p.p.p.p.p.p.p.p.p.p.p.p.",
"$     O b m m m m m m m m m m m m m m m m m m m m m m m m h d g f f 0   . p.p.p.p.p.p.p.p.p.p.p.p.p.",
"O     x m m m m m m m m m m m m m m m m m m m m m m m m x g d g g g 5     p.p.p.p.p.p.p.p.p.p.p.p.p.",
"    9 m m n f n m m m m m m m m m m m m m m m m m m m x d f f f g q 1     p.p.p.p.p.p.p.p.p.p.p.p.p.",
"  o b n b q * n m m m m m m m m m m m m m n v n m n g g d g d f g 1 *     2 p.p.p.p.p.p.p.p.p.p.p.p.",
"  w w $ O     k m m m m m m m m m m m m b < h n m h g g g g 0 d g * .     @ p.p.p.p.p.p.p.p.p.p.p.p.",
"  1     .     5 m m m m m m m m m m x f O   1 q m h g g d d 1 g w .       @ p.p.p.p.p.p.p.p.p.p.p.p.",
"    X.9.0.N   o b m m m m m m m w O           d m k g g g g $ g 5         > p.p.p.p.p.p.p.p.p.p.p.p.",
"    w.w.w.0.3   w m m m m m m 1     . s M 7     e v d g g d o d *         p.p.p.p.p.p.p.p.p.p.p.p.p.",
"O   6.w.w.w.:.  * m m m m m 0     6 6.w.w.w.C u   k h g d 0 . d           p.p.p.p.p.p.p.p.p.p.p.p.p.",
"@   :.w.w.w.w.,   b m m m c     6 9.w.w.w.w.;.u   - b g g < O 5           p.p.p.p.p.p.p.p.p.p.p.p.p.",
"p.  M w.w.w.w.+.  0 n n n =   : 8.w.w.w.w.w.2.. O h c g d . # O         O p.p.p.p.p.p.p.p.p.p.p.p.p.",
"p.  a w.w.w.w.0.%   * q 1   O 5.w.w.w.w.w.w.2.  1 n k g 0               p.p.p.p.p.p.p.p.p.p.p.p.p.p.",
"p.@   +.9.2.V % $ *       . >.q.w.w.w.w.w.w...  h k g g O               p.p.p.p.p.p.p.p.p.p.p.p.p.p.",
"p.p.          = b n v e 0 O @ B 5.w.w.w.w.3.O $ h g g 5               $ p.p.p.p.p.p.p.p.p.p.p.p.p.p.",
"p.p.@     # g O = v m m n n 5     : z ) N X o e d g e .             . p.p.p.p.p.p.p.p.p.p.p.p.p.p.p.",
"p.p.p..     O 0 = o 4 g j k v k 4 O     . = e g d 4                 p.p.p.p.p.p.p.p.p.p.p.p.p.p.p.p.",
"p.p.p.p.        $ 4 # . 1 e g g f f f e e g e 4 o                 @ p.p.p.p.p.p.p.p.p.p.p.p.p.p.p.p.",
"p.p.p.p.-           X o     * 0 d d e q 1 $                     . p.p.p.p.p.p.p.p.p.p.p.p.p.p.p.p.p.",
"p.p.p.p.p.%                                                   X p.p.p.p.p.p.p.p.p.p.p.p.p.p.p.p.p.p.",
"p.p.p.p.p.p.-                   = 4 0 0 0 5 < +             + p.p.p.p.p.p.p.p.p.p.p.p.p.p.p.p.p.p.p.",
"p.p.p.p.p.p.p.p..             1 w g g g d f f f 0 .       & p.p.p.p.p.p.p.p.p.p.p.p.p.p.p.p.p.p.p.p.",
"p.p.p.p.p.p.p.p.p.&         0 d g g f g g f f f w w . . p.p.p.p.p.p.p.p.p.p.p.p.p.p.p.p.p.p.p.p.p.p.",
"p.p.p.p.p.p.p.p.p.& .   . O 1 5 5 5 4 5 e e g g e = 4 . p.p.p.p.p.p.p.p.p.p.p.p.p.p.p.p.p.p.p.p.p.p.",
"p.p.p.p.p.p.p.p.p.. 0 = J Z g w q e d 0 O 0 g g g 4 1   p.p.p.p.p.p.p.p.p.p.p.p.p.p.p.p.p.p.p.p.p.p.",
"p.p.p.p.p.p.p.p.p.o 1 g *.&.*.*.*.&.*.*.Z O w g g e o   p.p.p.p.p.p.p.p.p.p.p.p.p.p.p.p.p.p.p.p.p.p.",
"p.p.p.p.p.p.p.p.p.      5 D J *.*.*.*.*.h O 1 0 1 e .   p.p.p.p.p.p.p.p.p.p.p.p.p.p.p.p.p.p.p.p.p.p.",
"p.p.p.p.p.p.p.p.p.O     o f F J *.*.*.H $   * O .   . p.p.p.p.p.p.p.p.p.p.p.p.p.p.p.p.p.p.p.p.p.p.p.",
"p.p.p.p.p.p.p.p.p.p.p.% O + .   . . o .     O O @ p.p.p.p.p.p.p.p.p.p.p.p.p.p.p.p.p.p.p.p.p.p.p.p.p."
};
