/* XPM */
static char *result[] = {
/* columns rows colors chars-per-pixel */
"50 50 128 2 ",
"   c #010101",
".  c #080706",
"X  c #0A0907",
"o  c #0C0B0B",
"O  c #110F0D",
"+  c #13110F",
"@  c #1C170F",
"#  c #0F0F10",
"$  c #0F1010",
"%  c #141313",
"&  c #181613",
"*  c #1C1A15",
"=  c #171718",
"-  c #1C1C1C",
";  c #25231C",
":  c #29281E",
">  c #1F1F20",
",  c #232323",
"<  c #2A2722",
"1  c #2D2B22",
"2  c #272728",
"3  c #2B2C2C",
"4  c #302F24",
"5  c #343327",
"6  c #373528",
"7  c #3C3B2D",
"8  c #2F2F30",
"9  c #333434",
"0  c #373738",
"q  c #3B3B3C",
"w  c #47381E",
"e  c #403E2F",
"r  c #66481E",
"t  c #454333",
"y  c #484635",
"u  c #4E4C3A",
"i  c #524D39",
"p  c #53513D",
"a  c #3F3F40",
"s  c #3F4041",
"d  c #404042",
"f  c #464748",
"g  c #474849",
"h  c #4B4B4D",
"j  c #5F5C46",
"k  c #4E4F51",
"l  c #4F5052",
"z  c #525355",
"x  c #565759",
"c  c #57585A",
"v  c #58595B",
"b  c #605D47",
"n  c #625F48",
"m  c #64614A",
"M  c #736F55",
"N  c #757156",
"B  c #7A775B",
"V  c #7D7A5D",
"C  c #5E5F61",
"Z  c #5F6061",
"A  c #636364",
"S  c #67686A",
"D  c #6B6C6D",
"F  c #6F7072",
"G  c #727374",
"H  c #767779",
"J  c #777879",
"K  c #797A7B",
"L  c #85612A",
"P  c #956A2A",
"I  c #9E7737",
"U  c #B07B2D",
"Y  c #F05A28",
"T  c #F1622A",
"R  c #F26B2D",
"E  c #F3722F",
"W  c #F37530",
"Q  c #F47C31",
"!  c #807C5F",
"~  c #B5843A",
"^  c #F58233",
"/  c #F68935",
"(  c #F79639",
")  c #F89D3B",
"_  c #E9A33C",
"`  c #F9A33D",
"'  c #F4AA3E",
"]  c #FAAA3F",
"[  c #858163",
"{  c #8A8666",
"}  c #8C8867",
"|  c #918C6B",
" . c #979370",
".. c #9B9672",
"X. c #9D9874",
"o. c #A6A17B",
"O. c #A8A37C",
"+. c #FAAF40",
"@. c #FAB144",
"#. c #FAB44B",
"$. c #FAB651",
"%. c #7F8082",
"&. c #818284",
"*. c #868788",
"=. c #8F9090",
"-. c #9C9C9D",
";. c #AFAA82",
":. c #B9B389",
">. c #A0A0A1",
",. c #ADADAE",
"<. c gray69",
"1. c #B9B9B9",
"2. c #C1BC8F",
"3. c #D3CD9C",
"4. c #F1D58E",
"5. c #D7D1A0",
"6. c #DAD4A2",
"7. c #DFD8A5",
"8. c #E4DDA9",
"9. c #EAE3AD",
"0. c #EEE7B0",
"q. c #EFE8B1",
"w. c #C5C6C6",
"e. c #CCCCCC",
"r. c #ECECED",
"t. c #F3F3F3",
"y. c #FEFEFE",
"u. c None",
/* pixels */
"u.u.u.u.u.u.u.u.u.u.u.u.u.u.u.u.u.u.u.u.u.u.u.u.u.u.u.u.u.u.u.u.u.u.u.u.u.u.u.u.u.u.u.u.u.u.u.u.u.u.",
"u.u.u.u.u.u.u.u.u.u.u.u.u.u.u.u.u.u.u.u.u.u.u.u.u.u.u.u.u.u.u.u.u.u.u.u.u.u.u.u.u.u.u.u.u.u.u.u.u.u.",
"u.u.u.u.u.u.u.u.u.u.u.u.u.u.u.u.u.u.u.u.u.u.u.u.u.u.u.u.u.u.u.u.u.u.u.u.u.u.u.#.#.u.u.u.#.u.u.u.u.u.",
"u.u.u.u.u.u.u.u.u.u.u.u.u.u.u.u.u.u.u.u.u.u.u.u.u.u.u.u.u.u.u.u.u.u.u.u.u.u.u.@.+.u.u.u.@.u.u.u.u.u.",
"u.u.u.u.u.u.u.u.u.u.u.u.u.u.u.u.u.u.u.u.u.u.u.u.u.u.u.u.u.u.+ ; t p i w @ u.u.] @.@.u.@.] u.u.u.u.u.",
"u.u.u.u.u.u.u.u.u.u.u.u.u.u.u.u.u.u.u.u.u.u.u.u.u.u.u.u.& 7 { 7.} 5.| 4._ U r ~ ] ] ] ] @.u.u.u.$.u.",
"u.u.u.u.u.u.u.u.u.u.u.u.u.u.u.u.u.u.u.u.u.u.&   X u.u.; B X.V n ; m 7 | I @.@.' ] Q ) / ] @.@.@.#.u.",
"u.u.u.u.u.u.u.u.u.u.u.u.u.u.u.u.u.u.u.u.u.X           1 o.7 * * u.u.u.* ; P ' ^ ^ Y Y Q / ` ] u.u.u.",
"u.u.u.u.u.u.u.u.u.u.u.u.u.u.u.+ O %     .                 o u.u.u.u.u.u.u.L ' ` T Y Y Y Q +.#.u.u.u.",
"u.u.u.u.u.u.u.u.u.u.u.u.% % , 3 0 q q % # > o             X u.u.u.u.u.#.@.+.` E Y Y Y Y R ( +.#.u.u.",
"u.u.u.u.u.u.u.u.u.u.* % 9 q q z &.&.v d d a a a q q , X   o u.u.u.u.#.#.@.@.@.] W Y Y T ` +.+.+.@.#.",
"u.u.u.u.u.u.u.u.& - q 9 9 d 3 ,.y.y.r.g d d d d a d a q , o u.u.u.u.u.u.u.u.#.) ^ ^ W ^ ) @.u.u.u.u.",
"u.u.u.u.u.u.u.o 2 3 - -.r.r.v C K *.S g a a a d a d s s d + . * u.u.u.u.u.u.+.+.+.) ( +.] @.u.u.u.u.",
"u.u.u.u.u.u.% , $ F r.y.y.<.v v c c v c c k d d d d s a d , , o 4 u.u.u.u.#.+.#.$.+.+.$.@.+.u.u.u.u.",
"u.u.u.u.u.+ o , <.y.y.y.w.h k c v v v v c c c g d a t a d 9 - > X & u.u.u.#.u.u.u.@.+.u.u.#.@.u.u.u.",
"u.u.u.u.+   , w.y.y.y.<.q g x v v c v c c C c c k d d s d q 2 3 - o u.u.u.u.u.u.u.@.#.u.u.u.u.u.u.u.",
"u.u.u.*   , e.y.y.t.>.l c v v c g 9 9 h c z v v c f d d d q q 0 2 % o u.u.u.u.u.u.#.u.u.u.u.u.u.u.u.",
"u.u.u.  . 1.y.y.t.=.x v v v k 8 2 d z q 0 h v v v z d d d d d q 9 - - % u.u.u.u.u.u.u.u.u.u.u.u.u.u.",
"u.u.+   A y.t.-.C v v v v d 8 k k 8 3 h v v v v v v z d d d d a q 2 q X u.u.u.u.u.u.u.u.u.u.u.u.u.u.",
"u.u.. = v J 3 g v v v v k a x f 3 k c c v v v v v v v x f a d d d 0 q % % u.u.u.u.u.u.u.u.u.u.u.u.u.",
"u.< X 9   o f v v v v c k c z k v v v v v v v v v v c v x h d d d a d - . u.u.u.u.u.u.u.u.u.u.u.u.u.",
"u.o > . . g v v v v v v v c v v v v v v v v v v v v v v c c d d d a d -   u.u.u.u.u.u.u.u.u.u.u.u.u.",
"u.  .   9 v v v v v v v v v v v v v v v v v v v v v v v c z d d d d q -   + u.u.u.u.u.u.u.u.u.u.u.u.",
"u.    - x v v v v v v v v v v v v v v v v v v v v v v v x f d d d s a =   . u.u.u.u.u.u.u.u.u.u.u.u.",
"%   X k v v l z v v v v v v v v v v v v v v v v v v c z f d a d d q q o   . u.u.u.u.u.u.u.u.u.u.u.u.",
"X   9 c x a 9 0 v v v v v v v v v v v v v v k v v v k d a a d q d 9 2 .     u.u.u.u.u.u.u.u.u.u.u.u.",
"  X h 9 > %   , v v v v v v c v v v v v v d - v v x d d d d d 9 a 3 -       u.u.u.u.u.u.u.u.u.u.u.u.",
"  = $   .     o k v v v v v v v v v z f 3   # - k z d d d d d 2 a ,         u.u.u.u.u.u.u.u.u.u.u.u.",
"X   ; X.5.;.%   8 v v v v v v v k 3           $ k x d d d d 0 - a =         u.u.u.u.u.u.u.u.u.u.u.u.",
"%   B q.q.q.X.  o c v v v v v h $   . 1 m j 5   # k h d a d 2 - q X       . u.u.u.u.u.u.u.u.u.u.u.u.",
"u.  m 0.q.q.9.5   d v v v v x =     [ 9.q.q.0.e : = x d d d = - 2         . u.u.u.u.u.u.u.u.u.u.u.u.",
"u.  6 0.q.0.0. .  2 v v v v 3   . N 0.0.q.q.0.n * X 0 h d q . , o         + u.u.u.u.u.u.u.u.u.u.u.u.",
"u.O o 3.q.q.q.8.y X l v v h .   V q.q.q.q.q.0.n   9 d k a 3   -           u.u.u.u.u.u.u.u.u.u.u.u.u.",
"u.; . 2.q.q.q.0...  # 8 s =   t 8.q.q.q.q.q.0.j   d x f a -             . u.u.u.u.u.u.u.u.u.u.u.u.u.",
"u.u.. 7 3.6.:.n * - #       5 3.q.q.q.q.q.q.0.1 % l f a 9 .             + u.u.u.u.u.u.u.u.u.u.u.u.u.",
"u.u.+   * : .   2 v z q 2 - X u ;.9.q.q.q.q. .  2 d s a -               u.u.u.u.u.u.u.u.u.u.u.u.u.u.",
"u.u.u.      , 2 X a v v c c f =   X y N V y   - a a q 2               + u.u.u.u.u.u.u.u.u.u.u.u.u.u.",
"u.u.u.;       2 9 X % q f h z z s - .   . o 2 d d 0 -               X u.u.u.u.u.u.u.u.u.u.u.u.u.u.u.",
"u.u.u.u.o       o > = X = 8 q d d d q 0 q q d 9 > .                 u.u.u.u.u.u.u.u.u.u.u.u.u.u.u.u.",
"u.u.u.u.u.o         . X .   o , q d d 0 8 > o                     % u.u.u.u.u.u.u.u.u.u.u.u.u.u.u.u.",
"u.u.u.u.u.u.o                     o .                           < u.u.u.u.u.u.u.u.u.u.u.u.u.u.u.u.u.",
"u.u.u.u.u.u.u.o                   . - 0 q q q q 9 2 o         * u.u.u.u.u.u.u.u.u.u.u.u.u.u.u.u.u.u.",
"u.u.u.u.u.u.u.u.=               . ; q d d d d d d d q >   . u.u.u.u.u.u.u.u.u.u.u.u.u.u.u.u.u.u.u.u.",
"u.u.u.u.u.u.u.u.u.X           . 9 d a d d d s d a d q 9 > X u.u.u.u.u.u.u.u.u.u.u.u.u.u.u.u.u.u.u.u.",
"u.u.u.u.u.u.u.u.; % o       - . % = - = = = 2 d d d d , 8 . u.u.u.u.u.u.u.u.u.u.u.u.u.u.u.u.u.u.u.u.",
"u.u.u.u.u.u.u.u.o A %.S a = %.J Z c x c c x 9 - q d q q # o u.u.u.u.u.u.u.u.u.u.u.u.u.u.u.u.u.u.u.u.",
"u.u.u.u.u.u.u.u.X A &.&.g - K &.&.&.&.&.&.&.G O 3 q q d % . . u.u.u.u.u.u.u.u.u.u.u.u.u.u.u.u.u.u.u.",
"u.u.u.u.u.u.u.u.X X 0 S x   = h K &.&.&.&.&.g o > , - 9 %   u.u.u.u.u.u.u.u.u.u.u.u.u.u.u.u.u.u.u.u.",
"u.u.u.u.u.u.u.u.u.X o 9 h -   - d c D J J F =   X .     X u.u.u.u.u.u.u.u.u.u.u.u.u.u.u.u.u.u.u.u.u.",
"u.u.u.u.u.u.u.u.u.u.u.% o X                     X O + u.u.u.u.u.u.u.u.u.u.u.u.u.u.u.u.u.u.u.u.u.u.u."
};
