/* XPM */
static char *result[] = {
/* columns rows colors chars-per-pixel */
"50 50 138 2 ",
"   c #010101",
".  c #080707",
"X  c #090907",
"o  c #0C0C0B",
"O  c #100F0C",
"+  c #13110E",
"@  c #0F0F10",
"#  c #131313",
"$  c #181714",
"%  c #1B1914",
"&  c #171718",
"*  c #1C1C1B",
"=  c #201E1A",
"-  c #26251C",
";  c #1F1F20",
":  c #1F2020",
">  c #232324",
",  c #2A2722",
"<  c #2D2C22",
"1  c #272728",
"2  c #272828",
"3  c #2B2B2C",
"4  c #312F24",
"5  c #333226",
"6  c #36332A",
"7  c #3A382B",
"8  c #2F2F30",
"9  c #2F3030",
"0  c #333334",
"q  c #363738",
"w  c #3C3C3D",
"e  c #4E1D17",
"r  c #43251F",
"t  c #74261D",
"y  c #413F31",
"u  c #6F2E23",
"i  c #782C22",
"p  c #454233",
"a  c #4A4737",
"s  c #4D4B39",
"d  c #3F3F40",
"f  c #3F4041",
"g  c #414142",
"h  c #464748",
"j  c #474849",
"k  c #4A4B4C",
"l  c #5C5A45",
"z  c #4E4F51",
"x  c #4F5051",
"c  c #525355",
"v  c #565759",
"b  c #57585A",
"n  c #58595B",
"m  c #605944",
"M  c #7E5A45",
"N  c #65624B",
"B  c #69664E",
"V  c #6F6C53",
"C  c #737055",
"Z  c #7A755A",
"A  c #5E5F61",
"S  c #636365",
"D  c #676869",
"F  c #6D6E6E",
"G  c #6D6E70",
"H  c #757678",
"J  c #7B7B7D",
"K  c #737476",
"L  c #962F24",
"P  c #8F3125",
"I  c #9E3327",
"U  c #9F3528",
"Y  c #A1362A",
"T  c #A23A2D",
"R  c #A43E31",
"E  c #A83F33",
"W  c #A74335",
"Q  c #AA4337",
"!  c #AB473B",
"~  c #AB4C3D",
"^  c #B04A3E",
"/  c #AD4F40",
"(  c #B44E42",
")  c #AD5141",
"_  c #B65146",
"`  c #BA574C",
"'  c #BC594E",
"]  c #B76452",
"[  c #837F61",
"{  c #C6665B",
"}  c #C8685D",
"|  c #C96A60",
" . c #D67A71",
".. c #858163",
"X. c #8E8A6A",
"o. c #898565",
"O. c #979370",
"+. c #9D9874",
"@. c #A09C77",
"#. c #A8A37C",
"$. c #C38868",
"%. c #DB8177",
"&. c #DD847A",
"*. c #7D7E80",
"=. c #7F8082",
"-. c #818284",
";. c #878889",
":. c #89898B",
">. c #919192",
",. c gray60",
"<. c #AEA981",
"1. c #B2AD84",
"2. c #B5B086",
"3. c #B9B489",
"4. c #BEB98D",
"5. c #A3A3A3",
"6. c #E48D84",
"7. c #C0BA8E",
"8. c #CAC496",
"9. c #CFC999",
"0. c #D6D09F",
"q. c #DAD3A1",
"w. c #DFD9A5",
"e. c #E1DBA7",
"r. c #E6DFAA",
"t. c #E7E0AB",
"y. c #EBE4AE",
"u. c #EEE7B0",
"i. c #EFE8B1",
"p. c #CACACA",
"a. c #C3C3C3",
"s. c #D7D7D7",
"d. c #DADADA",
"f. c #EBEBEB",
"g. c gray89",
"h. c #F5F5F5",
"j. c #FEFEFE",
"k. c None",
/* pixels */
"k.k.k.k.k.k.k.k.k.k.k.k.k.k.k.k.k.k.k.k.k.k.k.k.k.k.k.k.k.k.k.k.k.k.k.k.k.k.k.k.k.k.k.k.k.k.k.k.k.k.",
"k.k.k.k.k.k.k.k.k.k.k.k.k.k.k.k.k.k.k.k.k.k.k.k.k.k.k.k.k.k.k.k.k.k.k.k.k.k.] k.k.k.k.k.k.k.k.k.k.k.",
"k.k.k.k.k.k.k.k.k.k.k.k.k.k.k.k.k.k.k.k.k.k.k.k.k.k.k.k.k.k.k.k.k.k.k.k.k.k./ k.k.k.k.Q ) k.k.k.k.k.",
"k.k.k.k.k.k.k.k.k.k.k.k.k.k.k.k.k.k.k.k.k.k.k.k.k.k.k.k.k.k.k.k.k.k.k.k.k.k.~ Y k.k.k.Y k.k.k.k.k.k.",
"k.k.k.k.k.k.k.k.k.k.k.k.k.k.k.k.k.k.k.k.k.k.k.k.k.k.k.k.k.k.k.k.k.k.k.k.k.k.I I W k.T I k.k.k.k.k.k.",
"k.k.k.k.k.k.k.k.k.k.k.k.k.k.k.k.k.k.k.k.k.k.k.k.k.k.k.k.k.% < s B M i e r k.T Y I T U Y k.k.k.k.k.k.",
"k.k.k.k.k.k.k.k.k.k.k.k.k.k.k.k.k.k.k.k.k.k.k.k.k.k.k.= B ..8.N 9.Z $.I L P Y Q ( U ' I T R Y T k.k.",
"k.k.k.k.k.k.k.k.k.k.k.k.k.k.k.k.k.k.k.k.k.+ + # $ $ 6 X.V O.p O 7 - l u I E Q Q %.} } I R I Y k.k.k.",
"k.k.k.k.k.k.k.k.k.k.k.k.k.k.k.k.k.k.k.k.#           + o.p o k.k.k.k., + t Y  .&.6.6.&.%._ U k.k.k.k.",
"k.k.k.k.k.k.k.k.k.k.k.k.k.k.* * $ X                     + k.k.k.k.k.k.~ U Y ( 6.6.6.6.{ I T k.k.k.k.",
"k.k.k.k.k.k.k.k.k.k.k.+ @ ; 0 w d d * # > $   .         . k.k.k.k.W U I Y `  .6.6.6.6.6.} T I T k.k.",
"k.k.k.k.k.k.k.k.k.# # 3 d y h >.5.J d d d d d y w 0 #   + k.k.k.k.! W W Y I T 6.6.6.&.! I I I I U W ",
"k.k.k.k.k.k.k.k.% 0 q w x q -.f.h.f.D d f f g g f f d 0 . $ k.k.k.k.k.k.k.Y _ ` | } ' ' U k.k.k.k.k.",
"k.k.k.k.k.k.$ * 3 3 J d.h.;.n H :.H z h g f g f f g d g % X $ k.k.k.k.k.R I T I ( ^ Y T I ~ k.k.k.k.",
"k.k.k.k.k.* * $ h d.j.j.a.S n n n n n n v h g g f f g d 0 # # o k.k.k.k.Y Y W ~ I Y Q T I T k.k.k.k.",
"k.k.k.k.# O o G h.j.j.f.S k v n n n n n n n c g f f g f w # > @ # k.k./ T k.k.k.I I k.k.W Y k.k.k.k.",
"k.k.k.k.. o ,.h.j.j.p.z j c n n n b x b n n n x g d f f f > q * @ # k.k.k.k.k.k.T R k.k.k.k.~ k.k.k.",
"k.k.k.X . ;.h.j.j.p.n c n n n k 0 0 j b z b n n z g f g f q f > * X k.k.k.k.k.k.R k.k.k.k.k.k.k.k.k.",
"k.k.o   F j.j.h.5.b n n n c 1 1 z z 8 3 z n n n n j d g g f f q > 2 X k.k.k.k.k.~ k.k.k.k.k.k.k.k.k.",
"k.k.  % g.j.a.D n n n c z 8 x c 8 1 c n n n n n n n j g g f f w 8 w o * k.k.k.k.k.k.k.k.k.k.k.k.k.k.",
"k.# . w z 3 w b n n n v w b h q c n n n n n n n n n n x g g g f w g $ . k.k.k.k.k.k.k.k.k.k.k.k.k.k.",
"k.. > &   3 b b n n b c n n x n n n n n n n n n n n n n v g g g f f *   k.k.k.k.k.k.k.k.k.k.k.k.k.k.",
"k.  *   3 b n n b n b n n n n n n n n n n n n n n n n n n h f g g f *   # k.k.k.k.k.k.k.k.k.k.k.k.k.",
"o     & v n n n n n n n n n n n n n n n n n n n n n n n c g d g g g *   o k.k.k.k.k.k.k.k.k.k.k.k.k.",
"#   X h n n n n n n n n n n n n n n n n n n n n n n n c g g g g d w #   X k.k.k.k.k.k.k.k.k.k.k.k.k.",
"    8 n n n h n n n n n n n n n n n n n n n n n n n z g g g g g w 0 o     k.k.k.k.k.k.k.k.k.k.k.k.k.",
"  X x n c 8 * z n n n n n n n n n n n n n k k n n z g g g g w y q * .     k.k.k.k.k.k.k.k.k.k.k.k.k.",
"  0 q % @     d n n n n n n n n n n n n q @ h z n h g d g g 8 g 9 o       k.k.k.k.k.k.k.k.k.k.k.k.k.",
"  >   X *     2 n n n n n n n n n z 0 ;     . w b h g g g g ; d 1         k.k.k.k.k.k.k.k.k.k.k.k.k.",
"    [ r.u.[   . c n n n n n n c ;             3 v k g g g d @ d %         k.k.k.k.k.k.k.k.k.k.k.k.k.",
"o   8.i.i.i.s   3 n n n n n c #     a 1.7.@.4   ; c g g g q o g X       . k.k.k.k.k.k.k.k.k.k.k.k.k.",
"O   <.i.i.i.2.# # n n n n n 1     N i.i.i.i.X.y   w k g g 1 @ 0         o k.k.k.k.k.k.k.k.k.k.k.k.k.",
"$   [ i.i.i.u.l   k n n n h     C r.i.i.i.i.<.$ o 3 x g g # $ &         + k.k.k.k.k.k.k.k.k.k.k.k.k.",
"k.  s i.i.i.i.2.. * x n x ;   p w.i.i.i.i.i.2.. & c k g q   o           % k.k.k.k.k.k.k.k.k.k.k.k.k.",
"k.o 5 e.i.i.i.q.-   o * #   6 q.i.i.i.i.i.i.1.  0 b h f *             . k.k.k.k.k.k.k.k.k.k.k.k.k.k.",
"k.* . B 9.4.N $ & 9 o     X +.t.i.i.i.i.i.i.N X j g d w               + k.k.k.k.k.k.k.k.k.k.k.k.k.k.",
"k.k.X   + . . X k n c k h 9 o < V #.q.t.q.Z X > g g w *             . k.k.k.k.k.k.k.k.k.k.k.k.k.k.k.",
"k.k.k.    . q > @ w c n b c h : . o - 5 - . * w f d >               % k.k.k.k.k.k.k.k.k.k.k.k.k.k.k.",
"k.k.k.%       * 9 @ o 9 g g h k g 3 % & ; q d d 3 o               X k.k.k.k.k.k.k.k.k.k.k.k.k.k.k.k.",
"k.k.k.k..         ; & . @ 3 d d f g f g f w 3 o                   k.k.k.k.k.k.k.k.k.k.k.k.k.k.k.k.k.",
"k.k.k.k.k.X                   # > 3 > # .                       k.k.k.k.k.k.k.k.k.k.k.k.k.k.k.k.k.k.",
"k.k.k.k.k.k.                          @ > 3 3 8 3 > o         6 k.k.k.k.k.k.k.k.k.k.k.k.k.k.k.k.k.k.",
"k.k.k.k.k.k.k.o                     * 0 g g g g d d g 0 @   k.k.k.k.k.k.k.k.k.k.k.k.k.k.k.k.k.k.k.k.",
"k.k.k.k.k.k.k.#                   > g g g g d g d g w w w o $ k.k.k.k.k.k.k.k.k.k.k.k.k.k.k.k.k.k.k.",
"k.k.k.k.k.k.k.o . @           o . ; 2 3 2 1 3 0 d g g w * 8   k.k.k.k.k.k.k.k.k.k.k.k.k.k.k.k.k.k.k.",
"k.k.k.k.k.k.o h G z q 8 3 $ o F S g 8 3 q q 3 * 3 w g g 0 *   k.k.k.k.k.k.k.k.k.k.k.k.k.k.k.k.k.k.k.",
"k.k.k.k.k.k.X n =.-.-.-.-.x % *.-.-.-.-.-.-.-.D # q w w d o . k.k.k.k.k.k.k.k.k.k.k.k.k.k.k.k.k.k.k.",
"k.k.k.k.k.k.. # h G =.-.-.c   : b H -.-.-.=.J n X > 3 3 w X   k.k.k.k.k.k.k.k.k.k.k.k.k.k.k.k.k.k.k.",
"k.k.k.k.k.k.+ . * k F J -.H * . 3 n H *.-.-.K >   $ o X   . k.k.k.k.k.k.k.k.k.k.k.k.k.k.k.k.k.k.k.k.",
"k.k.k.k.k.k.k.k.% o O X           . O             X O o % k.k.k.k.k.k.k.k.k.k.k.k.k.k.k.k.k.k.k.k.k."
};
