/* XPM */
static char *result[] = {
/* columns rows colors chars-per-pixel */
"50 50 129 2 ",
"   c #010101",
".  c #080706",
"X  c #090907",
"o  c #070808",
"O  c #0C0B0B",
"+  c #100F0C",
"@  c #12110E",
"#  c #0F0F10",
"$  c #141413",
"%  c #191713",
"&  c #1B1A15",
"*  c #1C1B1C",
"=  c #211E1A",
"-  c #24221B",
";  c #2A251B",
":  c #2A291F",
">  c #332C1F",
",  c #1F1F20",
"<  c #232324",
"1  c #282520",
"2  c #2E2B23",
"3  c #272728",
"4  c #2B2C2C",
"5  c #302D24",
"6  c #373528",
"7  c #3B392C",
"8  c #2F2F30",
"9  c #333334",
"0  c #373738",
"q  c #373839",
"w  c #3B3B3C",
"e  c #503F24",
"r  c #444233",
"t  c #4D4B39",
"y  c #514F3C",
"u  c #52503D",
"i  c #715122",
"p  c #74592F",
"a  c #725C32",
"s  c #3F3F40",
"d  c #3F4041",
"f  c #414142",
"g  c #474748",
"h  c #47484A",
"j  c #4B4B4D",
"k  c #575540",
"l  c #5E5B45",
"z  c #4E4F51",
"x  c #4F5051",
"c  c #525355",
"v  c #565759",
"b  c #57585A",
"n  c #58595B",
"m  c #625F49",
"M  c #66634C",
"N  c #69664E",
"B  c #716E54",
"V  c #797559",
"C  c #5E5E60",
"Z  c #5F6061",
"A  c #636465",
"S  c #6C6C6D",
"D  c #6F7072",
"F  c #727272",
"G  c #757678",
"H  c #777879",
"J  c #7B7B7C",
"K  c #936727",
"L  c #F05B28",
"P  c #F1632B",
"I  c #F36F2E",
"U  c #F3722F",
"Y  c #B98A3F",
"T  c #C28935",
"R  c #D89838",
"E  c #F58434",
"W  c #F68A36",
"Q  c #F79438",
"!  c #F89A3A",
"~  c #E6A13C",
"^  c #F9A43D",
"/  c #F7AD3F",
"(  c #FAAB3F",
")  c #A28750",
"_  c #848062",
"`  c #898566",
"'  c #8E8969",
"]  c #938F6D",
"[  c #95906E",
"{  c #9A9672",
"}  c #9D9975",
"|  c #A29E78",
" . c #AAA57E",
".. c #F7AD40",
"X. c #FAAE41",
"o. c #FAB144",
"O. c #FAB44C",
"+. c #FAB652",
"@. c #7E7F81",
"#. c #818284",
"$. c #9D9D9D",
"%. c #ACA780",
"&. c #ADA880",
"*. c #B3AE85",
"=. c #B7B187",
"-. c #BCB68B",
";. c #9F9FA0",
":. c #A3A4A5",
">. c #B7B7B7",
",. c #B6B7B8",
"<. c #C1B482",
"1. c #C4BF91",
"2. c #CAC496",
"3. c #D3CD9C",
"4. c #D6D09E",
"5. c #DAD4A2",
"6. c #DED8A4",
"7. c #E3DCA8",
"8. c #EAE3AD",
"9. c #EEE7B0",
"0. c #EFE8B1",
"q. c #C1C1C1",
"w. c #D4D4D4",
"e. c #DBDBDB",
"r. c gray90",
"t. c #ECECEC",
"y. c #F3F3F3",
"u. c #FFFFFF",
"i. c None",
/* pixels */
"i.i.i.i.i.i.i.i.i.i.i.i.i.i.i.i.i.i.i.i.i.i.i.i.i.i.i.i.i.i.i.i.i.i.i.i.i.i.i.i.i.i.i.i.i.i.i.i.i.i.",
"i.i.i.i.i.i.i.i.i.i.i.i.i.i.i.i.i.i.i.i.i.i.i.i.i.i.i.i.i.i.i.i.i.i.i.i.i.i.i.i.i.i.i.i.i.i.i.i.i.i.",
"i.i.i.i.i.i.i.i.i.i.i.i.i.i.i.i.i.i.i.i.i.i.i.i.i.i.i.i.i.i.i.i.i.i.i.i.i.i.i.O.i.i.i.i.O.i.i.i.i.i.",
"i.i.i.i.i.i.i.i.i.i.i.i.i.i.i.i.i.i.i.i.i.i.i.i.i.i.i.i.i.i.i.i.i.i.i.i.i.i.i.o.O.i.i.o.O.i.i.i.i.i.",
"i.i.i.i.i.i.i.i.i.i.i.i.i.i.i.i.i.i.i.i.i.i.i.i.i.i.i.i.i.i.i.- 2 2 5 ; i.i.i.o.o.i.o.o.O.i.i.i.i.i.",
"i.i.i.i.i.i.i.i.i.i.i.i.i.i.i.i.i.i.i.i.i.i.i.i.i.i.i.i.= r V ' -.} <.Y K i p ( ^ o.( o.O.i.i.O.i.i.",
"i.i.i.i.i.i.i.i.i.i.i.i.i.i.i.i.i.i.i.i.i.i.i.i.i.i.i.% N 2.` ] ` B =.) o./ R / W ^ W ( o.o.o.O.i.i.",
"i.i.i.i.i.i.i.i.i.i.i.i.i.i.i.i.i.i.i.i.i.O       O @ { [ 6 * @ - - @ % a ~ ! W I P P W Q X.o.i.i.i.",
"i.i.i.i.i.i.i.i.i.i.i.i.i.i.i.i.i.i.i.i.&             * r $ i.i.i.i.i.i.e T ^ U L L L I ! X.i.i.i.i.",
"i.i.i.i.i.i.i.i.i.i.i.i.i.= O O * , o                     - i.i.i.i.i.O.o.( W P L L L P W X.o.i.i.i.",
"i.i.i.i.i.i.i.i.i.i.i.$ % 3 q f f f q 3 8 9 & , & & o     1 i.i.i.i.+.O.X.X.^ W L L P E ! ( o.o.o.i.",
"i.i.i.i.i.i.i.i.i.% % 9 q 9 q q.t.r.J f f f f f s s s , . i.i.i.i.i.i.i.i.i.o.E W I U E X.+.i.i.i.i.",
"i.i.i.i.i.i.i.i.* 8 9 j #.F c >.w.w.#.h s f f s f s s f 3 . $ i.i.i.i.i.i.o.o.^ X.W X.^ ( O.i.i.i.i.",
"i.i.i.i.i.i.2 * 3 $ $.y.u.:.n n n C n c z f s f f f f s w O % X i.i.i.i.i.o.o.+.O.( o.O.X.o.i.i.i.i.",
"i.i.i.i.i.* $ $ g e.u.u.e.A n n n n n n n b j f s f f f s * 3 O O i.i.i.i.O.i.i.O.o.O.i.i.o.i.i.i.i.",
"i.i.i.i.i.O O H t.u.u.r.A w c n n n n n n n n c f s d d d 8 8 * * O i.i.i.i.i.i.i.o.i.i.i.i.i.i.i.i.",
"i.i.i.i.  $ F y.u.u.w.C h b n n c h g z n n n n c d f f s 0 0 3 3 O % i.i.i.i.i.i.O.i.i.i.i.i.i.i.i.",
"i.i.i.@   A y.u.u.e.S b n n n d 4 4 h z f c n n n h s f f s f 4 0 % # i.i.i.i.i.i.i.i.i.i.i.i.i.i.i.",
"i.i.%   9 t.u.t.;.n n n n x 8 w c d 4 w c n n n n b j s f f f q w 3 9 O i.i.i.i.i.i.i.i.i.i.i.i.i.i.",
"i.i.. . H e.>.S n n n n z q h z 0 q j b n n n n n n b j f f f f w 9 s   i.i.i.i.i.i.i.i.i.i.i.i.i.i.",
"i.i.  4 3 , < n n n n n g c z s c b n b n n n b n n n n c f f f s f f o O i.i.i.i.i.i.i.i.i.i.i.i.i.",
"i.$ # <   < c n n n n n n n b n n b n n n n n n n n n n n c f f s f s O . i.i.i.i.i.i.i.i.i.i.i.i.i.",
"i.X <   $ x n n n n n n n n n n n n n n n n n n n n n n b c f f f s s O   i.i.i.i.i.i.i.i.i.i.i.i.i.",
"i..   O h n n n n n n n n n n n n n n n n n n n n n n n c g f f f d s .   + i.i.i.i.i.i.i.i.i.i.i.i.",
"%     4 n b n n n n n n n n n n b n n n n n n n n n n b g f w f f s w     O i.i.i.i.i.i.i.i.i.i.i.i.",
"$   # c n b j h n n n n n n n n n n n n n n n n n n x f f f f f s 9 8     . i.i.i.i.i.i.i.i.i.i.i.i.",
"@   w c z 8 , 9 c n n b n n n n n n n n n z 8 c n c g f f f w 0 f 4 &     X i.i.i.i.i.i.i.i.i.i.i.i.",
"O $ f % o o   $ z n n n n n n n n n b b g O , w x x f f e f 9 4 f ,       O i.i.i.i.i.i.i.i.i.i.i.i.",
"$ # X $ r 1   . s n n n n n n n b g < $       & v z h d s d 8 < w $       . i.i.i.i.i.i.i.i.i.i.i.i.",
"@   7 7.9.5.l   * n n n n n n c 3     o - % O   , C h d s d , , 9 O       X i.i.i.i.i.i.i.i.i.i.i.i.",
"% . u 0.0.0.5.% o h n n n n n 4     t %.4.3.&.2 $ 8 z d s s , , *         O i.i.i.i.i.i.i.i.i.i.i.i.",
"i.. 1 9.0.0.0.M   9 n n n n j     1 5.9.0.0.8.l 9 o d d s s # , $         $ i.i.i.i.i.i.i.i.i.i.i.i.",
"i.O   3.0.0.0.4.6 O c n n n $   r 3.0.0.0.0.0.M X 4 f z f 9 . &           i.i.i.i.i.i.i.i.i.i.i.i.i.",
"i.$   } 0.0.0.9._   8 h x 0   % *.0.0.0.0.0.0.N   f c g f *   .         . i.i.i.i.i.i.i.i.i.i.i.i.i.",
"i.i.  V 0.0.0.8.' .   o #   o %.0.0.0.0.0.0.0.k   c j d w               O i.i.i.i.i.i.i.i.i.i.i.i.i.",
"i.i.O @ ` { V - O s 9 * O o - { 6.0.0.8.0.0.-.% * g d d *               i.i.i.i.i.i.i.i.i.i.i.i.i.i.",
"i.i.i.      . o < c b b n b < . O y  .2.2.| O # q f f 0 .             @ i.i.i.i.i.i.i.i.i.i.i.i.i.i.",
"i.i.i.@     O 9 , $ 0 z c c c d < $ X @ % # $ 9 f w < O             . i.i.i.i.i.i.i.i.i.i.i.i.i.i.i.",
"i.i.i.i.O     . * 8 # O 4 d g f f s 9 9 9 q s s 8 O                 i.i.i.i.i.i.i.i.i.i.i.i.i.i.i.i.",
"i.i.i.i.i..         $ $ o O , 9 s d s d w 9 , O                   @ i.i.i.i.i.i.i.i.i.i.i.i.i.i.i.i.",
"i.i.i.i.i.i.                    O $ % O       . o o .           * i.i.i.i.i.i.i.i.i.i.i.i.i.i.i.i.i.",
"i.i.i.i.i.i.i..                           * 8 0 0 q 9 9 3 $ . O i.i.i.i.i.i.i.i.i.i.i.i.i.i.i.i.i.i.",
"i.i.i.i.i.i.i.+                         * 0 s f f f f f s w <   i.i.i.i.i.i.i.i.i.i.i.i.i.i.i.i.i.i.",
"i.i.i.i.i.i.$   % < o                 3 s s s d f f s f f s 9 8 . i.i.i.i.i.i.i.i.i.i.i.i.i.i.i.i.i.",
"i.i.i.i.i.i.$ , * * $             * $ , * , * , * < 0 f f s 4 4 O % i.i.i.i.i.i.i.i.i.i.i.i.i.i.i.i.",
"i.i.i.i.i.@ q J D A A A A n 9 . $ A H S A A A A A w & w s s 0 $ $ X i.i.i.i.i.i.i.i.i.i.i.i.i.i.i.i.",
"i.i.i.i.i.O q @.#.#.#.#.#.#.@.f $ C #.#.#.#.#.#.#.G 4 9 9 0 s < . . i.i.i.i.i.i.i.i.i.i.i.i.i.i.i.i.",
"i.i.i.i.i.O   < n @.#.#.#.#.A 4 .   s S #.#.#.#.#.c , 3 % < 4 *   % i.i.i.i.i.i.i.i.i.i.i.i.i.i.i.i.",
"i.i.i.i.i.i.O @ 3 g c C A C q O     $ 9 j n Z A n < . O . . O X i.i.i.i.i.i.i.i.i.i.i.i.i.i.i.i.i.i.",
"i.i.i.i.i.i.i.i.@ O +             @ O @ @ X           . @ @ i.i.i.i.i.i.i.i.i.i.i.i.i.i.i.i.i.i.i.i."
};
