/* XPM */
static char *result[] = {
/* columns rows colors chars-per-pixel */
"50 50 126 2 ",
"   c #010101",
".  c #080706",
"X  c #090907",
"o  c #0C0C0B",
"O  c #110F0D",
"+  c #12120E",
"@  c #131313",
"#  c #181714",
"$  c #1B1915",
"%  c #171718",
"&  c #1B1B1B",
"*  c #271611",
"=  c #221F1B",
"-  c #25231C",
";  c #28271E",
":  c #1F1F20",
">  c #232323",
",  c #2A2A23",
"<  c #272828",
"1  c #2C2C2D",
"2  c #312E27",
"3  c #353329",
"4  c #3C3A2C",
"5  c #2F2F30",
"6  c #333334",
"7  c #373738",
"8  c #3B3B3C",
"9  c #5E221B",
"0  c #77281F",
"q  c #422820",
"w  c #572820",
"e  c #403E2F",
"r  c #7E2E23",
"t  c #484635",
"y  c #4B4937",
"u  c #4E4C3A",
"i  c #54513E",
"p  c #3F3F40",
"a  c #3F4041",
"s  c #414142",
"d  c #474749",
"f  c #474849",
"g  c #4A4B4D",
"h  c #575540",
"j  c #4E4F50",
"k  c #4F5052",
"l  c #535355",
"z  c #565759",
"x  c #57585A",
"c  c #58595B",
"v  c #605D47",
"b  c #615E48",
"n  c #67644D",
"m  c #6A674E",
"M  c #6D6A51",
"N  c #726F54",
"B  c #757257",
"V  c #5E5F60",
"C  c #616263",
"Z  c #6A6B6D",
"A  c #727274",
"S  c #767779",
"D  c #7A7B7C",
"F  c #9E3226",
"G  c #9F3428",
"H  c #9E3E31",
"J  c #A1362A",
"K  c #A23A2D",
"L  c #A63D31",
"P  c #98523F",
"I  c #A64234",
"U  c #AA4236",
"Y  c #AC4539",
"T  c #AA4A3C",
"R  c #B04A3E",
"E  c #B24C41",
"W  c #B75247",
"Q  c #BC594E",
"!  c #BD5B50",
"~  c #C15F55",
"^  c #C26056",
"/  c #C5655A",
"(  c #C8685E",
")  c #CE7066",
"_  c #CF7168",
"`  c #D3776D",
"'  c #858162",
"]  c #918D6C",
"[  c #9A906E",
"{  c #8E8471",
"}  c #999571",
"|  c #A68D6C",
" . c #A49F79",
".. c #A6A17B",
"X. c #ABA67F",
"o. c #DD847B",
"O. c #7E7F81",
"+. c #7F8082",
"@. c #818284",
"#. c #878788",
"$. c #8E8E8E",
"%. c #939394",
"&. c #9B9C9C",
"*. c #B4AF85",
"=. c #B5B086",
"-. c #BCB68B",
";. c #BEB98D",
":. c #A3A4A4",
">. c gray69",
",. c #E58D84",
"<. c #C2BD90",
"1. c #C8C394",
"2. c #CEC899",
"3. c #D3CD9C",
"4. c #D6D09F",
"5. c #DDD6A4",
"6. c #DED8A5",
"7. c #E1DBA7",
"8. c #E6DFAA",
"9. c #E9E2AD",
"0. c #EEE7B0",
"q. c #EFE8B1",
"w. c gray92",
"e. c #F3F3F3",
"r. c #FEFEFE",
"t. c None",
/* pixels */
"t.t.t.t.t.t.t.t.t.t.t.t.t.t.t.t.t.t.t.t.t.t.t.t.t.t.t.t.t.t.t.t.t.t.t.t.t.t.t.t.t.t.t.t.t.t.t.t.t.t.",
"t.t.t.t.t.t.K t.t.t.t.U t.t.t.t.t.t.t.t.t.t.t.t.t.t.t.t.t.t.t.t.t.t.t.t.t.t.t.t.t.t.t.t.t.t.t.t.t.t.",
"t.t.t.t.t.t.J I t.t.G L t.t.t.t.t.t.t.t.t.t.t.t.t.t.t.t.t.t.t.t.t.t.t.t.t.t.t.t.t.t.t.t.t.t.t.t.t.t.",
"t.t.t.t.t.t.J G I K F K t.t.t.t.t.t.t.t.t.t.t.t.t.t.t.t.t.t.t.t.t.t.t.t.t.t.t.t.t.t.t.t.t.t.t.t.t.t.",
"t.t.I L t.t.K L J J J H 2 9 r P [ ' 4 O t.t.t.t.t.t.t.t.t.t.t.t.t.t.t.t.t.t.t.t.t.t.t.t.t.t.t.t.t.t.",
"t.t.t.J F J J / E Q U F F F I | ..=.<.' y $ t.t.t.t.t.t.t.t.t.t.t.t.t.t.t.t.t.t.t.t.t.t.t.t.t.t.t.t.",
"t.t.t.t.F Y / ` ,.o.~ ~ J F * - $ # - b n } , - $ o $ t.t.t.t.t.t.t.t.t.t.t.t.t.t.t.t.t.t.t.t.t.t.t.",
"t.t.t.t.T F ~ ,.,.,.o.Y F q t.t.t.t.t.$ ; v X           t.t.t.t.t.t.t.t.t.t.t.t.t.t.t.t.t.t.t.t.t.t.",
"t.t.t.K J R ` ,.,.,.o.( L G L t.t.t.t.t.X               o @ # o % t.t.t.t.t.t.t.t.t.t.t.t.t.t.t.t.t.",
"t.I K J J L E ,.,.,._ Y K G G K t.t.t.t.      . o o o : % @ 1 6 1 > % # t.t.t.t.t.t.t.t.t.t.t.t.t.t.",
"t.t.t.t.t.J W Q ` / / U K t.t.t.t.t.t.t.o % 5 p 8 s 8 p p p @.&.$.z 6 < > % t.t.t.t.t.t.t.t.t.t.t.t.",
"t.t.t.t.t.J L F E Y K L L t.t.t.t.t.t.o o 8 s p s s s s s s w.r.r.#.> < 6 6 @ t.t.t.t.t.t.t.t.t.t.t.",
"t.t.t.t.K F K K J K I J F t.t.t.t.t.X % 6 e s s s p s s f k C D Z c :.e.>.6 6 > # t.t.t.t.t.t.t.t.t.",
"t.t.t.t.K t.t.t.J K t.t.I L t.t.% X > & s p s s s s j z c c c c c c A w.r.e.D & & o t.t.t.t.t.t.t.t.",
"t.t.t.t.t.t.t.t.J I t.t.t.T t.t.@ & 6 > p s s p s l c c c c c c c z g &.e.r.w.$.& o % t.t.t.t.t.t.t.",
"t.t.t.t.t.t.t.t.U t.t.t.t.t.t.o % < p 6 s s p p l z c c c f f l c c l d S e.r.r.:.@ . t.t.t.t.t.t.t.",
"t.t.t.t.t.t.t.t.t.t.t.t.t.t.# > < 6 p p p p s k c c c j s d s 5 p j x V l O.w.r.r.%.% X t.t.t.t.t.t.",
"t.t.t.t.t.t.t.t.t.t.t.t.t.t.o 6 1 p s s p p g c c c c z s 1 7 l 5 5 l x V z $.w.r.w.A   t.t.t.t.t.t.",
"t.t.t.t.t.t.t.t.t.t.t.t.t.+ + 8 8 p p s d k c c c c c c c c j 1 f l 8 l z V z l %.e.w.X o t.t.t.t.t.",
"t.t.t.t.t.t.t.t.t.t.t.t.t.  % s s p p g c c c c c c c c c c c c d j l f z z z V d : 6 8   t.t.t.t.t.",
"t.t.t.t.t.t.t.t.t.t.t.t.$   % s p s s l c c c c c c c c c c c c c c c c c c c c c 7 X % & X t.t.t.t.",
"t.t.t.t.t.t.t.t.t.t.t.t.o   % s p s p f z c c c c c c c c c c c c c c c c c c c c l 6   & X t.t.t.t.",
"t.t.t.t.t.t.t.t.t.t.t.t..   @ 8 s s p p f z z c c c c c c c c c c c c c c c c c c c l %     t.t.t.t.",
"t.t.t.t.t.t.t.t.t.t.t.t.    o 6 p p s s s d z c c c c c c c c c c c c c c c c c l V c f     > t.t.t.",
"t.t.t.t.t.t.t.t.t.t.t.t.    o > 8 s 8 s s s g z c j l c c c c c c c c c c c c z 6 l z c %   o t.t.t.",
"t.t.t.t.t.t.t.t.t.t.t.t.      o 8 8 1 s s s s z f p   6 z c c c c c c c c c c d X @ 5 s f   - t.t.t.",
"t.t.t.t.t.t.t.t.t.t.t.t.        6 8 > s s a d z d       : 8 j c c c c c c c c 5         1 o $ t.t.t.",
"t.t.t.t.t.t.t.t.t.t.t.t.        < 8 & s p s g g & . $ - o   o 8 c c c c c c d @ o M ] m % X # t.t.t.",
"t.t.t.t.t.t.t.t.t.t.t.t.        % 6 O s s d d + - m 2.4.=.y     a c c c c c >   n 9.q.q.u   t.t.t.t.",
"t.t.t.t.t.t.t.t.t.t.t.t.o       o 1   p s k >   4 =.q.q.q.9.y   % j c c c z o # 1.q.q.q.4 . t.t.t.t.",
"t.t.t.t.t.t.t.t.t.t.t.t.O         o   5 s f s + X 7.q.q.q.q.5.&   < c c c a   B q.q.q.9.o X t.t.t.t.",
"t.t.t.t.t.t.t.t.t.t.t.t.t.            % a d z & X 9.q.q.q.q.q.;.X X s z g @ e 3.q.q.q...  = t.t.t.t.",
"t.t.t.t.t.t.t.t.t.t.t.t.t.o             8 s d d   =.q.q.q.q.q.q.] + . .   . t -.0.q.0.M   t.t.t.t.t.",
"t.t.t.t.t.t.t.t.t.t.t.t.t.#             & 8 p d o y 7.q.q.0.6.*.i + + % > p % > B =.X.# + t.t.t.t.t.",
"t.t.t.t.t.t.t.t.t.t.t.t.t.t.o           . > 8 s 5 o 3 B B i , @ > a l z c j < o O . . . t.t.t.t.t.t.",
"t.t.t.t.t.t.t.t.t.t.t.t.t.t.t.              @ 1 8 8 > @ + % < s k k g a 5 @ > 6 @     $ t.t.t.t.t.t.",
"t.t.t.t.t.t.t.t.t.t.t.t.t.t.t.+               . > 8 p 8 p s s s a a 1 @ o > & o     X t.t.t.t.t.t.t.",
"t.t.t.t.t.t.t.t.t.t.t.t.t.t.t.t.o                   o % > 6 6 > o .   o o         . t.t.t.t.t.t.t.t.",
"t.t.t.t.t.t.t.t.t.t.t.t.t.t.t.# o                                                 t.t.t.t.t.t.t.t.t.",
"t.t.t.t.t.t.t.t.t.t.t.t.t.# o @ & > > > > & X                                 o @ X + t.t.t.t.t.t.t.",
"t.t.t.t.t.t.t.t.t.t.t.t.+ o < 8 s p s s p 8 1 o                           o > 8 6 % . o t.t.t.t.t.t.",
"t.t.t.t.t.t.t.t.t.t.t.t.. 5 7 s s p p s s s p 8 %                   . o & 6 a p s 8 <   o t.t.t.t.t.",
"t.t.t.t.t.t.t.t.t.t.t.# % > 6 s s s 1 > > > > - @ @             . o > 8 7 > > : > > % o @ t.t.t.t.t.",
"t.t.t.t.t.t.t.t.t.t.t.o % > s s p < 1 z c z z z Z O.8 2 { 2 o + p a s < % l c z z z C +.c o t.t.t.t.",
"t.t.t.t.t.t.t.t.t.t.t.X . 6 8 6 < % Z @.@.@.@.@.@.A > o t.o   > 8 6 6 % d +.@.@.@.@.@.D s   t.t.t.t.",
"t.t.t.t.t.t.t.t.t.t.t.t.  > - % & . 8 @.@.@.@.+.z @   + t.t.  % > & % % > S @.@.@.O.A >   o t.t.t.t.",
"t.t.t.t.t.t.t.t.t.t.t.t.+ o . . o   @ j l l g s > + o t.t.t.t.X . o o   . p l l g d 6 # O t.t.t.t.t.",
"t.t.t.t.t.t.t.t.t.t.t.t.t.t.t.t.t.t.t.t.t.t.t.t.t.t.t.t.t.t.t.t.t.t.t.t.t.t.t.t.t.t.t.t.t.t.t.t.t.t.",
"t.t.t.t.t.t.t.t.t.t.t.t.t.t.t.t.t.t.t.t.t.t.t.t.t.t.t.t.t.t.t.t.t.t.t.t.t.t.t.t.t.t.t.t.t.t.t.t.t.t.",
"t.t.t.t.t.t.t.t.t.t.t.t.t.t.t.t.t.t.t.t.t.t.t.t.t.t.t.t.t.t.t.t.t.t.t.t.t.t.t.t.t.t.t.t.t.t.t.t.t.t."
};
