/* XPM */
static char *result[] = {
/* columns rows colors chars-per-pixel */
"50 50 137 2 ",
"   c #020202",
".  c #080706",
"X  c #090907",
"o  c #0D0C0C",
"O  c #100F0D",
"+  c #12110E",
"@  c #141413",
"#  c #181613",
"$  c #1B1A16",
"%  c #171718",
"&  c #1B1B1B",
"*  c #201F19",
"=  c #23211A",
"-  c #29281E",
";  c #1F1F20",
":  c #1F2021",
">  c #232324",
",  c #2F2D24",
"<  c #272728",
"1  c #272828",
"2  c #2A2A2B",
"3  c #322F27",
"4  c #343227",
"5  c #363529",
"6  c #39372A",
"7  c #3C3B2D",
"8  c #2F2F30",
"9  c #2F3031",
"0  c #333334",
"q  c #373738",
"w  c #3B3B3C",
"e  c #403E30",
"r  c #60451F",
"t  c #584425",
"y  c #444232",
"u  c #4A4837",
"i  c #55523F",
"p  c #765422",
"a  c #7A5723",
"s  c #7D6233",
"d  c #3F3F40",
"f  c #3F4041",
"g  c #414142",
"h  c #464648",
"j  c #474849",
"k  c #4A4B4C",
"l  c #5B5843",
"z  c #4E4F50",
"x  c #4F5052",
"c  c #525354",
"v  c #565759",
"b  c #57585A",
"n  c #58595B",
"m  c #625F48",
"M  c #65624A",
"N  c #6F6C52",
"B  c #716D54",
"V  c #757257",
"C  c #777358",
"Z  c #79765A",
"A  c #7E7A5D",
"S  c #5F5F60",
"D  c #5F6062",
"F  c #626263",
"G  c #666768",
"H  c #6C6C6E",
"J  c #737475",
"K  c #797A7C",
"L  c #F05A28",
"P  c #F1622B",
"I  c #F36D2E",
"U  c #F3722F",
"Y  c #F37430",
"T  c #F47D33",
"R  c #D19236",
"E  c #D1973E",
"W  c #DD9C3D",
"Q  c #F68A36",
"!  c #F79539",
"~  c #F89C3B",
"^  c #EAA43D",
"/  c #F9A33D",
"(  c #F2A93E",
")  c #FAAA3F",
"_  c #9D804A",
"`  c #868263",
"'  c #8A8464",
"]  c #8E8A69",
"[  c #918D6B",
"{  c #94906E",
"}  c #9D9974",
"|  c #A19C77",
" . c #A29E78",
".. c #A5A07A",
"X. c #ABA57E",
"o. c #D69F4D",
"O. c #EBA741",
"+. c #EFA841",
"@. c #FAAE41",
"#. c #FAB145",
"$. c #F7B149",
"%. c #FAB34A",
"&. c #FAB550",
"*. c #FAB958",
"=. c #C0AF79",
"-. c #7E7E80",
";. c #7F8082",
":. c #818284",
">. c gray55",
",. c #9E9E9F",
"<. c #939393",
"1. c #AEA880",
"2. c #B2AD85",
"3. c #B5B087",
"4. c #A4A4A5",
"5. c #ABABAC",
"6. c #AFB0B0",
"7. c gray72",
"8. c #C1BC8F",
"9. c #C4BE91",
"0. c #C6C092",
"q. c #CAC496",
"w. c #CEC898",
"e. c #D2CB9B",
"r. c #DAD4A1",
"t. c #E0DAA6",
"y. c #E5DEAA",
"u. c #EAE3AD",
"i. c #EEE7B0",
"p. c #EFE8B1",
"a. c #CBCBCB",
"s. c gray82",
"d. c #E5E5E5",
"f. c gray93",
"g. c #F3F3F3",
"h. c #FCFCFC",
"j. c None",
/* pixels */
"j.j.j.j.j.j.j.j.j.j.j.j.j.j.j.j.j.j.j.j.j.j.j.j.j.j.j.j.j.j.j.j.j.j.j.j.j.j.j.j.j.j.j.j.j.j.j.j.j.j.",
"j.j.j.j.&.j.j.j.j.*.j.j.j.j.j.j.j.j.j.j.j.j.j.j.j.j.j.j.j.j.j.j.j.j.j.j.j.j.j.j.j.j.j.j.j.j.j.j.j.j.",
"j.j.j.j.#.j.j.j.#.%.j.j.j.j.j.j.j.j.j.j.j.j.j.j.j.j.j.j.j.j.j.j.j.j.j.j.j.j.j.j.j.j.j.j.j.j.j.j.j.j.",
"j.j.j.j.%.#.j.j.#.%.j.j.j.j., 3 j.j.j.j.j.j.j.j.j.j.j.j.j.j.j.j.j.j.j.j.j.j.j.j.j.j.j.j.j.j.j.j.j.j.",
"j.j.j.j.#.) @.#.) o.t r a _ ' { Z m 6 & j.j.j.j.j.j.j.j.j.j.j.j.j.j.j.j.j.j.j.j.j.j.j.j.j.j.j.j.j.j.",
"j.#.#.@.@.! ! ! / W R ^ E =.M X.B 1.' V 5 j.j.j.j.j.j.j.j.j.j.j.j.j.j.j.j.j.j.j.j.j.j.j.j.j.j.j.j.j.",
"j.%.@.@./ Q I I ~ ~ ) +.s y = 7 = 6 ' ] ` , j.j.$ $ j.j.j.j.j.j.j.j.j.j.j.j.j.j.j.j.j.j.j.j.j.j.j.j.",
"j.j.&.) T P L L P Q ( p # j.j.j.j.j.+ y [ *           + j.j.j.j.j.j.j.j.j.j.j.j.j.j.j.j.j.j.j.j.j.j.",
"j.%.#./ T L L L P Q / +.%.j.j.j.j.j.j.o               . @ # @ @ % j.j.j.j.j.j.j.j.j.j.j.j.j.j.j.j.j.",
"%.@.@./ Q P L L I ! / @.#.#.j.j.j.j.j..         .   @ @ X % 0 0 2 ; @ % j.j.j.j.j.j.j.j.j.j.j.j.j.j.",
"j.j.%.#.~ U I U Y @.#.%.j.j.j.j.j.j.j.o   & 0 d w q w g w h n H S f d < % & j.j.j.j.j.j.j.j.j.j.j.j.",
"j.j.j.#./ / ! ! / / %.j.j.j.j.j.j.j.@ o 2 d d g f g g g y ;.d.g.d.S ; d 0 2 & j.j.j.j.j.j.j.j.j.j.j.",
"j.j.j.#.@.#.@.) %.@.@.j.j.j.j.j.j.@ . & d g g d d d d d h F ,.6.,.F K 7.:.h 9 > $ j.j.j.j.j.j.j.j.j.",
"j.j.#.%.j.j.#.#.j.j.#.%.j.j.j.j.o > @ 0 d g d g d d j z b n b S n n ] g.h.s.F < > @ j.j.j.j.j.j.j.j.",
"j.j.j.j.j.j.%.#.j.j.j.j.j.j.j.+ o 0 & w g d d d h x S v S v b b n v n 5.h.h.f.>.@ @ O j.j.j.j.j.j.j.",
"j.j.j.j.j.j.j.%.j.j.j.j.j.j.o @ & w < w f d d d z S v v v v S b v v h g 6.h.h.h.4.@ o & j.j.j.j.j.j.",
"j.j.j.j.j.j.j.j.j.j.j.j.j.@ X > 2 d w d d d h k S c v v c d d k n n n v k 5.h.h.h.5.o . j.j.j.j.j.j.",
"j.j.j.j.j.j.j.j.j.j.j.j.j.& < 2 0 g d d d d z S v S v d d f f 9 1 z n n n S 4.g.h.h.<.  . j.j.j.j.j.",
"j.j.j.j.j.j.j.j.j.j.j.j.X 2 w 0 e f f f d x v c v v v v k d d d z 9 g n n n S K a.h.h.k . @ j.j.j.j.",
"j.j.j.j.j.j.j.j.j.j.j.j.. 2 d w g f f h z c S S S v S v b x d d h x w j v n v n F ,.d.:.@ o j.j.j.j.",
"j.j.j.j.j.j.j.j.j.j.j.@ . 8 d g g g k c S v v v n n n n b S b c j x v j v n n n v w 8 0 2 X j.j.j.j.",
"j.j.j.j.j.j.j.j.j.j.j.. . 0 f f g d x b b b S b n n n n b b b b n v n v v n n n n v 2   & % @ j.j.j.",
"j.j.j.j.j.j.j.j.j.j.j..   0 g d g d k v b v v v n n n n n n n n n n n n n n n n n n c & . @ o j.j.j.",
"j.j.j.j.j.j.j.j.j.j.j.    0 d g d g g z b S S v n n n n b n n n n n n n n n n n n n n f o     j.j.j.",
"j.j.j.j.j.j.j.j.j.j.#     2 0 d g f g g k v n n n n b S v n n n n n n n n n n n n n n v 0     j.j.j.",
"j.j.j.j.j.j.j.j.j.j.@     & < f e f f f f j v n n x b b b b n b n n n n n v n n z g v n c &   j.j.j.",
"j.j.j.j.j.j.j.j.j.j.X     X @ d d q f g f g c v v < d c b b n n n n n n n n n n 8 % 8 k c w   = j.j.",
"j.j.j.j.j.j.j.j.j.j.X       o w 0 0 f f f g c v 9 % . < k v n n n n n n n n n v %   X @ & w @ = j.j.",
"j.j.j.j.j.j.j.j.j.j.O         0 8 < d d f h c x ;     . o ; d k n n n n n n v h .   4 7 = % @ $ j.j.",
"j.j.j.j.j.j.j.j.j.j.@         < 2 ; d d f k g &   7 m l 9 .   ; z v n n n n x %   l r.r.3.7   j.j.j.",
"j.j.j.j.j.j.j.j.j.j.$         @ 2 O d g h k & @ y w.u.u.e.M .   : v n n n n w . = w.p.p.u.l   j.j.j.",
"j.j.j.j.j.j.j.j.j.j.j.        . > . w d k w o % m i.p.p.p.e.u   . h n n n v 2   V p.p.p.t.7 X j.j.j.",
"j.j.j.j.j.j.j.j.j.j.j..         o   2 d k h 2 . l p.p.p.p.p.q.y   = n n n z @ = e.p.p.p.q.= O j.j.j.",
"j.j.j.j.j.j.j.j.j.j.j.O             % w g c w . M p.p.p.p.p.p.w.1   0 x h : o } p.p.p.i.] . j.j.j.j.",
"j.j.j.j.j.j.j.j.j.j.j.j.            . 2 g h h @ e u.p.p.p.p.p.p.3.+   o     @ ` r.p.p.y.M X j.j.j.j.",
"j.j.j.j.j.j.j.j.j.j.j.j.o             @ w g g 2 . ..p.p.p.p.r.9.V + + @ ; d q o = A 2.N @ O j.j.j.j.",
"j.j.j.j.j.j.j.j.j.j.j.j.#               < d d w @ = ` ..} A u * + 9 z z v v k % X X O .   j.j.j.j.j.",
"j.j.j.j.j.j.j.j.j.j.j.j.j.X             . & 0 d w : + o o + & 8 j c c x h 8 % : 0 o     # j.j.j.j.j.",
"j.j.j.j.j.j.j.j.j.j.j.j.j.j..               X ; 0 d q 0 9 q f g h f q > @ @ : ; X     O j.j.j.j.j.j.",
"j.j.j.j.j.j.j.j.j.j.j.j.j.j.j.                  . @ 2 q d f f d 8 % . X % O .       . j.j.j.j.j.j.j.",
"j.j.j.j.j.j.j.j.j.j.j.j.j.j.j.$                         o % & o                   . j.j.j.j.j.j.j.j.",
"j.j.j.j.j.j.j.j.j.j.j.j.j.j.o X o % & & & & O                                     + j.j.j.j.j.j.j.j.",
"j.j.j.j.j.j.j.j.j.j.j.j.j.. @ 8 w g d d f f w > .                             @ @   o j.j.j.j.j.j.j.",
"j.j.j.j.j.j.j.j.j.j.j.j.o ; d e g d g d g f f f 0 X                       o 2 w d 1 . X j.j.j.j.j.j.",
"j.j.j.j.j.j.j.j.j.j.j.j.o 8 8 d g d d w w q w q q &                   . @ 1 0 w w 0 o   + j.j.j.j.j.",
"j.j.j.j.j.j.j.j.j.j.j.O @ ; q d f d > > < 1 < > 1 0 k 0     . X @ & > @ > 1 2 < < 2 w k ; j.j.j.j.j.",
"j.j.j.j.j.j.j.j.j.j.j.. o > d d w 2 1 G K K K K K ;.:.D o o 2 q w w & w J K K K K K :.-.w @ j.j.j.j.",
"j.j.j.j.j.j.j.j.j.j.j.o   < w 2 < % q H :.;.:.:.:.J c 1   X 0 0 8 > @ k K :.:.:.:.K H g @ o j.j.j.j.",
"j.j.j.j.j.j.j.j.j.j.j.j.. @ > & @ @ & c ;.:.:.:.K c > .     & & ; % o 2 H :.:.:.:.J h o   @ j.j.j.j.",
"j.j.j.j.j.j.j.j.j.j.j.j.j.o X         & w w w 0 2 & o + j.j.o X   .     2 w f q 0 > + O j.j.j.j.j.j."
};
