/* XPM */
static char *result[] = {
/* columns rows colors chars-per-pixel */
"50 50 136 2 ",
"   c #010101",
".  c #080706",
"X  c #090907",
"o  c #070708",
"O  c #0C0B0B",
"+  c #110F0C",
"@  c #12110E",
"#  c #141313",
"$  c #181614",
"%  c #1B1A15",
"&  c #171718",
"*  c #1B1B1B",
"=  c #201D1A",
"-  c #23211C",
";  c #29271E",
":  c #2A291F",
">  c #38241E",
",  c #1E1F20",
"<  c #1F2021",
"1  c #232324",
"2  c #282520",
"3  c #2F2B25",
"4  c #272728",
"5  c #272829",
"6  c #2B2B2B",
"7  c #312F24",
"8  c #333226",
"9  c #363429",
"0  c #383629",
"q  c #3D3B2D",
"w  c #2F2F30",
"e  c #2F3031",
"r  c #333333",
"t  c #373738",
"y  c #373839",
"u  c #3B3B3C",
"i  c #4C211A",
"p  c #6A2B21",
"a  c #7F2B21",
"s  c #444232",
"d  c #494736",
"f  c #514E3C",
"g  c #54513E",
"h  c #3F3F40",
"j  c #3F4041",
"k  c #414142",
"l  c #474748",
"z  c #47484A",
"x  c #4A4B4C",
"c  c #565340",
"v  c #585541",
"b  c #5B5843",
"n  c #4E4F50",
"m  c #4F5052",
"M  c #525355",
"N  c #565759",
"B  c #57585A",
"V  c #58595B",
"C  c #625F49",
"Z  c #7A5542",
"A  c #636049",
"S  c #6D6A51",
"D  c #716E54",
"F  c #79765A",
"G  c #7E7A5D",
"H  c #5E5F60",
"J  c #646465",
"K  c #6B6C6E",
"L  c #727374",
"P  c #757678",
"I  c #77787A",
"U  c #7A7B7D",
"Y  c #862E23",
"T  c #882B21",
"R  c #973024",
"E  c #9E3327",
"W  c #9F3428",
"Q  c #A03629",
"!  c #A23A2D",
"~  c #A43E30",
"^  c #A83F34",
"/  c #A64234",
"(  c #A94235",
")  c #AB4539",
"_  c #B0493E",
"`  c #B34E43",
"'  c #AD5040",
"]  c #B85449",
"[  c #BE5D52",
"{  c #B87157",
"}  c #817D60",
"|  c #C5655A",
" . c #CC6D63",
".. c #CE7066",
"X. c #D3776D",
"o. c #D67B71",
"O. c #D87D73",
"+. c #8F8B6A",
"@. c #8D8465",
"#. c #928E6C",
"$. c #9B9572",
"%. c #A19C77",
"&. c #A29E78",
"*. c #A6A17B",
"=. c #ABA67F",
"-. c #DE857C",
";. c #E1897F",
":. c #7D7E80",
">. c #818284",
",. c #8B8B8D",
"<. c #9E9E9E",
"1. c #ADA780",
"2. c #B7B187",
"3. c #BAB48A",
"4. c #9E9FA0",
"5. c #A2A2A2",
"6. c #AEAEAE",
"7. c #E58D84",
"8. c #C2BC90",
"9. c #CBC596",
"0. c #CDC798",
"q. c #CEC898",
"w. c #D6D09E",
"e. c #DBD4A2",
"r. c #DED8A5",
"t. c #E0D9A6",
"y. c #E5DEAA",
"u. c #E7E0AB",
"i. c #EAE3AD",
"p. c #EFE8B1",
"a. c #C3C3C3",
"s. c #D7D7D7",
"d. c #DDDDDD",
"f. c gray92",
"g. c #FDFDFD",
"h. c None",
/* pixels */
"h.h.h.h.h.h.h.h.h.h.h.h.h.h.h.h.h.h.h.h.h.h.h.h.h.h.h.h.h.h.h.h.h.h.h.h.h.h.h.h.h.h.h.h.h.h.h.h.h.h.",
"h.h.h.h.h.h.! h.h.h.h.! h.h.h.h.h.h.h.h.h.h.h.h.h.h.h.h.h.h.h.h.h.h.h.h.h.h.h.h.h.h.h.h.h.h.h.h.h.h.",
"h.h.h.h.h.h.E h.h.h.~ ! h.h.h.h.h.h.h.h.h.h.h.h.h.h.h.h.h.h.h.h.h.h.h.h.h.h.h.h.h.h.h.h.h.h.h.h.h.h.",
"h.h.h.h.h.h.W W h.h.W / h.h.h.h.h.h.h.h.h.h.h.h.h.h.h.h.h.h.h.h.h.h.h.h.h.h.h.h.h.h.h.h.h.h.h.h.h.h.",
"h.h.h.h.h.h.W W ! Q Q ! h.> i p Z c 0 $ h.h.h.h.h.h.h.h.h.h.h.h.h.h.h.h.h.h.h.h.h.h.h.h.h.h.h.h.h.h.",
"h.h.! Q ~ / E ] ! ( ) E Y T R { $.e.#.%.f % h.h.h.h.h.h.h.h.h.h.h.h.h.h.h.h.h.h.h.h.h.h.h.h.h.h.h.h.",
"h.h.h.! E Q E [  . ._ W W E Y @.s F v b q.$.3 = h.h.h.h.h.h.h.h.h.h.h.h.h.h.h.h.h.h.h.h.h.h.h.h.h.h.",
"h.h.h.h.! ) O.o.7.7.o.X.( T + % = h.= # : #.=.$         X h.h.h.h.h.h.h.h.h.h.h.h.h.h.h.h.h.h.h.h.h.",
"h.h.h.h.! Q [ 7.7.7.7.] Q Y h.h.h.h.h.h.h.= X             % 3 2 h.h.h.h.h.h.h.h.h.h.h.h.h.h.h.h.h.h.",
"h.h./ ! Q ` o.7.7.7.7.o.] E Q / h.h.h.h.h.              .     @ * % & # h.h.h.h.h.h.h.h.h.h.h.h.h.h.",
"h.! Q Q E ! ( ;.7.7.-.( Q E W ! ! h.h.h.h.    o * * 6 1 u t w h z l h t 1 @ * h.h.h.h.h.h.h.h.h.h.h.",
"h.h.h.h.h.Q ` |  . .| ` ! h.h.h.h.h.h.h.h.X 4 u k k k h h h z 4.d.d.<.1 6 t 6 % h.h.h.h.h.h.h.h.h.h.",
"h.h.h.h.h.W ( Q ` ] Q ~ E h.h.h.h.h.h.% . 4 j j j k j j j k z <.d.s.<.l >.J e y 2 & h.h.h.h.h.h.h.h.",
"h.h.h.h.~ E W / Q Q ( Q E ~ h.h.h.h.O & o u j j k k j j k x N V V V V V f.g.s.u 1 4 O h.h.h.h.h.h.h.",
"h.h.h.h.W ~ h.h.Q Q h.h./ W h.h.h.# . 6 + j k k k k j x N V V V V V V V ,.g.g.g.U # , $ h.h.h.h.h.h.",
"h.h.h.h.) h.h.h.! ! h.h.h.h.' h.$ # & t = k k k k k M V V V V V V V V m k <.g.g.g.6.& O @ h.h.h.h.h.",
"h.h.h.h.h.h.h.h./ ! h.h.h.h.h.h.. 1 1 u w h h k k n V V V V n z m V V V M j 4.g.g.g.6.O   h.h.h.h.h.",
"h.h.h.h.h.h.h.h.h.) h.h.h.h.h.# & r r k h k h k x V V V x l n l 4 w n V V V M 4.g.g.g.4.. . h.h.h.h.",
"h.h.h.h.h.h.h.h.h.h.h.h.h.h.% , w t u k h k h z V V V V N n t w x l e y V V V H >.f.g.g.J   $ h.h.h.",
"h.h.h.h.h.h.h.h.h.h.h.h.h.h.. 6 y h h s h h n V V V V V V V N l e h m h h V V V B J 5.g.a.# . h.h.h.",
"h.h.h.h.h.h.h.h.h.h.h.h.h.h.  6 h h h k k N V V V V V V V V V V V z u V z x V V V V u , z y   h.h.h.",
"h.h.h.h.h.h.h.h.h.h.h.h.h.+   r k h k k M V V V V V V V V V V V V V V N V N V V V V V e   & & O h.h.",
"h.h.h.h.h.h.h.h.h.h.h.h.h.    r h h k h n V V V V V V V V V V V V V V V V V V V V V V V 1   1 X h.h.",
"h.h.h.h.h.h.h.h.h.h.h.h.h.    w k k k k k V V V V V V V V V V V V V V V V V V V V V V V z #     h.h.",
"h.h.h.h.h.h.h.h.h.h.h.h.%     6 t k k k j l M N V V V V V V V V V V V V V V V V V V B V V h     # h.",
"h.h.h.h.h.h.h.h.h.h.h.h.O     , 6 k k k j k k M V V V V V V V V V V V V V V V V V V h V V M #   + h.",
"h.h.h.h.h.h.h.h.h.h.h.h.%     @ 2 j u u j j k l N V N y V V V V V V V V V V V V V n # e B V k . $ h.",
"h.h.h.h.h.h.h.h.h.h.h.h.$     . # u r r j j k k M M h * , M V V V V V V V V V V V y o o & 1 z & # h.",
"h.h.h.h.h.h.h.h.h.h.h.h.%       o u 5 6 k h k k N N O     O 4 h N V V V V V V V V <         O * % h.",
"h.h.h.h.h.h.h.h.h.h.h.h.O       . r 4 < j k k l N 5             @ x V V V V V V j o   *.y.8.q   O h.",
"h.h.h.h.h.h.h.h.h.h.h.h.%         , 4 # k k k m 1 O 7 &.q.9.D @   # x V V V V B <   D p.p.p.+.  @ h.",
"h.h.h.h.h.h.h.h.h.h.h.h.h.        O 4 O j k x k . ; G i.p.p.i.#.O   1 V V V V M O % t.p.p.p.S   h.h.",
"h.h.h.h.h.h.h.h.h.h.h.h.h.          &   t j x u & O #.i.p.p.p.p.G   o x V V V h   F p.p.p.u.0 o h.h.",
"h.h.h.h.h.h.h.h.h.h.h.h.h.#         .   & k z M w   $.p.p.p.p.p.u.c   & N H n # 2 0.p.p.p.0.+ O h.h.",
"h.h.h.h.h.h.h.h.h.h.h.h.h.h.            O u k n z   #.p.p.p.p.p.p.q.8   , < @   C y.p.p.p.2.o # h.h.",
"h.h.h.h.h.h.h.h.h.h.h.h.h.h.              6 k k z # q e.p.p.p.p.p.u.#.      O 5 O 0 1.y.e.g . h.h.h.",
"h.h.h.h.h.h.h.h.h.h.h.h.h.h.#             . u h k r   d r.p.y.3.C $   r z n V V j o     .   @ h.h.h.",
"h.h.h.h.h.h.h.h.h.h.h.h.h.h.h..             # w k j 5 O O = O   O 1 z B N N m r # 6 1     . h.h.h.h.",
"h.h.h.h.h.h.h.h.h.h.h.h.h.h.h.h.              . 1 t h t 1 & , 4 u x x z k e & @ 6 1 .     $ h.h.h.h.",
"h.h.h.h.h.h.h.h.h.h.h.h.h.h.h.h.#                 . * r u s h h j k u 6 O O , * .       @ h.h.h.h.h.",
"h.h.h.h.h.h.h.h.h.h.h.h.h.h.h.h.h.$                     O & 1 1 1 & .     .           O h.h.h.h.h.h.",
"h.h.h.h.h.h.h.h.h.h.h.h.h.h.h.h.h.2     O # & % & @ .                               + h.h.h.h.h.h.h.",
"h.h.h.h.h.h.h.h.h.h.h.h.h.h.h.h.h.  & t j j j j h h 6 O                             O h.h.h.h.h.h.h.",
"h.h.h.h.h.h.h.h.h.h.h.h.h.h.h.h.. 5 j j j j k k h h h t #                       1 *   O h.h.h.h.h.h.",
"h.h.h.h.h.h.h.h.h.h.h.h.h.h.h.# & w t j j j u u t t u t r                   @ w t t @   # h.h.h.h.h.",
"h.h.h.h.h.h.h.h.h.h.h.h.h.h.h.O * * u k j u & & * * & & * r u           O # , & & * 5 n # h.h.h.h.h.",
"h.h.h.h.h.h.h.h.h.h.h.h.h.h.h.X @ r j j k # n I U U U U :.>.P & 1 6 1 1 P :.I :.I :.:.>.9 @ h.h.h.h.",
"h.h.h.h.h.h.h.h.h.h.h.h.h.h.h.. . u r w 4 O H >.>.>.>.>.>.L u o 6 6 & l :.>.>.>.>.:.:.n @ @ h.h.h.h.",
"h.h.h.h.h.h.h.h.h.h.h.h.h.h.h.+   * # % * O r :.>.>.>.>.L y .   & & # 1 K >.>.>.>.I x O   h.h.h.h.h.",
"h.h.h.h.h.h.h.h.h.h.h.h.h.h.h.h.h.O         o t k l u w # . O .         6 k l k r & . O h.h.h.h.h.h."
};
