/* XPM */
static char *result[] = {
/* columns rows colors chars-per-pixel */
"50 50 129 2 ",
"   c #010101",
".  c #080706",
"X  c #090807",
"o  c #0C0C0B",
"O  c #100E0B",
"+  c #12110E",
"@  c #141313",
"#  c #181713",
"$  c #1C1A15",
"%  c #171718",
"&  c #1C1C1C",
"*  c #201E19",
"=  c #24221C",
"-  c #29261D",
";  c #2A291F",
":  c #30291E",
">  c #1F1F20",
",  c #232424",
"<  c #292621",
"1  c #2C2A21",
"2  c #272728",
"3  c #272828",
"4  c #2B2B2C",
"5  c #323125",
"6  c #353428",
"7  c #38372A",
"8  c #2F2F30",
"9  c #2F3031",
"0  c #333334",
"q  c #3F3A32",
"w  c #373738",
"e  c #373839",
"r  c #3C3C3D",
"t  c #63461D",
"y  c #514128",
"u  c #434131",
"i  c #4A4837",
"p  c #4E4B3A",
"a  c #524F3C",
"s  c #54523E",
"d  c #3F3F40",
"f  c #3F4041",
"g  c #414142",
"h  c #464648",
"j  c #47484A",
"k  c #4A4B4C",
"l  c #565340",
"z  c #585541",
"x  c #4E4F51",
"c  c #4F5052",
"v  c #525354",
"b  c #565758",
"n  c #57585A",
"m  c #58595B",
"M  c #64614A",
"N  c #69664E",
"B  c #7D795D",
"V  c #646567",
"C  c #6A6A6C",
"Z  c #6F7070",
"A  c #727374",
"S  c #757678",
"D  c #7A7B7D",
"F  c #9A6C28",
"G  c #866A38",
"H  c #B17D31",
"J  c #F05B28",
"K  c #F1642B",
"L  c #F2692D",
"P  c #F3722F",
"I  c #F47D32",
"U  c #877246",
"Y  c #827E61",
"T  c #F58133",
"R  c #F68C36",
"E  c #F69037",
"W  c #F79439",
"Q  c #F7993A",
"!  c #F89C3B",
"~  c #EBA53C",
"^  c #F8A33C",
"/  c #F0A83E",
"(  c #F9AA3F",
")  c #858162",
"_  c #898566",
"`  c #8E8A69",
"'  c #938F6D",
"]  c #979370",
"[  c #9A9572",
"{  c #9D9874",
"}  c #A19C77",
"|  c #A39E79",
" . c #ACA77F",
".. c #D29A43",
"X. c #F6AF43",
"o. c #FAAF40",
"O. c #FAB144",
"+. c #FAB34B",
"@. c #FAB651",
"#. c #FAB856",
"$. c #7E7F81",
"%. c #7F8082",
"&. c #818284",
"*. c #9D9E9F",
"=. c #AFA982",
"-. c #B8B389",
";. c #A6A6A6",
":. c #ACACAC",
">. c #B4B4B5",
",. c #C5BF92",
"<. c #D4C58E",
"1. c #C8C294",
"2. c #CDC798",
"3. c #CFC999",
"4. c #D2CC9C",
"5. c #DAD3A1",
"6. c #E4DDA9",
"7. c #E7E0AB",
"8. c #ECE6AF",
"9. c #EEE7B0",
"0. c #EFE8B1",
"q. c gray76",
"w. c #CACACA",
"e. c #DDDDDD",
"r. c #E6E6E6",
"t. c #EEEEEF",
"y. c gray95",
"u. c #FEFEFE",
"i. c None",
/* pixels */
"i.i.i.i.i.i.i.i.i.i.i.i.i.i.i.i.i.i.i.i.i.i.i.i.i.i.i.i.i.i.i.i.i.i.i.i.i.i.i.i.i.i.i.i.i.i.i.i.i.i.",
"i.i.i.i.i.@.i.i.i.i.O.i.i.i.i.i.i.i.i.i.i.i.i.i.i.i.i.i.i.i.i.i.i.i.i.i.i.i.i.i.i.i.i.i.i.i.i.i.i.i.",
"i.i.i.i.i.i.O.i.i.@.O.i.i.i.i.i.i.i.i.i.i.i.i.i.i.i.i.i.i.i.i.i.i.i.i.i.i.i.i.i.i.i.i.i.i.i.i.i.i.i.",
"i.i.i.i.i.i.o.O.i.( O.i.i.1 $ - = = # = i.i.i.i.i.i.i.i.i.i.i.i.i.i.i.i.i.i.i.i.i.i.i.i.i.i.i.i.i.i.",
"i.i.O.i.i.i.o.o.O.( ( y t F ..<.| 2.{ ) 1 # i.i.i.i.i.i.i.i.i.i.i.i.i.i.i.i.i.i.i.i.i.i.i.i.i.i.i.i.",
"i.i.+.O.O.O.o.T ^ T ( ~ O.X.U { M N ` z 4.M $ i.i.i.i.i.i.i.i.i.i.i.i.i.i.i.i.i.i.i.i.i.i.i.i.i.i.i.",
"i.i.i.O.o.Q Q L K P W Q / G + # # # @ $ 7 =.B X .       + i.i.i.i.i.i.i.i.i.i.i.i.i.i.i.i.i.i.i.i.i.",
"i.i.i.i.O.! K J J J P ( H : i.i.i.i.i.i.+ u               < q i.i.i.i.i.i.i.i.i.i.i.i.i.i.i.i.i.i.i.",
"i.i.i.O.o.W L J J J L R o.O.i.i.i.i.i.i.#                     @ & % @ o i.i.i.i.i.i.i.i.i.i.i.i.i.i.",
"i.+.O.O.o.W I J J J R ^ o.o.O.+.i.i.i.i.#       @ @ & & w 4 3 r d d r w & o & i.i.i.i.i.i.i.i.i.i.i.",
"i.i.i.@.#.o.I I K I I o.i.i.i.i.i.i.i.i.=   , r d f g f f f h ;.e.e.&.4 w r 3 o i.i.i.i.i.i.i.i.i.i.",
"i.i.i.i.i.o.! o.I o.^ o.i.i.i.i.i.i.i.$   8 g g d g f f f f k w.t.r.*.h C b 6 d * @ i.i.i.i.i.i.i.i.",
"i.i.i.i.O.o.O.O.( O.O.O.O.i.i.i.i.i.+ % o f f f g g g f g k v m m m m C t.u.w.g , 2 o i.i.i.i.i.i.i.",
"i.i.i.i.O.O.i.+.O.O.i.i.O.i.i.i.i.o . 4 * g f g g g g h b m m m m m m m ;.u.u.y.A o > $ i.i.i.i.i.i.",
"i.i.i.@.i.i.i.i.o.i.i.i.i.#.i.i.@ % % 4 4 g g g g g c m m m m m m m b k k >.u.u.u.;.o + + i.i.i.i.i.",
"i.i.i.i.i.i.i.i.O.i.i.i.i.i.i.i.  2 , 0 w g g g g x m m m n v v m m m m x 0 >.u.u.u.:.@   & i.i.i.i.",
"i.i.i.i.i.i.i.i.#.i.i.i.i.i.i.o o w 4 r d f f f k m m m x v x 0 4 d b m m m c :.u.u.u.:.X . i.i.i.i.",
"i.i.i.i.i.i.i.i.i.i.i.i.i.i.@ , # r e g f f f g n m m m v e 4 h c 8 , x m m m m *.u.u.u.V   @ i.i.i.",
"i.i.i.i.i.i.i.i.i.i.i.i.i.i.. w 4 g f f d d h b m m m m m m v 0 3 x v 8 k m m m n V q.u.r.%   i.i.i.",
"i.i.i.i.i.i.i.i.i.i.i.i.i.# . r r g f f i k b m m m m m m m m m c 0 h n e x m m m m 0 d Z g   @ i.i.",
"i.i.i.i.i.i.i.i.i.i.i.i.i.X . d g g g g x b m m m m m m m m m m m m c n m c m m m m m 0   % > . i.i.",
"i.i.i.i.i.i.i.i.i.i.i.i.i.  . d g g g g n n m m m m m m m m m m m m m m m n m m m m m n &   , . i.i.",
"i.i.i.i.i.i.i.i.i.i.i.i.#   X r g g g g x m m m m m m m m m m m m m m m m m m m m m m m v @   . # i.",
"i.i.i.i.i.i.i.i.i.i.i.i.@   . r r g g g g v m m m m m m m m m m m m m m m m m m m m m m n f     @ i.",
"i.i.i.i.i.i.i.i.i.i.i.i.o     0 e f g d d d x b m m m m m m m m m m m m m m m m m n x m m m &   o i.",
"i.i.i.i.i.i.i.i.i.i.i.i.      2 0 d d d f d d x m m b v m n m m m m m m m n m m m b 2 h b m h . X i.",
"i.i.i.i.i.i.i.i.i.i.i.i.      @ , f 8 d f g d h n m v % h m m m m m m m m m m m m k   . 2 0 c , . i.",
"i.i.i.i.i.i.i.i.i.i.i.i.        % f , d g d u g b k & o . 0 v m m m m m m m m m m w         o 0 . i.",
"i.i.i.i.i.i.i.i.i.i.i.i.        + d > 0 f g g h n j           + r b m m m m m m b @   5 { _ - . X i.",
"i.i.i.i.i.i.i.i.i.i.i.i.o         w > 4 g g f k h . . < p i X     3 n m m n m m f   $ 4.0.0.,.X o i.",
"i.i.i.i.i.i.i.i.i.i.i.i.#         , > % f f j c o ; l 9.0.0.4.6     r m m m m m &   ] 0.0.0.-.  + i.",
"i.i.i.i.i.i.i.i.i.i.i.i.#         + > . f f c 9 . 1 Y 0.0.0.0.5.-   o c m m n v . ; 9.0.0.0.'   + i.",
"i.i.i.i.i.i.i.i.i.i.i.i.i.          %   w r k h & X } 0.0.0.0.0.1.$   3 n n m d   _ 0.0.0.9.s   i.i.",
"i.i.i.i.i.i.i.i.i.i.i.i.i..             , g h b 4    .0.0.0.0.0.0.} X X h x e o & 6.0.9.0.7.*   i.i.",
"i.i.i.i.i.i.i.i.i.i.i.i.i.#             . r d k h . ) 0.0.0.0.0.0.9.B           @ ' 6.9.9.1.X # i.i.",
"i.i.i.i.i.i.i.i.i.i.i.i.i.i.              , d g h # * 2.0.0.0.0.6.-.z X + % 8 x 0   = N ) ;   i.i.i.",
"i.i.i.i.i.i.i.i.i.i.i.i.i.i.+             . w g d w . & [ -.} N *   % h b n m n r o @       @ i.i.i.",
"i.i.i.i.i.i.i.i.i.i.i.i.i.i.i.              X 4 f f 0 o         @ w b m v v k , X 0 9 .     i.i.i.i.",
"i.i.i.i.i.i.i.i.i.i.i.i.i.i.i.*                 % 0 r d 0 3 4 e g h g g e > . & 4 +       = i.i.i.i.",
"i.i.i.i.i.i.i.i.i.i.i.i.i.i.i.i.o                   @ 3 e g g g g f 0 # . X & o         # i.i.i.i.i.",
"i.i.i.i.i.i.i.i.i.i.i.i.i.i.i.i.i.+                       . + & & X                   . i.i.i.i.i.i.",
"i.i.i.i.i.i.i.i.i.i.i.i.i.i.i.i.i.i.X   o & 4 w w w 0 , o                           + i.i.i.i.i.i.i.",
"i.i.i.i.i.i.i.i.i.i.i.i.i.i.i.i.i.&   2 g g g g d g g d 8 +                         i.i.i.i.i.i.i.i.",
"i.i.i.i.i.i.i.i.i.i.i.i.i.i.i.i.i.. , e r g g g f f f d d e +                   &   . i.i.i.i.i.i.i.",
"i.i.i.i.i.i.i.i.i.i.i.i.i.i.i.i.< . 4 4 f f g r 4 , 2 , 2 , + o .           . & & X O o i.i.i.i.i.i.",
"i.i.i.i.i.i.i.i.i.i.i.i.i.i.i.i.+ % # d f g r @ 3 r r e w d v S e   X , d f r d k C A @ i.i.i.i.i.i.",
"i.i.i.i.i.i.i.i.i.i.i.i.i.i.i.i.  O > g r r 2 4 %.&.&.&.&.&.&.&.b . V %.&.&.&.&.%.%.D , i.i.i.i.i.i.",
"i.i.i.i.i.i.i.i.i.i.i.i.i.i.i.i.+   2 r 2 > > 4 A &.&.&.&.$.Z g . X c $.&.&.&.%.D m &   i.i.i.i.i.i.",
"i.i.i.i.i.i.i.i.i.i.i.i.i.i.i.i.i.o   o + . @ o v %.&.&.%.S h @     & D %.%.%.$.m 4 . X i.i.i.i.i.i.",
"i.i.i.i.i.i.i.i.i.i.i.i.i.i.i.i.i.i.i.O . .     o % & % @ X X . .     + % @ @ + . X i.i.i.i.i.i.i.i."
};
