/* XPM */
static char *result[] = {
/* columns rows colors chars-per-pixel */
"50 50 132 2 ",
"   c #010101",
".  c #080706",
"X  c #090907",
"o  c #070708",
"O  c #0C0C0B",
"+  c #100F0D",
"@  c #13110E",
"#  c #0F0F10",
"$  c #141313",
"%  c #191613",
"&  c #1C1A16",
"*  c #1B1B1A",
"=  c #201E17",
"-  c #211E19",
";  c #3E1B16",
":  c #25231C",
">  c #1F1F20",
",  c #232324",
"<  c #292621",
"1  c #2D2C21",
"2  c #272728",
"3  c #272829",
"4  c #2B2B2B",
"5  c #382722",
"6  c #302E24",
"7  c #333029",
"8  c #3D3B2D",
"9  c #2F2F30",
"0  c #333334",
"q  c #373738",
"w  c #373839",
"e  c #3B3B3C",
"r  c #60251D",
"t  c #7C271E",
"y  c #7C2D23",
"u  c #6F3024",
"i  c #454332",
"p  c #594435",
"a  c #3F3F40",
"s  c #414142",
"d  c #464748",
"f  c #474849",
"g  c #4B4B4D",
"h  c #565340",
"j  c #595743",
"k  c #4E4F51",
"l  c #4F5052",
"z  c #535456",
"x  c #565759",
"c  c #57585A",
"v  c #58595B",
"b  c #605E47",
"n  c #615F48",
"m  c #67634C",
"M  c #716E54",
"N  c #757257",
"B  c #7A765A",
"V  c #7F7B5E",
"C  c #5F5F60",
"Z  c #5F6062",
"A  c #646566",
"S  c #666769",
"D  c #67686A",
"F  c #6A6A6C",
"G  c #6F6F71",
"H  c #747475",
"J  c #757678",
"K  c #77787A",
"L  c #797A7C",
"P  c #8D2D22",
"I  c #803026",
"U  c #9E3226",
"Y  c #9F3428",
"T  c #9B3B2E",
"R  c #A0362A",
"E  c #A33A2E",
"W  c #A43E31",
"Q  c #A83F34",
"!  c #A64234",
"~  c #A94236",
"^  c #AB4639",
"/  c #AC493C",
"(  c #B34E42",
")  c #B55045",
"_  c #B75348",
"`  c #B9554A",
"'  c #BC584D",
"]  c #C5655B",
"[  c #CA6B61",
"{  c #CF7268",
"}  c #D07369",
"|  c #D77C72",
" . c #D97E75",
".. c #868263",
"X. c #8A8666",
"o. c #8D8968",
"O. c #938F6D",
"+. c #96916F",
"@. c #999572",
"#. c #A19A76",
"$. c #A9A47E",
"%. c #C38566",
"&. c #DB8177",
"*. c #7F8082",
"=. c #818284",
"-. c #8C8C8D",
";. c #ACA780",
":. c #AEA981",
">. c #B5B086",
",. c #BBB58A",
"<. c #A3A3A4",
"1. c #B3B3B4",
"2. c gray72",
"3. c #E48D84",
"4. c #C6C093",
"5. c #CAC496",
"6. c #CFC99A",
"7. c #D2CC9C",
"8. c #DDD7A4",
"9. c #E1DAA7",
"0. c #E5DFAA",
"q. c #EBE4AE",
"w. c #EEE7B0",
"e. c #EFE8B1",
"r. c #C2C3C3",
"t. c #CACACA",
"y. c gray82",
"u. c #DBDBDB",
"i. c gray92",
"p. c #F4F4F4",
"a. c #FEFEFE",
"s. c None",
/* pixels */
"s.s.s.s.s.s.s.s.s.s.s.s.s.s.s.s.s.s.s.s.s.s.s.s.s.s.s.s.s.s.s.s.s.s.s.s.s.s.s.s.s.s.s.s.s.s.s.s.s.s.",
"s.s.s.s.s.s.s.s.s.s.s.^ s.s.s.s.s.s.s.s.s.s.s.s.s.s.s.s.s.s.s.s.s.s.s.s.s.s.s.s.s.s.s.s.s.s.s.s.s.s.",
"s.s.s.s.s.s.R s.s.s.E ~ s.s.s.s.s.s.s.s.s.s.s.s.s.s.s.s.s.s.s.s.s.s.s.s.s.s.s.s.s.s.s.s.s.s.s.s.s.s.",
"s.s.s.s.s.s.U E s.! U R s.s.s.s.s.s.s.s.s.s.s.s.s.s.s.s.s.s.s.s.s.s.s.s.s.s.s.s.s.s.s.s.s.s.s.s.s.s.",
"s.s.s.s.s.s.U U Q U U E s.5 ; r p 8 : % s.s.s.s.s.s.s.s.s.s.s.s.s.s.s.s.s.s.s.s.s.s.s.s.s.s.s.s.s.s.",
"s.s.E W ^ s.U ( R ~ E T y P U %.o.9.+.$.i % s.s.s.s.s.s.s.s.s.s.s.s.s.s.s.s.s.s.s.s.s.s.s.s.s.s.s.s.",
"s.s.! U U Y U ] ` | E R R U u #.: b j i 6.X.1 - s.s.< s.s.s.s.s.s.s.s.s.s.s.s.s.s.s.s.s.s.s.s.s.s.s.",
"s.s.s.! Y ` ] } 3.3.[ } R t @ + 7 s.* @ : $....         O s.s.s.s.s.s.s.s.s.s.s.s.s.s.s.s.s.s.s.s.s.",
"s.s.s.s.E R [ 3.3.3.3./ U I s.s.s.s.s.s.: @               . O   & < s.s.s.s.s.s.s.s.s.s.s.s.s.s.s.s.",
"s.s.s.E R (  .3.3.3.3. .( Y R ! s.s.s.s.-               X     4 4 2 * O % s.s.s.s.s.s.s.s.s.s.s.s.s.",
"s.E Y U R Q _ &.3.3. .Q U U R R W s.s.s.s.    $ 4 4 0 0 s e e g A v d a 0 $ % s.s.s.s.s.s.s.s.s.s.s.",
"s.s.s./ W R _ |  .{ | ^ E s.s.s.s.s.s.s.- X 9 a s s a s s s z u.a.p.=.& 2 q w $ & s.s.s.s.s.s.s.s.s.",
"s.s.s.s.s.Y / R ' / R Q R s.s.s.s.s.s.%   9 s a s s s a s s f -.1.<.S F u.<.0 4 4 $ s.s.s.s.s.s.s.s.",
"s.s.s.s.! Y Y W E R E R R W s.s.s.s.$ * O e s s a a s s f z v v v v v Z p.a.i.K $ 4 @ s.s.s.s.s.s.s.",
"s.s.s.s.Y R s.s.R R s.s.E R s.s.s.%   9 & a s s s s s z v v v v v v v c -.p.a.a.2.* $ $ s.s.s.s.s.s.",
"s.s.s.s.! s.s.s.R R s.s.s.^ / s.% $ $ w 4 s a s s s x v v v v v v v c g q =.a.a.a.y.& o @ s.s.s.s.s.",
"s.s.s.s.s.s.s.s.W E s.s.s.s.s.s.  2 * a 0 s a a d z v v v v d w g v v v v g *.p.a.a.u.2   % s.s.s.s.",
"s.s.s.s.s.s.s.s.s./ s.s.s.s.s.O $ 0 4 a a s s s g c v v d e z g 4 > g v v v v *.p.a.a.t..   s.s.s.s.",
"s.s.s.s.s.s.s.s.s.s.s.s.s.s.& & 4 w w s a s a f v v v v c c 0 , g x 9 9 c v v v A r.a.a.H   & s.s.s.",
"s.s.s.s.s.s.s.s.s.s.s.s.s.s.. 4 e w s s s s g c v v v v c c c z 9 0 v f w v v v v l S r.1.$ . s.s.s.",
"s.s.s.s.s.s.s.s.s.s.s.s.s.s.  4 a s a s d z v v v v v v c v v v v x s x l g v v v v f O X e   % s.s.",
"s.s.s.s.s.s.s.s.s.s.s.s.s.%   0 s a s s z c v v v v v v v v v v v v v v v v v v v v v s   O , . s.s.",
"s.s.s.s.s.s.s.s.s.s.s.s.s..   0 s s a a k c v v v c v v v v v v v v v v v v v v v v v v 0   $   s.s.",
"s.s.s.s.s.s.s.s.s.s.s.s.s.    4 a s s s s c v v v v v v v v v v v v v v v v v v v v v v z *     s.s.",
"s.s.s.s.s.s.s.s.s.s.s.s.s.    3 w s s s a d z v v v v v v v v v v v v v v v v v v v x v v k .   % s.",
"s.s.s.s.s.s.s.s.s.s.s.s.*     & 4 s s s a s s l v v v v v v v v v v v v v v v v v x 0 x v v ,   * s.",
"s.s.s.s.s.s.s.s.s.s.s.s.      X & a a w a a s s c c x 3 z v v v v v v v v v v v v f O $ s k k O O s.",
"s.s.s.s.s.s.s.s.s.s.s.s.&       # e w 0 a s a a z z w & $ g v v v v v v v v v v v 9         4 ,   s.",
"s.s.s.s.s.s.s.s.s.s.s.s..         q q , a s s a z c O       O , g v v v v v v v x #   : N i . # @ s.",
"s.s.s.s.s.s.s.s.s.s.s.s.:         2 q $ s s a d c 4     O @     X e v v v v v v e   = 7.e.q.' O & s.",
"s.s.s.s.s.s.s.s.s.s.s.s.s.        # 0 X s a a l 4 . : 4.q.q.;.:     d c v v v v %   $.e.e.e.X.  - s.",
"s.s.s.s.s.s.s.s.s.s.s.s.s.          0 . w a d k . & j q.w.e.q.5.@   $ x v v v z o : w.e.e.w.h   s.s.",
"s.s.s.s.s.s.s.s.s.s.s.s.s.O         * . 3 a g e 3 . M w.e.e.e.e.,.@   0 c c v e   @.e.e.e.q.:   s.s.",
"s.s.s.s.s.s.s.s.s.s.s.s.s.*         .   # a d z s   B e.e.e.e.e.e.+.  . k c s $ : 9.e.e.e.q.  O s.s.",
"s.s.s.s.s.s.s.s.s.s.s.s.s.s.              0 a f l O n w.e.e.e.e.e.q.m   o o     1 ,.q.e.e.>.  : s.s.",
"s.s.s.s.s.s.s.s.s.s.s.s.s.s.O             $ s a d , $ 5.e.e.e.e.e.8.B .   O , d , o 8 X.+.& . s.s.s.",
"s.s.s.s.s.s.s.s.s.s.s.s.s.s.s.              0 a a a o & :.7.4.+.8 . X e c c c c e o O       % s.s.s.",
"s.s.s.s.s.s.s.s.s.s.s.s.s.s.s.$             . 4 a a 0 O   X     . 3 z c z c k 3 X q 9     . s.s.s.s.",
"s.s.s.s.s.s.s.s.s.s.s.s.s.s.s.s.                $ 0 a a 0 4 3 0 s d s a e , . * 4 #       s.s.s.s.s.",
"s.s.s.s.s.s.s.s.s.s.s.s.s.s.s.s.s.                  $ 4 w s a a s a w , o X * #         & s.s.s.s.s.",
"s.s.s.s.s.s.s.s.s.s.s.s.s.s.s.s.s.:                       o $ & * O                   & s.s.s.s.s.s.",
"s.s.s.s.s.s.s.s.s.s.s.s.s.s.s.s.s.s.&       O , 9 0 w 0 9 * o                       O s.s.s.s.s.s.s.",
"s.s.s.s.s.s.s.s.s.s.s.s.s.s.s.s.s.s.s.& . 4 a s s s a s a a 3 .                   & s.s.s.s.s.s.s.s.",
"s.s.s.s.s.s.s.s.s.s.s.s.s.s.s.s.s.s.s.  4 q a a s a s a a a s 0               .   & s.s.s.s.s.s.s.s.",
"s.s.s.s.s.s.s.s.s.s.s.s.s.s.s.s.s.s.* O 4 9 a s s w , > > , , & O #           O O o s.s.s.s.s.s.s.s.",
"s.s.s.s.s.s.s.s.s.s.s.s.s.s.s.s.s.s.% $ $ a s a w # w s s e e d F K O * a e s v L e & s.s.s.s.s.s.s.",
"s.s.s.s.s.s.s.s.s.s.s.s.s.s.s.s.s.s.  O 4 a e 0 * s =.=.=.=.=.=.=.L , s =.=.=.=.=.x O s.s.s.s.s.s.s.",
"s.s.s.s.s.s.s.s.s.s.s.s.s.s.s.s.s.s.%   4 w 3 * # w K =.=.=.=.L v ,   d =.*.*.F q . + s.s.s.s.s.s.s.",
"s.s.s.s.s.s.s.s.s.s.s.s.s.s.s.s.s.s.s.O     O O X X C L L K H C 4 X * G K K S a $ . s.s.s.s.s.s.s.s.",
"s.s.s.s.s.s.s.s.s.s.s.s.s.s.s.s.s.s.s.s.s.% X +     X # # O $ .     X O # # O O - s.s.s.s.s.s.s.s.s."
};
