/* XPM */
static char *result[] = {
/* columns rows colors chars-per-pixel */
"50 50 139 2 ",
"   c #010101",
".  c #080706",
"X  c #090807",
"o  c #070708",
"O  c #0C0C0B",
"+  c #100F0D",
"@  c #13120E",
"#  c #141313",
"$  c #191714",
"%  c #1B1916",
"&  c #171718",
"*  c #171818",
"=  c #1C1C1C",
"-  c #201E17",
";  c #25231C",
":  c #2A291F",
">  c #312616",
",  c #1F1F20",
"<  c #232324",
"1  c #2A2721",
"2  c #2D2C22",
"3  c #272728",
"4  c #2D2D2D",
"5  c #312F24",
"6  c #333226",
"7  c #363528",
"8  c #3E3C2E",
"9  c #2F2F30",
"0  c #2F3030",
"q  c #333334",
"w  c #373738",
"e  c #373839",
"r  c #3B3B3C",
"t  c #513A18",
"y  c #413F30",
"u  c #454333",
"i  c #4D4A39",
"p  c #524F3C",
"a  c #53513D",
"s  c #7F5A23",
"d  c #7C6132",
"f  c #3F3F40",
"g  c #404142",
"h  c #464748",
"j  c #474849",
"k  c #4A4B4D",
"l  c #575541",
"z  c #585642",
"x  c #5E5B45",
"c  c #4E4F51",
"v  c #4F5051",
"b  c #535355",
"n  c #565759",
"m  c #57585A",
"M  c #58595B",
"N  c #625F49",
"B  c #68654D",
"V  c #6E6B51",
"C  c #716E54",
"Z  c #7A7457",
"A  c #7A765A",
"S  c #7F7C5E",
"D  c #5F5F61",
"F  c #5F6061",
"G  c #636365",
"H  c #676769",
"J  c #67686A",
"K  c #6C6D6F",
"L  c #6D6E70",
"P  c #6F7072",
"I  c #737374",
"U  c #767779",
"Y  c #7A7B7D",
"T  c #AC792E",
"R  c #F05B28",
"E  c #F1602A",
"W  c #F26D2D",
"Q  c #F3722F",
"!  c #F47A31",
"~  c #967A46",
"^  c #807C5F",
"/  c #827F61",
"(  c #D79637",
")  c #D4963B",
"_  c #F58634",
"`  c #F79539",
"'  c #F7993A",
"]  c #F89C3B",
"[  c #E7A23C",
"{  c #F9A43D",
"}  c #FAAB3F",
"|  c #858163",
" . c #8E8A6A",
".. c #96916F",
"X. c #9B9773",
"o. c #A29D78",
"O. c #AAA57E",
"+. c #CE9440",
"@. c #EEA942",
"#. c #F7AE41",
"$. c #FAAE40",
"%. c #FAB144",
"&. c #FAB34B",
"*. c #FAB754",
"=. c #FAB856",
"-. c #FAB959",
";. c #7E7F81",
":. c #818284",
">. c #878788",
",. c #898A8C",
"<. c #939394",
"1. c #9B9B9B",
"2. c #B4AF85",
"3. c #B9B389",
"4. c #A1A1A2",
"5. c #A7A7A8",
"6. c #ABABAC",
"7. c #BCBCBC",
"8. c #C6C093",
"9. c #C8C294",
"0. c #CCC798",
"q. c #CEC898",
"w. c #D3CC9C",
"e. c #D7D09F",
"r. c #E3CD8C",
"t. c #DCD6A3",
"y. c #DED8A5",
"u. c #E5DEA9",
"i. c #E7E0AB",
"p. c #EAE4AE",
"a. c #EDE7B0",
"s. c #EFE8B1",
"d. c #CACACA",
"f. c #D5D5D5",
"g. c #E1E1E1",
"h. c #E8E8E9",
"j. c #F1F1F1",
"k. c #FDFDFD",
"l. c None",
/* pixels */
"l.l.l.l.l.=.l.l.l.l.-.l.l.l.l.l.l.l.l.l.l.l.l.l.l.l.l.l.l.l.l.l.l.l.l.l.l.l.l.l.l.l.l.l.l.l.l.l.l.l.",
"l.l.l.l.l.%.l.l.l.&.&.l.l.l.l.l.l.l.l.l.l.l.l.l.l.l.l.l.l.l.l.l.l.l.l.l.l.l.l.l.l.l.l.l.l.l.l.l.l.l.",
"l.l.l.l.l.%.%.l.l.%.$.l.l.l.l.1 % l.l.l.l.l.l.l.l.l.l.l.l.l.l.l.l.l.l.l.l.l.l.l.l.l.l.l.l.l.l.l.l.l.",
"l.l.l.l.l.&.} &.%.$.@.l.> t d A | B i ; l.l.l.l.l.l.l.l.l.l.l.l.l.l.l.l.l.l.l.l.l.l.l.l.l.l.l.l.l.l.",
"l.=.%.%.l.&.{ } { { ) T ( [ r.| w.V 9.S x # l.l.l.l.l.l.l.l.l.l.l.l.l.l.l.l.l.l.l.l.l.l.l.l.l.l.l.l.",
"l.l.%.%.%.} ] ! ! ` } } } ~ y ; 5 # 5  .C ..; % $   . % l.l.l.l.l.l.l.l.l.l.l.l.l.l.l.l.l.l.l.l.l.l.",
"l.l.l.%.} ! ! R R W ! #.s $ ; l.l.l.l.@ a | @           # l.l.l.l.l.l.l.l.l.l.l.l.l.l.l.l.l.l.l.l.l.",
"l.l.l.l.} ] R R R R ' #.) l.l.l.l.l.l.l.X               .     # & % l.l.l.l.l.l.l.l.l.l.l.l.l.l.l.l.",
"l.l.&.%.{ ! R R R R ! ] } %.&.l.l.l.l.l.          . . # & O < e q 4 < % # l.l.l.l.l.l.l.l.l.l.l.l.l.",
"-.&.%.} } } Q R R R { %.&.&.&.l.l.l.l.l.X   # 4 q w q r f r h I >.G g r q * @ l.l.l.l.l.l.l.l.l.l.l.",
"l.l.l.l.&.} _ ` ! ' ' %.l.l.l.l.l.l.l.l.X 4 r g f g f f f f 1.k.k.h.b 0 w 9 e < # l.l.l.l.l.l.l.l.l.",
"l.l.l.l.%.} %.} ] %.} %.l.l.l.l.l.l.# X * g g f f g g g f h M ,.<.Y M 5.g.6.e 3 4 @ l.l.l.l.l.l.l.l.",
"l.l.l.l.%.%.l.%.} &.&.%.&.l.l.l.l.; O = q f g g g g f h b m M M M M M Y k.k.j.Y # < # l.l.l.l.l.l.l.",
"l.l.l.&.&.l.l.&.%.l.l.l.&.l.l.l.# O - = r g f g f g k M M M M M M M b b 5.k.k.k.1.& # @ l.l.l.l.l.l.",
"l.l.l.l.l.l.l.l.%.l.l.l.l.l.l.l.o , 9 3 r g g g g c M M M M m M M M M h q 1.k.k.k.7.= . # l.l.l.l.l.",
"l.l.l.l.l.l.l.l.&.l.l.l.l.l.l.O + 3 e q f g f g k M M M M b f e k M M M M j 4.k.k.k.7.#   l.l.l.l.l.",
"l.l.l.l.l.l.l.l.l.l.l.l.l.l.% = = q r f f g g h b n M n f e v h 4 3 c M M M M <.k.k.k.4.. X l.l.l.l.",
"l.l.l.l.l.l.l.l.l.l.l.l.l.l.O e < f f f f f h b M M M M M v 4 9 c c 4 g M M M M I f.k.k.b   % l.l.l.",
"l.l.l.l.l.l.l.l.l.l.l.l.l.% O g 9 g f f f h b M M M M M M M n k 4 g m r g M M M M j I d.<.O X l.l.l.",
"l.l.l.l.l.l.l.l.l.l.l.l.l.. # g f g f g k M M M M M M M M M M M M j j M j b M M M M r   O 0 . l.l.l.",
"l.l.l.l.l.l.l.l.l.l.l.l.l.  & f g g f h n M M M M M M M M M M M M M M M M M M M M M M q   & = # l.l.",
"l.l.l.l.l.l.l.l.l.l.l.l.O   # g g f f h m M M M M M M M M M M M M M M M M M M M M M M M 3   + . l.l.",
"l.l.l.l.l.l.l.l.l.l.l.l.X   # g g f g g k M M M M M M M M M M M M M M M M M M M M M M M b +     l.l.",
"l.l.l.l.l.l.l.l.l.l.l.l..   O e f f g f f k M M M M M M M M M M M M M M M M M M M M M M M r     % l.",
"l.l.l.l.l.l.l.l.l.l.l.l.X   . 3 w g f f f f h n M M m M m M M M M M M M M M M M M k h b M b ,   % l.",
"l.l.l.l.l.l.l.l.l.l.l.l.      & 9 g e f f f f c M M k r m M M M M M M M M M M M M q & < k b h o X l.",
"l.l.l.l.l.l.l.l.l.l.l.l.      . 3 f 4 f f g f g M k e o 3 b M M M M M M M M M M M <       X q *   l.",
"l.l.l.l.l.l.l.l.l.l.l.l.        & f , f g f u h M h       # < r b M M M M M M M v O   ; i ; . #   l.",
"l.l.l.l.l.l.l.l.l.l.l.l..       o f = q g g f k b =             * b M M M M M M w   = q.p.e.z   $ l.",
"l.l.l.l.l.l.l.l.l.l.l.l.X         w = < g g g b = O 6 3.w.9.a     * b M M M M M +   o.s.s.s.A   % l.",
"l.l.l.l.l.l.l.l.l.l.l.l.@         , , # g g k w   u S s.s.s.p.S     4 M M M M j   u u.s.s.a.N   l.l.",
"l.l.l.l.l.l.l.l.l.l.l.l.%         o , o r g b q # # O.s.s.s.s.a.V   . j M M M q . X.s.s.p.u.y   l.l.",
"l.l.l.l.l.l.l.l.l.l.l.l.l..         X   4 g k m <   3.p.s.s.s.s.i.8   = m M k # 5 u.s.s.s.0.# O l.l.",
"l.l.l.l.l.l.l.l.l.l.l.l.l.O             # g g b e   O.s.s.s.s.s.s.w.2   & *     z y.s.s.s.2.X = l.l.",
"l.l.l.l.l.l.l.l.l.l.l.l.l.l.              q g g j X a p.s.s.s.s.a.y.V .     & 9 # 2 S 3.3.8 X l.l.l.",
"l.l.l.l.l.l.l.l.l.l.l.l.l.l.X             & r g g 3 X A i.s.a.8.A : X 4 h k b m f     O +   $ l.l.l.",
"l.l.l.l.l.l.l.l.l.l.l.l.l.l.l.              , r g f ,   = 7 %     = h m m m m r O 3 0     . l.l.l.l.",
"l.l.l.l.l.l.l.l.l.l.l.l.l.l.l.O               O q g y 9 & O + , e k c j h e & O 9 < .     % l.l.l.l.",
"l.l.l.l.l.l.l.l.l.l.l.l.l.l.l.l..                 # 4 e f g g f g f r 9 # o # , o       O l.l.l.l.l.",
"l.l.l.l.l.l.l.l.l.l.l.l.l.l.l.l.l..                   O = < 4 q q < #     O o         O l.l.l.l.l.l.",
"l.l.l.l.l.l.l.l.l.l.l.l.l.l.l.l.l.l..             O # # # O o                       O l.l.l.l.l.l.l.",
"l.l.l.l.l.l.l.l.l.l.l.l.l.l.l.l.l.l.l.o     X < w f f f f f q #                   O l.l.l.l.l.l.l.l.",
"l.l.l.l.l.l.l.l.l.l.l.l.l.l.l.l.l.l.l.l.. O q g f f h f f g f e *               # l.l.l.l.l.l.l.l.l.",
"l.l.l.l.l.l.l.l.l.l.l.l.l.l.l.l.l.l.l.l.  4 0 r f f f g g f g g g *           . l.l.l.l.l.l.l.l.l.l.",
"l.l.l.l.l.l.l.l.l.l.l.l.l.l.l.l.l.l.l.l.O < 9 f g f 9 & + # # # # O < #     O = @ l.l.l.l.l.l.l.l.l.",
"l.l.l.l.l.l.l.l.l.l.l.l.l.l.l.l.l.l.l.O + & f f f f # b J J F F G U :.h & G ;.U O l.l.l.l.l.l.l.l.l.",
"l.l.l.l.l.l.l.l.l.l.l.l.l.l.l.l.l.l.l.o o , f w 9 3 9 ;.:.:.:.:.:.:.Y h & Y :.I O l.l.l.l.l.l.l.l.l.",
"l.l.l.l.l.l.l.l.l.l.l.l.l.l.l.l.l.l.l.l.  # 9 , # & , D :.:.:.:.;.M 4   * L h *   l.l.l.l.l.l.l.l.l.",
"l.l.l.l.l.l.l.l.l.l.l.l.l.l.l.l.l.l.l.l.l.X   .   X . q K L L J M e O   j b < X + l.l.l.l.l.l.l.l.l.",
"l.l.l.l.l.l.l.l.l.l.l.l.l.l.l.l.l.l.l.l.l.l.l.$ @ .       . .         . # O @ l.l.l.l.l.l.l.l.l.l.l."
};
