/* XPM */
static char *result[] = {
/* columns rows colors chars-per-pixel */
"50 50 122 2 ",
"   c #010101",
".  c #090807",
"X  c #0B0B0A",
"o  c #100F0D",
"O  c #13120E",
"+  c #0F0F10",
"@  c #141413",
"#  c #191713",
"$  c #1C1915",
"%  c #1B1B1C",
"&  c #251A16",
"*  c #201F19",
"=  c #3E1A15",
"-  c #25241B",
";  c #29281F",
":  c #1F1F20",
">  c #1F2020",
",  c #232424",
"<  c #2D2C22",
"1  c #272728",
"2  c #272828",
"3  c #2B2B2C",
"4  c #343226",
"5  c #373629",
"6  c #3C3A2C",
"7  c #2F2F30",
"8  c #2F3031",
"9  c #333434",
"0  c #373738",
"q  c #373839",
"w  c #3C3C3D",
"e  c #65241C",
"r  c #413F30",
"t  c #4C3F30",
"y  c #7C2920",
"u  c #653427",
"i  c #7C382D",
"p  c #444232",
"a  c #494736",
"s  c #4E4C3A",
"d  c #514E3C",
"f  c #53513E",
"g  c #3F3F40",
"h  c #3F4041",
"j  c #404042",
"k  c #474748",
"l  c #474849",
"z  c #4A4A4C",
"x  c #5E5C46",
"c  c #4E4F50",
"v  c #4F5052",
"b  c #535456",
"n  c #565759",
"m  c #57585A",
"M  c #58595B",
"N  c #605E47",
"B  c #66634C",
"V  c #716D54",
"C  c #79755A",
"Z  c #7F7B5E",
"A  c #626263",
"S  c #6A6B6C",
"D  c #6E6F70",
"F  c #737476",
"G  c #767778",
"H  c #78797B",
"J  c #8B392D",
"K  c #9E3226",
"L  c #9F3428",
"P  c #A1362A",
"I  c #A23A2D",
"U  c #A53D30",
"Y  c #A83F34",
"T  c #A64133",
"R  c #AB4639",
"E  c #AA493B",
"W  c #B44E43",
"Q  c #B75348",
"!  c #BB574D",
"~  c #807C5F",
"^  c #C36358",
"/  c #C9695F",
"(  c #CC6D63",
")  c #D67B72",
"_  c #D97E75",
"`  c #838061",
"'  c #898566",
"]  c #8C8867",
"[  c #96916F",
"{  c #9B9673",
"}  c #9F9A76",
"|  c #A19C77",
" . c #A29D78",
".. c #DA8077",
"X. c #DE857B",
"o. c #E0877E",
"O. c #E1897F",
"+. c #7E7F80",
"@. c #818284",
"#. c #9C9C9D",
"$. c #B1AC83",
"%. c #B6B086",
"&. c #BBB58A",
"*. c #ABABAC",
"=. c #BBBBBC",
"-. c #E58E85",
";. c #CDA780",
":. c #C1BC8F",
">. c #CFC999",
",. c #D4CD9D",
"<. c #DFD9A5",
"1. c #E1DAA7",
"2. c #E4DDA9",
"3. c #EBE4AE",
"4. c #EFE8B1",
"5. c #C6C6C6",
"6. c gray80",
"7. c #E4E4E4",
"8. c #EAEAEA",
"9. c #F4F4F4",
"0. c #FEFEFE",
"q. c None",
/* pixels */
"q.q.q.q.q.q.q.q.q.q.q.q.q.q.q.q.q.q.q.q.q.q.q.q.q.q.q.q.q.q.q.q.q.q.q.q.q.q.q.q.q.q.q.q.q.q.q.q.q.q.",
"q.q.q.q.q.U q.q.q.q.T q.q.q.q.q.q.q.q.q.q.q.q.q.q.q.q.q.q.q.q.q.q.q.q.q.q.q.q.q.q.q.q.q.q.q.q.q.q.q.",
"q.q.q.q.q.P T q.q.q.L q.q.q.q.q.q.q.q.q.q.q.q.q.q.q.q.q.q.q.q.q.q.q.q.q.q.q.q.q.q.q.q.q.q.q.q.q.q.q.",
"q.q.q.q.q.U K q.q.P K q.q.q.q.q.q.q.q.q.q.q.q.q.q.q.q.q.q.q.q.q.q.q.q.q.q.q.q.q.q.q.q.q.q.q.q.q.q.q.",
"q.q.q.q.q.I K L I K K q.q.& = e t 5 * X q.q.q.q.q.q.q.q.q.q.q.q.q.q.q.q.q.q.q.q.q.q.q.q.q.q.q.q.q.q.",
"q.U I q.q.T I U K W K J y K P ;.] ,. .%.B @ q.q.q.q.q.q.q.q.q.q.q.q.q.q.q.q.q.q.q.q.q.q.q.q.q.q.q.q.",
"q.q.K K K K P _ R ) K K K K u { < a x 4 ,.' s O q.# O $ q.q.q.q.q.q.q.q.q.q.q.q.q.q.q.q.q.q.q.q.q.q.",
"q.q.q.P P ^ Q o.-.X.( / K e X # q.q.q.o X $.V             q.q.q.q.q.q.q.q.q.q.q.q.q.q.q.q.q.q.q.q.q.",
"q.q.q.q.K T o.-.-.-.X.P K i q.q.q.q.q.q.q.                . .   @ . o $ q.q.q.q.q.q.q.q.q.q.q.q.q.q.",
"q.q.q.L L ! O.-.-.-.-.) R K P I q.q.q.q.q.          .   % @ X 9 j j q 3 $ X $ q.q.q.q.q.q.q.q.q.q.q.",
"q.I K K U W ^ -.-.-.( I K K K I I q.q.q.q.    % 0 0 w w h h j n #.*.@.q w g 2 . $ q.q.q.q.q.q.q.q.q.",
"q.E U I I K ( ( -.^ ..I I q.q.q.q.q.q.q.@ X 0 h g j j j h h j 5.0.0.8.j g j 1 j 7 . q.q.q.q.q.q.q.q.",
"q.q.q.q.R K W K ( I P I P q.q.q.q.q.q.X   7 h j j h h h h j z b D D M M 5.0.7.A @ 0 + q.q.q.q.q.q.q.",
"q.q.q.q.P K K K U P I P P I q.q.q.q.  , . h h j j j h h z m M M M M M M D 9.0.0.5.% # @ q.q.q.q.q.q.",
"q.q.q.q.K I q.R K P q.q.P P q.q.q.X . 0 @ h j j h j j n M M M M M m n b l +.0.0.0.9.k . . q.q.q.q.q.",
"q.q.q.I I q.q.q.P P q.q.q.q.R q.@ $ X w * h j j j j m M M m m M M M M M m w M 9.0.0.9.A   . q.q.q.q.",
"q.q.q.q.q.q.q.q.U T q.q.q.q.q.q.  1 $ h 9 j j j j b M M n n b g , q n M M M n A 8.0.0.0.m   . q.q.q.",
"q.q.q.q.q.q.q.q.q.q.q.q.q.q.q.X , 3 3 h j j j j z M M M n g 1 g n h : q M M M M A =.0.0.9.,   q.q.q.",
"q.q.q.q.q.q.q.q.q.q.q.q.q.q.$ $ 0 7 q j j r j z M M M M M M n j : w n k 3 n M M M n M 6.0.*.  . q.q.",
"q.q.q.q.q.q.q.q.q.q.q.q.q.q.. , g 0 j j j j c M M M M M M M M M M l 7 n n q M M M M m 1 % 1 0   q.q.",
"q.q.q.q.q.q.q.q.q.q.q.q.q.q.  3 g h j h j n M M M M M M M M M M M M M v M n n M M M M M >   : @ o q.",
"q.q.q.q.q.q.q.q.q.q.q.q.q.X   3 h h j h c M M M M M M M M M M M M M M M M M m M M M M M m #   >   q.",
"q.q.q.q.q.q.q.q.q.q.q.q.q..   2 h h j j j M M M M M M M M M M M M M M M M M M M M M M M M b .     q.",
"q.q.q.q.q.q.q.q.q.q.q.q.q.    , h h h j j z M M M M M M M M M M M M M M M M m M M M M M M M g     $ ",
"q.q.q.q.q.q.q.q.q.q.q.q.q.    # 0 h h j j h k m M M M M M M m M M M M M M M M M M M m g M M M %   X ",
"q.q.q.q.q.q.q.q.q.q.q.q.q.    X 1 j j g j j h j b M m c m M M M M M M M m M M M M M z # 2 M M c   . ",
"q.q.q.q.q.q.q.q.q.q.q.q.q.      # w h 7 j h h j l M m z @ v M M m M M M M M M M M M 7       . w , $ ",
"q.q.q.q.q.q.q.q.q.q.q.q.q.        9 h * j j h h k m 9 +   . 9 j n M M M M M M M M M @     < o   $ @ ",
"q.q.q.q.q.q.q.q.q.q.q.q.q.        , h @ g h h h z M 9           . 7 n M M M M M M k   . :.4.3.Z   . ",
"q.q.q.q.q.q.q.q.q.q.q.q.q.        + h X w j h h b 3   O B [ Z @     , n M M M M M %   Z 4.4.4.$.  X ",
"q.q.q.q.q.q.q.q.q.q.q.q.q.          0 X 7 j j z k   z ] 4.4.4.2.r     0 M M M M b . O 2.4.4.4.'   % ",
"q.q.q.q.q.q.q.q.q.q.q.q.q.X         , + @ j j M *   4 &.4.4.4.4.3.6     b M M M j   C 4.4.4.4.f   q.",
"q.q.q.q.q.q.q.q.q.q.q.q.q.@         . @   w g c c X . >.4.4.4.4.4.2.-   : m M n @ X <.4.4.4.4.@   q.",
"q.q.q.q.q.q.q.q.q.q.q.q.q.q.              3 j k M 1   >.4.4.4.4.4.4.,.@   % :     p 2.4.4.4.1.. O q.",
"q.q.q.q.q.q.q.q.q.q.q.q.q.q..             . g g l z   ~ 4.4.4.4.4.4.4.}       X 9 @ X N $.:.p   q.q.",
"q.q.q.q.q.q.q.q.q.q.q.q.q.q.q.              1 g g j $ . %.4.4.4.1.} 5   , k c m n b .         . q.q.",
"q.q.q.q.q.q.q.q.q.q.q.q.q.q.q..               9 h h w X . 5 s < .   + j M M m m g . 1 j .     q.q.q.",
"q.q.q.q.q.q.q.q.q.q.q.q.q.q.q.q.                % w j g 1 X . X $ q c c l k 0 @ . 3 :       O q.q.q.",
"q.q.q.q.q.q.q.q.q.q.q.q.q.q.q.q.$                   % 0 j h j g g j h g 7 @   % : .       . q.q.q.q.",
"q.q.q.q.q.q.q.q.q.q.q.q.q.q.q.q.q.X                     . % 3 9 q 0 , .     .           . q.q.q.q.q.",
"q.q.q.q.q.q.q.q.q.q.q.q.q.q.q.q.q.q.o                                                 . q.q.q.q.q.q.",
"q.q.q.q.q.q.q.q.q.q.q.q.q.q.q.q.q.q.q.$             $ 7 0 w w q 9 $ .               . q.q.q.q.q.q.q.",
"q.q.q.q.q.q.q.q.q.q.q.q.q.q.q.q.q.q.q.q.q..     + w h h g j h j g g 1             @ q.q.q.q.q.q.q.q.",
"q.q.q.q.q.q.q.q.q.q.q.q.q.q.q.q.q.q.q.q.q.q.. . w 9 h h h h j h j g j 0         q.q.q.q.q.q.q.q.q.q.",
"q.q.q.q.q.q.q.q.q.q.q.q.q.q.q.q.q.q.q.q.q.q.. 1 $ g g g h 9 : % % % : # . @   X q.q.q.q.q.q.q.q.q.q.",
"q.q.q.q.q.q.q.q.q.q.q.q.q.q.q.q.q.q.q.q.q.q.  % 7 g h g 1 $ c n n b v A G +.@ 0 X q.q.q.q.q.q.q.q.q.",
"q.q.q.q.q.q.q.q.q.q.q.q.q.q.q.q.q.q.q.q.q.q.  . g w g 0 X S @.@.@.@.@.@.@.+., 3   q.q.q.q.q.q.q.q.q.",
"q.q.q.q.q.q.q.q.q.q.q.q.q.q.q.q.q.q.q.q.q.q.  . 0 % 3 1 X j @.@.@.@.@.G c O     . q.q.q.q.q.q.q.q.q.",
"q.q.q.q.q.q.q.q.q.q.q.q.q.q.q.q.q.q.q.q.q.q.q.X     . X   X D H H F S b ,     . q.q.q.q.q.q.q.q.q.q.",
"q.q.q.q.q.q.q.q.q.q.q.q.q.q.q.q.q.q.q.q.q.q.q.q.q.* # #               @ $ # q.q.q.q.q.q.q.q.q.q.q.q."
};
