/* XPM */
static char *result[] = {
/* columns rows colors chars-per-pixel */
"50 50 131 2 ",
"   c #010101",
".  c #080707",
"X  c #090807",
"o  c #0C0C0B",
"O  c #100F0D",
"+  c #12110E",
"@  c #0F0F10",
"#  c #0F1010",
"$  c #151413",
"%  c #191714",
"&  c #1B1915",
"*  c #171718",
"=  c #171818",
"-  c #1B1B1B",
";  c #201C16",
":  c #25231C",
">  c #29281F",
",  c #362D1E",
"<  c #1F1F20",
"1  c #232324",
"2  c #292621",
"3  c #2C2B21",
"4  c #272728",
"5  c #272828",
"6  c #2B2B2C",
"7  c #333126",
"8  c #363428",
"9  c #383629",
"0  c #39382B",
"q  c #2F2F30",
"w  c #333334",
"e  c #373738",
"r  c #3B3C3C",
"t  c #473317",
"y  c #403F30",
"u  c #454333",
"i  c #494736",
"p  c #4C4A38",
"a  c #524F3D",
"s  c #53513E",
"d  c #705B34",
"f  c #3F3F40",
"g  c #414142",
"h  c #464748",
"j  c #474849",
"k  c #4B4B4C",
"l  c #4E4E50",
"z  c #4F5051",
"x  c #535456",
"c  c #565759",
"v  c #57585A",
"b  c #58595B",
"n  c #625F49",
"m  c #65624B",
"M  c #68664D",
"N  c #716E54",
"B  c #787459",
"V  c #7D7A5D",
"C  c #5E5F60",
"Z  c #636464",
"A  c #666668",
"S  c #6C6D6F",
"D  c #6E6E70",
"F  c #747476",
"G  c #757678",
"H  c #77787A",
"J  c #7B7C7D",
"K  c #855E23",
"L  c #906628",
"P  c #F05B28",
"I  c #F2672C",
"U  c #F26C2D",
"Y  c #F3722F",
"T  c #F37630",
"R  c #F47A31",
"E  c #807C5F",
"W  c #837F61",
"Q  c #D9993A",
"!  c #F58434",
"~  c #F68D36",
"^  c #F79639",
"/  c #F7993A",
"(  c #F89B3A",
")  c #E7A13B",
"_  c #EEA73E",
"`  c #F9A53D",
"'  c #F0A83E",
"]  c #F9AB3F",
"[  c #868263",
"{  c #8B8767",
"}  c #8E8A69",
"|  c #979270",
" . c #9F9A76",
".. c #A09C77",
"X. c #A49F79",
"o. c #A8A37C",
"O. c #CCA45C",
"+. c #F4AC41",
"@. c #FAAF41",
"#. c #FAB144",
"$. c #FAB34A",
"%. c #FAB856",
"&. c #7D7E80",
"*. c #818284",
"=. c #9B9B9B",
"-. c #AFAA81",
";. c #B4AE83",
":. c #BBB68A",
">. c #BFBA8E",
",. c #9FA0A0",
"<. c gray64",
"1. c #ABABAC",
"2. c #B4B4B4",
"3. c #BBBBBC",
"4. c #C3B989",
"5. c #C4BF91",
"6. c #CFC999",
"7. c #D2CC9B",
"8. c #DAD4A2",
"9. c #E4DEA9",
"0. c #EBE4AE",
"q. c #EEE7B1",
"w. c #EFE8B1",
"e. c #C6C6C6",
"r. c #C8C8C9",
"t. c #DADADA",
"y. c #E7E7E7",
"u. c #EDEDEE",
"i. c #F4F4F4",
"p. c #FDFDFD",
"a. c None",
/* pixels */
"a.a.a.a.a.a.a.a.a.a.a.a.a.a.a.a.a.a.a.a.a.a.a.a.a.a.a.a.a.a.a.a.a.a.a.a.a.a.a.a.a.a.a.a.a.a.a.a.a.a.",
"a.a.a.a.a.%.a.a.a.a.$.a.a.a.a.a.a.a.a.a.a.a.a.a.a.a.a.a.a.a.a.a.a.a.a.a.a.a.a.a.a.a.a.a.a.a.a.a.a.a.",
"a.a.a.a.a.$.#.a.a.$.#.a.a.a.a.a.a.a.a.a.a.a.a.a.a.a.a.a.a.a.a.a.a.a.a.a.a.a.a.a.a.a.a.a.a.a.a.a.a.a.",
"a.a.a.a.a.a.#.$.a.#.] a.a.a.$ % $ $ : a.a.a.a.a.a.a.a.a.a.a.a.a.a.a.a.a.a.a.a.a.a.a.a.a.a.a.a.a.a.a.",
"a.a.a.a.a.a.@.@.#.] +., t K O.;.7. .{ 0 $ a.a.a.a.a.a.a.a.a.a.a.a.a.a.a.a.a.a.a.a.a.a.a.a.a.a.a.a.a.",
"a.a.#.#.$.$.+.^ ] ~ ' ) #.Q 4.m o.s W ;.| & a.a.a.a.a.a.a.a.a.a.a.a.a.a.a.a.a.a.a.a.a.a.a.a.a.a.a.a.",
"a.a.a.#.@.` ` U R ! ( ` ' d > & + + $ m B o.+ X .     + a.a.a.a.a.a.a.a.a.a.a.a.a.a.a.a.a.a.a.a.a.a.",
"a.a.a.a.#.( U P P P R ] L ; a.a.a.a.a.& 7 %             %   . & a.a.a.a.a.a.a.a.a.a.a.a.a.a.a.a.a.a.",
"a.a.a.a.#.] T P P P R ` ] $.a.a.a.a.a.a..                   - < $ $ + : a.a.a.a.a.a.a.a.a.a.a.a.a.a.",
"a.a.$.@.] ~ T P P P ! ( #.#.#.$.a.a.a.a.      * = 1 ; r w q g j j g e 1 $ % a.a.a.a.a.a.a.a.a.a.a.a.",
"a.$.#.#.$.] ~ I P U ~ #.$.a.a.a.a.a.a.a.X $ e f f f g g g k 3.u.y.F 6 6 r 4 $ a.a.a.a.a.a.a.a.a.a.a.",
"a.a.a.a.a.] ^ ` R ] ( #.a.a.a.a.a.a.a.o % r f g f g g f g l 3.t.r.J Z <.Z 6 e - & a.a.a.a.a.a.a.a.a.",
"a.a.a.a.a.@.#.#.` @.#.] $.a.a.a.a.a.o O 6 f f g f g g g k x b b b b J p.p.e.w 1 1 - a.a.a.a.a.a.a.a.",
"a.a.a.a.#.#.a.$.] $.a.$.#.a.a.a.a.O - $ r f f f g f j x b b b b b b b 1.p.p.u.Z o $ & a.a.a.a.a.a.a.",
"a.a.a.a.$.a.a.a.#.a.a.a.a.a.a.a.o $ q * f f f f g l b b b b b b b b k r 2.p.p.p.=.o X a.a.a.a.a.a.a.",
"a.a.a.a.a.a.a.a.#.a.a.a.a.a.a.& O < r 1 g g f f k b b b b l x x b b b x g r.p.p.p.H o X a.a.a.a.a.a.",
"a.a.a.a.a.a.a.a.a.a.a.a.a.a.a.o - 6 f r g g g g v b b z k z f 4 e z b v b v 1.p.p.p.&.  o a.a.a.a.a.",
"a.a.a.a.a.a.a.a.a.a.a.a.a.a.o 4 1 w f f g g g x b b v v y q f c e 5 k b b b C ,.i.p.u.5   a.a.a.a.a.",
"a.a.a.a.a.a.a.a.a.a.a.a.a.a.X r 6 f f f g g z b b b b b C x f 4 h x e g b b b b c 1.u.*.  + a.a.a.a.",
"a.a.a.a.a.a.a.a.a.a.a.a.a.$ $ f r g f g g x b b b b b b x C c C r g b g z b b b c 1 $ 6 6   a.a.a.a.",
"a.a.a.a.a.a.a.a.a.a.a.a.a.X $ f g f f g v b b b C c x C C x C x b x b b x b b b b x 4   5 o 2 a.a.a.",
"a.a.a.a.a.a.a.a.a.a.a.a.a.  * f f g f k b b b b x x C x x C x C b b b b b b b b b b x $   = o a.a.a.",
"a.a.a.a.a.a.a.a.a.a.a.a.&   $ f g g g g v v b b C x x C x C C x b b b b b b b b b b b g     . a.a.a.",
"a.a.a.a.a.a.a.a.a.a.a.a.$   @ f g f f g h c b b x C C x C x x C b b b b b b b b b b b b q     a.a.a.",
"a.a.a.a.a.a.a.a.a.a.a.a.o   X w r g g g f k x b x C C c C C x C b b b b b b b b c j b c x X   a.a.a.",
"a.a.a.a.a.a.a.a.a.a.a.a..     1 w g r g g g g x v v h c x c C x b b b b b b b b j < w x x w   a.a.a.",
"a.a.a.a.a.a.a.a.a.a.a.a.      $ q u w g g f g k C v f q c x x v b b b b b b b b w   . $ 4 j   a.a.a.",
"a.a.a.a.a.a.a.a.a.a.a.a.        1 g 1 f g g g k x < .   * f k c b c b b b b b b *   X $ . @ $ a.a.a.",
"a.a.a.a.a.a.a.a.a.a.a.a.X       * f - f g g f z x -           < x c b b b b b j   +  .0.>.>   a.a.a.",
"a.a.a.a.a.a.a.a.a.a.a.a.o       o r $ e f g g x 1   3 N F i .   = l b b b b b <   [ 0.q.w.m   a.a.a.",
"a.a.a.a.a.a.a.a.a.a.a.a.%         6 $ 1 g g k w X u :.w.w.0.{ .   < c b b b z o + 9.w.w.w.p   a.a.a.",
"a.a.a.a.a.a.a.a.a.a.a.a.a.        $ * $ f g x = . u 8.w.w.w.0.V     j b b b h   M w.w.w.w.: . a.a.a.",
"a.a.a.a.a.a.a.a.a.a.a.a.a.          $ . e g k j o 9 0.w.w.w.w.0.s   = x v x 1 X 6.w.w.w.7.  $ a.a.a.",
"a.a.a.a.a.a.a.a.a.a.a.a.a.o             6 f l x * 7 0.w.w.w.w.w.7.7   1 r < . u q.w.w.w.:.  a.a.a.a.",
"a.a.a.a.a.a.a.a.a.a.a.a.a.$             $ r f l w = 5.w.w.w.w.w.w.:.o     . * $ p -.8.6.u X a.a.a.a.",
"a.a.a.a.a.a.a.a.a.a.a.a.a.a.              w f g r . p q.w.w.w.9. .u o 1 6 j x g .   : :   $ a.a.a.a.",
"a.a.a.a.a.a.a.a.a.a.a.a.a.a.$             o r f f 5   y [ V p $   - l b b b l - $ 6       a.a.a.a.a.",
"a.a.a.a.a.a.a.a.a.a.a.a.a.a.a.X             X w f f w o     . = g x x l j 6 o < w X     & a.a.a.a.a.",
"a.a.a.a.a.a.a.a.a.a.a.a.a.a.a.a.                = w f r e e r g g g r 6 @ @ 1 =       o a.a.a.a.a.a.",
"a.a.a.a.a.a.a.a.a.a.a.a.a.a.a.a.o                   o 1 e r f f r 6 o   X o         X a.a.a.a.a.a.a.",
"a.a.a.a.a.a.a.a.a.a.a.a.a.a.a.a.a.&                       . @ @ .                   a.a.a.a.a.a.a.a.",
"a.a.a.a.a.a.a.a.a.a.a.a.a.a.a.a.a.a.O         $ 1 w e e w 6 $ .                 . a.a.a.a.a.a.a.a.a.",
"a.a.a.a.a.a.a.a.a.a.a.a.a.a.a.a.a.a.a.%   . 1 r g g f g f g w =               X a.a.a.a.a.a.a.a.a.a.",
"a.a.a.a.a.a.a.a.a.a.a.a.a.a.a.a.a.a.a.a.. 6 e g f g g g f g f f <             a.a.a.a.a.a.a.a.a.a.a.",
"a.a.a.a.a.a.a.a.a.a.a.a.a.a.a.a.a.a.a.a.@ 4 q g g r r 6 6 6 6 6 - . .       . $ a.a.a.a.a.a.a.a.a.a.",
"a.a.a.a.a.a.a.a.a.a.a.a.a.a.a.a.a.a.a.= * < f g f w $ e f f r r k A x   f C D @ a.a.a.a.a.a.a.a.a.a.",
"a.a.a.a.a.a.a.a.a.a.a.a.a.a.a.a.a.a.a.  o 4 r y r = k *.*.*.*.*.*.*.D $ G *.&.1 a.a.a.a.a.a.a.a.a.a.",
"a.a.a.a.a.a.a.a.a.a.a.a.a.a.a.a.a.a.a.%   q w 6 1 $ g &.*.*.*.*.H c =   F Z 6   a.a.a.a.a.a.a.a.a.a.",
"a.a.a.a.a.a.a.a.a.a.a.a.a.a.a.a.a.a.a.a.X . X o o X @ F *.*.*.J b 5   6 D w X . a.a.a.a.a.a.a.a.a.a.",
"a.a.a.a.a.a.a.a.a.a.a.a.a.a.a.a.a.a.a.a.a.; o X       * < < * o       + o X & a.a.a.a.a.a.a.a.a.a.a."
};
