/* XPM */
static char *result[] = {
/* columns rows colors chars-per-pixel */
"50 50 136 2 ",
"   c #020201",
".  c #080706",
"X  c #090807",
"o  c #070708",
"O  c #0C0B0B",
"+  c #110F0D",
"@  c #12110E",
"#  c #0F0F10",
"$  c #141413",
"%  c #181713",
"&  c #1B1914",
"*  c #1B1B1B",
"=  c #261914",
"-  c #211F1B",
";  c #24221B",
":  c #29271E",
">  c #39211B",
",  c #1F1F20",
"<  c #242425",
"1  c #292621",
"2  c #2E2B21",
"3  c #272728",
"4  c #2B2C2C",
"5  c #302E23",
"6  c #333226",
"7  c #363528",
"8  c #3C3A2C",
"9  c #2F2F30",
"0  c #2F3031",
"q  c #333334",
"w  c #373738",
"e  c #373839",
"r  c #3C3C3D",
"t  c #482019",
"y  c #492E23",
"u  c #464434",
"i  c #4B4938",
"p  c #514F3C",
"a  c #3F3F40",
"s  c #3F4041",
"d  c #414142",
"f  c #474748",
"g  c #47484A",
"h  c #4A4B4C",
"j  c #585541",
"k  c #4E4F51",
"l  c #4F5051",
"z  c #535355",
"x  c #555658",
"c  c #57585A",
"v  c #58595B",
"b  c #6B674F",
"n  c #66634C",
"m  c #6E6B52",
"M  c #726E54",
"N  c #757257",
"B  c #7B775B",
"V  c #7D7A5D",
"C  c #5D5E60",
"Z  c #646466",
"A  c #676769",
"S  c #67686A",
"D  c #6A6B6C",
"F  c #727375",
"G  c #767779",
"H  c #7A7B7C",
"J  c #832B21",
"K  c #912F24",
"L  c #833126",
"P  c #9E3327",
"I  c #9F3428",
"U  c #A0362A",
"Y  c #A23A2D",
"T  c #A53E31",
"R  c #A83F34",
"E  c #A64234",
"W  c #A94035",
"Q  c #AA4639",
"!  c #AC4B3D",
"~  c #B04A3E",
"^  c #AD4F40",
"/  c #B34D42",
"(  c #AD5040",
")  c #B65147",
"_  c #B9554A",
"`  c #BB584E",
"'  c #807D5F",
"]  c #B36951",
"[  c #817E60",
"{  c #C26157",
"}  c #C6655B",
"|  c #C7685D",
" . c #CC6E64",
".. c #CF7167",
"X. c #D1746A",
"o. c #8D8969",
"O. c #938666",
"+. c #998767",
"@. c #908C6B",
"#. c #9B9673",
"$. c #A39E79",
"%. c #A7A27C",
"&. c #ACA77F",
"*. c #DD847A",
"=. c #7D7E80",
"-. c #7F8082",
";. c #818284",
":. c #9B9B9B",
">. c #B5B086",
",. c #BAB58A",
"<. c #BFBA8E",
"1. c #AAAAAB",
"2. c #AFB0B0",
"3. c #B3B3B3",
"4. c gray72",
"5. c #E58E85",
"6. c #C0BB8E",
"7. c #C3BE91",
"8. c #CAC496",
"9. c #CEC899",
"0. c #D3CD9D",
"q. c #D9D3A1",
"w. c #DED8A5",
"e. c #E1DAA7",
"r. c #E4DDA9",
"t. c #E6E0AB",
"y. c #EBE4AE",
"u. c #EEE7B1",
"i. c #EFE8B1",
"p. c #CACACA",
"a. c #C4C4C5",
"s. c gray83",
"d. c #EFEFEF",
"f. c #F5F5F5",
"g. c #FDFDFD",
"h. c None",
/* pixels */
"h.h.h.h.h.h.h.h.h.h.h.h.h.h.h.h.h.h.h.h.h.h.h.h.h.h.h.h.h.h.h.h.h.h.h.h.h.h.h.h.h.h.h.h.h.h.h.h.h.h.",
"h.h.h.h.h.h.h.h.h.h.h.h.h.h.h.h.h.h.h.h.h.h.h.h.h.h.h.h.h.h.h.h.h.h.h.h.h.h.h.h.h.h.h.h.h.h.h.h.h.h.",
"h.h.h.h.h.h.h.h.h.h.h.! h.h.h.h.h.h.h.h.h.h.h.h.h.h.h.h.h.h.h.h.h.h.h.h.h.h.h.h.h.h.h.h.h.h.h.h.h.h.",
"h.h.h.h.h.h.Y h.h.h.E ! h.h.h.h.h.h.h.h.h.h.h.h.h.h.h.h.h.h.h.h.h.h.h.h.h.h.h.h.h.h.h.h.h.h.h.h.h.h.",
"h.h.h.h.h.h.I Y h.h.P U h.h.h.h.h.h.h.h.h.h.h.h.h.h.h.h.h.h.h.h.h.h.h.h.h.h.h.h.h.h.h.h.h.h.h.h.h.h.",
"h.h.h.h.h.h.U I E Y P U h.h.> t y : ; & h.h.h.h.h.h.h.h.h.h.h.h.h.h.h.h.h.h.h.h.h.h.h.h.h.h.h.h.h.h.",
"h.h.Y Y E h.U ! P T W I L J K ] O.7.V $.j ; h.h.h.h.h.h.h.h.h.h.h.h.h.h.h.h.h.h.h.h.h.h.h.h.h.h.h.h.",
"h.h.T P U U U { `  .Q U U P L +.u m 8 m ,.B u * h.h.h.h.h.h.h.h.h.h.h.h.h.h.h.h.h.h.h.h.h.h.h.h.h.h.",
"h.h.h.h.U / } ..5.5. .X.R J = @ ; h.; O : N &.*           h.h.h.h.h.h.h.h.h.h.h.h.h.h.h.h.h.h.h.h.h.",
"h.h.h.h.Y P } 5.5.5.5./ P L h.h.h.h.h.h.h.@ .             X X . % < h.h.h.h.h.h.h.h.h.h.h.h.h.h.h.h.",
"h.h.Q U U _ *.5.5.5.5.*.` U I T h.h.h.h.h.              O X   * 0 9 , , $ % h.h.h.h.h.h.h.h.h.h.h.h.",
"h.Y I I U T / *.5.5.*.W U P U U E h.h.h.h..   O < 4 q 4 d r e d x C g s w < @ - h.h.h.h.h.h.h.h.h.h.",
"h.h.h.h.E U ) |  .X.} ) U h.h.h.h.h.h.h.* O 4 a d d s s d s s 1.f.g.p.y q e w 4 $ h.h.h.h.h.h.h.h.h.",
"h.h.h.h.h.I W U ~ _ P R U E h.h.h.h.h.% o , s s y s d s d d f F 2.1.;.v 2.4.D e q * % h.h.h.h.h.h.h.",
"h.h.h.h.E P U E U U E T U Y h.h.h.h.@ % # a s s s s s d g z x c v v c c 1.g.g.s.f * * * h.h.h.h.h.h.",
"h.h.h.h.U Y h.h.P P h.h.E U h.h.h.$ o 9 $ s s s g s d z c c c c v c c x v a.g.g.d.G $ $ * h.h.h.h.h.",
"h.h.h.h.E h.h.h.T U h.h.h.h.( h.$ $ $ r < d d a d d z v v v x v c v v x g g 3.g.g.g.:.* . & h.h.h.h.",
"h.h.h.h.h.h.h.h.h.T h.h.h.h.h.h.. * * d q d a d d z v v z x l s w f x v v x x 2.g.g.g.:.+   h.h.h.h.",
"h.h.h.h.h.h.h.h.h.! h.h.h.h.h.O - 3 q d d s s s k v v v C y q f k 0 3 g v v v v :.f.g.g.;.  O h.h.h.",
"h.h.h.h.h.h.h.h.h.h.h.h.h.h.% $ w 0 r d s d d h c v v v C v z q 9 g l 9 d v v v c S a.g.d.9 . h.h.h.",
"h.h.h.h.h.h.h.h.h.h.h.h.h.h.. * a r s d s f z c c x c c x x c c x a e x s f v v c v d a H z O O h.h.",
"h.h.h.h.h.h.h.h.h.h.h.h.h.h.  < a a d s f z v v c C c x c C C c v v l x v l v v v v c a   O 3 o h.h.",
"h.h.h.h.h.h.h.h.h.h.h.h.h.@   < d s s s h c c v C x c C c c x c v v v v v v v v v v v c q . * # $ h.",
"h.h.h.h.h.h.h.h.h.h.h.h.h.X   < s s s s f x v v c c c x C x C c v v v v v v v v v v v v c <     O h.",
"h.h.h.h.h.h.h.h.h.h.h.h.h..   * a a a a s h x c C x c C x C x x v v v c v v v v v v v v c x $   X h.",
"h.h.h.h.h.h.h.h.h.h.h.h.h.    $ 9 a a a s y f l c c c C c c x C v v v v v v v v v v h l c c e o   h.",
"h.h.h.h.h.h.h.h.h.h.h.h.h.    X , e s a s s s f z c C s x C c c v v v v v v v v v v 4 4 g c x *   h.",
"h.h.h.h.h.h.h.h.h.h.h.h.h.      # q s 9 s s d s k c g 0 , s x C v v v v v v v v v c #   # * q e   h.",
"h.h.h.h.h.h.h.h.h.h.h.h.h.        4 a * s s s d h c < .   o 3 e l v v v v v v v v h     $ & . % . h.",
"h.h.h.h.h.h.h.h.h.h.h.h.h.        , a # s s s d z h $           X w c v v v v v c ,   u w.t.$.&   h.",
"h.h.h.h.h.h.h.h.h.h.h.h.h..       # r o r s s f h O X b <.0.$.<     q v v v v v h   : 8.i.i.r.7 . h.",
"h.h.h.h.h.h.h.h.h.h.h.h.h..         q o 9 d d k * . i <.u.u.u.q.7   X g v v v v 4   V u.i.i.9.; X h.",
"h.h.h.h.h.h.h.h.h.h.h.h.h.$         * X * s f f 9 o u 0.i.i.i.i.8.8   * x c v c # $ q.i.i.i.%.+ @ h.",
"h.h.h.h.h.h.h.h.h.h.h.h.h.h.          . X e f h k X 8 q.i.i.i.i.u.,.%   w c k q . V i.i.i.i.N   h.h.",
"h.h.h.h.h.h.h.h.h.h.h.h.h.h.              < a f x , 5 0.i.i.i.i.i.i.%.@ o # X   . o.e.u.y.t.p X h.h.",
"h.h.h.h.h.h.h.h.h.h.h.h.h.h.$             o r s d r X o.i.i.i.i.i.r.>.2   o $ 9 e O 6 B >.o.O + h.h.",
"h.h.h.h.h.h.h.h.h.h.h.h.h.h.h..             , r d d * $ V ,.,.#.n 6 @ < g k x v k * O X .   . h.h.h.",
"h.h.h.h.h.h.h.h.h.h.h.h.h.h.h.*             . * e d e * O & % X X , a z c z k e $ , q $     % h.h.h.",
"h.h.h.h.h.h.h.h.h.h.h.h.h.h.h.h.X               X < r d r 9 4 q s d d d r 4 O O 4 ,       O h.h.h.h.",
"h.h.h.h.h.h.h.h.h.h.h.h.h.h.h.h.h..                 o * 6 e a a s s e 4 O . $ *         . h.h.h.h.h.",
"h.h.h.h.h.h.h.h.h.h.h.h.h.h.h.h.h.h.X                       o # $ O                   X h.h.h.h.h.h.",
"h.h.h.h.h.h.h.h.h.h.h.h.h.h.h.h.h.h.h..     $ 4 e a a a a 9 #                       X h.h.h.h.h.h.h.",
"h.h.h.h.h.h.h.h.h.h.h.h.h.h.h.h.h.h.h.- . 4 r a a a a a a a a ,                   X h.h.h.h.h.h.h.h.",
"h.h.h.h.h.h.h.h.h.h.h.h.h.h.h.h.h.h.h.. < q r a d a a a a a a a *             o     h.h.h.h.h.h.h.h.",
"h.h.h.h.h.h.h.h.h.h.h.h.h.h.h.h.h.h.h.o < 9 d a a q * $ , # # $ $ 3 $       o # * 9 @ h.h.h.h.h.h.h.",
"h.h.h.h.h.h.h.h.h.h.h.h.h.h.h.h.h.h.$ X $ a a a e $ z S D D S S G =.z $ v Z Z D G =.& h.h.h.h.h.h.h.",
"h.h.h.h.h.h.h.h.h.h.h.h.h.h.h.h.h.h.#   , a q 9 < 3 G =.;.;.;.;.=.F q $ G -.;.;.=.v $ h.h.h.h.h.h.h.",
"h.h.h.h.h.h.h.h.h.h.h.h.h.h.h.h.h.h.h.  # < $ , % * c ;.;.;.;.[ C 4   < =.;.;.F s # . h.h.h.h.h.h.h.",
"h.h.h.h.h.h.h.h.h.h.h.h.h.h.h.h.h.h.h.h.@ .         < f g g d q %   o a k g r 3 O + h.h.h.h.h.h.h.h.",
"h.h.h.h.h.h.h.h.h.h.h.h.h.h.h.h.h.h.h.h.h.h.h.h.@           & -           X 2 h.h.h.h.h.h.h.h.h.h.h."
};
