/* XPM */
static char *result[] = {
/* columns rows colors chars-per-pixel */
"50 50 141 2 ",
"   c #010101",
".  c #080706",
"X  c #080807",
"o  c #070708",
"O  c #070808",
"+  c #0B0B0A",
"@  c #100F0D",
"#  c #12110E",
"$  c #0F0F10",
"%  c #0F1010",
"&  c #131312",
"*  c #191714",
"=  c #1C1A15",
"-  c #171718",
";  c #1C1C1C",
":  c #211F1B",
">  c #25231C",
",  c #382D1E",
"<  c #1F1F20",
"1  c #1F2021",
"2  c #232323",
"3  c #2D2C21",
"4  c #272728",
"5  c #272829",
"6  c #2A2A2B",
"7  c #302E24",
"8  c #333126",
"9  c #2F2F30",
"0  c #2F3031",
"q  c #333435",
"w  c #373738",
"e  c #373838",
"r  c #3C3C3D",
"t  c #402F17",
"y  c #403E30",
"u  c #68491B",
"i  c #454334",
"p  c #514F3C",
"a  c #52503D",
"s  c #3F3F40",
"d  c #3F4041",
"f  c #414142",
"g  c #464748",
"h  c #474849",
"j  c #4A4B4C",
"k  c #575440",
"l  c #5C5944",
"z  c #595642",
"x  c #4E4F50",
"c  c #4F5052",
"v  c #525355",
"b  c #565759",
"n  c #57585A",
"m  c #58595B",
"M  c #605D47",
"N  c #65624B",
"B  c #68654E",
"V  c #6D6951",
"C  c #726F55",
"Z  c #747156",
"A  c #7B785B",
"S  c #5E5F60",
"D  c #5F6061",
"F  c #626365",
"G  c #666768",
"H  c #67686A",
"J  c #6B6B6D",
"K  c #6E6F70",
"L  c #6F7072",
"P  c #747576",
"I  c #757678",
"U  c #77787A",
"Y  c #797A7B",
"T  c #9F793B",
"R  c #F05B28",
"E  c #F1612A",
"W  c #F26B2D",
"Q  c #F3722F",
"!  c #F47630",
"~  c #F47831",
"^  c #807C5F",
"/  c #B78335",
"(  c #D49538",
")  c #F68535",
"_  c #F68B36",
"`  c #F69037",
"'  c #F79338",
"]  c #F89D3B",
"[  c #E9A33D",
"{  c #F9A33D",
"}  c #F6AD3F",
"|  c #FAAA3F",
" . c #9B814D",
".. c #888465",
"X. c #8E8A69",
"o. c #938F6D",
"O. c #94906E",
"+. c #9A9672",
"@. c #9C9874",
"#. c #A19C77",
"$. c #A29E78",
"%. c #A9A47D",
"&. c #E5A340",
"*. c #EBA846",
"=. c #F7AD40",
"-. c #FAAF41",
";. c #FAB144",
":. c #FAB34A",
">. c #FAB752",
",. c #7D7E80",
"<. c #7F8082",
"1. c #818284",
"2. c #8C8C8D",
"3. c #979797",
"4. c #9D9D9E",
"5. c #AEA981",
"6. c #B3AE85",
"7. c #AAAAAA",
"8. c #B6B6B7",
"9. c #BBBCBC",
"0. c #C0BA8E",
"q. c #D7C487",
"w. c #C7C193",
"e. c #CCC697",
"r. c #CEC899",
"t. c #D0C99A",
"y. c #DBD5A3",
"u. c #DFD9A5",
"i. c #E1DBA7",
"p. c #E5DEA9",
"a. c #EBE4AE",
"s. c #EEE7B0",
"d. c #EFE8B1",
"f. c gray81",
"g. c #C2C2C3",
"h. c #DDDDDD",
"j. c #E3E3E3",
"k. c #EAEAEA",
"l. c #F5F5F5",
"z. c #FDFDFD",
"x. c None",
/* pixels */
"x.x.x.x.x.x.x.x.x.x.x.x.x.x.x.x.x.x.x.x.x.x.x.x.x.x.x.x.x.x.x.x.x.x.x.x.x.x.x.x.x.x.x.x.x.x.x.x.x.x.",
"x.x.x.x.:.x.x.x.x.:.x.x.x.x.x.x.x.x.x.x.x.x.x.x.x.x.x.x.x.x.x.x.x.x.x.x.x.x.x.x.x.x.x.x.x.x.x.x.x.x.",
"x.x.x.x.:.:.x.x.:.;.x.x.x.x.x.x.x.x.x.x.x.x.x.x.x.x.x.x.x.x.x.x.x.x.x.x.x.x.x.x.x.x.x.x.x.x.x.x.x.x.",
"x.x.x.x.:.;.:.x.;.:.x.x.x.= = = = & x.x.x.x.x.x.x.x.x.x.x.x.x.x.x.x.x.x.x.x.x.x.x.x.x.x.x.x.x.x.x.x.",
"x.x.x.x.>.| ;.;.| } x.t u / q.6.w.O.a > = x.x.x.x.x.x.x.x.x.x.x.x.x.x.x.x.x.x.x.x.x.x.x.x.x.x.x.x.x.",
"x.;.;.;.;.] _ ] ` } ( [ &. .+.z A C Z #.N 7 x.x.x.x.x.x.x.x.x.x.x.x.x.x.x.x.x.x.x.x.x.x.x.x.x.x.x.x.",
"x.x.;.| { ' W W ) { { } T = 8 > > > 7 V ..#.+ # @ X + # x.x.x.x.x.x.x.x.x.x.x.x.x.x.x.x.x.x.x.x.x.x.",
"x.x.x.| _ E R R R ~ | / , x.x.x.x.x.x.* p :             + x.x.x.x.x.x.x.x.x.x.x.x.x.x.x.x.x.x.x.x.x.",
"x.x.:.| ` E R R R Q { [ *.x.x.x.x.x.x.x.                  + # - ; - & = x.x.x.x.x.x.x.x.x.x.x.x.x.x.",
";.;.| { _ W R R E _ ] ;.| ;.:.x.x.x.x.x.      o X & @ 5 6 ; 6 r y e w 4 - + x.x.x.x.x.x.x.x.x.x.x.x.",
":.:.;.:.| ~ Q W Q ' ;.:.x.x.x.x.x.x.x.x.  & 9 s s f d d f f D 4.9.7.v q r q - & x.x.x.x.x.x.x.x.x.x.",
"x.x.x.;.{ { { ) | ] | x.x.x.x.x.x.x.x.X 1 s f f f s f d f f 2.k.l.k.1.q j e r r - = x.x.x.x.x.x.x.x.",
"x.x.x.;.;.;.;.| ;.;.| ;.x.x.x.x.x.* - + w f s s f f f f g j n P Y K m Y l.h.3.r 4 < & x.x.x.x.x.x.x.",
"x.x.:.;.x.x.;.| :.x.>.;.x.x.x.x.X   4 ; s f f f f f f v b n n b n b m m g.z.z.j.n & ; : x.x.x.x.x.x.",
"x.x.>.x.x.x.x.;.x.x.x.x.x.x.x.* & & 6 4 f s s s i j b n n n n n m m b j b f.z.z.z.1.- + + x.x.x.x.x.",
"x.x.x.x.x.x.x.:.x.x.x.x.x.x.x.. ; ; q q f s f s g m n n n b v b m m m m j g f.z.z.z.8.@ . = x.x.x.x.",
"x.x.x.x.x.x.x.x.x.x.x.x.x.x.- X 6 5 s r s f f g b m m v x x h w q f b m m v S 8.z.z.z.3.;   x.x.x.x.",
"x.x.x.x.x.x.x.x.x.x.x.x.x.@ 4 - q q f f f s f c m m m b f w s x s 6 q b b S S S 8.l.z.l.Y . # x.x.x.",
"x.x.x.x.x.x.x.x.x.x.x.x.x.. e q s y f f s g v m m m m m m m h 9 q x x 0 j S b b m K 7.z.j.5   x.x.x.",
"x.x.x.x.x.x.x.x.x.x.x.x.#   r r s d d f h v m m m m m m m m m b f s x x s c b S m v j m U f X o x.x.",
"x.x.x.x.x.x.x.x.x.x.x.x.X X d f s s s x m m m m m m m m m m m m m v x m m c m m m m m 5   & 4 o x.x.",
"x.x.x.x.x.x.x.x.x.x.x.x.  o f f f s f x m m m m m m m b m m m m m m m m m m m m m m m v 6   < O = x.",
"x.x.x.x.x.x.x.x.x.x.x.=   . d f s s f x m m m m b S S b m m m m m m m m m m m m m m m m c & o . + x.",
"x.x.x.x.x.x.x.x.x.x.x.@   . r f f f f f x v m m b b b m m m m m m m m m m m m m m m m m m j o   X x.",
"x.x.x.x.x.x.x.x.x.x.x..     q q f f y f d j b b S b S b S S v S m m m m m m m m m m x m m m 4   X x.",
"x.x.x.x.x.x.x.x.x.x.x.      2 5 f s f f d d g b S b j b b b S v m m m m m m m m m x 2 s c m v + X x.",
"x.x.x.x.x.x.x.x.x.x.x.      & < f w r d d d f v b c q 6 x S b S m m m m m m m m m d X $ 2 0 g 0 . x.",
"x.x.x.x.x.x.x.x.x.x.x.        & s 9 w d f d s v b < $   & s x v m m m m m b m m m 6         . q & x.",
"x.x.x.x.x.x.x.x.x.x.x.        X w 5 9 f f f f v v &         o & g b m m m m m m v &   i +.O.i   X x.",
"x.x.x.x.x.x.x.x.x.x.x.X         q 5 2 s f f g j ;   > p B r X   . q b m m m m m w   = i.d.d.u.. . x.",
"x.x.x.x.x.x.x.x.x.x.x.#         2 5 - r f f v 1 . y 5.s.s.a.@.3   X g m m m m v @ & X.d.d.d.t.  X x.",
"x.x.x.x.x.x.x.x.x.x.x.:         & 4 o q d j g % . l r.s.s.d.s.6.X   ; b m m m j   i u.d.d.d.5.  + x.",
"x.x.x.x.x.x.x.x.x.x.x.x.          &   2 s j g q   z u.s.d.d.d.d.+.*   q m m m 4 . %.d.d.d.d.V   = x.",
"x.x.x.x.x.x.x.x.x.x.x.x.X             & s f c g X l u.d.d.d.d.d.p.A . $ s s 6 o 3 y.d.d.d.d.i . x.x.",
"x.x.x.x.x.x.x.x.x.x.x.x.#             o q s f x 1 3 e.d.d.d.d.d.d.p.z   o     o & ..u.d.a.y.& + x.x.",
"x.x.x.x.x.x.x.x.x.x.x.x.x.              & s f f e o N a.d.d.d.s.0.A 3 $ < 4 r c q X & a l > . x.x.x.",
"x.x.x.x.x.x.x.x.x.x.x.x.x.#               4 s s f ; . i $.$.C 7   O 4 v m m m v 0 & -       # x.x.x.",
"x.x.x.x.x.x.x.x.x.x.x.x.x.x.X               - q s r 4 $ + X o & 6 f v v x g w - - 6 2     . x.x.x.x.",
"x.x.x.x.x.x.x.x.x.x.x.x.x.x.x.                . - e f r r w e s f f f d 5 + + 5 ; O       x.x.x.x.x.",
"x.x.x.x.x.x.x.x.x.x.x.x.x.x.x.*                     & 2 q e s d d q ; X o + & o         & x.x.x.x.x.",
"x.x.x.x.x.x.x.x.x.x.x.x.x.x.x.x.*         . + + + X .       o X .                     X x.x.x.x.x.x.",
"x.x.x.x.x.x.x.x.x.x.x.x.x.x.x.x.x.+ . = 6 q w r r r q 2 X                           * x.x.x.x.x.x.x.",
"x.x.x.x.x.x.x.x.x.x.x.x.x.x.x.x.& . 6 r f d d d d d d r 5 o                       . = x.x.x.x.x.x.x.",
"x.x.x.x.x.x.x.x.x.x.x.x.x.x.x.x.+ 4 9 r f d d d d d d f f e +               o ; 6 X   x.x.x.x.x.x.x.",
"x.x.x.x.x.x.x.x.x.x.x.x.x.x.x.> & 4 6 d d d w 2 < ; < ; ; < ; 6         o o X ; ; 2 6 # x.x.x.x.x.x.",
"x.x.x.x.x.x.x.x.x.x.x.x.x.x.x.# & & d d d s & s F G G G F J U <.; . 5 v J H G H K Y ,.& x.x.x.x.x.x.",
"x.x.x.x.x.x.x.x.x.x.x.x.x.x.x.. . - d r q 6 & P 1.1.1.1.1.1.<.P ; ; I 1.1.1.1.1.1.<.K & & x.x.x.x.x.",
"x.x.x.x.x.x.x.x.x.x.x.x.x.x.x.:   * 9 1 & 1 & c <.1.1.1.1.I g &   ; g 1.1.1.1.1.L r +   x.x.x.x.x.x.",
"x.x.x.x.x.x.x.x.x.x.x.x.x.x.x.x.# X + .   + . 1 m F F m b s ; .     ; m D S m x e ; + x.x.x.x.x.x.x.",
"x.x.x.x.x.x.x.x.x.x.x.x.x.x.x.x.x.x.x.@ # X     . . . . # X # # .       . . X # + x.x.x.x.x.x.x.x.x."
};
