/* XPM */
static char *result[] = {
/* columns rows colors chars-per-pixel */
"50 50 198 2 ",
"   c #FCFCFB",
".  c #FCFBFA",
"X  c #FBFBFA",
"o  c #FBFBF9",
"O  c #FCFCFA",
"+  c #F8F7F4",
"@  c #EEECE9",
"#  c #EAE6E3",
"$  c #FBFCFA",
"%  c #E2DED9",
"&  c #ABA5A1",
"*  c #86827D",
"=  c #837E78",
"-  c #8E8983",
";  c #D8D5D2",
":  c #FBF9F7",
">  c #B2ABA5",
",  c #736B65",
"<  c #9A938E",
"1  c #F5EEE7",
"2  c #F8F2EC",
"3  c #EEE6DE",
"4  c #5E554E",
"5  c #614739",
"6  c #B3A8A0",
"7  c #FCFAF8",
"8  c #9C9792",
"9  c #585651",
"0  c #4D4741",
"q  c #453A33",
"w  c #6F6760",
"e  c #D6CEC6",
"r  c #E0D9D2",
"t  c #AC9E95",
"y  c #853822",
"u  c #9C8A7E",
"i  c #C3BDB8",
"p  c #7D7770",
"a  c #53443C",
"s  c #3D1C10",
"d  c #6F3F2E",
"f  c #442E23",
"g  c #58635F",
"h  c #4F5350",
"j  c #8F3B23",
"k  c #D25128",
"l  c #B7AFA8",
"z  c #FCFBF9",
"x  c #AEA7A2",
"c  c #40362D",
"v  c #492215",
"b  c #7B3B2A",
"n  c #884532",
"m  c #633D27",
"M  c #505E5D",
"N  c #4E6464",
"B  c #537472",
"V  c #544B44",
"C  c #AA4527",
"Z  c #7A513A",
"A  c #F3F1ED",
"S  c #79685E",
"D  c #B5A293",
"F  c #CDC2BA",
"G  c #DAD1CA",
"H  c #D1CECA",
"J  c #6F7876",
"K  c #485C59",
"L  c #59524B",
"P  c #E3E0DC",
"I  c #B4B0AC",
"U  c #45433D",
"Y  c #E4DBD3",
"T  c #F8F1E9",
"R  c #FAF2EA",
"E  c #F9F3EC",
"W  c #FAF3EB",
"Q  c #76706A",
"!  c #364948",
"~  c #4C3A31",
"^  c #4F4036",
"/  c #978A82",
"(  c #A59589",
")  c #675950",
"_  c #6D635C",
"`  c #827972",
"'  c #3C5A5C",
"]  c #443E38",
"[  c #FAFAF8",
"{  c #FBF8F4",
"}  c #C7BCB3",
"|  c #80693F",
" . c #CEAF44",
".. c #B08E36",
"X. c #8C6F31",
"o. c #A78534",
"O. c #967C45",
"+. c #7F6C59",
"@. c #F4ECE4",
"#. c #E8E0D8",
"$. c #CBC5BF",
"%. c #4E6C6C",
"&. c #51B8CC",
"*. c #44696C",
"=. c #858784",
"-. c #8E7438",
";. c #DDBA42",
":. c #F6CF37",
">. c #B1943F",
",. c #D2C9C1",
"<. c #4EC2DA",
"1. c #47777C",
"2. c #C5C2BE",
"3. c #DDDBD7",
"4. c #EAC53C",
"5. c #C4A139",
"6. c #948172",
"7. c #4FA5B6",
"8. c #5F7274",
"9. c #7E7A75",
"0. c #A28B4A",
"q. c #E8C445",
"w. c #F4CD3C",
"e. c #DFB93A",
"r. c #634F3E",
"t. c #C0B8B0",
"y. c #417075",
"u. c #9C8E85",
"i. c #8B723F",
"p. c #7F632D",
"a. c #876A37",
"s. c #71562B",
"d. c #7B684F",
"f. c #A29991",
"g. c #4B8D97",
"h. c #397883",
"j. c #4A7174",
"k. c #686F6C",
"l. c #E6E3E0",
"z. c #888179",
"x. c #F9F0E7",
"c. c #7E746C",
"v. c #928D87",
"b. c #F2EFEB",
"n. c #F5F3F1",
"m. c #A7A09B",
"M. c #BDB3AB",
"N. c #CDC9C5",
"B. c #796C68",
"V. c #ECE9E6",
"C. c #F1E9E1",
"Z. c #A69D95",
"A. c #A09B95",
"S. c #BDB9B5",
"D. c #6A6762",
"F. c #65605A",
"G. c #B9B4AF",
"H. c #97908A",
"J. c #C6C0BA",
"K. c #383028",
"L. c #90877E",
"P. c #F9F4EF",
"I. c #615B54",
"U. c #78746E",
"Y. c #DDD5CE",
"T. c #9D938E",
"R. c #EBE3DC",
"E. c #8C857F",
"W. c #A49E99",
"Q. c #ADA49D",
"!. c #D5D2CE",
"~. c #34241B",
"^. c #533E2C",
"/. c #C2A94E",
"(. c #8F8379",
"). c #6F5840",
"_. c #A68A40",
"`. c #997B33",
"'. c #937A3C",
"]. c #674926",
"[. c #B89B44",
"{. c #96867B",
"}. c #695234",
"|. c #C1A243",
" X c #817367",
".X c #775E40",
"XX c #897261",
"oX c #7C6049",
"OX c #806334",
"+X c #796339",
"@X c #6E5937",
"#X c #9E8339",
"$X c #786A65",
"%X c #6B5F57",
"&X c #665348",
"*X c #735F55",
"=X c #5C4438",
"-X c black",
/* pixels */
"      . . .   X . o   .   . X         O o + @ # + X O O   .     .                         .         ",
"  X X   X $ $ X X X X X X o X   O   + % & * = * = - ; : . : O   . O                 $         O   . ",
"  X         X X X X o $           + > , < % 1 2 3 4 5 6 + 7 O O X       X     .   O       O   $   X ",
"O X     X . . X       X o X X O + 8 9 0 q w e r 3 t y y u +     .   $             O                 ",
"o .   O . X X X .   X   X X o 7 i p a s d f 9 g g h j k y l z o X       O                           ",
"O X X $ X X X           X X . 7 x c v b n m 0 M N B V C k Z A O                   X             $   ",
"X X     X X X X X .     X   z 7 x c S D F G G H l J K L y m P                                       ",
"X X X         X X X     X   o : I U Y T R T E W l x Q ! K ~ #   .     . $     X         $ $ $ $     ",
"o       X X X X $         O : G ^ / G F ( ) G T _ ` x h ' ] P X $         .                 X     X ",
"  O           . X [   X : { } |  ...X.o.O.+.@.E #.3 $.%.&.*.=.+ . O               .       z O       ",
"X           $ X X X   o A ( -.;.:.:.:.:.>.} R W R R ,.N <.&.1.2.:       $     $       X             ",
"X X     X X X X $   X 3.+.o.4.:.:.:.:.:.5.6.Y E R E e N <.<.7.8.+ z X X   X               X         ",
"$   X X X X X   o o X 9.0.q.:.:.:.:.w.e.o.r.F E E 2 t.*.<.<.&.y.2.O $   o [         $               ",
"  . o X X . o X X X o 3.u.| i.p.p.a.s.d.} @.T T W R f.' g.h.j.k.i   X   X         $     X           ",
"X X X .   .   X     . . { l.; $.$.r t.z.1 x.T R W W c.* v.I 3.b.[         X       $     $   $       ",
"  X X     $ X     X O z z o . . O . n.= Y R T R T T _ 3.. : 7 .   .                   X             ",
"o [ X   $       z . X X X X X o o O : m.M.R R R R 1 c.# z   O                   X X       O         ",
"                              X X . : N.= R R R R 3 p b.[   O . . O         X     z o .   o   X     ",
"                X X         X o [ X z % , T R R T #.Q b.7 z z . .   X   X $   $ z o $     $       X ",
"              O                 O z [ ; c.R R W R 3 B.V.7 z .         O X         X                 ",
"          X o X O                 z : 8 > R R W R T , 3.7 . . O . O         X                 $   X ",
"        : < 9.; . o [ o X     X   : $.p C.R R W W T Z.A.7 .                 O     . . O X           ",
"    X   2.- S.D.; [ 7 z   . X [ @ m.Q G R R R R R T r Q A z . O z   O o X     X   X   X X .   X     ",
"    X X =.I T H F.N.: 7 z [ b.G.F.* % E R W R R E T x.v.G.o     O     X     X       X   X X         ",
"    X [ S.H.x.E J.V v.H.v.9.9 K.& 1 2 E 2 W W R W R R r F.@   O         o   X   $   $ X X         X ",
"  X [ H v.9 G x.l L.,.$.$.; A.= T T R P.P.E W W R R R T l A.[   z       X             X   X   X O X ",
"    + I.A.= U.% Y.Q @.R T G U.% T x.R W P.P.E E R R T R C.I.l..   . X         O   O                 ",
"  O [ v.S.V.; C.F L #.R 1 z.} E E E W E E E P.E R R T T T T.x 7             $   z   $     X o X   X ",
"    X l.F.- % J.w ,.1 R $.f.x.E W W 2 E E 2 E W R R W T R Y p n.      O   . O             o         ",
"      o @ 4 A.S.L.x.R x.T.R.R E R W E E R R W W R R T W R x.= ; z         O                 X       ",
"        # 9 8 v.L 3 R R @.R W E W W E E R R R R R R R R W R H.I [             O X   X . . O   O O O ",
"        : 2.E.] G.1 R R R R R W W W E E R R W R T R E E R R & W.        $   $                   $ $ ",
"X           + 8 H.3 R R T R 2 P.P.P.E P.E E E E E R R W E R Q.z.    O $                   X   X     ",
"          o   A E.w Y.R T E P.E P.P.E E E P.W E E 2 T R R R Q.z.    $     O   X .             O     ",
"              z { !.` T E E P.P.E E E P.E E E E E 2 T R T R Q.z.X           o X     X     X   X     ",
"                [ : v.t.E P.P.E P.P.P.P.E E E E E 2 E T R E f.<       X X X X   $                 X ",
"$               X o # Q Y.P.P.E E E P.E E 2 E E 2 2 T T R C.Q G X   $ X . o X X     $     .   .     ",
"    X   X     X   . o H L Y E E P.P.P.P.P.E P.E E E R R 2 L.W.[ O         X               X   X     ",
"    X                 [ N.Q e T W 2 P.P.E P.E E E 2 T R $.F.V.[ X       O       .   X   O           ",
". .           X   $     . N.9., - 6 ,.1 W P.E 2 E E T 2.L % [ [ o               X       O X         ",
"X X X       O   X X O   X   [ W.~.-.^.c.#.W 2 E 2 #.Z._ H 7 o o [ O     X                           ",
"        o $ X X   . O       X # c /.p.(.) Z.Y.Y.Q.).^.> 7 [ o [ o X         X                     X ",
"    X               X     o o { z._.`.M.@.M.z.` c '.`.6 z X [ o [ o X X   O     $                   ",
"    X             X     $   X : ,.a.o.( P.{ + P./ p...( z X [ o o o X     X         $               ",
"                  X           o A ).o.6.P.{ : : G ].[.6.z o X [ [ X $                   $ $         ",
"    o X .                       : {.-.+.+ 7 : : 1 }.|. X[ X           X o $     X                   ",
"    X . X     X     X   o o X X + t p..X@ { [ : P.XX>.oXA X o o o X X O                 O .         ",
"    $ . . : [ n.V.% r ; 3.3.; S.S a. .OXJ.3.!.J.{.+X .`.Q.3.3.3.; ; ; ; ; ; ; ; # + .   X         O ",
"    . o [ { H H.* ` c.c.p p 4 f @X#XX.m $Xp %Xf }.>...s.r.c.c.c.c.c.c.c.c.c.c.c.z.8 P O           X ",
"    $ X [ : !.v.U.Q B.B.$XB.w ) &X) %X*X$XB.$X%Xr.=X=X&XS B.B.B.B.$X$X$X$XB.B.B.B.= !.              "
};
