/* XPM */
static char *result[] = {
/* columns rows colors chars-per-pixel */
"50 50 189 2 ",
"   c #FCFCFA",
".  c #FCFBFA",
"X  c #FCFCFB",
"o  c #FCFBF9",
"O  c #FBFBFA",
"+  c #FBFBF9",
"@  c #FBFCFA",
"#  c #FBF9F7",
"$  c #EEECE9",
"%  c #E6E3E0",
"&  c #F5F3F1",
"*  c #FAFAF8",
"=  c #ECE9E6",
"-  c #B9B4AF",
";  c #86827D",
":  c #6A6762",
">  c #76706A",
",  c #736B65",
"<  c #DDDBD7",
"1  c #C5C2BE",
"2  c #6F6760",
"3  c #8C857F",
"4  c #DAD1CA",
"5  c #F8F1E9",
"6  c #F9F3EC",
"7  c #6B5F57",
"8  c #5C412F",
"9  c #A29991",
"0  c #6D635C",
"q  c #443E38",
"w  c #383028",
"e  c #40362D",
"r  c #97908A",
"t  c #ADA49D",
"y  c #C6C0BA",
"u  c #AC9E95",
"i  c #9B3F25",
"p  c #8F3B23",
"a  c #96867B",
"s  c #FCFAF8",
"d  c #675950",
"f  c #56291B",
"g  c #7B3B2A",
"h  c #633D27",
"j  c #45433D",
"k  c #5C6A68",
"l  c #4E6C6C",
"z  c #505E5D",
"x  c #D25128",
"c  c #CDC2BA",
"v  c #59524B",
"b  c #6F3F2E",
"n  c #895040",
"m  c #8D6856",
"M  c #686F6C",
"N  c #58635F",
"B  c #4E6464",
"V  c #4F5350",
"C  c #BB4825",
"Z  c #897261",
"A  c #615B54",
"S  c #EBE3DC",
"D  c #FAF2EA",
"F  c #E8E0D8",
"G  c #523826",
"H  c #6F5B4A",
"J  c #EAE6E3",
"K  c #534E49",
"L  c #D6CEC6",
"P  c #F5EEE7",
"I  c #D2C9C1",
"U  c #DDD5CE",
"Y  c #2A3837",
"T  c #3E5050",
"R  c #775E40",
"E  c #937A3C",
"W  c #866F4A",
"Q  c #937B53",
"!  c #80693F",
"~  c #BDB3AB",
"^  c #4A7174",
"/  c #438793",
"(  c #F8F7F4",
")  c #8B723F",
"_  c #E8C445",
"`  c #F6CF37",
"'  c #F4CD3C",
"]  c #DDBA42",
"[  c #A28A76",
"{  c #FAF3EB",
"}  c #417075",
"|  c #4EC2DA",
" . c #519DA9",
".. c #7F8A8A",
"X. c #8F8379",
"o. c #8C6F31",
"O. c #EAC53C",
"+. c #DFB93A",
"@. c #9A8568",
"#. c #F1E9E1",
"$. c #54BED3",
"%. c #44696C",
"&. c #A28B4A",
"*. c #BF9B37",
"=. c #695234",
"-. c #B7AFA8",
";. c #F9F4EF",
":. c #47777C",
">. c #4FA5B6",
",. c #787F7D",
"<. c #CBC5BF",
"1. c #948172",
"2. c #9E8339",
"3. c #997B33",
"4. c #8E7438",
"5. c #71562B",
"6. c #AC9585",
"7. c #8E8983",
"8. c #4896A6",
"9. c #537472",
"0. c #F2EFEB",
"q. c #D1CECA",
"w. c #C0B8B0",
"e. c #7E746C",
"r. c #F9F0E7",
"t. c #858784",
"y. c #928D87",
"u. c #E3E0DC",
"i. c #F3F1ED",
"p. c #EEE6DE",
"a. c #90877E",
"s. c #FBF8F4",
"d. c #E4DBD3",
"f. c #877C73",
"g. c #D5D2CE",
"h. c #B2ABA5",
"j. c #E2DED9",
"k. c #9C9792",
"l. c #837E78",
"z. c #78746E",
"x. c #C3BDB8",
"c. c #7E7A75",
"v. c #D8D5D2",
"b. c #AEA7A2",
"n. c #2B2D28",
"m. c #ABA5A1",
"M. c #C7BCB3",
"N. c #A7A09B",
"B. c #7D7770",
"V. c #CDC9C5",
"C. c #65605A",
"Z. c #E0D9D2",
"A. c #F4ECE4",
"S. c #888179",
"D. c #F8F2EC",
"F. c #A09B95",
"G. c #9A938E",
"H. c #5E554E",
"J. c #BDB9B5",
"K. c #A49E99",
"L. c #A69D95",
"P. c #533E2C",
"I. c #796339",
"U. c #B3A8A0",
"Y. c #674926",
"T. c #C1A243",
"R. c #79685E",
"E. c #9F928D",
"W. c #7C6049",
"Q. c #B1943F",
"!. c #B08E36",
"~. c #7F632D",
"^. c #6F5840",
"/. c #7F6C59",
"(. c #7B684F",
"). c #B4B0AC",
"_. c #D9BC51",
"`. c #827972",
"'. c #A68A40",
"]. c #88652D",
"[. c #786A65",
"{. c #796C68",
"}. c #53443C",
"|. c #4C3A31",
" X c #62492F",
".X c #4F4036",
"XX c #9D938E",
"oX c #9C8E85",
"OX c black",
/* pixels */
"  .   X X     X   X   X . . . . X o X   X X   X . . X   X . X X .     . . X   X   X X     . . X   X ",
". . O . . X . o X .   . X + O . . + X   X   X X X X . X   X X X X X X X X X X . X X X   . X X X     ",
"O @ O X O . @ X X X . @ X + O O O X . X X X X X o # $ % & X . X X . X X X X X X X X X   X X X X X X ",
"O   X @ X X X + O X O @ O X + O O O * +   X + = - ; : > , ; < * o . X   X X X   X X X X X @ X X X X ",
"O + O . X X O O X X X @ O O + O @ @ X X X . 1 2 3 4 5 6 5 7 8 9 # . X X X X X O X X .   O X X X X @ ",
"X X X X X . O X X X . . X O X . + O + O + 1 0 q w e r t y u i p a # X + X @ X X X X X X X X X X X @ ",
"O O . . X + O   X X + + O X X   X O O o s 2 d f g h j k l z p x p c o O X X X X X X X X X X X X X X ",
"O O . X X O + O @ X X O @ X @ X X X X + # v e b n m 2 M N B V p C Z . X X X X X @ X X X O X X X X X ",
"O O O X X O O X X X O O O X O X X X @ * # A 2 S D D D D F - V B G H . +   X X X X X X X X X X O X X ",
"@ O + . X O O O @ X O + O + @ X @ X X # J K L 5 P I U 6 , , 3 Y T , * + X @ X X X X @ X X X X X X X ",
". X O X X . O X X X X X . . + O @ * # 4 R E W Q ! G L 5 ~ c t ^ / j % + X X X X X X X X X X X X . O ",
"X X X X X X X X X X X @ O O O X + ( ~ ) _ ` ' ' ] [ D 6 { D ~ } |  ...& . X @ X X X X     X O   X X ",
"O X O X X X X X X X . O O @ X X $ X.o.O.` ` ` ` +.@.#.{ D D ~ } | $.%.1 o O X X X X . X X X X O X X ",
"@ O O X X O O O @ O O     + + . > &._ ` ` ` ' O.*.=.-.5 { ;.t :.| | >.,.& . X + O X X X O X X X X X ",
"@ O O X X X X O @ @ O . + O O O <.1.) 2.3.3.4.5.6.U P 5 { D 7.} 8./ 9.; 0.O X O O X X X X X X O X @ ",
"@ X O X @ O O O @ * . X X O X X . ( % q.w.<.U e.F r.D D D 5 e.t.y.- u.( X @ X X X X X X X X X X X @ ",
"X + o O X @   X . @ X O @ X X X . X + + + X . 1 y.D D D 5 #.> i.o s . X X . X X X X X O X X X . X X ",
"X O O X X X + O X @ X X X . X O O @ X O + + + = 2 r.D D 5 p.a.s.o X X X X X X X X X . O X X X O X X ",
"O X X X X . X X X X X X X X O X X X X @ O * + s.> p.D D D d.7.s.o . . . . X X X @ X X O O X X X O X ",
"X X X @ X X X X X X X X X O @ X X X X O + + O # 3 F D D D d.a.( o o o . . X X O X   X O O O @ @ X X ",
"  X X X X X X X X X X X O . X X X X X X X   s & 2 p.D { { p.f.( s . X X X X @ X X X @ X X X X X X X ",
"X X X X X X X X X X & g.& X X X X X X X X . # h.y.D D { D r.f.j.o .   X . . X X O X X X X X X X .   ",
"@ X X X X X X @ X O k.3 > % s s o X X @ + & h.l.#.D D D 5 6 h.r # . X X X X X X X   X   .   O X X O ",
"X X X X X X X X X & z.P x.c.u.s s X O # v.; ; j.D D D D { 5 d.> i.+ X X X X X X   @ X X X X O O @ @ ",
"O X X X X X X O O ( > P 5 - : x.<.1 b.z.n.-.5 6 6 6 { D { { 5 m.r + X X X . X X X X . @ O @ @ O O X ",
"X X X X X X X + # < c.M.r.y > t N.N.w.l.N.5 5 { { { D { 6 ;.6 P B.u.@ X   . X X X X X O X X O X X X ",
"@ X X X X X X X V.C.; A 4 Z.f.A.D 5 <.l.P 5 D { { D { { { ;.;.D c l.. X X X @ X X O X X X X X X @ X ",
"X X X X X X X O u.B.J g.d.U , U D A.S.L D.D 6 6 D D { 6 6 6 6 { #.0 J o X X @ X X X   X O X X X O O ",
"O X X X X X X O + F., <.S 0 M.P D b.h.5 { { { ;.{ { { 6 6 { 6 { D - h.. @ X X   X     X X X X . + . ",
"X X X @ X X X X X o N.0 F e.A.D r.9 A.D D { { 6 ;.6 D { 5 5 6 { D p.S.(   X X X X X X X @ X X X X X ",
"  X X @ X X X X X X G.B.; H.d.D D P D D D D ;.;.;.{ D D 6 D D { D D B.$ X X X X O X X X O X X X X X ",
"@ X X X X X X X X X & J.C.b.r.D D D D D D { 6 ;.6 6 { D D { D 5 { { e.u.X X   X X X X X X X X X X @ ",
"X X X X X X X X X X X X u.C.c P D D D D { 6 6 6 6 6 { D D D { { { { 2 v.@ X X O X @ X X X   X X X X ",
"@ X X X X X X X X X O O o Z.l.N.D D { { 6 6 6 D.6 6 6 D 6 D D D D D 2 v.X X X X o X X X X X X .   @ ",
"X X X @ X X X X X X X X   + = B.p.{ { 6 ;.6 ;.;.6 6 { D { { { 6 5 6 2 v.O O O O O @ O @ X X X X X X ",
"  X X X X X X X X X X X X O * V.7.A.;.6 ;.6 6 6 6 6 6 { { D { { { p.> $ O X X   O O . X X . X X X X ",
"  O X X X X X X X   X X X O O * r K.6 6 D.;.6 6 ;.;.6 6 D D { { 5 r - # X X @ O   @ X X X . X X X X ",
"O X X   X @ X X O X X X X X X O & 7.F.A.6 D.;.;.;.;.6 6 D { { { x., ( * X X X X X X X X X X X X X X ",
"X X X . X @ X X X O X X X   . X X ( F., L.L S 5 ;.;.;.6 D { D I 7 % # * @ X . . @ X X X X @ X X X X ",
"X X X X X O + O . X X   X O O X O X * u.j P.I.7 U { D.D.D.A.U., V.o * * + . X X X X X X O X X X . X ",
"X X X X @ O X X X X O @ X O O X X X @ + - Y.T.H R.E.4 U -.W.P.V.o * + + + X X X X X X X X X X X X X ",
"@ X X X X X X X X X X X X O X @ O . + * 0.8 T.Z A.M.B.2 w E 4.I . @ O O * + . @ X O X O @ X X X X X ",
"X X X @ X X X X O @ X X X X X X X X X O s.a Q.! ;.s.s.s.9 5.2.-.. + O + * O @ X X X X X X @ X X X X ",
"X X X X X X X   X X X X X X X X X X X O + L 4.! 0.# # # F Y.!.9 . + O O   X O X X X X X X X X O X X ",
"  X X X @ . X . O O X X X X X X @ O O @ X 0.! ~.Z.s # # ;.^.!.a.+ + X X X X O O X X X X . X X X X @ ",
"O X X X X X X X @ . O X   O o + . . * + ( V.R o.m.s.* # A./.Q.(.# + + + * + + o + . . . . X X . O X ",
"  O X @ @ X X X . O * ( j.y ).t t m.m.r 7 ) _.Q.7 m.F.`.R '._ ].y.m.m.m.t t N.N.t t t y % X X X X X ",
"X X X X X X X X + O # u.c.> [.[.[.{.[.}.|. X XP.d {.0 .X X5.Y.G 0 [.[.{.[.[.[.[.[.{.[.{.B.j.X X @ X ",
"X O X X X X X X @ @ o ( g.).b.b.N.XXXXXXr oXXXXXXXXXXXXXoXa a oXE.E.XXE.E.E.E.E.E.XXXXK.y & X @ X X ",
"@ . .   . X X X X X X X . s s # # # # # # * + o s * + + . s s * s s # # s * * * * O O * * o X X X X "
};
