/* XPM */
static char *result[] = {
/* columns rows colors chars-per-pixel */
"50 50 186 2 ",
"   c #FCFCFA",
".  c #FCFBFA",
"X  c #FCFCFB",
"o  c #FCFBF9",
"O  c #FBFBFA",
"+  c #FBFBF9",
"@  c #FCFAF8",
"#  c #FAFAF8",
"$  c #ECE9E6",
"%  c #D5D2CE",
"&  c #CBC5BF",
"*  c #CDC9C5",
"=  c #D8D5D2",
"-  c #F5F3F1",
";  c #F8F7F4",
":  c #D1CECA",
">  c #8C857F",
",  c #7E746C",
"<  c #8E8983",
"1  c #A7A09B",
"2  c #ABA5A1",
"3  c #78746E",
"4  c #6D635C",
"5  c #BDB3AB",
"6  c #F9F4EF",
"7  c #59524B",
"8  c #53443C",
"9  c #544B44",
"0  c #CDC2BA",
"q  c #FAF2EA",
"w  c #EEE6DE",
"e  c #614739",
"r  c #7B3B2A",
"t  c #96867B",
"y  c #76706A",
"u  c #5B4A3F",
"i  c #3D1C10",
"p  c #492215",
"a  c #B3A8A0",
"s  c #7A513A",
"d  c #D25128",
"f  c #9B3F25",
"g  c #9C8A7E",
"h  c #FBF9F7",
"j  c #453A33",
"k  c #56291B",
"l  c #8F3B23",
"z  c #5D2C1B",
"x  c #485C59",
"c  c #4B858A",
"v  c #364948",
"b  c #853822",
"n  c #723220",
"m  c #E6E3E0",
"M  c #B2ABA5",
"N  c #443E38",
"B  c #34241B",
"V  c #79685E",
"C  c #9C8E85",
"Z  c #3E5050",
"A  c #47777C",
"S  c #633D27",
"D  c #E3E0DC",
"F  c #B4B0AC",
"G  c #383028",
"H  c #A69D95",
"J  c #F9F0E7",
"K  c #FBF2E9",
"L  c #F1E9E1",
"P  c #6A6762",
"I  c #4F7E81",
"U  c #EAE6E3",
"Y  c #675950",
"T  c #786A65",
"R  c #C6C0BA",
"E  c #271D17",
"W  c #2A3837",
"Q  c #4D4741",
"!  c #F2EFEB",
"~  c #F9F3EC",
"^  c #FAF3EB",
"/  c #E8E0D8",
"(  c #DDD5CE",
")  c #534E49",
"_  c #4FA5B6",
"`  c #356068",
"'  c #BDB9B5",
"]  c #FBF8F4",
"[  c #634F3E",
"{  c #AC9E95",
"}  c #C7BCB3",
"|  c #D2C9C1",
" . c #FAF2E8",
".. c #4F4036",
"X. c #DAD1CA",
"o. c #505E5D",
"O. c #54BED3",
"+. c #51B8CC",
"@. c #44696C",
"#. c #F3F1ED",
"$. c #8E7438",
"%. c #CEAF44",
"&. c #B08E36",
"*. c #A78534",
"=. c #8C6F31",
"-. c #F5EEE7",
";. c #D6CEC6",
":. c #E4DBD3",
">. c #4EC2DA",
",. c #438793",
"<. c #787F7D",
"1. c #E2DED9",
"2. c #775E40",
"3. c #F4CD3C",
"4. c #F6CF37",
"5. c #C4A139",
"6. c #AC9585",
"7. c #4D929F",
"8. c #376B74",
"9. c #5C6A68",
"0. c #90877E",
"q. c #EAC53C",
"w. c #E0D9D2",
"e. c #97908A",
"r. c #736B65",
"t. c #9C9792",
"y. c #A68A40",
"u. c #E8C445",
"i. c #F4ECE4",
"p. c #857155",
"a. c #876A37",
"s. c #937A3C",
"d. c #8B723F",
"f. c #6E5937",
"g. c #7F6C59",
"h. c #888179",
"j. c #6F6760",
"k. c #EBE3DC",
"l. c #827972",
"z. c #928D87",
"x. c #DDDBD7",
"c. c #7E7A75",
"v. c #65605A",
"b. c #ADA49D",
"n. c #B7AFA8",
"m. c #C0B8B0",
"M. c #9A938E",
"N. c #F8F1E9",
"B. c #837E78",
"V. c #EEECE9",
"C. c #C3BDB8",
"Z. c #615B54",
"A. c #86827D",
"S. c #F8F2EC",
"D. c #40362D",
"F. c #5E554E",
"G. c #A09B95",
"H. c #A29991",
"J. c #B9B4AF",
"K. c #8F8379",
"L. c #A49E99",
"P. c #695234",
"I. c #6B5F57",
"U. c #7B684F",
"Y. c #B89B44",
"T. c #6F5840",
"R. c #7C6049",
"E. c #C1A243",
"W. c #B1943F",
"Q. c #796339",
"!. c #62492F",
"~. c #AEA7A2",
"^. c #796C68",
"/. c #4C3A31",
"(. c #442E23",
"). c #5C412F",
"_. c #533E2C",
"`. c #735F55",
"'. c #523826",
"]. c #71562B",
"[. c #674926",
"{. c #7D7770",
"}. c #9D938E",
"|. c #9F928D",
" X c #978A82",
".X c black",
/* pixels */
"      . X     X       X     o o X       X X   X .   X   X   X             X   X   X   .     . X   . ",
". . o .   X   o .       . o o   . o o   X   X X X X       X X X X   X X X X X   X X X X     X X   X ",
"    . .     o . X .   o . . o   o   o o X X X     . X X X   X X   X X X X X X   X X X . X   X X X X ",
"o o . O X     . o X o     o o   o o o . X X X X X X X X   X X X X X X   . X X X X X X X X .   X X X ",
"o o o +     . o   X o   X .   o   o   X X X       X X o   X X X X   .     . X . X X X   o     X   o ",
"o o .   X   . X   X     @ o . . o   o . X X   o # $ % & * = - @ . o X .     X X X X   X   X X   X o ",
"o . o   X . o .   X o @ o o o X   . o   X X ; : > , < 1 2 3 4 5 6 @ X o . X X X     X X   X X X X X ",
"  o .   X   o o   X     . @ o X X . .   X + 2 4 7 8 9 0 q w e r t ; X o   X X X .   X X X X X X X X ",
"@ @ o X X o . X X X o . o . . X X X O . @ $ y u i p i 9 3 a s d f g h o   X o o @ X     X   X o X X ",
". o o .   . . . O X o o . o . X   X X . @ : j k f l z x c c v b d n m o   X o o @   . X X X   . X X ",
"o . o X X .   . X X X   o o . o o X   . @ M N B i V C t y Z c A S n D X   o o   . X X   X X X X X   ",
"X X   X X     X   . X   . o o @ o X     @ F G G H J K K J L P v I N - o o o . X   X . X X   X . X X ",
"  X o X X X X X X X o   o .   @ . o . . @ U Y T J K q q q q R E W Q ; @ o o .   X X   X X X X . X X ",
"  o o       . o . . o .   o o @ @ o o o o ! , 0 J K ~ ^ / , ( ) _ ` ' h o o . o o . X X   X X   X   ",
". .   X X . X .   . . o . o o @ @ o o @ ] C [ { } 0 |  .| ..X.o.O.+.@.: @ . . o       X X X X   X X ",
"X . .       . . o .   . . .   o o + h #.a $.%.&.*.=.C  .-.;.:.o.O.>.,.<.# o . X   X   X X X X   X   ",
"  o o   X .   . X . . X     . X h 1.C 2.*.3.4.4.4.5.6.J K  .R Z 7.8.9.% o o .     X       X .   X X ",
"X     X X     .     X X o     @ 0.$.5.q.4.4.4.4.4.q.2.w.K  .e.r.t.* - o   o . . . X   o     X X     ",
"  X X X X X X X X X X X X X . o r.y.u.3.4.4.3.q.5.=.C L  .i., U h o   . . X o @ o X X . o . X X   X ",
"X X . O X X X X X X     X . . o D C p.a.s.$.d.f.g.| -. . .:.h.] @ o @ @ .   . o o     . o .   X X . ",
"X X X X X X X   X X o @ @ o . X   o ; ! ! ! ; % j.J  .J  .5 a h @ X @ @   X X X       o @ o X . X X ",
"  X X X X X X X X   o o @ o @ X X o .   X   @ h P k. . .J l.;.h @   . . .   . X o X   o o o X X     ",
"X X X   X X X X X X o o     . o o .   X X   . @ z.:. . . .T ( h h o . . X   . #.x.; .   o   o   X   ",
"X   X X X X X X X X o o X X X @ o X o .   X o ] c./  . . ., X.] h @ X X X . = c.3 F     X   o o   . ",
"    X X X X X     . o . X X X o o   . X X   @ x.v.J  . . .b.n.] @ o     o : 3 1.D v.. o . O   o X   ",
"  X X X X X X . o o @ X X X X X X X X X X X ; z.m.~  . . ./ l.-.o X     - P k.6 D P h h o o .     X ",
"  X X X X X   . o o @ X   X X X X X     o ; M.c.N.q K K  .K b.B.V..   o C.M.$ 6 t.Z.A.> ! o X X   . ",
"  X X   X X X X     o X X X X X X X @ ] = c.t.k.q K K 6 ^ ~ i.1 3 t.' F j.B.3 z.Q 1 U y 1.o     o   ",
"X X X X X X X   X X o X X X X X X o 6 2 v.% S.~ q K q ^ ^ ~ ^ q L m.B.) j.k.S.r.n.6 R B.- o X   o o ",
"  X X X X X X X X X o o X X X X X #.c.M.-.~ ^ ^ q q q K K  . . .K K  .i.;.w.6 y / a D.F h @ X     X ",
"X X . X X X X X X X o o X X X o - A.M -.~ ^ ^ ^ q q N.q q  . . .K  . .q  .q L 9 y } R P D @ o X X X ",
"X X X X X X X X X X o o . . . h F h.-.q ^ q ^ ^ q K  .q q  .K  . . . . . .K L 5 b.e.B.z.! o   X X   ",
"  X X X X X X X X X X X @ o o ; v.:.~ ~ ~ ~ q K  .K  .K K  . . . . . . . . . . .0.) : # X     X X . ",
"  X X X X X X X X X X X o o o $ j.J q q K q K K  . . . . . . . . . . . . . .K | j F.; o o     X     ",
"  X X   X     X X X X X o o @ = M.K K K q K q q K  . . . . . . . . . . . . .J G.| Z.- @     X X X X ",
"X   X X X X X X X X X X o o @ * M.K q q K q q q ^ ^ q q q  . . . . . . . . .J i./ Z.h o X   .     . ",
"X . X X X   X . X   X X o   o = e.K q ~ q q  .K K K q K q  .K K  . . . .K  . .~ H.2 o . X . X X     ",
"X X X X   X X   o o   X X X o U r.J q ^ q  .q q ^ ^ ^ q ^  .K  . . . . . . .K ( Z.-       X X X X X ",
"X   X   X .   X     X   X X . ; Z.w q N.N. .q ^ q K q q q K K  . .J  . . . .q m.j.o X X X     X   X ",
"X   X . o . o o . X X X X o o @ M.1 N.N. .J q q K K q q K  . . . . .J  . . .i.h.J.  X X   X X X X   ",
"X . X X X X X X X X X X X o o @ ! y M w J q ^ q ^ ^ q q N. . . . . . . . .k.B.n.@ X X X X X X   X X ",
"X . X X X   X   X X X X X   o @ h - G.v.e.R i.^ K q K ^ ^  . . . .K  .-.C.F.C.# . X X X X X   X X   ",
"X   X   X     X X X X X X X X . X # @ m z.j.y ;.N. .K K K  . .K K ^ C.j.z.V.. X   X X . X   X X X X ",
"    X . X X X X       . X X         o o @ S.m.[ p.K.a m.m.} X.0 m.L.P * ] . X   X X X X X   X     X ",
"X X X   X . X X o .   X X X X X   .   o o @ R a.s.a M M.B.r.P.P.I.J.#.o . . . o .   X X X X   X X   ",
"o   X X   X X X       X   . o o   o @ @ ] k.U.Y.T.#.] ; U R.E.f.w.@ @ o o   . o . . X . X X X X X X ",
"  o . O   X X X . . h ; D R n.2 2 2 2 M., f.E.W.Y b.< V Q.E.%.!.{ b.~.~.~.~.~.2 ~.2 ~.R m   X X X X ",
"X X . X . X     o   h D c.y ^.^.^.T 4 /.(.).)._.`.T D.'.].[.).u V T T T T T T ^.^.T T ^.{.D X       ",
"  . X X   X X X .   o ; % F ~.~.1 }.}.}.e.e.}.}.|.|.e. X XC e.|.|.|.|.|.|.}.|.H.|.|.|.L.R #.  X X X ",
". .       X X X X X X X o o o @ @ @ h @ @ @ o o . o @ h o @ @ @ h @ @ h @ @ o @ o . o @ @ o   X X   "
};
