/* XPM */
static char *result[] = {
/* columns rows colors chars-per-pixel */
"50 50 191 2 ",
"   c #FCFCFA",
".  c #FCFBFA",
"X  c #FCFCFB",
"o  c #FCFBF9",
"O  c #FBFCFA",
"+  c #FBFBFA",
"@  c #FBFBF9",
"#  c #FAFAF8",
"$  c #F2EFEB",
"%  c #BDB9B5",
"&  c #AEA7A2",
"*  c #9C9792",
"=  c #97908A",
"-  c #9A938E",
";  c #DDDBD7",
":  c #FBF9F7",
">  c #F3F1ED",
",  c #B9B4AF",
"<  c #78746E",
"1  c #786A65",
"2  c #A29991",
"3  c #D6CEC6",
"4  c #ADA49D",
"5  c #634F3E",
"6  c #9C8A7E",
"7  c #EBE3DC",
"8  c #B2ABA5",
"9  c #6D635C",
"0  c #4F4036",
"q  c #5B4A3F",
"w  c #675950",
"e  c #DDD5CE",
"r  c #F8F1E9",
"t  c #F1E9E1",
"y  c #87654C",
"u  c #AA4527",
"i  c #895040",
"p  c #7E746C",
"a  c #6F5B4A",
"s  c #5D2C1B",
"d  c #9B3F25",
"f  c #585651",
"g  c #787F7D",
"h  c #B7AFA8",
"j  c #8D6856",
"k  c #D25128",
"l  c #FCFAF8",
"z  c #D5D2CE",
"x  c #443E38",
"c  c #523826",
"v  c #7B3B2A",
"b  c #935A48",
"n  c #897261",
"m  c #505E5D",
"M  c #47777C",
"N  c #44696C",
"B  c #6F3F2E",
"V  c #884532",
"C  c #F8F7F4",
"Z  c #453A33",
"A  c #90877E",
"S  c #E4DBD3",
"D  c #F9F0E7",
"F  c #A49E99",
"G  c #4E6C6C",
"H  c #C5C2BE",
"J  c #6F6760",
"K  c #FAF2E8",
"L  c #FAF2EA",
"P  c #796C68",
"I  c #C7BCB3",
"U  c #2B2D28",
"Y  c #45433D",
"T  c #FBF8F4",
"R  c #8F8379",
"E  c #7F6C59",
"W  c #E0D9D2",
"Q  c #D2C9C1",
"!  c #6B5F57",
"~  c #E8E0D8",
"^  c #544B44",
"/  c #2A3837",
"(  c #364948",
")  c #EEECE9",
"_  c #E3E0DC",
"`  c #948172",
"'  c #BF9B37",
"]  c #DDBA42",
"[  c #C4A139",
"{  c #B08E36",
"}  c #9F7B31",
"|  c #A59589",
" . c #F4ECE4",
".. c #F5EEE7",
"X. c #736B65",
"o. c #4896A6",
"O. c #4FA5B6",
"+. c #70888C",
"@. c #EAE6E3",
"#. c #E2DED9",
"$. c #B5A293",
"%. c #937B53",
"&. c #CEAF44",
"*. c #F4CD3C",
"=. c #F6CF37",
"-. c #D7B139",
";. c #A28A76",
":. c #EEE6DE",
">. c #FBF2E9",
",. c #6F7876",
"<. c #51B8CC",
"1. c #4EC2DA",
"2. c #7F8A8A",
"3. c #8B723F",
"4. c #EAC53C",
"5. c #806334",
"6. c #AC9E95",
"7. c #54BED3",
"8. c #4D929F",
"9. c #687879",
"0. c #967C45",
"q. c #DFB93A",
"w. c #9E8339",
"e. c #866F4A",
"r. c #9C8E85",
"t. c #4F5350",
"y. c #5C6A68",
"u. c #DAD1CA",
"i. c #AC9585",
"p. c #97835B",
"a. c #8A7553",
"s. c #C0B8B0",
"d. c #9D938E",
"f. c #ECE9E6",
"g. c #D8D5D2",
"h. c #837E78",
"j. c #CDC2BA",
"k. c #8E8983",
"l. c #B4B0AC",
"z. c #F9F4EF",
"x. c #ABA5A1",
"c. c #827972",
"v. c #D1CECA",
"b. c #BDB3AB",
"n. c #928D87",
"m. c #7E7A75",
"M. c #C3BDB8",
"N. c #FAF3EB",
"B. c #8C857F",
"V. c #F5F3F1",
"C. c #F9F3EC",
"Z. c #858784",
"A. c #86827D",
"S. c #65605A",
"D. c #A09B95",
"F. c #A7A09B",
"G. c #6A6762",
"H. c #C6C0BA",
"J. c #F8F2EC",
"K. c #888179",
"L. c #877C73",
"P. c #CDC9C5",
"I. c #7D7770",
"U. c #CBC5BF",
"Y. c #E6E3E0",
"T. c #B3A8A0",
"R. c #4D4741",
"E. c #978A82",
"W. c #817367",
"Q. c #AB9247",
"!. c #A69D95",
"~. c #79685E",
"^. c #A28B4A",
"/. c #B39A51",
"(. c #9A8568",
"). c #B1943F",
"_. c #CEB053",
"`. c #B89B44",
"'. c #8B7A6B",
"]. c #9F928D",
"[. c #80693F",
"{. c #76706A",
"}. c #53443C",
"|. c #4C3A31",
" X c #695234",
".X c #735F55",
"XX c #5E554E",
"oX c #6F5840",
"OX c #7A513A",
"+X c #665348",
"@X c black",
/* pixels */
"      . X     X       X     o O X o     X X   X .   X   X   X             X   X   X   .     . X   . ",
"+ . + .   X   o .       . @ + X + @     X   X X X X       X X X X   X X X X X   X X X X     X X   X ",
"  + + X O X O X X   . + X . @ + O X X . X X X     . X X X   X X   X X X X X X   X X X . X O X X X X ",
"+ + X + X X X @ + X   + X + + + + @ # +   X X X X X X X   X X X X X X   . X X X X X X X X X X X X X ",
"+ @ @ + + X + + X X X X X O O @ X O X X X X     + X X X   X X X X   X X X + X + X X X X X + X X X X ",
"+ + + X X X O .   X X + + @ + + +   + O X X X X $ % & * = - ; : + . X + X X X X X X X X X X X X X O ",
"+ X O   X + +       @ @ @ + @ X X X # + X   > , < 1 2 3 3 4 5 6 7 : X @ + X X X X X X X X X X X X X ",
"O @ .   X + + + O X X + O # + X X @ X X X . 8 9 0 q w e r t y u i e X @ X X X X O X X X X X X X X X ",
"# @ @ X X + + X X X + O . . + X X O O + @ > p a s d s f g h j k k j @ + X X # @ + X + . X X X + X X ",
"+ @ @ + X X + + O X + @ X + O X O X X + l z x c v b n < m M N B k V C @ X X + @ # X O X X X X X X X ",
"  + + X X + X X X X X X @ + + + + X X X l 8 Z A S D D r t F G M f B $ X + O + X X X X X X X X X X + ",
"X X X O X . O X X   X O X @ + # + X X X o H J 7 K L L L 4 P I U N Y $ X + @ + X X X X X X X X + X X ",
"  + + X X X X . X X X + + X O # + + @ . T R E I W Q 3 K A ! ~ ^ / ( ) + O + + X X X X X O X X + X X ",
"@ + X O . X + X + + +   @ + + + @ @ : _ ` ' ] [ { } | D r  ...X.o.O.+.@.@ X X @ + X X X X X X X X X ",
"X . . X X X X X O + O   + + @ @ : #.$.%.&.*.=.=.=.-.;.:.>.K  .,.<.1.o.2.)   X + + X X X X X X X X O ",
"X + + X O X + + @ @ X + . . X @ h 3.' 4.=.=.=.=.=.4.5.6.K K e G 7.<.8.9.@.@ X X . X X X . X X X X O ",
"X + O . X + X + O O X X X X + @ - 0.] *.=.=.*.q.w.e.$.7 K >.r.t.G y., > # @ X   X X O   X X X   X X ",
"X O X X X X O + X X X X @ X X # C u.i.p.3.3.a.5 s. .L K D ~ d.f.) C . . X X + + X X O @ + X X X   X ",
"+ X X X X X   X X X X X X X X X X @ + # C C : g.h.D D K D 6.j.T : # . @ X   @ @ . X X   @ O X X O X ",
"X X X O X X X X X X O   X +   X X + X O X . @ # k.:.D D D p @.: l + @ # . X O + + X X + + X X X X X ",
"X X X X X X X X X X @ + @ # @ X X X X X X X X @ l.u.D K ..J z.: l + + o o X X O X X X + + # + + O X ",
"X X X X X X X X X + # @ @ @ @ X X X X X X + X @ x.u.D K ..c.T l : O o o   X X X O   O + @ @ X X X O ",
"X X X X X X X X X X @ @ +   + @ @ X O X + O # $ h. .L K D p @.: o + X X     + > v.; l + + O @ X O X ",
"X X X X X X X X X X @ + X X X + @ X + . O O : & & L K D K b.d.f.O   X X X @ _ n.F m.$ o X X @ X X X ",
". O X X X X X X + + @ X X X X O + X O X O + M.n.r N.K K K D j.B.g.: X . o g.m.#.V.n._ # o @ X @   X ",
"X X X X X X X X @ + @ + X X X X X X X   : M.*  .C.L N.N.N.L L ~ 2 k.) T ; Z.7 z.H Y A.F T . + X X X ",
"O X X X X X X + + + + X X X X X X X X C x.*  .L L >.L C.C.N.L L L 3 n.k.S.x.v.7 = e D.F.: . X X + O ",
"X X X X X X X X X X @ X X X X X X + C x.F...C.N.C.L >.N.N.>.L L L K ..~ l.J & k.s.l.G.H.l . X X + O ",
"+ X X X X X X X X X @ X X X X X X : x.F.r C.N.N.>.>.>.>.L K K K >.K K K J.h H.I = ..v.n.l o   . + + ",
"X X X X X X X X X X + @ X X X X   H.- ..C.J.N.L L K K K >.K K K >.K K K >. .2 c.h W < #.l . X X + X ",
"  X X X X X X X X X @ + X X X l > K.@.C.r C.L >.K L >.>.>.K K D K K K K K K :.Q L.B.#.: o X X   X X ",
"O X X X X X X X X X + @   + @ : , 8 C.N.L C.L >.>.K K K >.K K K K D K K K K K K 8 P.: o   X X X   X ",
"X X X X X X X X X X X X +   + + I.S L L L >.L L L >.K K K D K D K K D K K K K t X.#.l     X X   X X ",
"O X X X X X X X X X X X @ @ + o I.t L L L L N.L K K K K K K K K K K K K K K K S = = : . + X X   X X ",
"X X X   X X X X X X X X @ + @ : < t L L >.L L L >.>.>.>.K K K K K K K K K K K D u.- + X X X X X X X ",
"  X X X X X X X X X X X @ @ @ o m.~ L L L L >.>.N.N.>.>.>.K >.K K K K K K D K ..- g.@   . X X O X O ",
"  + X X X X X X X O X X O + + l - U.L L L L L L L >.>.>.K D >.K r K K K K K K , F : X X X X X X X + ",
"+ X X O + X X   . X X X X X @ # Y.B. .r r L L L L L >.>.>.>.>.K K K K >.D D T.D.# X X X X X O X X X ",
"X X X X X X   X X + X   X + + + C % *  .K K L L >.L >.>.K K K K >.K K K >.D.R.@.. X X X   X X X X X ",
"X X X X X @ @ + + O X O X + + @ # : U.n.8 u...N.>.L L L L K K K K D K t h B.v.:   X X   + X X X X X ",
"X O X X X . X X X X X X X + + X @ X : V.8 X.E.u.D >.>.L L K K D >.>.3 h.& : X .   X X X X X X X + X ",
"X   X o . X X X X X X X X   @ # # + . # # : S W.E j.:..... .:.S 3 2 c.#.l X X X X   .   X X X   X X ",
"X X X O X + X X X X X X X X O @ + + X + X + : | Q.L.!.- - = ~.3.a ; T l o X       X X X X X O X X X ",
"X X X O X X X X X O O X X X X + + X O +   + J.;.^.u.T T T T 6./.6 : @ + @ o o   X X X X X   X X   X ",
"X X X X X X X X + + X X X + X   X + . + X @ e 0.%...T # : z.(.Q.3 # @ + # @ @ X X   X   X O O X X X ",
"+ X X X X X X X O X X X X . @ #   . @ @ @ $ (.).6 T T : C j.^.p.T o   @ @ @     .       X X X O X X ",
"X + X O O X X X + + : C _ H h & x.x.x.D.A n _.`.'.4 4 ].'.^.&.[.6.4 & & & & & & & x.& H.Y.+ O X X X ",
"X X X X   X X X + @ : _ m.{.P 1 P 1 1 }.|.5  X5 .X1 XX|.oXOX X+X1 1 1 1 1 1 P P P 1 1 1 I._ X X X X ",
"X   X X   X X X + X . C z l.& & F.d.d.d.d.d.d.d.].].].].r.r.].].].].].].].].d.].].].].F H.> O X + X ",
"X + X + X O X X X X X X l o l l l l # # # # @ @ . o l l o l l : l : l l l # @ o o # @ # : . X X X X "
};
