/* XPM */
static char *result[] = {
/* columns rows colors chars-per-pixel */
"50 50 196 2 ",
"   c #FCFCFA",
".  c #FCFBFA",
"X  c #FCFCFB",
"o  c #FCFBF9",
"O  c #FBFCFA",
"+  c #FBFBFA",
"@  c #FBFBF9",
"#  c #F5F3F1",
"$  c #F3F1ED",
"%  c #F8F7F4",
"&  c #FAFAF8",
"*  c #EEECE9",
"=  c #B9B4AF",
"-  c #7D7770",
";  c #65605A",
":  c #585651",
">  c #6A6762",
",  c #76706A",
"<  c #D8D5D2",
"1  c #FBF9F7",
"2  c #C3BDB8",
"3  c #59524B",
"4  c #786A65",
"5  c #EBE3DC",
"6  c #F8F2EC",
"7  c #F5EEE7",
"8  c #5C4438",
"9  c #7B3B2A",
"0  c #A28A76",
"q  c #D1CECA",
"w  c #736B65",
"e  c #4F4036",
"r  c #5B4A3F",
"t  c #665348",
"y  c #796C68",
"u  c #A7A09B",
"i  c #B7AFA8",
"p  c #BB4825",
"a  c #9B3F25",
"s  c #96867B",
"d  c #78746E",
"f  c #492215",
"g  c #853822",
"h  c #40362D",
"j  c #4A7174",
"k  c #417075",
"l  c #485C59",
"z  c #8F3B23",
"x  c #D25128",
"c  c #C0B8B0",
"v  c #633D27",
"b  c #935A48",
"n  c #8D6856",
"m  c #534E49",
"M  c #4E6C6C",
"N  c #44696C",
"B  c #47777C",
"V  c #6F3F2E",
"C  c #897261",
"Z  c #E8E0D8",
"A  c #FAF3EB",
"S  c #F8F1E9",
"D  c #F4ECE4",
"F  c #ABA5A1",
"G  c #364948",
"H  c #442E23",
"J  c #79685E",
"K  c #D6CEC6",
"L  c #EEE6DE",
"P  c #E4DBD3",
"I  c #C7BCB3",
"U  c #DDD5CE",
"Y  c #8F8379",
"T  c #2A3837",
"R  c #978A82",
"E  c #E6E3E0",
"W  c #7F6C59",
"Q  c #997B33",
"!  c #8B723F",
"~  c #8A7553",
"^  c #866F4A",
"/  c #D2C9C1",
"(  c #ADA49D",
")  c #438793",
"_  c #58635F",
"`  c #C6C0BA",
"'  c #CEAF44",
"]  c #F6CF37",
"[  c #F4CD3C",
"{  c #CEA838",
"}  c #A59589",
"|  c #F9F0E7",
" . c #FAF2EA",
".. c #BDB3AB",
"X. c #376B74",
"o. c #4EC2DA",
"O. c #4896A6",
"+. c #7F8A8A",
"@. c #948172",
"#. c #E8C445",
"$. c #BF9B37",
"%. c #B5A293",
"&. c #B4B0AC",
"*. c #827972",
"=. c #967C45",
"-. c #EAC53C",
";. c #DFB93A",
":. c #B08E36",
">. c #523826",
",. c #F9F4EF",
"<. c #9A938E",
"1. c #4FA5B6",
"2. c #4E6464",
"3. c #ECE9E6",
"4. c #E2DED9",
"5. c #937B53",
"6. c #8E7438",
"7. c #71562B",
"8. c #775E40",
"9. c #AC9585",
"0. c #CDC2BA",
"q. c #6F6760",
"w. c #F1E9E1",
"e. c #675950",
"r. c #928D87",
"t. c #787F7D",
"y. c #949A9A",
"u. c #DDDBD7",
"i. c #FBF8F4",
"p. c #837E78",
"a. c #E0D9D2",
"s. c #F9F3EC",
"d. c #877C73",
"f. c #FAF2E8",
"g. c #A29991",
"h. c #8C857F",
"j. c #A09B95",
"k. c #B2ABA5",
"l. c #FCFAF8",
"z. c #F2EFEB",
"x. c #7E746C",
"c. c #8E8983",
"v. c #615B54",
"b. c #EAE6E3",
"n. c #CDC9C5",
"m. c #97908A",
"M. c #9C9792",
"N. c #7E7A75",
"B. c #D5D2CE",
"V. c #443E38",
"C. c #A69D95",
"Z. c #86827D",
"A. c #CBC5BF",
"S. c #9D938E",
"D. c #6B5F57",
"F. c #AEA7A2",
"G. c #5E554E",
"H. c #B3A8A0",
"J. c #6D635C",
"K. c #DAD1CA",
"L. c #858784",
"P. c #E3E0DC",
"I. c #FBF2E9",
"U. c #BDB9B5",
"Y. c #90877E",
"T. c #817367",
"R. c #6F5B4A",
"E. c #796339",
"W. c #AC9E95",
"Q. c #53443C",
"!. c #B39A51",
"~. c #D9BC51",
"^. c #533E2C",
"/. c #C2A94E",
"(. c #876A37",
"). c #CEB053",
"_. c #80693F",
"`. c #7B684F",
"'. c #A68A40",
"]. c #6F5840",
"[. c #B1943F",
"{. c #857155",
"}. c #9E8339",
"|. c #9C8A7E",
" X c #C5C2BE",
".X c #888179",
"XX c #695234",
"oX c #735F55",
"OX c #A49E99",
"+X c #62492F",
"@X c #614739",
"#X c #4C3A31",
"$X c #5C412F",
"%X c #9F928D",
"&X c #9C8E85",
"*X c black",
/* pixels */
"      . X     X       X     o O X o     X X   X .       X   X             X   X   X   .     . X   . ",
"+ . + .   X   o .       . @ + X + @     X   X X X X . X X   X X X   X X X X X   X X X X     X X   X ",
"  + + X O X O X X   . + X . @ + O X X . X X X   o o # $ % . X X   X X X X X X   X X X . X O X X X X ",
"+ + X + X X X @ + X   + X + + + + @ & @ @ @ @ * = - ; : > , < 1 o X X   . X X X X X X X X X X X X X ",
"+ @ @ + + X + + X X X X X O O @ X O X . + @ 2 ; 3 4 5 6 7 8 9 0 % . X X X + X + X X X X X + X X X X ",
"+ + + X X X O .   X X + + @ + + +   + + + q w e r t y u i 0 p a s % X   X X X X X X X X X X X X X O ",
"+ X O   X + +       @ @ @ + @ X X X & @ @ d 4 f g 9 h j k l z x z c . + . X X X X X X X X X X X X X ",
"O @ .   X + + + O X X + O & + X X @ X + & : h v b n m M N B M V p C & + X X X X O X X X X X X X X X ",
"& @ @ X X + + X X X + O . . + X X O O X & ; w Z A 6 A S D F G j H J & + O X + @ + X + . X X X + X X ",
"O @ @ X X X + + O X + @ X + O X O X X X $ ; K A S L 7 P I U Y T G R 1 + X X @ @ + X O X X X X X X X ",
"  + @ X X + X X X X X X @ + + + + + & E W Q ! ~ ^ e Z P i / ( j ) _ * O + + + X O X X X X X X X X + ",
"X X X X X . + X X   X O X @ + + + # ` ^ ' ] ] [ { } | A  . ...X.o.O.+.# @ + + X X X X X X X X + X X ",
"X + + X X X X . X X X + + X + X * @.Q #.] ] ] ] $.%.|  . .A = X.o.o.X.&.& + O X X X X X O X X + X X ",
"@ @ + O X @ + + + + +   @ + + @ *.=.#.[ [ ] -.;.:.>.c A A ,.<.B o.o.1.2.3.X   @ + X X X X X X X X X ",
"X + O X X + X X O + O   + + + & 4.} 5.=.6.6.7.8.9.0.L ,.,.S q.N O.) j F % O X + O X X X X X X X X O ",
"X + + X X . + + @ @ + + . .   & @ @ # * 4.4.2 d |  . .,.,.w.e.r.t.y.u.i.. + + X . X X X . X X X X O ",
"X + + X X +   . X X X X X X   @ + @ @ @ X X # p.a. . .,.,.a.q.s.1 o X   . O X X X X O   X X X   X X ",
"X X X X X X O + X X X X @ X O @ @ X O   X + @ F (  .S 6 s.` *.i.& @ . o . X + + + X O @ + X X X   X ",
"X X X X X . X X X X X X X X O X X X X X + X @ 2 d.f.6 6 6 g.h.i.o + & & .   @ + + O X   @ O X X O X ",
"X X + O X X X X X X O   X + + X X X X X X X + q *. .s.,.,.R j.i.@ O o o o   + @ +   X + + X X X X X ",
"X X X X X X X X X X @ + @ & @ X X X X X O X @ k.u s.A A A q.= i.l.o . . o X X X X X O + + & + + O X ",
"X X X X X X X X X + @ @ @ @ @ X X X X X X   z., 5  .A A A x.= i..   X X X X X X + X X + @ @ X X X O ",
"X   X X X X X X X X @ @ + X O + + X + .   + &.c.S  . . . .c r.% @ @ X X     . @ + + + + + + + X O X ",
"X . X X X X X X X X @ @ X X X @ @ + + X + u.d 4.S  . . . .5 v.q 1 & X   . X + @ @ @ @ + X X + + X X ",
".   X X X X X   X + @ + X X X O X X + & b.; < s.S  .A  . . ./ , n.1     X . @ & & $ E 1 X @ X + X X ",
"X X X X X X X + @ @ @ X X X X X X X 1 u.v.n.6 ,.,.s.,.A ,. .S Z d r.1 @ @ @ & 4.r.v.> = l.    X X O ",
"O X X X X X X X @ + + O X X X X X & ` d n.s.A A s.s.,.,.,.,.,.S D m., M.F j.N.N.&.5 u M.1 o X X   . ",
"X X X X X X X X X X @ X X X X X   u.- B.s.s.s.A  .A A A ,.,.,.6 6 | K M.> V.q.j.4.w.q.B.o O O . + + ",
"+ X X X X X X X X X +   X X X l.6 > K s.s.,.s. . . . .A A A A s.A  .f. .| E K C.w Z.F i.o X X O + + ",
"X X X X X X X X X X @ + + X X l.A.h.s.s.6 ,.,.A  .A A  .A  .A  . . . . . .s.| g.S.d Z.4.i.  X + X X ",
"  X X X X X X X X X @ + @ X X & d / A s.s.,.,. . .A A A A A A  . . .S S  . .w.D.U D F.> * l.+ X X O ",
"O X X X X X X X X X + O O + + % G.L A s.6 s.,.s.6 A A A A  . . . .S  . . . . .H.J.K., <.% l.X X O X ",
"X X X X X X X X X X X X + + + z.; 7 6 6 ,.6 s.,.s.6 6  . .S  . .A A  . . .A  . .g.y D.b.. X X X X X ",
"O X X X X X X X X X X X + @ + # 3 3.,.# s.6 s.,.6 6 6  . . . . .A  . . .A A  .U G.K *.u O + X O O X ",
"X X X   X X X X X X X X + @ + l.N./  .6 # ,.,.,.,.,.,.A  .A  . . .S A A  .S  .0.e ; L.P.X X X X X X ",
"  X X X X X X X X X X X @ + @ @ = g. .6 6 # ,.,.,.,.,.A  .A A  . . .A A  . .S 7 , M.% O + X .   O X ",
"  + X X X X X X X   X X X X @ X * ; a.s.6 s.,.,.,.,.s.A  . .A  . . . . . .S 5 <.N.z.X X X X X X X X ",
"+ X X O + X X   . + X X X   + O @ q v.` |  .A A s.,.s.A A  .A A A A  .I.A ..G.U.% X X X O X X X X X ",
"X X X X X X   X X + X X X   X @ @ 1 B.N.p.= U ,.s.,.,.,.A I.I. .A A S L H.; u.1 + X X X O X X X X X ",
"X X X X X @ @ + + O X X X + @ @ & + . % A.Y.w Y.K S A  .A  .I y T.- d.r.F.* & o @ + X X X X X X X X ",
"X O X X X . X X X X X X X O O X O X X + o 1 w.R.E.r Y W.( x.Q.!.7.S.i.1 1 .   @ + X X X X X O X O X ",
"X   X o . X X X X X X X X X + & & @ @ & @ 1 * W ~.^.` A.` E @./.(.K l.+ @ o . O X X X X X X X X X X ",
"X X X O X + X X X X X X X X + & & + X O O + z.W ' T.% 1 1 i.@.)._.$ @ + + + O + X X X X X X O X X X ",
"X X X O X X X X X O O X X X X + + X + + + @ P.`.'.I i.& 1 ,.~ /.C i.& @ @ @ + X X X X X X X X X X X ",
"X X X X X X X X + + X X X + X X X   + + X 1 0._.].b.1 & 1 b.~ [.c o o + @ @ X X X X X X X X X X + X ",
"+ X X X X X X X O X X X   . @ @ . @ + o o b.{.}.d.i.1 % * |.'._.L o   + @ @   .     X . . X   + X X ",
"X + X O O X X X + + 1 % P. Xi F.F F F g..XXX[.Q oX( OXd.].'.' +XW.( H.F.F.F.F.F.F.F F.` b.  X X X X ",
"X X X X   X X X + @ 1 P.N., y y 4 4 4 Q.h ^.8 @XoXy e.#X>.$X@Xr J 4 4 4 4 4 y y y 4 4 y - P.O X X X ",
"X   X X   X X X + X . % B.&.F.F.u S.S.S.S.S.S.S.%X%X%X%X&X%X%X%XS.%X%X%XS.%XS.S.%X%X%XOX` $ X X X X ",
"X + X + X O X X X X X X o . l.l.1 1 1 & @ @ @ @ o o l.l.o l.l.& @ @ 1 l.1 1 @ o . . . 1 l.o   X X X "
};
