/* XPM */
static char *result[] = {
/* columns rows colors chars-per-pixel */
"50 50 192 2 ",
"   c #FCFCFB",
".  c #FCFCFA",
"X  c #FCFBFA",
"o  c #FCFBF9",
"O  c #FBFBFA",
"+  c #FCFAF8",
"@  c #FBF9F7",
"#  c #E6E3E0",
"$  c #D1CECA",
"%  c #CBC5BF",
"&  c #D8D5D2",
"*  c #F3F1ED",
"=  c #FBFBF9",
"-  c #76706A",
";  c #7D7770",
":  c #A49E99",
">  c #A7A09B",
",  c #837E78",
"<  c #4F4036",
"1  c #F5F3F1",
"2  c #928D87",
"3  c #534E49",
"4  c #53443C",
"5  c #6D635C",
"6  c #AC9E95",
"7  c #F8F1E9",
"8  c #F9F0E7",
"9  c #7B684F",
"0  c #723220",
"q  c #87654C",
"w  c #E0D9D2",
"e  c #9C9792",
"r  c #7E746C",
"t  c #442E23",
"y  c #5C412F",
"u  c #895040",
"i  c #453A33",
"p  c #686F6C",
"a  c #858784",
"s  c #827972",
"d  c #9B3F25",
"f  c #BB4825",
"g  c #7A513A",
"h  c #EAE6E3",
"j  c #615B54",
"k  c #5D2C1B",
"l  c #8F3B23",
"z  c #4C3A31",
"x  c #4B858A",
"c  c #4B8D97",
"v  c #47777C",
"b  c #5C4438",
"n  c #AA4527",
"m  c #9C8A7E",
"M  c #585651",
"N  c #4D4741",
"B  c #735F55",
"V  c #C0B8B0",
"C  c #B7AFA8",
"Z  c #5C6A68",
"A  c #485C59",
"S  c #4F7E81",
"D  c #853822",
"F  c #948172",
"G  c #FAFAF8",
"H  c #65605A",
"J  c #F5EEE7",
"K  c #FBF2E9",
"L  c #FAF2EA",
"P  c #FAF3EB",
"I  c #E4DBD3",
"U  c #DDD5CE",
"Y  c #59524B",
"T  c #2A3837",
"R  c #45433D",
"E  c #9C8E85",
"W  c #F8F7F4",
"Q  c #BDB3AB",
"!  c #C7BCB3",
"~  c #383028",
"^  c #A69D95",
"/  c #3E5050",
"(  c #7E7A75",
")  c #978A82",
"_  c #88652D",
"`  c #DDBA42",
"'  c #9F7B31",
"]  c #8B7A6B",
"[  c #FAF2E8",
"{  c #51B8CC",
"}  c #397883",
"|  c #787F7D",
" . c #EEECE9",
".. c #897261",
"X. c #9E8339",
"o. c #F4CD3C",
"O. c #F6CF37",
"+. c #CEA838",
"@. c #AC9585",
"#. c #356068",
"$. c #4EC2DA",
"%. c #438793",
"&. c #BDB9B5",
"*. c #775E40",
"=. c #D7B139",
"-. c #DFB93A",
";. c #F1E9E1",
":. c #F9F3EC",
">. c #B9B4AF",
",. c #417075",
"<. c #54BED3",
"1. c #ABA5A1",
"2. c #A09B95",
"3. c #796339",
"4. c #BF9B37",
"5. c #6F5840",
"6. c #D2C9C1",
"7. c #4FA5B6",
"8. c #44696C",
"9. c #7F8A8A",
"0. c #ECE9E6",
"q. c #C6C0BA",
"w. c #665348",
"e. c #EBE3DC",
"r. c #505E5D",
"t. c #4E6464",
"y. c #5F7274",
"u. c #C3BDB8",
"i. c #78746E",
"p. c #F4ECE4",
"a. c #EEE6DE",
"s. c #F9F4EF",
"d. c #E8E0D8",
"f. c #8F8379",
"g. c #8E8983",
"h. c #FBF8F4",
"j. c #CDC2BA",
"k. c #86827D",
"l. c #A29991",
"z. c #8C857F",
"x. c #C5C2BE",
"c. c #F2EFEB",
"v. c #DDDBD7",
"b. c #6A6762",
"n. c #DAD1CA",
"m. c #CDC9C5",
"M. c #E2DED9",
"N. c #9A938E",
"B. c #F8F2EC",
"V. c #B4B0AC",
"C. c #D6CEC6",
"Z. c #736B65",
"A. c #5E554E",
"S. c #6B5F57",
"D. c #B3A8A0",
"F. c #97908A",
"G. c #40362D",
"H. c #888179",
"J. c #B2ABA5",
"K. c #6F6760",
"L. c #ADA49D",
"P. c #D5D2CE",
"I. c #6F5B4A",
"U. c #A59589",
"Y. c #6E5937",
"T. c #533E2C",
"R. c #857155",
"E. c #D9BC51",
"W. c #62492F",
"Q. c #A68A40",
"!. c #806334",
"~. c #E3E0DC",
"^. c #80693F",
"/. c #96867B",
"(. c #B89B44",
"). c #B1943F",
"_. c #876A37",
"`. c #937A3C",
"'. c #8C6F31",
"]. c #79685E",
"[. c #C1A243",
"{. c #AEA7A2",
"}. c #786A65",
"|. c #523826",
" X c #A78534",
".X c #796C68",
"XX c #71562B",
"oX c #614739",
"OX c #634F3E",
"+X c #9D938E",
"@X c #9F928D",
"#X c black",
/* pixels */
"  . X . . o . X . X . X X o o o . . X . .   .   o . . X . X .   . X X X X . . X X o X . X X . X X X ",
". . X X .   X X . X . . . o o X . o . . . . . o     X     . X   X .     .   .   . .   .   X   . . . ",
"o o o X X   o     . . X X o o o X . X X   .   X . .     .       . .       .   . .     X   .   .     ",
"o o . O   .   X o   X X . o o . . o + .       . @ # $ % & * o .       . .                 .         ",
"o o o = . . X = .   X   . . . X X . X       @ & - ; : > , < > 1 + . X   .     X         . . .       ",
"o o X .   . .   .   . X o o . . o X o o o * 2 3 4 5 6 7 8 9 0 q w   . .   X             .         X ",
"X X . .   o o . .   o + o + o   . X o o o e r t y u i p a s d f g h o X .     .                   . ",
". o o   . . o o .   X . o + o     X X o o j 4 k l d z x c v b f n m X .         .                   ",
"+ o o   . X o X     o X o o o     . O   o M N B 6 V C 2 Z A S A D F o . .   o o +   X .   .   o     ",
"X o o X . X o X O   o o X o X . . .   . G H C J K L P J I U Y T R E X       o o o           X .     ",
"o X o     . . X       . o o o o o     W V < Q w ! V 7 U ~ Q ^ T / ( 1 . X o o . X     .           . ",
"    . X   . X   . X     X o X o o = * ) _ ` ' _ _ ] [ 8 w J Q T { } |  .o + X   .   o     .   X     ",
"o   X       . .     o . o X . + o h ..X.o.O.O.O.+.@.[ L K P Q #.$.$.%.| 1 o . .     . . .     X     ",
". o o . . X X X X X o X X o . o &.*.=.O.O.O.O.O.-.q ;.P :.L >.,.$.$.<.#.1.    o o X .         .   . ",
"X X .     .   X . X X X o o o + 2.3.4.-.-.-.=.4.' 5.6.P :.P e ,.{ 7.8.9.0.X   o X .           .     ",
"  X o . . . o X o X . . X X . + W q.m ..9 9 9 w.! e.L :.:.L s r.t.y.u.1 X o X       .         .   . ",
". o o .   X . X   X X     . . + o o + X o   0.i.[ [ L :.P p.r a.s.+ o . o X .       .     .   X     ",
"  . .   . . . X . .     o . . + o . X . . o W ( e.K L L L d.f.:.@ o o . X   X o X   . o X     .   . ",
".           .               .           .   @ 2 6.[ [ [ [ U g.s.h.+ + + . . X o o .   X o X   . .   ",
"    X O             . .   o X X         .   + e q.L L L L j.2.h.h.+ o o o   X o o . . . o X . .   X ",
"          . .     . X o + o o         .   X @ k.I L K K K j.l.h.+ X o o o . X   . . . o o o   X . . ",
".                 o + o o o +           . . * - a.K L K K U z.h.X   . X X .   . o     o + o       . ",
"      .             o o X . X o X   X . . X x.( 8 7 [ L L a.r * + + .   .   . o o o o o X . o .   X ",
"  .                 o o .     + o . o X . 1 i.% 7 7 L L K 8 s u.h.o X   X . X o + o + X     X o . . ",
". .           . . o o .       X o . o + @ k.: L :.P L K L L 6.- c.+ X .   . o + o @ 0.c.o o . o . . ",
".             X + o +             + + W e 2 J :.P s.P :.:.L 8 C 5 v.+ o o X X 0.1.b.( i.s.+ X . . . ",
".           . X o X +   .         X + u.- J :.P P P P P P s.L 7 6.; , x. .&.( i.2.w n., h.o     .   ",
".     .         .   o .           + m.( M.L P L L K L L P P :.L L p.q.N.- R M ( u.B.e V.o . . . o . ",
"              .     +   .         0.H C.:.:.:.L L L L L L L 7 7 [ L L L 8 M.w U j M.j $ h..   X o X ",
".                   + o       o 1 Z.q.L :.:.:.7 7 K K L K K L 7 L 7 7 L 7 L 8 I A.I 1.Z.0.+     . . ",
"    X               o o .   . + u.z.7 :.:.:.P 7 L L L L L L L K L L L L L L I S.D.a.i.s W . X     . ",
"                    X o . . X o i.j.P P B.:.P L L L K K L L L L L L L [ L P C F.r f.s 5 c.o       . ",
".                       o + o G j I K :.:.:.:.L P K L K 7 K K K L L L K L L L L I A.2 : @ o   X . X ",
".                       o o o @ 3 I :.B.:.:.P P L K K L 8 K K L K L L K L L L 7 2.G.: W o .   . . . ",
".     .                 o o o + - C.L B.B.:.P :.P P P L L L L 7 7 L L K K K 7 U N H.h.G o o .       ",
"  .                     o o o + J.F.J B.:.:.:.:.s.s.P L 7 K K L 7 L K L K L 7 a.r x.o o o o X     X ",
"  X       .   X   .     o . o + c.j j.7 L L P P :.P P L L L K L L 7 L L L L 7 2 2.@ X o o X     . . ",
"        .     X o o .       . o h.# H > p.J L K P L P L L L K K K K K K L J N.2.@ o o               ",
"  .   .   . .   . .   .   X o o + h.0.: K.5 d.P L P :.P [ K K L L K L L I - 2.W . + o . X X .   .   ",
"  .   X X o o o X         o o o + X o @ # L.i.^ p.:.:.L L p.D.V C.C.% 2 r P.@ X .                 . ",
"  X                       X o   o   X o + @ a.I.5.U.! C f.5 S.Y.T.A.; q.s.. . o       . X     .     ",
"  X       .   . X         . .     . X + + @ 0.R.E.W.D.&.& B.l.Q.!.M.@ + o . o                     . ",
"  .   .   . X               . . . X . X o X ~.^.` I.s.h.h.h./.(.9 W o o o + o X           .         ",
". .   X       . . o . X     .   . . X X X + w ^.).L.h.@ h.c.R.Q.E @ + o o o o                       ",
"      .   X   . X X             . o X o   + ! _.3.d.h.G @ q.`.'.U + + o + o X   . .   . . .       . ",
"o .     .       . . X   . o o + X o o + @ w 9 ).].h.@ h.0.5.[.*.B.G o o + o o X . . . .             ",
". o X O .   .   X o + W ~.x.C {.1.1.1.N.}.|.Q. XI.L.: .XY.Q.[.XX^ L.L.L.{.{.{.{.{.1.{.u.# .         ",
"    X   X   .   + . h.~.( - .X.X.X.X.XA.< b oXb B .XS.z W.oXoXOX}.}.}.}.}.}..X.X}.}.}..X; ~..     . ",
". X     .       X . o W P.V.J.{.> +X+X+X+X+X+X+X@X@X@X@X@X@X@X@X@X@X@X@X@X@X+X+X@X@X@X: q.* .   .   ",
"  X . . .               o o + + @ + @ + + + @ @ o + + + + + + + o + + + + + + o o X X + @ o . . . . "
};
