/* XPM */
static char *result[] = {
/* columns rows colors chars-per-pixel */
"50 50 192 2 ",
"   c #FCFCFA",
".  c #FCFBFA",
"X  c #FCFBF9",
"o  c #FCFAF8",
"O  c #FCFCFB",
"+  c #FBFBFA",
"@  c #FBF8F4",
"#  c #E6E3E0",
"$  c #D1CECA",
"%  c #C5C2BE",
"&  c #D8D5D2",
"*  c #F3F1ED",
"=  c #FBFBF9",
"-  c #736B65",
";  c #7E746C",
":  c #A09B95",
">  c #A7A09B",
",  c #837E78",
"<  c #443E38",
"1  c #F5F3F1",
"2  c #928D87",
"3  c #59524B",
"4  c #53443C",
"5  c #6F6760",
"6  c #AC9E95",
"7  c #F8F1E9",
"8  c #79685E",
"9  c #723220",
"0  c #87654C",
"q  c #E0D9D2",
"w  c #9A938E",
"e  c #442E23",
"r  c #5C412F",
"t  c #7C6049",
"y  c #453A33",
"u  c #686F6C",
"i  c #858784",
"p  c #877C73",
"a  c #9B3F25",
"s  c #BB4825",
"d  c #7A513A",
"f  c #EAE6E3",
"g  c #5E554E",
"h  c #5D2C1B",
"j  c #8F3B23",
"k  c #4C3A31",
"l  c #4B858A",
"z  c #4B8D97",
"x  c #47777C",
"c  c #5C4438",
"v  c #AA4527",
"b  c #9C8A7E",
"n  c #585651",
"m  c #4D4741",
"M  c #735F55",
"N  c #C0B8B0",
"B  c #B7AFA8",
"V  c #6A6762",
"C  c #485C59",
"Z  c #853822",
"A  c #948172",
"S  c #FAFAF8",
"D  c #65605A",
"F  c #BDB3AB",
"G  c #F4ECE4",
"H  c #FBF2E9",
"J  c #FAF3EB",
"K  c #F5EEE7",
"L  c #E4DBD3",
"P  c #DDD5CE",
"I  c #4F5350",
"U  c #2A3837",
"Y  c #45433D",
"T  c #9C8E85",
"R  c #F8F7F4",
"E  c #4F4036",
"W  c #C7BCB3",
"Q  c #FAF2EA",
"!  c #383028",
"~  c #A69D95",
"^  c #2B2D28",
"/  c #364948",
"(  c #7E7A75",
")  c #978A82",
"_  c #88652D",
"`  c #DDBA42",
"'  c #9F7B31",
"]  c #7F632D",
"[  c #8B7A6B",
"{  c #F9F0E7",
"}  c #51B8CC",
"|  c #397883",
" . c #787F7D",
".. c #EEECE9",
"X. c #897261",
"o. c #A78534",
"O. c #F4CD3C",
"+. c #F6CF37",
"@. c #CEA838",
"#. c #AC9585",
"$. c #356068",
"%. c #4EC2DA",
"&. c #438793",
"*. c #BDB9B5",
"=. c #775E40",
"-. c #CEAF44",
";. c #DFB93A",
":. c #F1E9E1",
">. c #B9B4AF",
",. c #376B74",
"<. c #ABA5A1",
"1. c #796339",
"2. c #BF9B37",
"3. c #D7B139",
"4. c #6F5840",
"5. c #D2C9C1",
"6. c #9C9792",
"7. c #417075",
"8. c #4FA5B6",
"9. c #44696C",
"0. c #7F8A8A",
"q. c #ECE9E6",
"w. c #C6C0BA",
"e. c #7B684F",
"r. c #665348",
"t. c #EBE3DC",
"y. c #FAF2E8",
"u. c #827972",
"i. c #58635F",
"p. c #4E6464",
"a. c #5F7274",
"s. c #C3BDB8",
"d. c #F8F2EC",
"f. c #78746E",
"g. c #EEE6DE",
"h. c #FBF9F7",
"j. c #E8E0D8",
"k. c #8F8379",
"l. c #F9F4EF",
"z. c #8E8983",
"x. c #CDC2BA",
"c. c #86827D",
"v. c #A29991",
"b. c #F2EFEB",
"n. c #76706A",
"m. c #8C857F",
"M. c #CBC5BF",
"N. c #A49E99",
"B. c #97908A",
"V. c #6D635C",
"C. c #DDDBD7",
"Z. c #7D7770",
"A. c #DAD1CA",
"S. c #CDC9C5",
"D. c #B2ABA5",
"F. c #D6CEC6",
"G. c #F9F3EC",
"H. c #E2DED9",
"J. c #615B54",
"K. c #6B5F57",
"L. c #B3A8A0",
"P. c #534E49",
"I. c #40362D",
"U. c #888179",
"Y. c #AEA7A2",
"T. c #E3E0DC",
"R. c #ADA49D",
"E. c #6F5B4A",
"W. c #A59589",
"Q. c #71562B",
"!. c #857155",
"~. c #D9BC51",
"^. c #62492F",
"/. c #A68A40",
"(. c #876A37",
"). c #80693F",
"_. c #B89B44",
"`. c #B1943F",
"'. c #8A7553",
"]. c #937A3C",
"[. c #8C6F31",
"{. c #C1A243",
"}. c #523826",
"|. c #796C68",
" X c #614739",
".X c #5B4A3F",
"XX c #786A65",
"oX c #D5D2CE",
"OX c #B4B0AC",
"+X c #9D938E",
"@X c #9F928D",
"#X c black",
/* pixels */
"    .     X   .   X X . X X X o O   X     O     X     X   X   O   X . . .     X . X X   X X   . X   ",
"X X X .       X         . X o . . X           .   O X   O   X   X     O   O   O           X         ",
"X X X . X       O   X X   X X X X   X . O     X   O   O     O               O     O   .           O ",
"o X . + O     .   O . .   o X     o X . O   X @ @ # $ % & * X O O O O     O O O O   O O O   O O O O ",
"o o X =     X X   O X O       X .     O O   @ & - ; : > , < > 1 o   .     O O . O O O   O     O     ",
"X X X   O         O   . X X     X X X X X * 2 3 4 5 6 7 7 8 9 0 q         . O O O O   O   O O     X ",
"o X . . O X X     O o o X o X O   . X X o w ; e r t y u i p a s d f o .   O O   O O O O   O O O   O ",
"  o   X O   X o   O X   o o o O O X X X X g 4 h j a k l z x c s v b X .     O O     O O O O O O     ",
"X X o O   . X . O   X . X X X O O   + O X n m M 6 N B 2 V C l C Z A o     O o o o O X   O   O X O O ",
"X o X X     X . + O X o X X X       O   S D F G H J J K L P I U Y T X       o X X     O O O X   O O ",
"X . X O O X       O     X o X X X     R N E B L W N Q q ! F ~ ^ / ( 1 X X X X   . O     O   O   O   ",
"O     X O     O   X O O X X X o o S * ) _ ` ' _ ] [ { { L K F U } |  ...X o X     O X O     O . O O ",
".   . O O O   . O   X   o . X o o f X.o.O.+.+.+.@.#.{ Q H J F $.%.%.&. .* o       O         O . O   ",
"  X X     X X X X X X X X X   o *.=.-.O.+.+.+.+.;.0 :.J J H >.,.%.%.} $.<.O O X X .       O O   O   ",
"  . . O O . O X   X X . X X X o : 1.2.;.;.;.3.2.' 4.5.J J Q 6.7.} 8.9.0.q.X   X X   O O O   O   O O ",
"  . X       . X X X     X X   o R w.b X.e.e.e.r.W t.y.Q J H u.i.p.a.s.d.X X X     O         O   O   ",
"O X X     X   X O . X   O     o X X o X     q.f.{ y.y.Q Q K ; g.R h.X   X         O   O O   O X O   ",
"      O       X       O X     o o X .     X R ( t.Q H H Q j.k.l.@ o     X   X X X O   X X O O   O   ",
"  O O O O O O O O O O O O O   O O O O O X . h.z.5.Q Q y.Q q z.@ h.o       . X o X     . X . O     O ",
"  O . + O   O   O O     O X X . O O O     O o w x.Q Q y.y.x.: @ o o X X X O X o X     X X .     O . ",
"O O O O O       O O X o o X X O O O O     . h.c.L H y.7 y.x.v.@ @ h.X X X   O O       X o X O .     ",
"  O O   O O   O O O o X o o o O O O O O O   b.n.g.{ { y.H P m.@ h.o O   . O O   X O O o X o O O O   ",
"    O   O O O   O O o o     . o X O X     . % ( { { { y.y.g.; * h.o .       X X X X o X X   o   O . ",
"O   O O O   O   O O o o   O   o X   X .   1 f.M.{ { y.Q y.{ u.s.@ o X   X O X o o o o X     X X     ",
"    O O O O O     . o X O O O X   X   X h.c.N.Q Q Q H H Q H 5.n.b.o         o X X h.q.b.X =   X O   ",
"  O O O O O O X o o o O O O O O O   o @ 6.B.K J J J J J J Q y.B V.C.h.. o o . q.<.V ( f.R o X     X ",
"O O   O O     X o o o O O O O   O   h.s.f.K Q Q J H J J l.J Q 7 5.Z., % ..*.( f.: q A.( R X O     . ",
"  O O   O O O       X   O O O O O o S.( j.Q H y.y.y.H H J J H H Q G w.w n.Y 3 u.s.d.6.D.X       X X ",
"O O O O O   O   O O X   O O O   O q.D F.Q G.G.y.y.y.H y.y.H H H H H y.y.{ H.q P J.L J.$ @ X X   X   ",
"  O O O O O O O O O o X . O O o l.- w.Q G.G.J y.y.y.y.Q y.H y.H y.H H y.Q 7 { L g L <.- q.o O O     ",
"    . O O O O   O O o o   O   o s.m.7 G.l.J J y.y.H y.y.Q H Q y.y.y.H H y.y.L K.L.g.f.u.@   X       ",
"  O O O O   O   O O X o     X X f.x.Q Q J G.J Q Q H H H H y.H Q H Q y.y.H H D.T ; k.u.V.*           ",
"  O O O O O O   O O O O X o o h.J.L H J H J Q J Q H H H y.H H Q H Q H H H y.y.{ L g ) N.@ X O X   X ",
"  O O O O O O   O O O O o X X h.P.L G.G.Q H Q J H H H y.{ H H Q y.y.y.H H y.H y.: I.N.R     O       ",
"  O     O   O O O O O O o X o o n.F.Q Q 7 H J J G.H Q y.y.H H H H H Q H H y.Q P 4 U.@ o o o   O O O ",
"      O O   O   O O O O X o X o Y.B.{ 7 y.Q G.J J Q Q Q H H H H H H y.Q H y.y.g.; % X X X o       . ",
"        O   O .     O O X   . X b.J.x.y.Q Q H Q J Q Q y.H H H H H H y.y.H H y.) v.h.X X   . O       ",
"X O O O   O   X X X   O O O X X o # D > G { Q Q Q J Q y.H H H H H H H H y.K w : h.X o X   O O O   O ",
"        O   .       O   O   X o o X q.N.V V.j.Q J Q Q Q H y.y.H H H H y.L n.: R X o X   O . O O   O ",
"          X X   .       O X o o o X o @ T.R.; ~ :.G.G.Q Q :.L.N F.F.M.z.; $ h.  X   O O   O O       ",
"O   O O O   O   O O   O O X X O X O   X X o g.E.4.W.w.F k.V.K.Q.r n Z.s.@ X O . O O O     O O   O O ",
"  O O   O   O O   O O   O O   O O   X o h.h.q.!.~.^.D.*.q d.~ /.(.H.h.o X   X . O   .     O         ",
"O     O O           O O O         X   X X . T.).` r.l.@ @ @ A _.e.R o X o o X     O O O     O O O O ",
"O   O   O   O .       X O O     O   X X   o q ).`.R.@ h.@ b.'./.T h.o o o X       O O O   O O     O ",
"O         X     X X O O O       O X X .   @ W (.1.j.h.h.h.w.].[.P = o o o o X   O   O     O         ",
"    O     O O       .     X o o . o X X @ q e.`.8 @ h.@ f 4.{.=.d.h.. o X o .             O O   O O ",
"  . .   O   O O . X h.l.T.w.B Y.<.<.<.w - }./.o.E.R.N.|.4./.{.Q.~ Y.R.R.Y.Y.Y.Y.Y.<.<.w.#   O   O O ",
"    . O .       o X @ T.( n.|.|.|.|.|.g E c  Xc M |.K.k  X Xc .XXXXXXXXXXXXX|.|.|.|.|.|.Z.T.        ",
"  . O       O O     X R oXOXY.Y.> +X+X+X+X+X+X+X@X@X+X@X@X@X@X@X+X@X@X@X@X@X@X@X+X+X+XN.w.1   O   O ",
". X       O O O O O O O o o o o h.o h.o o o h.h.o o o o o o o o o o h.h.o h.o o X X X h.h.o         "
};
