/* XPM */
static char *result[] = {
/* columns rows colors chars-per-pixel */
"50 50 196 2 ",
"   c #FCFCFA",
".  c #FCFBFA",
"X  c #FCFCFB",
"o  c #FCFBF9",
"O  c #FBFBFA",
"+  c #FBFBF9",
"@  c #FBFCFA",
"#  c #FCFAF8",
"$  c #FAFAF8",
"%  c #ECE9E6",
"&  c #D5D2CE",
"*  c #C5C2BE",
"=  c #F5F3F1",
"-  c #F8F7F4",
";  c #D1CECA",
":  c #888179",
">  c #76706A",
",  c #8C857F",
"<  c #A7A09B",
"1  c #ABA5A1",
"2  c #7D7770",
"3  c #6F6760",
"4  c #C0B8B0",
"5  c #6D635C",
"6  c #544B44",
"7  c #53443C",
"8  c #CDC2BA",
"9  c #F9F4EF",
"0  c #EEE6DE",
"q  c #614739",
"w  c #7B3B2A",
"e  c #948172",
"r  c #796C68",
"t  c #5B4A3F",
"y  c #3D1C10",
"u  c #492215",
"i  c #4D4741",
"p  c #78746E",
"a  c #AEA7A2",
"s  c #7A513A",
"d  c #D25128",
"f  c #9B3F25",
"g  c #96867B",
"h  c #FBF9F7",
"j  c #453A33",
"k  c #56291B",
"l  c #AA4527",
"z  c #8F3B23",
"x  c #5D2C1B",
"c  c #485C59",
"v  c #438793",
"b  c #3E5050",
"n  c #853822",
"m  c #723220",
"M  c #E6E3E0",
"N  c #443E38",
"B  c #34241B",
"V  c #7F6C59",
"C  c #9C8A7E",
"Z  c #928D87",
"A  c #6F7876",
"S  c #4F7E81",
"D  c #537472",
"F  c #6F3F2E",
"G  c #B4B0AC",
"H  c #2B2D28",
"J  c #442E23",
"K  c #A69D95",
"L  c #F9F0E7",
"P  c #FAF2EA",
"I  c #F9F3EC",
"U  c #F1E9E1",
"Y  c #65605A",
"T  c #364948",
"R  c #4C3A31",
"E  c #615B54",
"W  c #FAF2E8",
"Q  c #F8F1E9",
"!  c #C7BCB3",
"~  c #271D17",
"^  c #2A3837",
"/  c #FBF8F4",
"(  c #F2EFEB",
")  c #FAF3EB",
"_  c #E8E0D8",
"`  c #E0D9D2",
"'  c #4F5350",
"]  c #519DA9",
"[  c #356068",
"{  c #BDB9B5",
"}  c #9C8E85",
"|  c #695234",
" . c #B5A293",
".. c #D2C9C1",
"X. c #CBC5BF",
"o. c #DDD5CE",
"O. c #505E5D",
"+. c #54BED3",
"@. c #51B8CC",
"#. c #4E6C6C",
"$. c #F3F1ED",
"%. c #B3A8A0",
"&. c #8C6F31",
"*. c #D7B139",
"=. c #B08E36",
"-. c #A78534",
";. c #88652D",
":. c #A59589",
">. c #F4ECE4",
",. c #D6CEC6",
"<. c #E4DBD3",
"1. c #4E6464",
"2. c #4EC2DA",
"3. c #4B8D97",
"4. c #787F7D",
"5. c #E2DED9",
"6. c #7C6049",
"7. c #F4CD3C",
"8. c #F6CF37",
"9. c #BF9B37",
"0. c #AC9585",
"q. c #4D929F",
"w. c #376B74",
"e. c #5C6A68",
"r. c #D8D5D2",
"t. c #978A82",
"y. c #8B723F",
"u. c #C4A139",
"i. c #E8C445",
"p. c #97908A",
"a. c #736B65",
"s. c #949A9A",
"d. c #A68A40",
"f. c #EAC53C",
"g. c #876A37",
"h. c #A28A76",
"j. c #F5EEE7",
"k. c #7E746C",
"l. c #EAE6E3",
"z. c #E3E0DC",
"x. c #857155",
"c. c #967C45",
"v. c #6E5937",
"b. c #8F8379",
"n. c #BDB3AB",
"m. c #877C73",
"M. c #8E8983",
"N. c #F8F2EC",
"B. c #DDDBD7",
"V. c #7E7A75",
"C. c #ADA49D",
"Z. c #B2ABA5",
"A. c #CDC9C5",
"S. c #6A6762",
"D. c #EBE3DC",
"F. c #9C9792",
"G. c #837E78",
"H. c #EEECE9",
"J. c #C3BDB8",
"K. c #585651",
"L. c #858784",
"P. c #86827D",
"I. c #9A938E",
"U. c #827972",
"Y. c #C6C0BA",
"T. c #534E49",
"R. c #40362D",
"E. c #B7AFA8",
"W. c #9F928D",
"Q. c #5E554E",
"!. c #A29991",
"~. c #B9B4AF",
"^. c #786A65",
"/. c #DAD1CA",
"(. c #634F3E",
"). c #7B684F",
"_. c #90877E",
"`. c #8E7438",
"'. c #62492F",
"]. c #B89B44",
"[. c #796339",
"{. c #775E40",
"}. c #C2A94E",
"|. c #B1943F",
" X c #665348",
".X c #79685E",
"XX c #6F5840",
"oX c #C1A243",
"OX c #CEAF44",
"+X c #5C412F",
"@X c #4F4036",
"#X c #735F55",
"$X c #674926",
"%X c #9D938E",
"&X c #A49E99",
"*X c black",
/* pixels */
"      . X     X       X     .   . o X   X X   X .   X   X   X             X   X   X   .     . X   . ",
"O . O .   X   o .       . + O   X + X   X   X X X X       X X X X   X X X X X   X X X X     X X   X ",
"  O O X @ X @ X X   . O X + + O O   O O X X X     . X X X   X X   X X X X X X   X X X . X @ X X X X ",
"O O X O X X X + O X   O X O O X O O O X   X X X X X X X   X X X X X X   . X X X X X X X X X X X X X ",
"O + + O O X O O X X X X X O O @ O X @ X X X     O X X X   X X X X   X X X O X O X X X X X O X X X X ",
"O O O X X X @ .   X X O O + O . O O O O X X   # $ % & * * & = O O @ .   X X X X X X X X X X X X X @ ",
"O X @   X O O       + + + + + X X X + X X X - ; : > , < 1 2 3 4 = $ O   . X X X X X X X X X X X X X ",
"@ + .   X O O O @ X X O @ $ O X X + X . X . 1 5 6 7 6 8 9 0 q w e = X X . X X X @ X X X X X X X X X ",
"$ + + X X O O X X X O @ . X O X X O @ X X % r t y u y i p a s d f g h O X X O + O X O . X X X O X X ",
"@ + + X X X O O @ X O + X O . X @ X X @ O ; j k l z x c v v b n d m M @ X X + + O X @ X X X X X X X ",
"  O + X X O X X X X X X + O O + + + . O $ a N B y V C Z A b S D F m M O X + @ O @ X X X X X X X X O ",
"X X X X X . O X X   X @ X O O + + O + @ X G H J K L P 9 I U Y T D R - O @ + O X X X @ X X X X O X X ",
"X O O X X X X . X X X O O X O $ + O + + o % E > L L W Q Q P ! ~ ^ i / O + X X X X X O @ @ X X O X X ",
"+ O O @ X + O O O O O   + O O + + O X + h ( 2 8 L W Q ) _ 2 ` ' ] [ { $ X X + O + X X X X X X X X X ",
"X O @ X X O X X @ O @   O O O + O X X $ / } |  .! ! ..Q X.N o.O.+.@.#.& X X X @ @ X X X X X X X X @ ",
"X O O X X . O O + + O O . .   O + O $ $.%.&.*.=.-.;.:.L >.,.<.1.2.2.3.4.$ O X X @ X X X X X X X X @ ",
"X O O X X O   . X X X X X X   $ - 5.C 6.=.7.8.8.8.9.0.L ) ) 8 b q.w.e.r.O X O X @ X X O   X X   X X ",
"X X X X X X @ O X X X X + X @ $ t.y.u.i.7.8.8.8.8.i.s o.9 ) p.a.s.* = # o X   O O X   O X X X X   X ",
"X X X X X . X X X X X X X X O $ > d.i.7.8.7.7.f.9.g.h.U ) j.k.l./ o   X X X O O O X X @ O @ X X @ X ",
"X X O @ X X X X X X @   X O O O z.:.x.y.c.y.y.v.V 8 j.P ) <.b./ # #   X . X O O + @ X O O X   X X X ",
"X X X X X X X X X X + O + $ O X X O - $.( ( = & > L P ) ) n.1 h # #   X o X X X X @ X @ O $ X @ X X ",
"X X X X X X X X X X + + + + $ X X X O X X X + h 3 0 P I I m.; h # o o o X X X X O X X O + O X   X O ",
"X   X X X X X X X X + + . X . + + X X X X X   + M.` Q N.N.a.r.h h #         O $.B.- O O O X + X X O ",
"X . X X X X X X X X O + X X X + O X O @ @     $ V._ Q Q Q k.& h h # X X   O r.V.> G O @ X X   O   O ",
".   X X X X X   X O + O O X X @ + X @ X X X $ r.Y j.W P P C.Z./ h # X X O A.p 5.z.S.X X O @ O . X X ",
"X X X X X X X O + O + X X X X X X X X O +   - M.4 W P P ) D.2 $.$   X X = > M 9 5.S.+ o o   @ @ X X ",
"@ X X X X X X X + + O X X X X X X X X   . = F.V.j.I P P ) P %.G.H.+ + o J.F.% 9 F.K.L.P.H.o X X . X ",
"X X X X X X X X X X O @ X X X X X X + h r.2 I._ Q N.P P P ) >.C.> F.J.G S.G.U.p.i 1 l.p 5.# X X @ @ ",
"O X X X X X X X X X + O X X X X X X - a 5 & j.P I 9 I ) ) 9 N.Q U Y.P.T.a._ j.r %.N.* V.-     . + O ",
"X X X X X X X X X X O   o X X X X $.V.p.j.N.) P P P I I ) ) ) Q Q P P j.,.o.L k.<.Z.R.Z.h   X X @ X ",
"  X X X X X X X X X + + X X X # = , Z.j.I I I I W P ) I ) P P P P P P P P P U 6 r 4 Y.3 M o . X X X ",
"@ X X X X X X X X X O + @ O . / E.: j.I I I I I Q P ) I ) P P P P P W P P P U 4 C.W.U.Z = # X X X X ",
"X X X X X X X X X X X X + O O - E ` ) 9 9 9 N.N.) P ) ) P W P W P P W W P P P W M.6 ; h . @ X X X @ ",
"@ X X X X X X X X X X X O O + % > L ) I 9 9 I N.) ) ) P W Q P P P W P P P P P ..R.Q.- o + O X @ X X ",
"X X X   X X X X X X X X O + + r.t.P P I I I I I ) ) P P W P W P ) ) P P W W P !...Q.- o O + X   X X ",
"  X X X X X X X X X X X + + O A.p.) ) ) P I ) I ) ) P P P P P P ) ) W P P W W j._ Q.h O $ O X   X @ ",
"  O X X X X X X X   X X @ X + r.p.) ) P P 9 ) ) ) ) P P P P P P P P P W P W P ) K C.+ O O X X X X X ",
"O X X @ O X X   . O X X X @ . l.a.Q ) P P ) I I I I I ) ) P P P W P P P P P W o.E = +   X X   X   X ",
"X X X X X X   X X O X X X X + - E 0 ) P ) 9 I I I I I P P P P P P W P P P W P 4 a.+ +   X O X X @ X ",
"X X X X X + + O O @ X X X O + $ I.C.Q W ) ) I ) I N.I P P P P P ) P W W P ) Q m.~.. X X X X X O X X ",
"O X X X X . X X X X X X X X O + $.a.a 0 9 ) I I I I N.I P P ) P P ) P P P _ G.Z.# X X X X X X X X X ",
"X @ X X X X X X X X X X X @     X $.F.Y Z Y.>.P P I I I P P P P L W P j.! Q.J.h o X X X X X X .   X ",
"X X X X @ X X X X X X X X X X X X + # M p.3 ^./.j.N.9 I ) P P P W P ! 3 p.H.o X X X . X X X X X X X ",
"@ X X X X X X X X @ @ X X X @ X X X + . + = n.(.)._.%.4 4 ! /.8 n.< 3 A./ o   O     X X X X X X X X ",
"@ X X X X .   . @ O X X X O X X @ X X @ O o ! g.`.%.a I.P.a.| '.5 ~.$.h o o . X @ X X X . X X X X X ",
"X X X X X X X X O   X X   . + +   + O O + l.V ].(.$./ - % ).].[.<.$ # + $ + O .     .   . X X O X X ",
"X X X @ @ X X X + O # - z.Y.E.1 1 1 1 p.k.{.}.|. X1 Z .XXXoXOX+X< a a a a a a a a 1 1 Y.M X X X X X ",
"@ X . X   X X X @ O h z.V.> r r r r 3 @XJ +X'.+X#X^.j R {.$X+Xt ^.^.^.^.r a.r r r r r r 2 z.X X X X ",
"X @ X X   X X X @ @ o - & G a a < %X%X%Xp.p.} W.W.W.%Xt.} } } W.%XW.%X%X%X%X%XW.!.F.F.&XY.$.X X   X ",
"X O X X X X X X X X X X o . # # h $ $ $ $ $ # h # # # h # # # + + + # # $ $ + + o O + $ h o @ @ X @ "
};
