/* XPM */
static char *result[] = {
/* columns rows colors chars-per-pixel */
"50 50 187 2 ",
"   c #FCFCFA",
".  c #FCFBFA",
"X  c #FCFCFB",
"o  c #FCFBF9",
"O  c #FCFAF8",
"+  c #FBFBFA",
"@  c #FBFBF9",
"#  c #FBF9F7",
"$  c #EEECE9",
"%  c #BDB9B5",
"&  c #AEA7A2",
"*  c #A09B95",
"=  c #9A938E",
"-  c #9C9792",
";  c #DDDBD7",
":  c #F3F1ED",
">  c #B9B4AF",
",  c #76706A",
"<  c #736B65",
"1  c #A29991",
"2  c #D6CEC6",
"3  c #ADA49D",
"4  c #634F3E",
"5  c #A59589",
"6  c #E8E0D8",
"7  c #B4B0AC",
"8  c #6F6760",
"9  c #4F4036",
"0  c #5B4A3F",
"q  c #675950",
"w  c #E0D9D2",
"e  c #F9F3EC",
"r  c #F5EEE7",
"t  c #87654C",
"y  c #AA4527",
"u  c #895040",
"i  c #DDD5CE",
"p  c #F5F3F1",
"a  c #6F5B4A",
"s  c #5D2C1B",
"d  c #883D2B",
"f  c #5E554E",
"g  c #787F7D",
"h  c #8D6856",
"j  c #D25128",
"k  c #D5D2CE",
"l  c #443E38",
"z  c #523826",
"x  c #7B3B2A",
"c  c #935A48",
"v  c #897261",
"b  c #485C59",
"n  c #4A7174",
"m  c #44696C",
"M  c #6F3F2E",
"N  c #884532",
"B  c #453A33",
"V  c #90877E",
"C  c #E4DBD3",
"Z  c #F9F0E7",
"A  c #FAF2E8",
"S  c #FAF2EA",
"D  c #EEE6DE",
"F  c #A7A09B",
"G  c #4E6C6C",
"H  c #4F7E81",
"J  c #633D27",
"K  c #F2EFEB",
"L  c #C5C2BE",
"P  c #EBE3DC",
"I  c #C7BCB3",
"U  c #2B2D28",
"Y  c #45433D",
"T  c #FBF8F4",
"R  c #8C857F",
"E  c #7F6C59",
"W  c #D2C9C1",
"Q  c #6B5F57",
"!  c #544B44",
"~  c #2A3837",
"^  c #364948",
"/  c #FAFAF8",
"(  c #E3E0DC",
")  c #948172",
"_  c #BF9B37",
"`  c #E8C445",
"'  c #C4A139",
"]  c #B08E36",
"[  c #9F7B31",
"{  c #F4ECE4",
"}  c #686F6C",
"|  c #4896A6",
" . c #4FA5B6",
".. c #70888C",
"X. c #ECE9E6",
"o. c #E2DED9",
"O. c #AC9E95",
"+. c #937B53",
"@. c #CEAF44",
"#. c #F4CD3C",
"$. c #F6CF37",
"%. c #D7B139",
"&. c #A28A76",
"*. c #F1E9E1",
"=. c #FAF3EB",
"-. c #6F7876",
";. c #54BED3",
":. c #4EC2DA",
">. c #7F8A8A",
",. c #B7AFA8",
"<. c #8A7553",
"1. c #806334",
"2. c #4B8D97",
"3. c #9D938E",
"4. c #967C45",
"5. c #DDBA42",
"6. c #DFB93A",
"7. c #A78534",
"8. c #866F4A",
"9. c #B5A293",
"0. c #97908A",
"q. c #4F5350",
"w. c #5C6A68",
"e. c #F8F7F4",
"r. c #DAD1CA",
"t. c #AC9585",
"y. c #97835B",
"u. c #80693F",
"i. c #C0B8B0",
"p. c #F9F4EF",
"a. c #D8D5D2",
"s. c #888179",
"d. c #C6C0BA",
"f. c #8E8983",
"g. c #7E746C",
"h. c #F8F1E9",
"j. c #796C68",
"k. c #ABA5A1",
"l. c #877C73",
"z. c #837E78",
"x. c #D1CECA",
"c. c #BDB3AB",
"v. c #928D87",
"b. c #A49E99",
"n. c #7E7A75",
"m. c #C3BDB8",
"M. c #CDC2BA",
"N. c #86827D",
"B. c #EAE6E3",
"V. c #585651",
"C. c #F8F2EC",
"Z. c #6D635C",
"A. c #B2ABA5",
"S. c #6A6762",
"D. c #B3A8A0",
"F. c #978A82",
"G. c #827972",
"H. c #78746E",
"J. c #CBC5BF",
"K. c #FBF2E9",
"L. c #7D7770",
"P. c #9C8E85",
"I. c #E6E3E0",
"U. c #A69D95",
"Y. c #4D4741",
"T. c #817367",
"R. c #B39A51",
"E. c #8B7A6B",
"W. c #8B723F",
"Q. c #A28B4A",
"!. c #96867B",
"~. c #9A8568",
"^. c #AB9247",
"/. c #B1943F",
"(. c #9C8A7E",
"). c #CEB053",
"_. c #B89B44",
"`. c #775E40",
"'. c #786A65",
"]. c #79685E",
"[. c #53443C",
"{. c #4C3A31",
"}. c #695234",
"|. c #735F55",
" X c #6E5937",
".X c #9F928D",
"XX c black",
/* pixels */
"      . X     X       X     .   . o X   X X   X .   X   X   X             X   X   X   .     . X   . ",
". . o .   X   o .       . o o .   O     X   X X X X       X X X X   X X X X X   X X X X     X X   X ",
"    . .     o . X .   o . . o . o . o o X X X     . X X X   X X   X X X X X X   X X X . X   X X X X ",
"o o . + X     . o X o     o o   . o o . X X X X X X X X   X X X X X X   . X X X X X X X X .   X X X ",
"o o o @     . o   X o   X .   . .   . X X X       X X o   X X X X       X . X . X X X   o     X   o ",
"o o .   X   . X   X     O o . . o . . . X X . # $ % & * = - ; # . . .   X   X X X X   X   X X   X o ",
"o . o   X . o .   X o O o o o X   . o X X   : > , < 1 2 2 3 4 5 6 # o   . X X X     X X   X X X X X ",
"  o .   X   o o   X     . O o X X .     X . 7 8 9 0 q w e r t y u i     X X X X .   X X X X X X X X ",
"O O o X X o . X X X o . o . . X X . @ . X p , a s d s f g 7 h j j h O     X o o O X     X   X o X X ",
". o o .   . . . + X o o . o . X   X X   o k l z x c v , b n m M j N #   X   o o O   . X X X   . X X ",
"o . o X X .   . X X X   o o . o o o o o O & B V C Z A S D F G H f J K   . o o   . X X   X X X X X   ",
"X X   X X     X   . X   . o o O O . o . O L < P Z A S S 3 < I U m Y K o o o . X   X . X X   X . X X ",
"  X o X X X X X X X o   o .   O O o o O T R E I i W 2 Z R Q P ! ~ ^ $ o o o X   X X   X X X X . X X ",
"  o o       . o . . o .   o o o o / # ( ) _ ` ' ] [ 5 Z Z { r } |  ...X.  X X o o . X X   X X   X   ",
". .   X X . X .   . . o . o o O # o.O.+.@.#.$.$.$.%.&.*.=.=.{ -.;.:.| >.K X X o       X X X X   X X ",
"X . o       . . o .   . . .   O ,.<._ ` $.$.$.$.$.` 1.O.e =.i G :.;.2.-.X.o X X   X   X X X X   X   ",
"  o o   X .   . X . . X     o O 3.4.5.#.$.$.#.6.7.8.9.P =.=.0.q.G w.% p . o . X X X   X   X .   X X ",
"X     X X     .     X X o   X o e.r.t.y.u.u.<.4 i.*.S =.p.P 3.X.K p o   .     . o X   o     X X     ",
"  X X X X X X X X X X X X X . X X o   / e.e.# a.s.Z S e p.O.d.# O o .   .   o o o   X   o . X X   X ",
"X X . + X X X X X X     X o .   X   X X   X o # f.D S =.p.g.D # O o     o   . o o     . o .   X X . ",
"X X X X X X X   X X o O O o o X X X X   X   O o 7 r.A S h.j.e.O O O   X o   X X       o O o X . X X ",
"  X X X X X X X X X o o O O o X X X X X     O o k.r.S A r l.T O O o o .     X   o X   o o o X X     ",
"X X X   X X X X X X o o   X . o o X . X     o : z.*.A A Z g.X.T O O   X .   o : x.; O o .   o   X   ",
"X   X X X X X X X X o o X X X O o   o .   X T k.k.Z A S S c.= $ # . X X X X ( v.b.n.$ o .   o o   . ",
"    X X X X X     . o o X X X . . X . X X / m.v.S A A S S S M.N.a.# . . o a.z.o.h.v.( /   +   o X   ",
"  X X X X X X . o o O X X X X X X X X o o L - { e S S S S =.=.6 1 R B.T ; R B.p.L Y N.b.# X .     X ",
"  X X X X X   . o o O X X X X X X   X e.k.= *.h.e =.=.=.S =.=.S Z 2 f.R V.k.k B.0.w * k./ X X X   . ",
"  X X   X X X X     o X X X X X X O e.F F r =.=.=.=.=.p.=.p.e C.S S r C ,.Z.A.V I > S.d.O .     o   ",
"X X X X X X X   X X o X X X X X X T k.k.h.Z =.=.e S =.p.p.p.e e h.S S S Z D.I I F.{ x.v.# X     o o ",
"  X X X X X X X X X o o X X X X X L = r e =.=.S h.S =.=.e S e h.h.S A A A *.1 G.,.C H.( o . X X   X ",
"X X . X X X X X X X o o X X X o K s.D =.=.=.=.S S S S =.=.h.S S S S S S A A P J.l.R o.#   X .   X X ",
"X X X X X X X X X X o o . . . O % A.S e e e e e S S S S =.K.K.A K.K.A K.S S S A A.x.T o .   X       ",
"  X X X X X X X X X X X O o o O L.C =.e e e e =.C.S K.S A A K.A S S A S K.S K.*.< o.# @ o . X .   . ",
"  X X X X X X X X X X X o o o O H.*.S =.e =.S =.C.h.S S S S K.K.S K.A A S S A C P.f.O O O . X   X   ",
"  X X   X X X X X X X X o o o o H.*.S e =.p.=.e =.=.S S S S K.S S K.A S S A S Z 2 =   o o X   X X X ",
"X   X X X   X X X X X X o o o O L.6 =.e e =.=.h.=.=.S S S S K.S S K.A S S S S Z P.k o o o . . X X . ",
"X . X X X X X . X   X X o   . O - J.=.e e e e e =.=.S K.K.S K.K.S K.A S A S S > b.# o X X X X X     ",
"X X X X   X X . o o   X X   . . I.s.{ =.p.p.=.p.p.=.S K.K.K.K.A K.S K.S S Z & - @ o o X X   X X X X ",
"X   X   X     X     X   X     O T i.3.{ p.p.=.p.=.=.K.K.S S K.S S S S K.S U.Y.X.X O o X   . X X X X ",
"X   X . o o o o . X X X X . o X X O L f.A.r.r =.p.=.S K.S =.=.S =.=.S *.,.R k o     X X X X X X X   ",
"X . X X X X X X X X X X X . o X     O : & 8 V r.e =.S S K.=.=.S S S 2 z.A.T O o X X X X X X X     X ",
"X . X X X   X X X X X X X   . X X X X . . O C T.E M.D { { { *.C 2 U.z.o.# O o   X X .   . X   X X   ",
"X   X   X     X X X X X X X X   X     X .   # 1 R.E.* = = 0.Z.W.a C e.o O O o . X X X X X   X X X X ",
"    X . X X X .       . X X   . X   X X     C.&.Q.r.T T T T t.R.!.T O O o o o     X X X X X X     X ",
"X X X   X . X X . .   X X X X X X .   . . o i 4.+.K T # T e.~.^.2 O O o o O   X X . X X X X X X X   ",
"o   X X   X X X       X   . o o . o o o o K ~./.(.# T # e.J.Q.y.T O o o o o . X X X     X X X X X X ",
"  o . +   X X X . . # e.( L ,.k.k.k.k.* V v )._.E.k.k.- G.Q.@.`.F k.& & & & & & & k.k.d.B.  X X X X ",
"X X . X . X     o   # ( L., j.j.j.'.].[.{.4 }.}.|.'.f 9 a  X}.4 '.'.'.'.'.j.'.j.j.j.j.'.L.( X X X   ",
"  . X X   X X X .   o e.k 7 & & F 3.3.3..X3..X.X.X.X.X.XP.P..X.X.X.X.X.X.X3.3.1 1 - - b.d.: X     X ",
". .       X X X X X X X o O O O O # O O o O O # O O O O o O O O o o O # O O O o O o o O # O   X X   "
};
