/* XPM */
static char *result[] = {
/* columns rows colors chars-per-pixel */
"50 50 191 2 ",
"   c #FCFCFA",
".  c #FCFBFA",
"X  c #FCFCFB",
"o  c #FCFBF9",
"O  c #FBFBF9",
"+  c #FBFBFA",
"@  c #FBFCFA",
"#  c #FBF9F7",
"$  c #F2EFEB",
"%  c #B9B4AF",
"&  c #ABA5A1",
"*  c #A09B95",
"=  c #9A938E",
"-  c #E0D9D2",
";  c #F3F1ED",
":  c #7E746C",
">  c #786A65",
",  c #A29991",
"<  c #D6CEC6",
"1  c #ADA49D",
"2  c #614739",
"3  c #AC9585",
"4  c #E8E0D8",
"5  c #B7AFA8",
"6  c #6F6760",
"7  c #4F4036",
"8  c #5B4A3F",
"9  c #675950",
"0  c #FAF3EB",
"q  c #F4ECE4",
"w  c #87654C",
"e  c #AA4527",
"r  c #895040",
"t  c #D8D5D2",
"y  c #FAFAF8",
"u  c #76706A",
"i  c #5D2C1B",
"p  c #883D2B",
"a  c #5E554E",
"s  c #787F7D",
"d  c #8D6856",
"f  c #D25128",
"g  c #D5D2CE",
"h  c #443E38",
"j  c #523826",
"k  c #7B3B2A",
"l  c #935A48",
"z  c #897261",
"x  c #4F5350",
"c  c #4A7174",
"v  c #44696C",
"b  c #6F3F2E",
"n  c #884532",
"m  c #B2ABA5",
"M  c #453A33",
"N  c #90877E",
"B  c #E4DBD3",
"V  c #F9F0E7",
"C  c #FAF2E8",
"Z  c #F1E9E1",
"A  c #A7A09B",
"S  c #4E6C6C",
"D  c #4F7E81",
"F  c #665348",
"G  c #633D27",
"H  c #C5C2BE",
"J  c #736B65",
"K  c #EBE3DC",
"L  c #F8F1E9",
"P  c #C7BCB3",
"I  c #2B2D28",
"U  c #45433D",
"Y  c #8F8379",
"T  c #7F6C59",
"R  c #D2C9C1",
"E  c #6B5F57",
"W  c #544B44",
"Q  c #2A3837",
"!  c #364948",
"~  c #EEECE9",
"^  c #E2DED9",
"/  c #9A8568",
"(  c #C1A243",
")  c #E8C445",
"_  c #C4A139",
"`  c #B08E36",
"'  c #9F7B31",
"]  c #A59589",
"[  c #4896A6",
"{  c #4FA5B6",
"}  c #70888C",
"|  c #ECE9E6",
" . c #AC9E95",
".. c #937B53",
"X. c #CEAF44",
"o. c #F6CF37",
"O. c #D7B139",
"+. c #A28A76",
"@. c #6F7876",
"#. c #54BED3",
"$. c #4EC2DA",
"%. c #519DA9",
"&. c #7F8A8A",
"*. c #BDB3AB",
"=. c #8A7553",
"-. c #BF9B37",
";. c #806334",
":. c #F9F3EC",
">. c #FAF2EA",
",. c #4D929F",
"<. c #EAE6E3",
"1. c #967C45",
"2. c #DDBA42",
"3. c #F4CD3C",
"4. c #DFB93A",
"5. c #A78534",
"6. c #866F4A",
"7. c #B5A293",
"8. c #FBF2E9",
"9. c #97908A",
"0. c #5C6A68",
"q. c #BDB9B5",
"w. c #F5F3F1",
"e. c #F8F7F4",
"r. c #DAD1CA",
"t. c #97835B",
"y. c #80693F",
"u. c #634F3E",
"i. c #C0B8B0",
"p. c #FCFAF8",
"a. c #86827D",
"s. c #C6C0BA",
"d. c #8E8983",
"f. c #EEE6DE",
"g. c #7D7770",
"h. c #B4B0AC",
"j. c #F5EEE7",
"k. c #796C68",
"l. c #827972",
"z. c #FBF8F4",
"x. c #837E78",
"c. c #D1CECA",
"v. c #DDDBD7",
"b. c #9D938E",
"n. c #E3E0DC",
"m. c #928D87",
"M. c #A49E99",
"N. c #7E7A75",
"B. c #C3BDB8",
"V. c #CDC2BA",
"C. c #F8F2EC",
"Z. c #9C9792",
"A. c #8C857F",
"S. c #858784",
"D. c #F9F4EF",
"F. c #585651",
"G. c #6D635C",
"H. c #B3A8A0",
"J. c #6A6762",
"K. c #978A82",
"L. c #CBC5BF",
"P. c #9F928D",
"I. c #78746E",
"U. c #877C73",
"Y. c #E6E3E0",
"T. c #888179",
"R. c #4D4741",
"E. c #DDD5CE",
"W. c #AEA7A2",
"Q. c #817367",
"!. c #A69D95",
"~. c #B39A51",
"^. c #8B7A6B",
"/. c #8B723F",
"(. c #6F5840",
"). c #AB9247",
"_. c #96867B",
"`. c #B1943F",
"'. c #9C8A7E",
"]. c #A28B4A",
"[. c #CEB053",
"{. c #775E40",
"}. c #79685E",
"|. c #53443C",
" X c #4C3A31",
".X c #695234",
"XX c #735F55",
"oX c #6F5B4A",
"OX c #6E5937",
"+X c #9C8E85",
"@X c black",
/* pixels */
"  .     X         X   X . . o . X o X   X X     o       X   X   .     .   X   X   X   .   o . X     ",
". o . o .   o o   .   . X O + .   O X   X   X   X X   X X   X X X   X X X X X   X X X X o X X X   X ",
". @ + + + . @ X     . @ X O + + @ X . X X X X     o   X   X X X X .       X X . X X   o X   X X X X ",
"+ + X @ X X X O + X + @ + @ + + + O O O   X X   X X X   X X   X X X X     X X X X X X X X + X X X . ",
"+ O + + X X + + X X X @ + O + + + . @ X @ X .   + X X @ o X X X X X X X X @   + X .   X @ X X X   X ",
"X O O X X X .   X X . . + O + O O @ + @ X X . # $ % & * = = - # o X . . X X X X X X X X X X X X X @ ",
"O   + X X O O       O O O O O X X . O X X   ; % : > , < < 1 2 3 4 O + @ X X X X X X X X X X X   X X ",
"@ + + . X X @ O @ X X + O O + X X X X . X   5 6 7 8 9 - 0 q w e r t + +   X X X   X X   X X X X X X ",
"+ O y X X + o O X X + + O + + X X X @ @ X ; u 9 i p i a s % d f f d O X X   O + O X X . @ @ X + X X ",
"+ O O X X O O + @ X O O + + O X X @ X @ O g h j k l z u x c v b f n # X X @ O y + X . @ X X X X X X ",
"@ + X X X X X + X @ X X . . + + O @ O O O m M N B V V C Z A S D F G $   X @ X X @ X X X X X X X X + ",
"X X X O X +   X X X X X + O + y O O y O + H J K V V L C A J P I v U $ + O O @ X X X X + @ X X X X X ",
"+ X + X X X X + X + + X O X @ + + O y y # Y T P B R < V Y E 4 W Q ! ~ O @ O + X X X X X X X X o   X ",
"@ O O @ X + X X + + . + X O + O @ y # ^ / ( ) _ ` ' ] C V q q J [ { } | X X X X X X X X X X X X X X ",
"@ + @ X X X X   + + o + + + + + # ^  ...X.o.o.o.o.O.+.Z C L q @.#.$.%.&.~ @ X X X X X X X X X X X X ",
"X + + X + X + O + O + X X + X O *.=.-.) o.o.o.o.o.) ;. .:.>.- S $.#.,.@.<.@ X X . X X . X   X + X @ ",
"+ . @ . X + O X @ X X X X   . y = 1.2.3.o.3.3.4.5.6.7.K :.8.9.x S 0.q.w.O @ X X @ X   X X X + X X X ",
"X   + X X O + O @ @ X X O   . y e.r.3 t.y.y.=.u.i.Z >.:.:.K = ~ $ e.p.. @ X O + + X @ + @ X X @ X X ",
"  X X X X X X X X X X X X X @ X X + o y e.e.# t a.L 0 0 0  .s.p.X X   X X X + + O @ X @ + X X   . X ",
"X X X @ X X X X X X @ X X + + X X X X X   X O y d.f.>.0 0 g.<.o o       o X   + + X   + + X X o   X ",
"X X X X X X X X X X O + O O O X X X X X X   y O h.r.C 8.j.k.e.# y O   X o O X X X   X + O y X @ + X ",
". X X X X X X X X X + O + + O X X X X X X   O + & r.C C j.l.z.y y y o o   X X X O X X + + + X X X X ",
"  X X X X X X X X X y O + X . O O X +   X + O $ x.Z V V V : | # # O     o X + ; c.v.p.o O   +   X X ",
"X X X X X   X X X X + y X X X O + X O X X X # & & C C C C *.b.~ z.y X X X o n.m.M.N.~ o X X @ O + X ",
". @ X X X X X X @ + O + O X X @ . + @ @ + O B.m.:.L C 8.C C V.a.t y + . o t N.^ C.m.n.y + @ X . X X ",
"O X X X X X X + + o + X X X X X X X X + + H Z.q >.C >.8.C 0 >.4 , A.<.z.v.S.<.D.H h x.* y X O @ + X ",
"X X X X X   X X o O O   X X X X X X X e.& = Z L >.0 0 0 8.0 :.>.L r.m.d.F.& r.<.9.- Z.& # X X X X X ",
"@ X X X X X X X   X O X X X X X X y e.A A j.0 >.0 0 >.C C 0 L C.L 8.j.B m G.H.N P % J.s.y X X X + + ",
"X X X X X X X X X X O X X X X X X z.& A C.C.0 >.>.>.8.8.C 0 >.L C 8.C C C H.P P K.j.< m.y + X @ + @ ",
"+ X X X X X X X X X O O + X X X . L.b.j.:.:.0 >.L >.>.8.>.>.L >.C C C C C Z P.l.5 B I.n.O @ X + X X ",
"X   X X X X X X X X O O . X X p.$ x.<.:.:.:.0 >.L >.>.>.>.>.C >.C C V C C C f.R U.A.^ # X X + X X   ",
"@ X X X X   X X X X + O + + . # q.m :.0 >.>.>.>.L >.>.>.>.C >.>.>.C C C C V >.>.m c.# o . X X X   X ",
"X X X X X X X X X X X X + . O O g.B >.>.L >.>.>.>.>.L C C L >.>.>.C C C C C 8.Z J n.z.y + X X X + X ",
"@ X X X X X X X X X X X + O O y I.q >.:.:.>.L >.L >.C >.C C C C C >.C C C C C B 9.d.o O + + @ + X X ",
"X X X @ X X X X X X X X + O O O I.Z >.>.>.:.0 L 0 >.>.C >.C C C >.>.C C C C C V < =   O O X X X X X ",
"@ X X X X X X X X X X X O + + y g.4 >.L 0 >.>.L :.>.>.C >.C C C >.C C V C V C j.P.t O + + X X X X X ",
"@   X X X X X X X @ X X X + + y Z.L.>.>.>.0 :.0 >.8.>.L C 8.C C L >.C C C C C % M.# . X X   X X X X ",
"X X X @ X @ X . X @ X X X X X   Y.T.q 0 0 0 0 >.0 >.>.>.L C >.C 8.C C L C j.H., y O + X X X X X . X ",
"X X X @ X @   X X + X X X   O O z.q.b.q 0 0 >.0 0 8.L C >.8.>.C C C >.>.C M.R.| o . X X @ + @ X X X ",
"X X X @ X O + +   X X @ X + +   X o H d.m E.j.:.>.0 C >.>.0 0 C C 8.C Z 5 A.g p.    X X X X X X X X ",
"X . X X X X X X X X X X X   . + + X p.; W.6 d.r.L 0 C >.>.>.>.8.C >.< T.m z.y o X X X X X X X X + X ",
"X @ X + @ @ X X X X X X X X X X X X X X . o ^ Q.T V.f.q q q Z - < !.x.^ p.. X   X   X X @ X X   X X ",
"X X X X X   X X   X X X X X @ X X     X X X # !.~.^.* = = 9.G./.(.B z.o O . O . X X X X X O + X X X ",
"  @ X @ @     + + X X   X X X X @ X X X X . w.+.).r.# # z.z.3 ~._.z.O y O O + X X X X X X X X X X X ",
"X X X X X X X X + + . X X + X X X + X @   O E.1...$ y y # e./ ).< y y O O O + X X   X X X X X X   X ",
"  X X O O X X X   O X + X . O O   . y # O $ / `.'.z.# y e.V.].t.D.O O + O O + .     . . o . X X @ X ",
"  X X @ X X X X + + # e.n.H 5 & W.& W.M.N z [.-.^.W.1 Z.^.].X.{.A 1 W.W.W.& W.W.W.& & s.Y.@ X + X X ",
"X X X X @ X   X + X z.n.g.u k.k.k.k.}.|. Xu..X.XXXk.a  XoXOX.Xu.> > > > > k.k.k.k.> k.k.g.n.X X X X ",
"X @ X X X X   X + X o e.g h.W.W.A b.b.b.b.b.b.P.P.b.P.P.+X+XP.P.P.P.P.P.P.b.P., , P.b.M.s.; X X X X ",
"X . X       X X X X X X p.p.p.p.p.# O # p.p.# # # # y p.p.p.p.y O O y # p.y O O O . + y #   + @ X X "
};
