/* XPM */
static char *result[] = {
/* columns rows colors chars-per-pixel */
"50 50 186 2 ",
"   c #FCFCFA",
".  c #FCFBFA",
"X  c #FCFCFB",
"o  c #FCFBF9",
"O  c #FCFAF8",
"+  c #FBFBFA",
"@  c #F5F3F1",
"#  c #D8D5D2",
"$  c #D1CECA",
"%  c #D5D2CE",
"&  c #FBFBF9",
"*  c #FBF8F4",
"=  c #DDDBD7",
"-  c #9A938E",
";  c #6D635C",
":  c #736B65",
">  c #443E38",
",  c #B9B4AF",
"<  c #F8F7F4",
"1  c #9C9792",
"2  c #796C68",
"3  c #8B7A6B",
"4  c #96867B",
"5  c #D6CEC6",
"6  c #FAF2EA",
"7  c #FBF2E9",
"8  c #A29991",
"9  c #56291B",
"0  c #A09B95",
"q  c #786A65",
"w  c #4F4036",
"e  c #53443C",
"r  c #6F5B4A",
"t  c #544B44",
"y  c #ADA49D",
"u  c #C0B8B0",
"i  c #7A513A",
"p  c #8F3B23",
"a  c #AC9E95",
"s  c #FBF9F7",
"d  c #FAFAF8",
"f  c #615B54",
"g  c #7E746C",
"h  c #3D1C10",
"j  c #884532",
"k  c #442E23",
"l  c #44696C",
"z  c #47777C",
"x  c #537472",
"c  c #9B3F25",
"v  c #883D2B",
"b  c #CBC5BF",
"n  c #723220",
"m  c #895040",
"M  c #5B4A3F",
"N  c #58635F",
"B  c #4E6C6C",
"V  c #4B858A",
"C  c #4F5350",
"Z  c #534E49",
"A  c #948172",
"S  c #E4DBD3",
"D  c #F9F0E7",
"F  c #FAF2E8",
"G  c #EBE3DC",
"H  c #CDC2BA",
"J  c #505E5D",
"K  c #5C4438",
"L  c #F3F1ED",
"P  c #45433D",
"I  c #B7AFA8",
"U  c #F4ECE4",
"Y  c #DAD1CA",
"T  c #F5EEE7",
"R  c #76706A",
"E  c #6B5F57",
"W  c #C7BCB3",
"Q  c #383028",
"!  c #2B2D28",
"~  c #7F6C59",
"^  c #8E7438",
"/  c #937B53",
"(  c #9A8568",
")  c #80693F",
"_  c #F1E9E1",
"`  c #97908A",
"'  c #B3A8A0",
"]  c #5C6A68",
"[  c #F2EFEB",
"{  c #806334",
"}  c #D9BC51",
"|  c #F6CF37",
" . c #F4CD3C",
".. c #CEA838",
"X. c #E8E0D8",
"o. c #4E6464",
"O. c #54BED3",
"+. c #4B8D97",
"@. c #7F8A8A",
"#. c #ECE9E6",
"$. c #897261",
"%. c #A78534",
"&. c #EAC53C",
"*. c #AC9585",
"=. c #F8F1E9",
"-. c #4EC2DA",
";. c #356068",
":. c #B4B0AC",
">. c #B1943F",
",. c #9F7B31",
"<. c #5C412F",
"1. c #FAF3EB",
"2. c #F9F3EC",
"3. c #438793",
"4. c #866F4A",
"5. c #A68A40",
"6. c #937A3C",
"7. c #7B684F",
"8. c #B5A293",
"9. c #364948",
"0. c #4D929F",
"q. c #417075",
"w. c #687879",
"e. c #E2DED9",
"r. c #E3E0DC",
"t. c #CDC9C5",
"y. c #827972",
"u. c #F9F4EF",
"i. c #A7A09B",
"p. c #65605A",
"a. c #858784",
"s. c #7D7770",
"d. c #8C857F",
"f. c #E0D9D2",
"g. c #90877E",
"h. c #837E78",
"j. c #DDD5CE",
"k. c #ABA5A1",
"l. c #7E7A75",
"z. c #EEECE9",
"x. c #C6C0BA",
"c. c #E6E3E0",
"v. c #D2C9C1",
"b. c #5E554E",
"n. c #8E8983",
"m. c #A49E99",
"M. c #F8F2EC",
"N. c #C5C2BE",
"B. c #A69D95",
"V. c #59524B",
"C. c #EAE6E3",
"Z. c #BDB3AB",
"A. c #4D4741",
"S. c #40362D",
"D. c #BDB9B5",
"F. c #6F6760",
"G. c #928D87",
"H. c #634F3E",
"J. c #B89B44",
"K. c #533E2C",
"L. c #978A82",
"P. c #62492F",
"I. c #695234",
"U. c #675950",
"Y. c #BF9B37",
"T. c #796339",
"R. c #A28B4A",
"E. c #8C6F31",
"W. c #876A37",
"Q. c #7F632D",
"!. c #71562B",
"~. c #AEA7A2",
"^. c #997B33",
"/. c #6E5937",
"(. c #877C73",
"). c #CEAF44",
"_. c #523826",
"`. c #79685E",
"'. c #4C3A31",
"]. c #674926",
"[. c #665348",
"{. c #9D938E",
"}. c #9F928D",
"|. c #9C8E85",
" X c #9C8A7E",
".X c black",
/* pixels */
"      . X     X       X     . . X o     X X   X .   X   X   X             X   X   X   .     . X   . ",
"o . o .   X   o .         o o o   O .   X   X X X X       X X X X   X X X X X   X X X X     X X   X ",
"o . . .   . +     .   o o . .   o   . o X X X   O @ # $ % @ O X   X X X X X X   X X X . X   X X X X ",
"o o . + X   X o   X o     o o . o . & o X o * = - ; : : : > , < O X X   . X X X X X X X X o X X X X ",
"o o o +     . &   X o         o       X X < 1 2 3 4 5 6 7 8 9 4 * + X X X . X + X X X X   X o X X X ",
"o o .   X   . X   X     o o     o   o .   0 q w e r t 0 y u i p a s . o . . X X X X X X   X X     + ",
"o . o   X . o .   X o o o O o X X . o o d f g h j j k l z x e c v b & o   X X   X X X X   X X X X . ",
"  o .   X   o o   X     o O o X X .   o s > e n p m M N B l V C v r d . X X X X . X X X   X X X X X ",
"O O o X X o . X X X o . o . . X X   + o s > Z A S D D F G H J B > K d   o X o o o X . o   X X     X ",
". O o .   . . . + X o o . & .       X O L P I D U Y T D R E W Q ! : & . . X o o O X . X X X     X X ",
". . o X X .   . X X X   o . o o X + s Y ~ ^ / ( ) r _ D ` ' S J V ] @ o . o o   . X X   X X X X X   ",
"  X   X X     X   . X   . o   .   [ 8 { } |  . ...' D F F D X.o.O.+.@.@ O o . X   X o X X   X . X X ",
"    o X X X X X X X o   o   o O #.$.%.&.| | | | ..*.D F =.F X.o.O.-.;.:.O o . X X X       X X . X X ",
". o o       . o . . o .   o o s E >. .| |  .&...,.<.W 1.2.D X.o.-.-.3.@.o X X X . .   X X X X   X   ",
". .   X X . X . X . . o + & o s , 4.5.5.5.6.) 7.8.5 _ 2.1.1.$ 9.0.q.w.# X   X       X X X X X   X X ",
"X . .       . . + o   . . . .   o #.e.e.= r.t.y.6 1.2.1.u.2.i.p.a.:.@ + o o . X X X   X X X X   X + ",
"  o o   X .   . X X X X     . X X o . + + d L s.T 1.1.1.1.1.y.% X X   . o   X X X X   X   X X . X X ",
"X     X X     .   o X   o   X . . X X       s d.Y 6 1.6 6 T g L   X   .   X . . o X   o .   X   X X ",
"  X X X X X X X X X X X X X . X X X   X X X O - I 6 7 6 6 X.y.s   X         o o o   X . o . X     X ",
"X X . +   X X X X X     X . . . X X X X     d - , 6 F 6 6 f.g.O X       .   . o o       o X     X   ",
"X X X X X X     X X o O O o o X X X X X     < h.j.F 7 7 6 f.g.o X X     o   X X       o o o X .     ",
"  X X X X X X X X X o o O O & X X X X X X   r.: T D F 7 7 S y.* O o o . . . X   o X   o O o X X X   ",
"X X X   X X X X X X o o   X . o o X .   X s 0 k.=.F F F D U : t.o .   . . X X X X   X o o   o   X   ",
"X   X X X X X X X X o o X X X O o   . o . $ l._ F F D D D 6 u R z.s X   X X X   .   X   X X o o     ",
"    X X X X X     . o o X X X .       O z.p.Y 2.7 6 7 F D 2.6 x.p.# & d < s &   X         + X o     ",
"  X X X X X X . o o O X X X X X X X   c.p.b 6 =.1.1.1.1.7 1.2.F v.b.- R b.- < X X X   X     . .     ",
"  X X X X X   . o o O X X X X X X O z.l.x.2.1.1.1.1.1.1.1.1.2.F 7 X.: > x.p.c.  X   X     X X X   X ",
"  X X   X X X X     o X X X X X X < n.m.M.1.1.1.2.1.6 1.1.1.2.F 7 7 G : W ; r.X X     X   X     .   ",
"X X X X X X X   X X o X X X X X X N.h.U 2.1.1.6 M.6 6 1.1.M.M.6 F 7 F u B.; @   .     X . X     o o ",
"  X X X X X X X X X o o X X X   < ; j.2.2.1.1.2.2.=.7 1.1.F F F F F 6 D I V.u.    X   X     X X X X ",
"X X X X X X X X X X o o X X   o e.R =.2.2.1.1.1.2.6 7 6 7 6 6 6 6 F 6 7 ' Q C.X X X   o   X .   X X ",
"X X X X X X X X X X o o . . . O , 8 =.1.2.2.1.1.2.6 6 6 6 F 6 6 F 7 6 6 ' > L X X   X . X   X     . ",
"  X X X X X X X X X X X O o o O ` x.1.1.2.2.F 1.M.6 F 6 6 =.6 F 6 F F 6 i.y.d .       o o . X .   X ",
"  X X X X X X X X X X X o o o . h.H 6 2.1.2.6 6 1.1.7 6 F 6 6 6 F 6 7 =.y.; s X       . o . X   X   ",
"  X X   X X X X X X X X o o O o 0 Z.1.2.2.M.2.M.1.1.6 =.F 7 F 6 7 F 7 X.A.` &     o o o o     X X X ",
"X   X X X   X X X X X X o o o o N.1 6 1.2.2.2.2.1.1.6 6 F F 6 F F F 6 I S.r.. X   O o o o X   X X . ",
"X . X X X X X . X   X X o   . o #.p.G 6 1.2.2.2.u.6 6 6 F F 7 7 7 7 F d.m.& o   o o o X X X X       ",
"X X X X   X X . . o   X X   . X o D.: S 1.1.u.u.1.1.=.6 F 6 F F F 7 v.y.L &       O o X     X X X X ",
"X   X   X     X o o X   X   X . . s , F.I _ u.2.2.1.6 F 6 6 F F D Z.; # o X   X   o o     . X X X X ",
"X   X . o o o o X   X X X . o     X O c.s.M 3 Y 1.6 F 6 7 T 5 B.F.G.#.O o   . X   X X X X X X       ",
"X . X X X X X X X   X X X . . X X . o   #.H.J.K.4 W Y b L.P.I.U.z.s . o     X   X X X X X X X     X ",
"X . X X X   X X   X X X X X   X X .   o s : Y.T.H ` G.` g.R.J.g.O o X X   X X X X   X X . X   X X   ",
"X   X   X     X X   X X X     X X   X   o t.6.E.X.s O s e.W.J.y O O X   . X X .   X X X     X X X X ",
"    X . X X X . .     . X X X X X   X     [ ) 6.c.* s s L Q.>.y & o X   . o o . X X X X X X X     X ",
"X X X   X . X X o o X X X X X X X . . o o @ 4.6.b s d O < !.,.y   X   . & o . X X   X     X   X X   ",
"    X X   X X X     . X   . o o . o o d @ ~.6.^., s s d C.!.%.L.. o   X O o   X X . X   X X X X X X ",
"  . X +   X X X . o s < r.N.I k.k.k.k.` M /.>.!.(.y y ` r )..._.i.k.~.k.k.~.~.k.~.y ~.x.C.    X X X ",
"X X . X . X     o   s r.s.R 2 2 2 2 2 ; e e K r `.2 ; '.<.E.].[.q q q q q 2 2 2 2 q 2 2 s.r.X X X   ",
"  . X X   X X X . X o < % :.~.~.i.1 {.{.{.{.{.}.{.{.}.|. X4 L.}.}.{.}.}.{.{.}.}.}.{.8 i.N.@       X ",
". +     X   X X X X X X d & O O O s d O O O s s d s O O O O O & & d O s d d o . . + o O s o . X X   "
};
