/* XPM */
static char *result[] = {
/* columns rows colors chars-per-pixel */
"50 50 194 2 ",
"   c #FCFCFA",
".  c #FCFBFA",
"X  c #FCFCFB",
"o  c #FCFBF9",
"O  c #FBFBFA",
"+  c #FBFBF9",
"@  c #FBFCFA",
"#  c #F8F7F4",
"$  c #E3E0DC",
"%  c #D5D2CE",
"&  c #ECE9E6",
"*  c #FBF9F7",
"=  c #FAFAF8",
"-  c #FBF8F4",
";  c #E0D9D2",
":  c #97908A",
">  c #6F6760",
",  c #76706A",
"<  c #6D635C",
"1  c #736B65",
"2  c #CBC5BF",
"3  c #A49E99",
"4  c #786A65",
"5  c #877C73",
"6  c #BDB3AB",
"7  c #F5EEE7",
"8  c #F9F3EC",
"9  c #F9F0E7",
"0  c #888179",
"q  c #5D2C1B",
"w  c #A59589",
"e  c #A7A09B",
"r  c #4F4036",
"t  c #533E2C",
"y  c #442E23",
"u  c #7E746C",
"i  c #ADA49D",
"p  c #B3A8A0",
"a  c #853822",
"s  c #96867B",
"d  c #6A6762",
"f  c #492215",
"g  c #7B3B2A",
"h  c #883D2B",
"j  c #537472",
"k  c #4F7E81",
"l  c #4E6C6C",
"z  c #633D27",
"x  c #BB4825",
"c  c #C7BCB3",
"v  c #534E49",
"b  c #4C3A31",
"n  c #723220",
"m  c #884532",
"M  c #8D6856",
"N  c #79685E",
"B  c #5C6A68",
"V  c #417075",
"C  c #53443C",
"Z  c #9B3F25",
"A  c #87654C",
"S  c #615B54",
"D  c #F4ECE4",
"F  c #FAF2EA",
"G  c #EBE3DC",
"H  c #C6C0BA",
"J  c #58635F",
"K  c #3C5A5C",
"L  c #453A33",
"P  c #5C4438",
"I  c #FCFAF8",
"U  c #D2C9C1",
"Y  c #E8E0D8",
"T  c #B7AFA8",
"R  c #F8F1E9",
"E  c #CDC2BA",
"W  c #383028",
"Q  c #2B2D28",
"!  c #7C6049",
"~  c #88652D",
"^  c #806334",
"/  c #614739",
"(  c #F1E9E1",
")  c #A69D95",
"_  c #DDD5CE",
"`  c #485C59",
"'  c #4D929F",
"]  c #4E6464",
"[  c #F5F3F1",
"{  c #DDBA42",
"}  c #F4CD3C",
"|  c #D7B139",
" . c #AC9585",
".. c #FAF3EB",
"X. c #E4DBD3",
"o. c #4EC2DA",
"O. c #4FA5B6",
"+. c #6F7876",
"@. c #F2EFEB",
"#. c #EEECE9",
"$. c #8C6F31",
"%. c #EAC53C",
"&. c #F6CF37",
"*. c #A28A76",
"=. c #D6CEC6",
"-. c #937A3C",
";. c #DFB93A",
":. c #BF9B37",
">. c #376B74",
",. c #54BED3",
"<. c #4896A6",
"1. c #687879",
"2. c #817367",
"3. c #8B723F",
"4. c #997B33",
"5. c #695234",
"6. c #9C8A7E",
"7. c #ABA5A1",
"8. c #4B8D97",
"9. c #5F7274",
"0. c #C5C2BE",
"q. c #EAE6E3",
"w. c #C0B8B0",
"e. c #F9F4EF",
"r. c #8C857F",
"t. c #78746E",
"y. c #949A9A",
"u. c #F3F1ED",
"i. c #C3BDB8",
"p. c #F8F2EC",
"a. c #7D7770",
"s. c #CDC9C5",
"d. c #B9B4AF",
"f. c #8E8983",
"g. c #928D87",
"h. c #E6E3E0",
"j. c #A29991",
"k. c #9A938E",
"l. c #E2DED9",
"z. c #90877E",
"x. c #BDB9B5",
"c. c #45433D",
"v. c #443E38",
"b. c #B2ABA5",
"n. c #34241B",
"m. c #827972",
"M. c #65605A",
"N. c #7E7A75",
"B. c #9C9792",
"V. c #585651",
"C. c #5E554E",
"Z. c #837E78",
"A. c #59524B",
"S. c #9D938E",
"D. c #8F8379",
"F. c #978A82",
"G. c #DAD1CA",
"H. c #B4B0AC",
"J. c #6B5F57",
"K. c #6E5937",
"L. c #7B684F",
"P. c #EEE6DE",
"I. c #D1CECA",
"U. c #876A37",
"Y. c #C2A94E",
"T. c #71562B",
"R. c #634F3E",
"E. c #CEAF44",
"W. c #A09B95",
"Q. c #B08E36",
"!. c #796339",
"~. c #A78534",
"^. c #B1943F",
"/. c #80693F",
"(. c #8E7438",
"). c #775E40",
"_. c #C1A243",
"`. c #7F6C59",
"'. c #AEA7A2",
"]. c #866F4A",
"[. c #CEB053",
"{. c #9E8339",
"}. c #735F55",
"|. c #665348",
" X c #B89B44",
".X c #E8C445",
"XX c #796C68",
"oX c #675950",
"OX c #5C412F",
"+X c #523826",
"@X c #674926",
"#X c #9F928D",
"$X c #9C8E85",
"%X c black",
/* pixels */
"  .   X X     X   X   X . . . . X o X   X X   X . . X   X . X X .     . . X   X   X X     . . X   X ",
"O O O . . X . o X .   . . + + O   + X . X   X X X X X X X X X X X X X X X X X . X X X   . X X X     ",
"@ O X O @ X X X X X + @ X + O X @ X O O X X X X o # $ % & *   X X . X X X X X X X X X   X X X X X X ",
"O O . O +   @ + O X X X O   + @ O + = O     - ; : > > , < 1 2 # = X X   X X X   X X X X X O X X X X ",
"O O + O +   @ O X X X X X . O @ + X @ X   # 3 4 5 6 7 8 9 0 q w - o X X X @ X O X X .   . X X X X @ ",
". O O O @ O O . X X . o + O O X + @ O @ O e 4 r t y u e i p a a s # X @ X X X X X X X X X X X X X @ ",
"O . O X X O O   X X + O O + O X @ O + O = d u f g h y j k l z x a c + + X X X X X X X X X X @ X X X ",
"@ + . X X O + O @ X O X @ O O X X X O O * v b n m M N B l V k C Z A = O X X X X   X X X . X X X X X ",
"O + + X O X O @ X X + . + O O X X X @ O * v S c D F F F G H J K L P = X X X O + + X X X X @ X O . X ",
"O + + O X X O . @ X O O @ O O . X X X I & C U 9 Y T 7 R 1 1 E W Q > = O X X @ + + X @ X X X X @ X X ",
"@ O O X X O X O X X X X O O O X X O - U ! ~ A A ^ / ( F ) c _ ` ' ] & = O + . O X X X X X X X X X O ",
"X X X X X X   X X O X @ . + O + O [ p ^ { } } } |  .R F ..R X.l o.O.+.@.o O @ X @ X O     X X X X X ",
"O X O X X O O O X X X X O @ O @ #.s $.%.&.&.&.&.| *.7 F F R =.K o.o.V e I O X X X X X X X X X X X X ",
"O O O @ X X X O O + O @ O + + I u -.%.&.&.&.} ;.:.z s D ..F 2 >.o.,.<.1.= X X X X X X X X X X X X X ",
"X O X X X   X X   O O   + + + = 2 2.3.-.4.4.3.5.6.c G F 8 8 7.K 8.V 9.0.. X X X X X X X X X X X X X ",
"X O O X @ O O O O + X X X X @ . . # q.0.w.H $ 0 U F 8 e.e.e.r.t.y.0.u.+ O O X X . X X X X X X X X @ ",
". X O O X @ X . @ X X X O X O X X O X   X O = 7.i F ..e.e.R u @.X X . X O X X X X X X O @ X X X   X ",
". @ O X X @ . O @ @ X X O X X O @ X X X X . + i.r...p.e.e.( a.# X X X X X X . + O X X O X X X X @ X ",
"O X X X X X X X X X X X X X X X X X X X X @ I s.t.F F e.e.( a.# X X . X . X O O O @ X O . @ X X   X ",
"X X X @ X X X X X X . O X . O X X X @ X @ @ I d.f...R 8 e.& u [ X X O   . X O O O X X   O O     X . ",
"X X X X X X X X X X + O = O O X X X X X X @ * g.H F F R R R 4 =.O O X X .   X X X @ X + + O X @ O X ",
"@ X X X X X X X X X + = @ + + X X X X X @ O h., ( F R 9 9 R j.k..   o o X X X X + X X . + O X @ X X ",
"X X X X X X X X X X + O X X   X o * +   o [ f.w.F F F F R F =.> #     . . X X X X @ X O X . + X X X ",
"X X X X X X X X X X O O X X X = l.l.* + = k.k.9 R F R F F F 9 z.s.* X X X X X O X @ X X O . + O   @ ",
"+ X X X X X X   X O + X O X O x.c.v.b.2 g.r.7 8 F F F F F F F _ < @.o o . + O X X @ @ @ X @ X @ X X ",
"  X X X X X X O = O O X X X @ g.n.c.m.M.N.7 ..........F F 8 p.R ) B.- * + O O X X X   X   X O X X X ",
"@ X X X X X X . O + + X X X h.V.C.( 6 Z.7 F ..F 8 e.8 ....e.p...G < $ I + + @ X X @ X X . X X X X X ",
"X X X X X X X X X X + X X O $ M.A.G 1 =...F ..8 p.p.F ..F 8 p.F R c S.* + O O X X @ X X X X X X O @ ",
"O X X X X X X X X X + X @ O q.v i x.g.9 ......8 p.F F ....p.p.F ..7 1 q.O +   X X     X @ X X X O + ",
"X X X   X X X X X X O O O X x.M.: 0 X.......F p.8 F ......F R F p...r.d.o O X X X O X O O X X X X X ",
"@ X X   X X X X X X + O . O 0.v.d.X.p.8 8 p.8 e.e.....F F F F F F 8 T S.. X X X X X X . X X   X X X ",
"@ X X X X X X X X X O + X + $ V.( ..e.e.e.e.e.e.8 F F F F F F F p.F E z.I   X O X X X O . X X X @ . ",
"X X X X X X X X X X X X + @ [ N.G F p.e.e.p.F F R ..R F R F F R F F X.D.* =   X X @ X O O O X X X X ",
"@ X X X X X X X X X X X O + = i., 7 8 e.e.e.F ..p.....F F F F R ..p.l.F.* O O O X X X O O O X @ X X ",
"X X X   X X X X X X X X + O + * , G.8 e.e.e.e.e.e...F F F ..R F ....c g.X X X X X + O O O X X . @ X ",
"@ X X X X X X X X X X X O + + + H.k.R e.e.e.e.e.e...F R F F 8 F F R m.x.. X X X X O + O + X X X X X ",
"@   X X X X X X X O X X @ O O O @.M.X...8 e.e.e.e...R F F F ..F ..=.a.@.. X X X O + O   X X O X X X ",
"X X X   X X X X + O X X X X @ X + x.1 G ..e.e.e.e...F R F F ....U J.& o X X X X   + @ X X O X X X X ",
"X X X O X @ X X X O X   X X O O + * b.> i X.R 8 e.e.F F F F R T C.G.o   . X X @ X O O X X @ @ X X X ",
"@ X X X X O + O X X X X X O O X X @ * $ 1 K.L.) 7 F F F F P.z., q.o = X . . X X @ X X X X X X X X X ",
"X X X X X X X X X X O X X @ O X X O X . I.U.Y.t N 6 E E j.5.T.i . + O X X X X X X X X X @ X X X X X ",
"X @ X + X @ X X X X X X X X O X @ X X . e.R.E.L._ W.f.g.> Y.4.i O = X X X   . @ X X @ X @ @ X O X X ",
"X X X X X X X X   X X X X X X X X   X . * z.Q.!.7 - * - 2 4.~.i o = . X X X X O X X X   X   X X X X ",
"X X X @ X X   O O O X X X X X X X O X X o U -.U.Y - * * & T.^.) . O X X + O O X X X X X . X X X @ X ",
"X X X X X O X X O . X X X X X . O @ X . . u./.(.H - * = # 5.Q.D.o X X X = + @ X X   X X X X X X X X ",
"  X X . o X X X   O X X X . . .   + = = # H !.-.T * * * & )._.`.O o X   + + .       X   X X X X X X ",
"  X X @ X X X X O @ * # $ 0.T '.7.7.'.S.J.].[.{.}.'.e m.|. X.XK.i 7.'.7.'.'.'.'.'.'.'.H h.X X X X X ",
"@ X X X X X X X O + * $ N., XXXXXXXXXXoXb / OXP }.XX< b +Xz @Xr 4 1 4 4 4 4 XXXXXX4 XXXXN.l.@ X X X ",
"X O X X @ @ X X O   . # % H.'.'.e B.S.S.: : #X#X#XS.S.#X$XF.$X: S.S.#X#XS.S.#X#X#XS.j.e 0.[ X X X X ",
"X O . @ X X X X X X X X I I o I I * = I * * * - - * * * * * I = . = * * I = o o o O + = = o X X X X "
};
