/* XPM */
static char *result[] = {
/* columns rows colors chars-per-pixel */
"50 50 190 2 ",
"   c #FCFCFA",
".  c #FCFBFA",
"X  c #FCFCFB",
"o  c #FCFBF9",
"O  c #FBFBFA",
"+  c #FBFBF9",
"@  c #FBFCFA",
"#  c #FAFAF8",
"$  c #F8F7F4",
"%  c #E3E0DC",
"&  c #CDC9C5",
"*  c #C5C2BE",
"=  c #D8D5D2",
"-  c #F2EFEB",
";  c #FBF9F7",
":  c #CBC5BF",
">  c #736B65",
",  c #8E8983",
"<  c #A7A09B",
"1  c #97908A",
"2  c #59524B",
"3  c #ECE9E6",
"4  c #A09B95",
"5  c #6D635C",
"6  c #978A82",
"7  c #E8E0D8",
"8  c #FAF3EB",
"9  c #F9F3EC",
"0  c #9C8A7E",
"q  c #723220",
"w  c #7A513A",
"e  c #D1CECA",
"r  c #FCFAF8",
"t  c #C3BDB8",
"y  c #7E746C",
"u  c #4C3A31",
"i  c #442E23",
"p  c #533E2C",
"a  c #5E554E",
"s  c #7E7A75",
"d  c #858784",
"f  c #796C68",
"g  c #9B3F25",
"h  c #BB4825",
"j  c #E0D9D2",
"k  c #53443C",
"l  c #5D2C1B",
"z  c #883D2B",
"x  c #40362D",
"c  c #47777C",
"v  c #4B858A",
"b  c #417075",
"n  c #5C4438",
"m  c #AA4527",
"M  c #897261",
"N  c #453A33",
"B  c #6F3F2E",
"V  c #8D6856",
"C  c #928D87",
"Z  c #615B54",
"A  c #3C5A5C",
"S  c #4B8D97",
"D  c #537472",
"F  c #523826",
"G  c #7D7770",
"H  c #EBE3DC",
"J  c #F8F1E9",
"K  c #FAF2EA",
"L  c #DDD5CE",
"P  c #BDB3AB",
"I  c #686F6C",
"U  c #3E5050",
"Y  c #F5F3F1",
"T  c #E6E3E0",
"R  c #D6CEC6",
"E  c #F5EEE7",
"W  c #D2C9C1",
"Q  c #F8F2EC",
"!  c #9C9792",
"~  c #485C59",
"^  c #45433D",
"/  c #EEECE9",
"(  c #CDC2BA",
")  c #6E5937",
"_  c #8C6F31",
"`  c #80693F",
"'  c #8A7553",
"]  c #796339",
"[  c #C0B8B0",
"{  c #DAD1CA",
"}  c #B7AFA8",
"|  c #54BED3",
" . c #438793",
".. c #505E5D",
"X. c #BDB9B5",
"o. c #F3F1ED",
"O. c #948172",
"+. c #88652D",
"@. c #DDBA42",
"#. c #F6CF37",
"$. c #EAC53C",
"%. c #857155",
"&. c #F9F0E7",
"*. c #4EC2DA",
"=. c #4FA5B6",
"-. c #356068",
";. c #6F7876",
":. c #9A938E",
">. c #D7B139",
",. c #F4CD3C",
"<. c #DFB93A",
"1. c #F1E9E1",
"2. c #44696C",
"3. c #A68A40",
"4. c #B08E36",
"5. c #6F5840",
"6. c #51B8CC",
"7. c #787F7D",
"8. c #9C8E85",
"9. c #7B684F",
"0. c #8B723F",
"q. c #967C45",
"w. c #876A37",
"e. c #674926",
"r. c #A59589",
"t. c #E4DBD3",
"y. c #364948",
"u. c #4E6464",
"i. c #F9F4EF",
"p. c #888179",
"a. c #B9B4AF",
"s. c #9D938E",
"d. c #877C73",
"f. c #FBF8F4",
"g. c #DDDBD7",
"h. c #D5D2CE",
"j. c #6F6760",
"k. c #C6C0BA",
"l. c #A69D95",
"z. c #B4B0AC",
"x. c #C7BCB3",
"c. c #EEE6DE",
"v. c #76706A",
"b. c #F4ECE4",
"n. c #AEA7A2",
"m. c #827972",
"M. c #78746E",
"N. c #EAE6E3",
"B. c #6A6762",
"V. c #65605A",
"C. c #383028",
"Z. c #90877E",
"A. c #A49E99",
"S. c #837E78",
"D. c #8C857F",
"F. c #ADA49D",
"G. c #B2ABA5",
"H. c #534E49",
"J. c #86827D",
"K. c #A29991",
"L. c #E2DED9",
"P. c #695234",
"I. c #7F632D",
"U. c #34241B",
"Y. c #62492F",
"T. c #CEAF44",
"R. c #7C6049",
"E. c #B3A8A0",
"W. c #6B5F57",
"Q. c #544B44",
"!. c #4F4036",
"~. c #997B33",
"^. c #7F6C59",
"/. c #C1A243",
"(. c #806334",
"). c #9F7B31",
"_. c #71562B",
"`. c #B1943F",
"'. c #9E8339",
"]. c #817367",
"[. c #6F5B4A",
"{. c #ABA5A1",
"}. c #5B4A3F",
"|. c #E8C445",
" X c #786A65",
".X c #675950",
"XX c #5C412F",
"oX c #9F928D",
"OX c #96867B",
"+X c black",
/* pixels */
"  .   X X     X   X   X . . . . X o X   X X   X . . X   X . X X .     . . X   X   X X     . . X   X ",
". . O . . X . o X .   . X + O . . + X   X   X X X X X X X X X X X X X X X X X . X X X   . X X X     ",
"O @ O X O . @ X X X . @ X + O O O X . X X X X X X . X X   X X X X . X X X X X X X X X   X X X X X X ",
"O   X @ X X X + O X O @ O X + O O O # +   X X o $ % & * = - ; X X X X   X X X   X X X X X @ X X X X ",
"O + O . X X O O X X X @ O O + O @ @ X X X X ; : > , < < 1 2 1 3 o ; X X X X X O X X .   O X X X X @ ",
"X X X X X . O X X X . . X O X . + O + @ X ; 4 5 > 6 7 8 9 0 q w e o X . X @ X X X X X X X X X X X @ ",
"O O . . X + O   X X + + O X X   X O O . r t y u i p a s d f g h w j o . X X X X X X X X X X X X X X ",
"O O . X X O + O @ X X O @ X @ X X X X o o s k l z z x c v b n m m M . X X X X X @ X X X O X X X X X ",
"O O O X X O O X X X O O O X O X X X @ o r 2 N B V 0 C d Z A S D F F $ X X X X X X X X X X X X O X X ",
"O O + X X O O O @ X O + O + @ X @ X X + ; G y H J K 8 J L P I U D x Y + X @ X X X X @ X X X X X X X ",
"X X O @ X . O X X X X X . . O O O X X ; T a R J E R W Q 5 y ! ~ A ^ / + # X X X X X X X X X X X . O ",
"X X X X X O X X X O X @ O O O # O r $ ( ) _ ` ' ] i [ 9 { H } b |  ...X.o.X . X X X X     X O   X X ",
"+ X O X X X X O X X X @ O @   # # T O.+.@.#.$.$.@.%.&.9 8 K P b *.*.=.-.;.# O X X X . X X X X O X X ",
"X + O O O O O X O @ + O . + O ; :.` >.,.#.#.#.#.<.' 1.K 8 K P 2.*.*.*. .d X X O O X X X O X X X X X ",
"O O X X X X X   X . @ O O O O $ a 3.@.,.,.,.$.<.4.5.j K 8 K P 2.*.6.b 7./ X X @ @ X X X X X X O X @ ",
"X X O X X . O + + + X @ @ O X O % 8.9.0.q.q.w.e.r.t.K K 8 Q 4 y.-.u.4 / . X X X . X X X X X X X X @ ",
"X O . O X O   O X X X X X @ X O + # # $ $ $ $ 1 W J K 8 9 i.p.e 3 $ o X X X X X @ X X O X X X . X X ",
"X @ @ X X O   O X O X O X X O X @ X O . o r o a.s.K K 9 8 E G o.+ X . o X @ X X X X O O X X X O X X ",
"O X X X X X X X X X X X X X . X X X X O + # ; * G K 8 8 K t.d.f.o O .   X X X X X X X X O @ X X O X ",
"X X X O X X X X X X X X X O   X X X X O + O . g.5 &.8 8 8 { 1 f.o O . .   X X O X X   O O .   @ X X ",
"X X X X X @ X X X X X X @ O O X X X X X X X ; h.j.K K 8 8 k.l.$ o o   X X   @ X X   @ X X X O X X X ",
"O X X X X X X X X X X Y z.T X X X X X X X   ; X., 8 8 8 K R 6 $ r .   X X X X X + X @ X X X X   X   ",
"X X X X X X X X X X + C :.s 3 o o X X X . . $ , x.8 K 8 8 c.G / . . X X X   X X X @ X . . O + X @ . ",
"@ X X X X X X X X X $ v.b.:.n.; o X X X + ; < m.E K K 8 8 J , X.r X X . X X X X @ @ X . X X O O X X ",
"X X X X X X X X @ + Y 5 c.H M.= $ r ; $ = M.M.N.8 8 8 8 8 J ( m.$ X X X X @ X o X X . X @ @ X O   X ",
"@ X X X X X X X O & B.^ ( l.V.v.Z G j.V.C.C N.9 i.9 9 8 J i.E Z.e X X X       X X X X X X . + @ X @ ",
"X X X X X X X X O e s z.:.v.R J 1.1.c.1 A.J J 9 8 i.8 K 8 i.9 L > 3 . X X @ X X X O X X . X X X X X ",
"@ X X X X X X @ @ # S.h.1.D.F.K K 8 G.D.b.9 8 9 9 9 9 9 i.9 9 9 } m.; . X X X X X     O X X X X O O ",
"X X X X X X X O X @ e Z 7 a l.K 8 x.p.c.9 8 i.9 9 9 i.9 i.9 9 9 E G h.. . X X   X @ @ X X X X @ + + ",
"O X X X X X X @ X X < G j > c.K c.v.c.K 9 9 9 i.i.Q 9 8 K K 9 9 8 t.S.Y X X X X @ X X X X X X O @ X ",
"X X X X X X X X X X * B.C N R K t.( K K Q 8 9 9 9 Q 9 K K K K 9 8 K G = . X X X X X X   O X     X X ",
"@ X X X X X X X X X # e 4 5 7 K 8 K K K K 9 9 i.i.Q 9 K K K K K K 8 C t . X X O X   X X X X X X @ X ",
"X X X X X X X X X X X X / H.F.1.8 K K K 8 i.9 i.9 i.9 K J K K K 8 8 < < X X X O X   X X X . X X X @ ",
"@ X X X X X X X X X X X . N.J.< K K K K 8 8 9 9 9 Q 9 K K K K K 8 8 K.a.X X X X X X @ X   X X @ X X ",
"X X X   X X X X X X X X . + % p.K 8 8 8 9 8 9 i.i.i.9 K K J K K K 8 d.: X . + O O O O + . X X O X X ",
"@ X X X X X X X X X X   X O $ A.L i.i.i.i.i.i.i.9 9 9 8 K K K K J 8 > g.X X O X . . + @ X X X X X X ",
"@   X X X X X X X X X X X O + 3 s N.i.i.i.Q 9 i.9 9 9 9 K K K K K b.> / X   O O O X X X X X X X X X ",
"X X X @ O X X . X O X X X X X + G.v.H J Q Q 9 i.9 i.i.9 K 8 8 8 i.x.< ; X X X @ X X X X X X X X X X ",
"X X X @ X X   X X # X X X   . O ; z.H., L E J i.9 i.9 i.K 8 8 8 L.5 / # + X @ X @ X X X X O X X O X ",
"X X X @ X + + O X X X   X O O X X O g.1 x x a P 1.8 Q Q Q t.F.S.v.= # # +   X X @ X X X O X X O X X ",
"X @ X X X @ X X X X . X X + O X X X X # ! P.I.U.x l.W { 4 i F Z.Y r # O # X X @ X X X @ X X @ X X X ",
"X @ X       X X X X X X X X O X X X # # 3 Y.T.R.E.W.Q.!.x 3.~.F.o X + + + + O X X X X X X X X X @ X ",
"O X X X X O X X X X X X X X X X X O X + f.^./.(.E f.f.f.{ +.).F.. + O O # O   X X X X X X @ @ X X X ",
"X X X X X X X O O O X X X X   . @ X X X + E.3._ j ; ; ; i._.`.1 + # O O X O X X @ X X   X X X X X X ",
"X X X X X O X X O . X   X .   X @ O O @ @ L.w.'.G.; ; ; f.5./.].O O X X X X @ O . X X @ X X X .   @ ",
".   @ X X X X X   + X X   . + + . . + # / P I./.d.f.; # Q [./.9.; + + + # + + O + . .   X X X @ X X ",
"  O X @ X   X X O O # $ L.k.} F.{.{.{.d.}.q.T.~.}.F.< Z.[.~.|._ 1 {.{.{.F.F.F.F.F.F.F.t T @ X X @ X ",
"X X X X X X X X @ X ; % s v. X>  X Xf .Xu p p n W.f  Xk XX_._.F .X X X X X X X Xf f  Xf G % @ X X X ",
"X X X X X X X X X X o $ h.z.n.n.< s.s.s.:.oXs.s.oXs.s.s.8.OXOX8.oXoXoXoXoXoXoXs.s.! s.A.k.Y X X X X ",
"X + O @ . X X X X X X X . r r r ; ; ; ; ; # . + # ; o # o r r r r r ; ; # + ; # # + + # # r X X X @ "
};
