/* XPM */
static char *result[] = {
/* columns rows colors chars-per-pixel */
"50 50 179 2 ",
"   c #FCFCFB",
".  c #FCFCFA",
"X  c #FCFBFA",
"o  c #FCFBF9",
"O  c #FBFBF9",
"+  c #FBFBFA",
"@  c #FBFCFA",
"#  c #FCFAF8",
"$  c #F8F7F4",
"%  c #EAE6E3",
"&  c #B4B0AC",
"*  c #8E8983",
"=  c #837E78",
"-  c #928D87",
";  c #BDB9B5",
":  c #F2EFEB",
">  c #FBF9F7",
",  c #A09B95",
"<  c #76706A",
"1  c #8C857F",
"2  c #C0B8B0",
"3  c #CDC9C5",
"4  c #B9B4AF",
"5  c #53443C",
"6  c #735F55",
"7  c #CDC2BA",
"8  c #ECE9E6",
"9  c #78746E",
"0  c #534E49",
"q  c #4D4741",
"w  c #443E38",
"e  c #B7AFA8",
"r  c #F5EEE7",
"t  c #F9F0E7",
"y  c #9C8A7E",
"u  c #8F3B23",
"i  c #7B3B2A",
"p  c #C7BCB3",
"a  c #FAFAF8",
"s  c #86827D",
"d  c #615B54",
"f  c #271D17",
"g  c #3D1C10",
"h  c #492215",
"j  c #383028",
"k  c #505E5D",
"l  c #585651",
"z  c #853822",
"x  c #D25128",
"c  c #723220",
"v  c #D2C9C1",
"b  c #65605A",
"n  c #442E23",
"m  c #40362D",
"M  c #3E5050",
"N  c #3C5A5C",
"B  c #417075",
"V  c #4E6464",
"C  c #AA4527",
"Z  c #6F5B4A",
"A  c #59524B",
"S  c #34241B",
"D  c #614739",
"F  c #EEE6DE",
"G  c #F4ECE4",
"H  c #E8E0D8",
"J  c #D6CEC6",
"K  c #9C9792",
"L  c #45433D",
"P  c #F5F3F1",
"I  c #453A33",
"U  c #DAD1CA",
"Y  c #FAF2EA",
"T  c #F8F1E9",
"R  c #7D7770",
"E  c #2B2D28",
"W  c #FBF8F4",
"Q  c #A29991",
"!  c #FAF2E8",
"~  c #2A3837",
"^  c #736B65",
"/  c #DDD5CE",
"(  c #FAF3EB",
")  c #AEA7A2",
"_  c #376B74",
"`  c #54BED3",
"'  c #397883",
"]  c #7F8A8A",
"[  c #F9F4EF",
"{  c #A28A76",
"}  c #948172",
"|  c #B3A8A0",
" . c #90877E",
".. c #7E746C",
"X. c #888179",
"o. c #4D929F",
"O. c #4EC2DA",
"+. c #4FA5B6",
"@. c #9C8E85",
"#. c #7F632D",
"$. c #CEA838",
"%. c #BF9B37",
"&. c #C3BDB8",
"*. c #9D938E",
"=. c #4A7174",
"-. c #858784",
";. c #D8D5D2",
":. c #806334",
">. c #CEAF44",
",. c #F4CD3C",
"<. c #F6CF37",
"1. c #695234",
"2. c #827972",
"3. c #B2ABA5",
"4. c #E0D9D2",
"5. c #F8F2EC",
"6. c #796339",
"7. c #C4A139",
"8. c #EAC53C",
"9. c #DDBA42",
"0. c #6F6760",
"q. c #6E5937",
"w. c #8C6F31",
"e. c #88652D",
"r. c #937A3C",
"t. c #8B7A6B",
"y. c #6D635C",
"u. c #DDDBD7",
"i. c #D1CECA",
"p. c #D5D2CE",
"a. c #A7A09B",
"s. c #E4DBD3",
"d. c #FBF2E9",
"f. c #CBC5BF",
"g. c #EEECE9",
"h. c #F9F3EC",
"j. c #ABA5A1",
"k. c #F3F1ED",
"l. c #C5C2BE",
"z. c #7E7A75",
"x. c #97908A",
"c. c #686F6C",
"v. c #E2DED9",
"b. c #E3E0DC",
"n. c #EBE3DC",
"m. c #E6E3E0",
"M. c #9A938E",
"N. c #C6C0BA",
"B. c #6A6762",
"V. c #8F8379",
"C. c #5E554E",
"Z. c #ADA49D",
"A. c #F1E9E1",
"S. c #BDB3AB",
"D. c #6B5F57",
"F. c #796C68",
"G. c #4C3A31",
"H. c #675950",
"J. c #71562B",
"K. c #7C6049",
"L. c #5B4A3F",
"P. c #A68A40",
"I. c #96867B",
"U. c #80693F",
"Y. c #B89B44",
"T. c #978A82",
"R. c #A78534",
"E. c #7F6C59",
"W. c #A49E99",
"Q. c #665348",
"!. c #B08E36",
"~. c #7B684F",
"^. c #786A65",
"/. c #533E2C",
"(. c #5C412F",
"). c #4F4036",
"_. c #62492F",
"`. c #9F928D",
"'. c black",
/* pixels */
"  . X . . o . X . X . X X o o o . . X . .   .   o . . X . X .   . X X X X . . X X o X . X X . X X X ",
". . X X .   X X . X . . . O O X . X + . . .   o     X     . X   X .     .   .   . .   .   X   . . . ",
"+ + + + X   O     . X + X X O X +   O +   .   X . .     .       . .       .   . .     X   .   .     ",
"O + . @   @   + .   . + X O O + + O O .     o O @       .   . . # X   . X                 +         ",
"X O + + @ @ + + @   o   + + + O @ @ X       O O .     .   . + + o o           +         @           ",
"@ X   .   . X   .   X @ X X   X O + o X     O $ % & * = - ; : > O o X O   @             X         + ",
"O X + X   + O + .   O O +         X O     . % , < 1 2 3 4 5 6 7 > o O O .     X             .     . ",
". O X . . X O O .   + @ . X +     +   X X 8 9 0 q w e r t y u i p a a O +   .   .         .         ",
"O O O     + O .     O X O + +     @ + o > s d f g h j k k l z x c v +   .       @   + @       +     ",
"+ O O + + X + X @   o O + O o X @     o o b n c c c m M N B V c C Z >                       . .     ",
"@   .     + . X       . o + X O + + O O # A S D 7 F G H J K M M L n P . + O +         .           + ",
"    . +   . .     X     + O O O O O a a # A I U Y T Y T Y t R f E q W O a + .   .   o     .   X     ",
"  + +       @ +     O   O + + a O a a a W R Q r T T T Y Y ! 4 f ~ N 4 $ a O a       . @ @     X     ",
". + O + @ + + X + + X + + O O a a O a a # ^ / t ! Y ( ( ) Q F A _ ` ' ] : @   X o X           +   @ ",
"+ + +     X   X @ O . O O O O O O a O > [ A { { } | ( Y  ...r X.o.O.+.N K . . O + .           .     ",
". X +   . X X + O O +   + X   a O a > H @.#.$.%.%.Z F ! &.*.t * =.' V -.;.. .   X   .         .   @ ",
"  + X X . + + +   @   .   X . O a % } :.>.,.,.<.,.%.1.e T Y r 2.3.4.5.# X .         + @ @     +     ",
"@ X O     @ . O + +   X O . + > , 6.7.8.,.,.,.,.,.9.1.v T Y G 0.8 a a o . . .       + O X .   .   @ ",
"                            + a ^ q.w.e.e.r.e.e.:.t.J ! T Y H y.[ O O X . .   X + +   X X +   X @   ",
".   @ + .           . +   + . o : u.3 i.p.H a...U G ! Y Y T e X.> X + X .     X @   X X + . @ @   + ",
"                  . O O +   .   . . a # a > 5.R s.t d.d.d.T X.f.#   O . X       .     O O . X . . . ",
"+           .       a a > g.+         + a O > 3.Q Y Y d.( t ..8 # o     .     @ O .   + O O       . ",
"      .                 i.d &.O O     O O a O p.^ t Y T h.t ..8 o # X . X     . . .   + X . a .   + ",
"  .                     a.j.9 p.# +     .   > ;.0.! Y T Y t ..8 X O o .   .   +   @   . + . + O @ + ",
". @             . k.l.g.z.U &.< $ # X . . X > ) x.Y Y Y Y T R 8 o X @ .       X   . @ . O @ @ O . . ",
".               . i.c.0.q U J 0 v.W # O O + b.^ n.Y Y Y d.T X.3 # o     . . .       . + .   + . + @ ",
"@           X   + u.* m.M.2 R 1 y.j.: # > p.9 N.T d.Y Y d.T e 1 >   .   .     X . @             .   ",
".     .       + a 8 < G T U X.G s.K < x.9 < l.T ( Y Y Y Y Y H < p.X . . . +   .   .   . o   X . + + ",
"              + $ B.q * r p V.d.T N.C.< &.r T h.h.( d.Y Y [ h.U b i.  .     .   . . @     .   @ O O ",
".               + K , i.T f. .t Y G r Y Y Y d.h.h.( Y Y d.( Y T 4.^ M.g.O .     @   @ .       +   . ",
"                  P s M.2 f.2.n.Y Y Y Y T d.d.( ( d.( d.d.Y Y Y Y G Z.= 8   .   + .   @ + . X     . ",
"                  o : 3.* b *.Q ! Y ! T T d.d.Y d.d.d.d.( Y Y Y Y Y t K , a       @       .   +   + ",
"+                   . f.b 0 v r ! Y ! ! Y Y Y d.Y d.Y ( d.Y Y Y Y T Y n.^ W X X X . @ .   o . X .   ",
".                   . v.B.u.G Y d.d.T ! Y d.d.( d.Y ( d.( Y Y Y Y Y Y G < P     X   @   +         . ",
".     @               a - , n.Y Y d.d.d.d.Y d.( d.( ( ( d.Y Y Y Y Y Y G ^ P O + + + X + X           ",
"  .       .           . P M.1 T ! Y d.d.d.Y d.d.( ( ( d.( Y Y Y Y Y T A.^ $ + . X O O + . +   @ . X ",
"  +           +   .     O m.x.t Y Y d.Y d.Y d.d.( ( ( ( ( Y Y Y Y Y Y v < > O + + . X     +   . . . ",
"        .     X + O @   + 8 z.A.( ( ( d.Y T Y d.( ( ( Y d.d.( ( ( Y T X.2 a   . .       .           ",
". .   +   + .   o O   . + > s S.h.( ( d.T Y Y d.d.( ( ( Y d.Y Y Y Y e 2.P >   .         +           ",
"      X + X O +   @     X X ;.^ s.( h.Y d.Y d.d.d.d.d.d.Y Y h.Y ( F D.4.> X .                 . . . ",
"  +           .   .       + O ;.b ) s.G t t d.d.d.d.d.d.d.( Y Y H ..l.> >         .   .     .       ",
". +       +     .           + . g.a.b y.y.0.n.( d.( ( ( h.Y F Q d l.# a o O @ @   +         .     . ",
"@     @   X X     .       . . a a X > [ A.M.x.t ( ( ( ( ( A...F.k.# O a O .   X       . . +         ",
".     +       . + +   +     @ + + X . > > 3 G.V.J / / / 2 H.J. .# # + O X     .               + .   ",
".         +     O X .     X .   @ + + O . P K.r.L...R z.* Z P.I.o a + O X . + O + +   . X   .     . ",
"+ X . . O       + . .   X o o o X O O O a m.U.Y.T.W a . W y R.E.+ o O O O O O O O X . .             ",
"  .   @   . .   O X > $ b.N.e Z.j.j.j.W.X.Q.Y.!.6 Z.W.X.~.e.>.q.j.j.j.j.Z.Z.Z.Z.Z.Z.Z.N.m..         ",
"X   X   @   . + + + W b.R < ^.^ ^.F.F.C.G.G./.(.6 F.^.)._.J.J.D ^.^.^.F.F.F.F.^.^.F.^.F.R b..     . ",
"+ +     X       X   O $ p.& ) ) a.*.*.*.M.*.`.`.`.*.*.`.y I.T.`.`.`.`.`.`.*.*.*.*.K *.W.N.P @   @   ",
"  + + +                 . # # # > # W > > a O o a a O a O # # a a > # > a > a a a O O a > o   . . . "
};
