/* XPM */
static char *result[] = {
/* columns rows colors chars-per-pixel */
"50 50 180 2 ",
"   c #FCFCFA",
".  c #FCFBF9",
"X  c #FCFCFB",
"o  c #FCFAF8",
"O  c #FBFBFA",
"+  c #FBFBF9",
"@  c #FBF9F7",
"#  c #EAE6E3",
"$  c #B4B0AC",
"%  c #8E8983",
"&  c #837E78",
"*  c #928D87",
"=  c #BDB9B5",
"-  c #F3F1ED",
";  c #FCFBFA",
":  c #9C9792",
">  c #76706A",
",  c #86827D",
"<  c #B9B4AF",
"1  c #CBC5BF",
"2  c #BDB3AB",
"3  c #53443C",
"4  c #735F55",
"5  c #ECE9E6",
"6  c #78746E",
"7  c #544B44",
"8  c #4F4036",
"9  c #443E38",
"0  c #B7AFA8",
"q  c #F5EEE7",
"w  c #F8F1E9",
"e  c #9C8A7E",
"r  c #8F3B23",
"t  c #7B3B2A",
"y  c #C0B8B0",
"u  c #675950",
"i  c #271D17",
"p  c #3D1C10",
"a  c #492215",
"s  c #383028",
"d  c #505E5D",
"f  c #585651",
"g  c #853822",
"h  c #D25128",
"j  c #723220",
"k  c #D2C9C1",
"l  c #65605A",
"z  c #442E23",
"x  c #40362D",
"c  c #3E5050",
"v  c #3C5A5C",
"b  c #417075",
"n  c #4E6464",
"m  c #AA4527",
"M  c #6F5B4A",
"N  c #59524B",
"B  c #34241B",
"V  c #614739",
"C  c #CDC2BA",
"Z  c #EEE6DE",
"A  c #F4ECE4",
"S  c #EBE3DC",
"D  c #A09B95",
"F  c #45433D",
"G  c #F5F3F1",
"H  c #453A33",
"J  c #DAD1CA",
"K  c #FAF2EA",
"L  c #FAF2E8",
"P  c #7E746C",
"I  c #2B2D28",
"U  c #4D4741",
"Y  c #FBF8F4",
"T  c #7D7770",
"R  c #A29991",
"E  c #F9F0E7",
"W  c #FBF2E9",
"Q  c #2A3837",
"!  c #F9F4EF",
"~  c #6F6760",
"^  c #DDD5CE",
"/  c #ADA49D",
"(  c #376B74",
")  c #54BED3",
"_  c #397883",
"`  c #7F8A8A",
"'  c #A28A76",
"]  c #B3A8A0",
"[  c #8C857F",
"{  c #888179",
"}  c #4D929F",
"|  c #4EC2DA",
" . c #4FA5B6",
".. c #E8E0D8",
"X. c #9C8E85",
"o. c #7F632D",
"O. c #CEA838",
"+. c #BF9B37",
"@. c #C7BCB3",
"#. c #978A82",
"$. c #90877E",
"%. c #47777C",
"&. c #858784",
"*. c #D8D5D2",
"=. c #948172",
"-. c #806334",
";. c #CEAF44",
":. c #F4CD3C",
">. c #F6CF37",
",. c #695234",
"<. c #ABA5A1",
"1. c #6E5937",
"2. c #EAC53C",
"3. c #DDBA42",
"4. c #F1E9E1",
"5. c #736B65",
"6. c #8C6F31",
"7. c #967C45",
"8. c #88652D",
"9. c #897261",
"0. c #D6CEC6",
"q. c #6B5F57",
"w. c #F8F2EC",
"e. c #F2EFEB",
"r. c #E0D9D2",
"t. c #D1CECA",
"y. c #A7A09B",
"u. c #E4DBD3",
"i. c #EEECE9",
"p. c #B2ABA5",
"a. c #C5C2BE",
"s. c #FAFAF8",
"d. c #D5D2CE",
"f. c #A49E99",
"g. c #7E7A75",
"h. c #C3BDB8",
"j. c #97908A",
"k. c #6A6762",
"l. c #534E49",
"z. c #E2DED9",
"x. c #E3E0DC",
"c. c #DDDBD7",
"v. c #9D938E",
"b. c #FAF3EB",
"n. c #F8F7F4",
"m. c #8F8379",
"M. c #615B54",
"N. c #9A938E",
"B. c #877C73",
"V. c #E6E3E0",
"C. c #C6C0BA",
"Z. c #6D635C",
"A. c #817367",
"S. c #786A65",
"D. c #CDC9C5",
"F. c #4C3A31",
"G. c #71562B",
"H. c #775E40",
"J. c #8E7438",
"K. c #5B4A3F",
"L. c #A68A40",
"P. c #796339",
"I. c #B89B44",
"U. c #A78534",
"Y. c #7F6C59",
"T. c #665348",
"R. c #B39A51",
"E. c #B08E36",
"W. c #7B684F",
"Q. c #876A37",
"!. c #AEA7A2",
"~. c #796C68",
"^. c #5E554E",
"/. c #533E2C",
"(. c #5C412F",
"). c #5C4438",
"_. c #9F928D",
"`. c #96867B",
"'. c #A69D95",
"]. c black",
/* pixels */
"    .     .   X       . . . . . . .   X   X   .           X X             X   X   X   X .           ",
"o . . . X .   .     .     o o     o     X X X           X X X X X   X X   X X   X X     . X   X     ",
". . .         X X .   . . . o . . . . . X X X   .           X X   X   X X X X     X X       X X     ",
"o o   O X . . o   X .     . . . . . o     X o o   X   X   o   o o o X     X X X   X       X   X     ",
"o o o +   . . . . X       o . . .         X o o o o o   . X X . o .   X X   X . X     X X X X X X   ",
"o o .   X         X . . . .   . .   o     X o @ # $ % & * = - o o o . o     X X X X X X   X X   X   ",
". . . . X . o       o o . X X X X . o     ; # : > , < 1 2 3 4 1 @ o o o   X X   X X X X   X   X X   ",
". o o   X . . o   X .   .     X   .       5 6 7 8 9 0 q w e r t y o o o . X X X   X     X   X X X X ",
"o o o X   . o . X   o . . . o   X   + o @ , u i p a s d f f g h j k o     X   X . X     X     . X X ",
"o o o .   . o   O X . o . . . X     X o o l z j j j x c v b n j m M @ X   X X   X     X X X     X X ",
". . . X X .             . o . o o o o o @ N B V C Z A S k D c c F z G   . .   X   X X   X X X X     ",
"X X     X     X     X   . o . o o o o o @ N H J K L L L L L P i I U Y @ o o .     X .       X       ",
"X X . X X     .     .   o   . o o o o o Y T R E K w E L L W 2 i Q v $ ! o o .   X X         X     X ",
"; . .     . . . . . o . . o o o o o o o Y ~ ^ L L K W W / R Z N ( ) _ ` - .   . o     X X X X X X X ",
". .   X     X . . . . . + . o o o o o o ! N ' ' ' ] W W [ > E { } |  .c : X   o     X   X X X   X   ",
"    . .       o . o     ; . . o o o Y ..X.o.O.+.+.M Z L @.#.E $.%._ n &.*.X X X   X X   X   X       ",
"  . .   X . . .     X .       o @ # =.-.;.:.:.>.:.+.,.0 L W E P <.^ ! o .     X   X         X   X X ",
"X       X . . .   . X X .     @ D 1.+.2.:.:.:.:.:.3.,.k w L 4.~ S @ @ o . X X X X X   . . X X       ",
"  X X X X X X X X X X X X X . @ 5.,.6.o.o.7.6.8.-.9.0.L L W ..q.w.. @ @ .   X       X . o     X     ",
"  X ; O X X X X X X   . X .   o e.r.0.t.0.S y.P J A L L L K 0 { Y o o @ . X X .       . o ;   X X   ",
"X X X X X X     X X o o   X   X     o o o @ G T u.E L W W L { 1 Y . o . .     X       o o o X .     ",
"  X X X X X X X X   o o @ i.+ X X X   o o o o p.R W K W W E P 5 o o . o   .     .   X . o o X     . ",
"    X   X X X X X X     t.f a.s.o X X o o o o d.5.L L L L E P 5 . o   X     X X X     . . . o       ",
"X   X X X X X X X X o o f.<.6 d.o + X X .   o *.~ L E E E E P 5 o o         X             X   o     ",
"    X X X X X X X - a.5 g.J h.> Y o     X   Y <.j.W L E E E P #   .   X     X ; X       . +   .   . ",
"    X X X X X     t.k.~ U J 0.l.z.Y o o o o x.5.Z L L L W L { 1 @ o           X       .   X         ",
"X X X X X X     . c.% S : y P [ l / q Y Y t.6 C W L L L W L 0 [ Y         X       . X X X   X X     ",
"  X X   X X X o o # > A E J { A u.v.> * 6 > 1 w b.L W L W W ..> d.o     X       X       . X     o . ",
"X X X X X X X . n.k.U % q @.m.L L h.N > h.q L W b.W W L L b.K J M.t..   X   X             . X . . . ",
"  X X X X X X   . N.D 0.K 1 $.E L q q W b.W W K b.b.K L L K L L r.5.j.i.o . X     X X X X X X   . X ",
"X   ; X X X X X X G , N.= 1 B.S L W L W W W K W W W W W W W L K W A y.& 5 X X           . X .     X ",
"X X X X X X X X X o e.p.% l v.v.W W L W W W W W K K W W W L L L L L L : D o     X   X X X   X       ",
"  X X X X X X X X X . a.M.7 k E L L L L L W b.b.W W W W W L L L W L L ..5.Y   .         X .   X   X ",
"  X X X X X   X X X X c.k.r.A K W L L L L W b.W W W W W W L L L W W L A 5.G   X .     X .     X   X ",
"X X X   X X   X X X X s.* : ..w L W W W W W W W W b.W W W L L L W L L A ~ n.. . . . . .       X     ",
"X X X X X   X X X X X   - N.[ q L W b.W W W W W W b.W W W L L L L L L 4.5.n.  . . o .               ",
"X       X X     X   X X o V.j.E W W W W W L W W W b.W W W L L W W W L k > @ . .       X X   X       ",
"X   X X   X X   . .   X . # T 4.W W W W L L b.W b.b.W W W W W W W W E m.h.o X     X X X X X X X   X ",
"  . X   X       . o X X   Y & 2 b.W W W L L W W b.b.W W W W W W W L 0 B.! @   X   X X     X X X   X ",
"      . X o o .   X   X . o *.5.r.W K L W L W W W W W W W W W W W Z q.^ @ .       X X X X X X   X X ",
"X X X X X   X   X X   X X . o *.l p.u.A E E W W W W W W W W W L u.P C.Y @       X   X X   X   X X X ",
"    X     X X X X X X X X     . i.y.l Z.Z.5.S W W b.W W W W Z D M.C.o @ o o   X X   X       X X   X ",
"      X       X   X X X X X   o o Y Y b.4.j.N.q W b.b.b.W 4.A.S.- @ o o o .   X   X X     X X X X X ",
"    X       X   . . X   X X   . . o o @ Y D.F.=.0.^ ^ J 2 4 G.$.o o . o . o .     X X X X   X     X ",
"  X X   X   X   . o X X X .   X   . . o X - H.J.K.P P T % M L.m.@ o o o . . o . o   X     X X X   X ",
". . X   . X X X .   .     . . . . . o o @ V.P.I.#.@ o o ! X.U.Y.. o o . o + . .   X       X X X   X ",
"  ; ; O   X   X . . @ n.x.C.0 <.<.<.<.f.{ T.R.E.4 / y.{ W.Q.;.1.<.<.<.<.<.<.<.<.<.<.!.h.V.  X X   X ",
"        X X   X o . Y x.T > S.S.~.~.~.^.F.F./.(.4 ~.~ 8 (.G.G.).S.S.S.S.S.S.~.~.~.S.S.S.T x.X X   X ",
"  . X   X       .   o n.d.$ p.!.y._.v.v.v.v._._._.v.v._.`.$.#._._._._._._._._._.v.v.v.'.C.-       X ",
"X o     X   X X X X X X o o o @ @ @ Y @ @ o o o o @ o @ o o @ @ Y @ @ @ @ @ @ @ o o o @ Y o   X   X "
};
