/* XPM */
static char *result[] = {
/* columns rows colors chars-per-pixel */
"50 50 173 2 ",
"   c #FCFCFB",
".  c #FBFCFA",
"X  c #FBFBFA",
"o  c #FBFBF9",
"O  c #FCFBFA",
"+  c #FAFAF8",
"@  c #F8F7F4",
"#  c #DDDBD7",
"$  c #B2ABA5",
"%  c #9C9792",
"&  c #B4B0AC",
"*  c #B9B4AF",
"=  c #D5D2CE",
"-  c #C3BDB8",
";  c #928D87",
":  c #8E8983",
">  c #BDB9B5",
",  c #DAD1CA",
"<  c #D8D5D2",
"1  c #D1CECA",
"2  c #6D635C",
"3  c #AC9E95",
"4  c #EEE6DE",
"5  c #FBF9F7",
"6  c #736B65",
"7  c #544B44",
"8  c #7D7770",
"9  c #F8F2EC",
"0  c #F3F1ED",
"q  c #BDB3AB",
"w  c #7B3B2A",
"e  c #8D6856",
"r  c #D2C9C1",
"t  c #888179",
"y  c #978A82",
"u  c #3D1C10",
"i  c #56291B",
"p  c #6F5840",
"a  c #59524B",
"s  c #A09B95",
"d  c #B3A8A0",
"f  c #9B3F25",
"g  c #D25128",
"h  c #884532",
"j  c #E4DBD3",
"k  c #615B54",
"l  c #5C4438",
"z  c #5D2C1B",
"x  c #6F3F2E",
"c  c #7C6049",
"v  c #3E5050",
"b  c #4E6464",
"n  c #614739",
"m  c #BB4825",
"M  c #A28A76",
"N  c #FCFAF8",
"B  c #383028",
"V  c #B5A293",
"C  c #F4ECE4",
"Z  c #F8F1E9",
"A  c #F5EEE7",
"S  c #858784",
"D  c #534E49",
"F  c #4D4741",
"G  c #97908A",
"H  c #8F8379",
"J  c #2B2D28",
"K  c #5E554E",
"L  c #F2EFEB",
"P  c #9C8E85",
"I  c #775E40",
"U  c #948172",
"Y  c #AC9585",
"T  c #97835B",
"R  c #634F3E",
"E  c #FAF2EA",
"W  c #A7A09B",
"Q  c #9F928D",
"!  c #4F5350",
"~  c #F5F3F1",
"^  c #D7B139",
"/  c #F4CD3C",
"(  c #EAC53C",
")  c #DFB93A",
"_  c #DDBA42",
"`  c #9A8568",
"'  c #F9F3EC",
"]  c #C7BCB3",
"[  c #54BED3",
"{  c #4FA5B6",
"}  c #70888C",
"|  c #EAE6E3",
" . c #967C45",
".. c #F6CF37",
"X. c #937B53",
"o. c #FAF3EB",
"O. c #47777C",
"+. c #4EC2DA",
"@. c #A28B4A",
"#. c #E8C445",
"$. c #8C6F31",
"%. c #4B858A",
"&. c #356068",
"*. c #A49E99",
"=. c #FCFCFA",
"-. c #CDC9C5",
";. c #857155",
":. c #A68A40",
">. c #C4A139",
",. c #8E7438",
"<. c #E8E0D8",
"1. c #485C59",
"2. c #505E5D",
"3. c #CDC2BA",
"4. c #80693F",
"5. c #F9F0E7",
"6. c #FCFBF9",
"7. c #F9F4EF",
"8. c #D6CEC6",
"9. c #ADA49D",
"0. c #FBF8F4",
"q. c #E3E0DC",
"w. c #8C857F",
"e. c #F1E9E1",
"r. c #E6E3E0",
"t. c #DDD5CE",
"y. c #A69D95",
"u. c #7E7A75",
"i. c #9A938E",
"p. c #76706A",
"a. c #CBC5BF",
"s. c #B7AFA8",
"d. c #837E78",
"f. c #C5C2BE",
"g. c #90877E",
"h. c #ECE9E6",
"j. c #78746E",
"k. c #A29991",
"l. c #ABA5A1",
"z. c #585651",
"x. c #AEA7A2",
"c. c #9D938E",
"v. c #6A6762",
"b. c #86827D",
"n. c #EEECE9",
"m. c #E0D9D2",
"M. c #EBE3DC",
"N. c #C6C0BA",
"B. c #827972",
"V. c #866F4A",
"C. c #A59589",
"Z. c #96867B",
"A. c #AB9247",
"S. c #7B684F",
"D. c #8A7553",
"F. c #9C8A7E",
"G. c #71562B",
"H. c #876A37",
"J. c #8B7A6B",
"K. c #D9BC51",
"L. c #B89B44",
"P. c #735F55",
"I. c #877C73",
"U. c #796339",
"Y. c #796C68",
"T. c #786A65",
"R. c #5B4A3F",
"E. c #674926",
"W. c #6B5F57",
"Q. c #4F4036",
"!. c #7F632D",
"~. c #79685E",
"^. c black",
/* pixels */
"  . .     X . . .     . X . X X   X .   .       X   . .   .       X   .   X   . .   . . . . .   . X ",
"X . . X   . . X   . . . . o o . . X . .       . . . .           .       .             .   .   .   . ",
". X X . . . .     . . X . X o X . . o X .     .   . .             .                   .   .     .   ",
"o o . O     . o .   X   . X X . X o o X     o o .       X     . o X   .                   .         ",
"o o o . . . X o .   .   . . . o X . . .     o o X o X .       . o o .         . . .                 ",
"X o X .   . . .     . . X o . . X . o .     + @ # $ % & * = + X o o . X                           . ",
"o . X X   X o . .   o o o         X o .   + - ; : > , < 1 2 3 4 + 5 o o .               .           ",
". o X .   . o o .   X . . . .     o . X X # 6 6 7 8 4 9 0 q w e r 5 o o .       .                 . ",
"o o o     X X .     o X o X X     . O X 5 t y u i p a t s d f g h j o X .             .       .     ",
"o o o .   . o . X   X o X o X     .   o 5 k l z x c k k v b n m g M + o .           .       . .     ",
". X X     . . X   . .   X X o o o X o o N a B V C Z 9 A j S v D h x 5   . o .   .     .           . ",
".     X   . .           o o o o o o o + @ F G A Z 4 A Z H t 2 J v K 5 o o X . .     .   .     .     ",
"  . X     . . .     . . o . X + o o + L P I U Y T R j E y W Q J b ! ~ + o o . .     .         .     ",
". o o .   X . X o X o X . o o o o 5 , T ^ / ( ) _ ` Z ' ' Z ] v [ { } | + + X o o .           .     ",
"X X .     .   . . X . . o X o + ~ ]  .^ ........( X.C Z o.E r O.+.+.{ } | .   X .                   ",
". X o . . . X o o o . . . . . + G @.#.........../ $.U 4 o.9 & %.+.[ { &.*.=.    .             .   . ",
". X X     X . X   .     .   . + -.;.:._ / / ( >.,.` <.Z E Z 8 1.&.v 2.W L           .         .   . ",
". . .     . X X . X   . . . X o o L 3.Y X.4.4.p j 5.Z E ' 4 y # = # ~ o 6.          . X .         . ",
"                            . o o o o 5 5 @ ~ ; q Z Z 9 7.8.9.0.5 0.5 + X .   . .     . o .     .   ",
"    =..               .   X . o X     =.X o + q.8 Z Z ' 7.] > @ 5 5 + + X     X     . X X .         ",
"                            .           . o o 5 w.e.Z Z E 9.> @ 5 + o + X     .     . o o o . .   . ",
"                        r.= 5     o 5 X   o o o % t.E Z Z y.> 5 + + O 6..   .   X     X o o         ",
"                    X @ u.i.* + o X =..     o @ p.t.E Z Z a.s.5 o o O . .     .       X . X o .   . ",
"                      0 d.4 G 1 N X .       o 1 p.C 9 9 ' <.s @ X o X .   .   .       .     X o . . ",
". .               @ -.# d.A t.p.| 5 O X o ~ f.u.4 Z Z Z Z A g.h.o X .       .     .   . . .   o   . ",
"                . r.j.W F e.k.F 2 - f.l.u.z.% 4 Z 9 Z Z Z E s.x.0.                    .     .     . ",
"            . X + @ ; t.* , c.j q $ * * v.- 9 ' ' ' o.' ' o.C G = X   .         .       . .     . . ",
".             X + 5 b.K 8.A c.4 E E a.: 1 9 ' ' ' E E E E ' o.j t n..     .   .   .   . .   . . X . ",
"              X + 5 a.6 % m.; m.Z 8.y M.' o.' ' ' o.E E E ' o.E N.; o .         .   .     .   . o X ",
"              . X . o @ # K p.m.-.B.C E o.o.o.' ' o.E E E E E E Z y.= o   .             .           ",
"      .             o o + ; r e.t j Z ' o.o.' ' ' E E E E E E E E M.: ~           . . . . . .       ",
"                    o o 5 s W 4 8.' 9 ' 9 ' ' 9 E E E E E E Z E E E t # o .   .                   . ",
"                        0 6 <.9 E 9 9 9 9 9 ' ' ' ' o.E E Z E E E E W N.+ o . .       .   X   .     ",
"                        X S -.9 ' Z 9 9 9 ' ' ' o.' ' Z E Z E E E E 3 - o o o   .       . .         ",
"                          r.w.j Z 9 ' ' ' o.' ' ' 9 ' ' E E E E E E s.f.+ o . X X o X . .   .       ",
"                        . + l.s 5.E o.o.9 9 ' ' ' ' ' ' Z E E E E E k.-.5 o . X X X o .   . .   . . ",
"  .           O   .     . o < ; Z ' ' ' Z 9 9 ' ' ' ' o.E E E E E E y < 5 o X X X . .     X         ",
"                X . .   o + @ ; e.' ' 9 Z Z ' ' ' ' ' E E E E E E Z H r.+ X   .         .     .     ",
"  .   .   . .   X X     X + + -.W 9 ' 9 Z Z ' ' ' ' ' E E E Z Z E <.s @ + X                   .     ",
"    .   . o o o           X o 5 s x.9 Z Z Z ' ' ' ' ' E E E E E 4 B.# 5 + X             .   .       ",
"  .                 .     . X . 5 l.; $ x.t j ' 7.' ' E E E C 4 y N.+ + + .   .                     ",
"  .                         .   . o | < > a V.C.M.9 Z o.o.M.Z.p.- + + + + o .                 .     ",
"          . .     .       . . .   . . 5 0.d A.S.Z.y ] q t I R a.0.+ o o o             .             ",
". .           . X X           .   .   X o h.X.` A = s.s.N.V.T 9 6.X o o o X . .                     ",
"      .   .     X X       . .     . . X . o M D.M.5 5 5 @ F.4.M.5 o o o o o o X X                   ",
". X             o . X   . o o + X o o + @ m.c G.d 5 @ @ 0 9.H.Q + + o X + o X X X     . .           ",
". .       .     X o 5 @ q.N.s.l.l.l.l.y.J.@.K.L.P.9.k.I.D.A.K.U.*.l.x.l.x.l.x.l.l.9.x.N.| .   .     ",
". . .           o . @ q.8 Y.T.T.Y.Y.T.R.n 4.H.E.W.T.W.Q.I ,.!.n ~.T.T.T.T.T.T.T.Y.T.T.T.8 q.        ",
"  .             .   o @ = & $ x.W c.c.c.P P P P Q c.c.Q P y F.P Q Q Q Q Q Q c.c.c.c.c.*.N.0         ",
". o .                   o 6.+ 5 5 5 5 5 5 5 + + 5 5 5 5 5 N N 5 5 5 5 5 + + 5 + 5 o o 5 5 N   .     "
};
