/* XPM */
static char *result[] = {
/* columns rows colors chars-per-pixel */
"50 50 185 2 ",
"   c #FCFCFB",
".  c #FBFCFA",
"X  c #FBFBFA",
"o  c #FBFBF9",
"O  c #F8F7F4",
"+  c #E2DED9",
"@  c #D5D2CE",
"#  c #EAE6E3",
"$  c #FBF9F7",
"%  c #DDDBD7",
"&  c #9C9792",
"*  c #76706A",
"=  c #6F6760",
"-  c #65605A",
";  c #CDC9C5",
":  c #FBF8F4",
">  c #A09B95",
",  c #827972",
"<  c #B9B4AF",
"1  c #F5EEE7",
"2  c #F8F1E9",
"3  c #8F8379",
"4  c #523826",
"5  c #AC9E95",
"6  c #ABA5A1",
"7  c #453A33",
"8  c #4C3A31",
"9  c #442E23",
"0  c #817367",
"q  c #A7A09B",
"w  c #ADA49D",
"e  c #853822",
"r  c #8F3B23",
"t  c #96867B",
"y  c #736B65",
"u  c #7E746C",
"i  c #3D1C10",
"p  c #7B3B2A",
"a  c #884532",
"s  c #5C6A68",
"d  c #537472",
"f  c #44696C",
"g  c #633D27",
"h  c #BB4825",
"j  c #CDC2BA",
"k  c #534E49",
"l  c #4F4036",
"z  c #5D2C1B",
"x  c #895040",
"c  c #8D6856",
"v  c #79685E",
"b  c #686F6C",
"n  c #4E6464",
"m  c #417075",
"M  c #47777C",
"N  c #5C4438",
"B  c #9B3F25",
"V  c #FAFAF8",
"C  c #FCFBFA",
"Z  c #59524B",
"A  c #5E554E",
"S  c #C7BCB3",
"D  c #F9F3EC",
"F  c #FAF3EB",
"G  c #FAF2EA",
"H  c #E8E0D8",
"J  c #C3BDB8",
"K  c #6A6762",
"L  c #485C59",
"P  c #443E38",
"I  c #53443C",
"U  c #ECE9E6",
"Y  c #4D4741",
"T  c #BDB3AB",
"R  c #C6C0BA",
"E  c #2A3837",
"W  c #D6CEC6",
"Q  c #7B684F",
"!  c #796339",
"~  c #866F4A",
"^  c #806334",
"/  c #5B4A3F",
"(  c #F1E9E1",
")  c #A69D95",
"_  c #C0B8B0",
"`  c #DDD5CE",
"'  c #4B8D97",
"]  c #F5F3F1",
"[  c #B3A8A0",
"{  c #7F632D",
"}  c #DDBA42",
"|  c #F4CD3C",
" . c #D7B139",
".. c #AC9585",
"X. c #F9F4EF",
"o. c #E4DBD3",
"O. c #5F7274",
"+. c #54BED3",
"@. c #4FA5B6",
"#. c #687879",
"$. c #F3F1ED",
"%. c #948172",
"&. c #997B33",
"*. c #E8C445",
"=. c #F6CF37",
"-. c #F9F0E7",
";. c #3C5A5C",
":. c #4EC2DA",
">. c #397883",
",. c #949A9A",
"<. c #937A3C",
"1. c #EAC53C",
"2. c #B08E36",
"3. c #978A82",
"4. c #CBC5BF",
"5. c #4896A6",
"6. c #8B7A6B",
"7. c #9F7B31",
"8. c #6E5937",
"9. c #A59589",
"0. c #EEE6DE",
"q. c #B2ABA5",
"w. c #E6E3E0",
"e. c #8C857F",
"r. c #F8F2EC",
"t. c #888179",
"y. c #9A938E",
"u. c #FCFBF9",
"i. c #EEECE9",
"p. c #BDB9B5",
"a. c #FAF2E8",
"s. c #D1CECA",
"d. c #7D7770",
"f. c #FCFCFA",
"g. c #8E8983",
"h. c #97908A",
"j. c #D8D5D2",
"k. c #A29991",
"l. c #DAD1CA",
"z. c #E3E0DC",
"x. c #B4B0AC",
"c. c #C5C2BE",
"v. c #86827D",
"b. c #615B54",
"n. c #34241B",
"m. c #78746E",
"M. c #F4ECE4",
"N. c #585651",
"B. c #837E78",
"V. c #6D635C",
"C. c #E0D9D2",
"Z. c #B7AFA8",
"A. c #7E7A75",
"S. c #FBF2E9",
"D. c #F2EFEB",
"F. c #D2C9C1",
"G. c #6B5F57",
"H. c #695234",
"J. c #796C68",
"K. c #8E7438",
"L. c #CEAF44",
"P. c #533E2C",
"I. c #6F5840",
"U. c #857155",
"Y. c #A49E99",
"T. c #90877E",
"R. c #C2A94E",
"E. c #9E8339",
"W. c #B1943F",
"Q. c #80693F",
"!. c #A78534",
"~. c #876A37",
"^. c #71562B",
"/. c #775E40",
"(. c #7F6C59",
"). c #AEA7A2",
"_. c #735F55",
"`. c #967C45",
"'. c #B89B44",
"]. c #786A65",
"[. c #5C412F",
"{. c #9D938E",
"}. c #9C8E85",
"|. c #9F928D",
" X c black",
/* pixels */
"  . .     X . . .     . X . X X   .   . .       o   . .   X       X   .   X   . .   . . . . .   . X ",
". . . X   . . X     . . . o o . . o . .       . o . o .   o o . .                     .   .   .   . ",
"X X o . . . .     . . . . X o X . . X .       . o O + @ # o X .   .                   X   .     .   ",
"o o . .     . o .   X . . o X . X o o .     $ % & * = * - * ; : o o   .                   .         ",
"o o o X   . X o .   .     X . o X . .     $ > = , < 1 2 1 3 4 5 : o . .       . . .                 ",
"o o X .   . . .     . X o X . X X . o o o 6 = 7 8 9 0 q 5 w e r t O X o   .                       . ",
"X . . .   X o . .   o o X         X o o $ y u i p a 9 s d f g h e j o X .               .           ",
"X o X .   X o o .   X . . . .     o . o : k l z x c v b n m M N B v V o         .                 . ",
"o o o     X o .     o X o X X     . C X V Z A S 1 D F G H J K L P I V       o o o     .       .     ",
"o o o .   X X . X   X o X o X     .   V U Y j 1 H T 2 2 y = R E E K V o .   X o o   .       . .     ",
". X o     X . X     . . X X X o X X V W Q ! ~ ~ ^ / ( G ) _ ` L ' n U V X o X X .     .           . ",
"      X   . .     .     X o o V . ] [ { } | | |  ...D D X.F o.O.+.@.#.U o o .       .   .     .     ",
"  . X     . . .     .   o X .   $.%.&.*.=.=.=.=. ...-.2 D 2 W ;.:.:.>.,.V o . .     .         .     ",
". o o .   X . X X o o X . o X V , <.*.| =.=.=.1.2.4 3.1 G F 4.f :.:.5.O.$ o . o o .           .     ",
"X X .     .   . . X . X o X X o ; 6.~ &.7.&.<.8.9.S 0.2 G 2 q.;.' M O.J o o . X .                   ",
". X o . . . X o o o . . . X X o V O # 4.S R w.e.4.G 2 G G r.t.* y.R $.u.o X .   .             .   . ",
"  X X X   X . X   .     .   . V o X C u.u.o o q 6 G 2 G G -.u i.O $ V o o o .       .         .   . ",
". X .     . X X . X     . . X V o X X X o o V p.e.D 2 a.2 0., ] O V V o . X         . X .         . ",
".                           . o o o o o o o $ s.* 2 G -.2 0.d.X.V V V V .     . .     . X .     .   ",
"    f..             . X   X . o o X X o X o V < g.2 2 -.2 ( u r.V V o o .     X     . X o . .       ",
"                    o o o X o             o $ h.J D 2 -.2 1 * j.V o X . .     .     . o o X   .   . ",
"                    o o o o o     o V f.  o w.* ( r.2 a.G 2 k.h.$ o     .     . X     X o o         ",
"                    o o . . . X o V V X   O g.< G G G -.-.2 l.= ] . . . .             X X . o .   . ",
"  .                 o o .     $ + z.O V $ & y.1 G G G a.-.D -.e.; o           .       .     X X   . ",
"  .           . . . o X     X p.Y P x.c.e.v.1 F G G G -.2 D F l.b.] . . . . .     .   . . C   o   . ",
"              X o X o   . o V g.n.Y v.b.m.M.D D F G G 2 2 F D 2 ) q .                 X .   .     . ",
"            . . o V o   X o w.N.A 1 < B.1 D D D F F G G G G D G 0.V.w.f.    .   .       .     .   . ",
".             X V V o     V z.- k H * W D r.D F F F G G F G G G G J & : . .   .   .   . .   . . X . ",
"              o V V V   . X U k q S h.2 D r.D G F G G F F G G G G 1 y w.X       .   .     .   . o X ",
"              . X X o o   . p.- h.B.C.r.D D D F F D F G F G 2 G G G e.p.o               .       .   ",
"      .             o o .   c.P _ o.2 r.r.D D F F D D F F G G G G G Z.y.o         . . . . . .   .   ",
"                    o o . . w.N.M.r.2 D D D F F G D F F G G G G G G j g.u..                         ",
"                        o o ] A.H r.r.r.G G G F F F D G G G 2 2 G G C.t.$ V . X   .   .   X   .     ",
"                        X o V J * M.2 G G S.G G F G G G G G G G G G H h.V o .   .     . . .         ",
"                        o o o $ * l.2 G G G G F F F G G G G G G G G S y.V X . X o X X . .   .       ",
"                        X o o V < k.2 D 2 G G G F F G G G G G S.G G , p.V X . X X X X .   f..   . . ",
"  .           C   .     o o V V i.- H D 2 G G G F F F G G S.S.G G W u D.V X X o . . .     X       . ",
"                X . .   X V V o $ R = H G G G G F D F G G G G G F.G.U $ V X             .           ",
"  .   .   . .   X X     X V o o o $ x.= [ o.1 G D r.D G G G 1 Z.b.j.$ o V X                         ",
"    .   . o o o           X o . X V V + y H.Q k.M.2 G G G 0.3 J.w.o V o V X             .           ",
"  .                 .     . o       . V W K.L.P.v Z.j S k.H.8.w V V o V V .   .                     ",
"  .                         .     X o $ X.I.L.U.C.Y.T.T.v R.E.w V o V o o o   .               .     ",
"          . .     .       . .     o o V O t W.Q.D.V V O 4.E.!.w V o o o o .           .             ",
". .           . . .           .   X X . o F.<.~.+ o V $ i.^.W.k.V . o o o X . .                     ",
"      .   .     o .       . .   . . . o . i.Q.K.R V $ V O H.W.t o X o X o o o X X                   ",
". X             . . X   . X o o . o o V O 4.^ E.T $ : O U /.R.(.$ V X X V o X X X     . .           ",
". .   .   .     X o $ O z.R Z.).6 6 6 & _.`.L.!.v w q , I.'.*.! q 6 ).6 ).).).6 6 6 ).J #     .     ",
". . .           o . O z.A.* J.].J.J.J.A 8 [.[.N _.J.= l 4 g g P.v ].].].].].].].].].].J.d.z.        ",
"  .       .     .   o O @ x.q.).q {.{.{.h.}.|.{.{.{.{.|.}.3.}.}.|.|.|.|.|.|.|.|.{.{.{.Y.R $.        ",
"  o .                   o u.V $ $ $ : $ $ $ V V $ $ V $ V V V $ $ $ V $ V V V V $ o o $ $ u.. .     "
};
