/* XPM */
static char *result[] = {
/* columns rows colors chars-per-pixel */
"50 50 191 2 ",
"   c #FCFCFB",
".  c #FCFCFA",
"X  c #FCFBFA",
"o  c #FCFBF9",
"O  c #FBFBFA",
"+  c #FBFBF9",
"@  c #FAFAF8",
"#  c #F8F7F4",
"$  c #E2DED9",
"%  c #D5D2CE",
"&  c #EAE6E3",
"*  c #FBFCFA",
"=  c #FBF9F7",
"-  c #DDDBD7",
";  c #A09B95",
":  c #76706A",
">  c #6F6760",
",  c #615B54",
"<  c #CDC9C5",
"1  c #827972",
"2  c #BDB3AB",
"3  c #F5EEE7",
"4  c #F8F1E9",
"5  c #8F8379",
"6  c #523826",
"7  c #AC9E95",
"8  c #FCFAF8",
"9  c #A7A09B",
"0  c #453A33",
"q  c #4C3A31",
"w  c #442E23",
"e  c #817367",
"r  c #ADA49D",
"t  c #7B3B2A",
"y  c #853822",
"u  c #96867B",
"i  c #736B65",
"p  c #7E746C",
"a  c #3D1C10",
"s  c #883D2B",
"d  c #5C6A68",
"f  c #537472",
"g  c #44696C",
"h  c #633D27",
"j  c #BB4825",
"k  c #CDC2BA",
"l  c #544B44",
"z  c #443E38",
"x  c #5D2C1B",
"c  c #895040",
"v  c #8D6856",
"b  c #79685E",
"n  c #686F6C",
"m  c #4E6464",
"M  c #417075",
"N  c #47777C",
"B  c #5C4438",
"V  c #9B3F25",
"C  c #59524B",
"Z  c #5E554E",
"A  c #C7BCB3",
"S  c #F9F3EC",
"D  c #FAF2EA",
"F  c #E8E0D8",
"G  c #C3BDB8",
"H  c #6A6762",
"J  c #485C59",
"K  c #53443C",
"L  c #EEECE9",
"P  c #4D4741",
"I  c #B7AFA8",
"U  c #2A3837",
"Y  c #D6CEC6",
"T  c #7C6049",
"R  c #796339",
"E  c #87654C",
"W  c #866F4A",
"Q  c #806334",
"!  c #5B4A3F",
"~  c #F4ECE4",
"^  c #A69D95",
"/  c #C0B8B0",
"(  c #DDD5CE",
")  c #4B8D97",
"_  c #ECE9E6",
"`  c #F5F3F1",
"'  c #B3A8A0",
"]  c #7F632D",
"[  c #DDBA42",
"{  c #F4CD3C",
"}  c #D7B139",
"|  c #AC9585",
" . c #F9F4EF",
".. c #E4DBD3",
"X. c #5F7274",
"o. c #54BED3",
"O. c #4FA5B6",
"+. c #687879",
"@. c #948172",
"#. c #997B33",
"$. c #E8C445",
"%. c #F6CF37",
"&. c #3C5A5C",
"*. c #4EC2DA",
"=. c #397883",
"-. c #949A9A",
";. c #937A3C",
":. c #EAC53C",
">. c #B08E36",
",. c #FAF3EB",
"<. c #CBC5BF",
"1. c #4896A6",
"2. c #8B7A6B",
"3. c #9F7B31",
"4. c #6E5937",
"5. c #A59589",
"6. c #EEE6DE",
"7. c #B2ABA5",
"8. c #FBF8F4",
"9. c #E6E3E0",
"0. c #8C857F",
"q. c #888179",
"w. c #9A938E",
"e. c #C6C0BA",
"r. c #F3F1ED",
"t. c #AEA7A2",
"y. c #F9F0E7",
"u. c #BDB9B5",
"i. c #D1CECA",
"p. c #7D7770",
"a. c #B9B4AF",
"s. c #928D87",
"d. c #F1E9E1",
"f. c #F8F2EC",
"g. c #97908A",
"h. c #D8D5D2",
"j. c #FAF2E8",
"k. c #A29991",
"l. c #8E8983",
"z. c #DAD1CA",
"x. c #E3E0DC",
"c. c #9C9792",
"v. c #90877E",
"b. c #B4B0AC",
"n. c #C5C2BE",
"m. c #86827D",
"M. c #FBF2E9",
"N. c #34241B",
"B. c #78746E",
"V. c #A49E99",
"C. c #585651",
"Z. c #837E78",
"A. c #65605A",
"S. c #6D635C",
"D. c #534E49",
"F. c #E0D9D2",
"G. c #7E7A75",
"H. c #D2C9C1",
"J. c #F2EFEB",
"K. c #6B5F57",
"L. c #695234",
"P. c #7B684F",
"I. c #8C6F31",
"U. c #CEAF44",
"Y. c #533E2C",
"T. c #857155",
"R. c #C2A94E",
"E. c #9E8339",
"W. c #B1943F",
"Q. c #80693F",
"!. c #A78534",
"~. c #876A37",
"^. c #71562B",
"/. c #8E7438",
"(. c #775E40",
"). c #7F6C59",
"_. c #ABA5A1",
"`. c #735F55",
"'. c #CEB053",
"]. c #6F5840",
"[. c #B89B44",
"{. c #796C68",
"}. c #786A65",
"|. c #665348",
" X c #5C412F",
".X c #9D938E",
"XX c #9F928D",
"oX c #9C8A7E",
"OX c #978A82",
"+X c #9C8E85",
"@X c black",
/* pixels */
"  . X . . o   . . X . X X o o o . . X . X   X . o X . X . X X   X o X o . . . X X o X . X X . X X X ",
". X X X .   X O . X . . X + + X . X O .   . . . o X + X . @ + X . .         .   . .   .   X   . . . ",
"O + + O X   +     . X O   O + X O   + O     . . + # $ % & @ + O           .   . .     X   .   .     ",
"+ + . *   O   O .   . O X + + . O + + . .   = - ; : > : , : < = + X   . .                 O         ",
"+ + + O * . X O *   o   O . X O * * X *   # ; > 1 2 3 4 3 5 6 7 # o     .     O         *           ",
"+ + O .   X O   .   O * + + O X + X + o 8 9 > 0 q w e 9 7 r t y u # O +   *             X         O ",
"+ O O X   O + . .   + + + @ + .   O + o @ i p a t s w d f g h j y k + O       X             .     . ",
". + +   * X + + *     O + @ +     O O @ = l z x c v b n m M N B V b @ +         .         .         ",
"+ + +   * O O .     @ X O O O     O O O = C Z A 3 S D D F G H J z K @ .     + + @   O *       O     ",
"O + @ .     . X *   o + o + . . *     8 L P k 3 F I 4 D i > k U U H = + O   + X +           . .     ",
"O + X     X O O       . o O + + O + o Y T R E W Q ! ~ D ^ / ( J ) m _ = + O O O O     .           O ",
"    . X   X .     X     O + X O O ` ' ] [ { { { } | 4 S  .S ..X.o.O.+.L @ + O       o     .   X     ",
"* . X         O     o   + X . X L @.#.$.%.%.%.%.} | 3 D S 4 Y &.*.*.=.-.o + . *     . * *     X     ",
"O O O O . O X X X O + X . @ O @ 1 ;.$.%.%.%.%.:.>.6 u 3 ,. .<.g *.*.1.+.= + . + + X           O   * ",
"X O O     X   O * + O O + O O + < 2.W #.3.#.;.4.5.A 6.4 D 4 7.&.) M X.G + + O O O .           .     ",
"  O O X O X X O + + .   X O O @ + 8.& <./ <.9.0.<.D D D D S q.: w.e.r.o O + X       .         .   * ",
"  O O O   O O X         + X . + + X . o o + + 9 t.D 4 D D y.p L 8.= @ o o + O   *   .     .   O     ",
". . .   . O O +   X     X O . + + + + + O O + u.0.S 4 D 4 6.1  .= = @ @ O X         * + O     .   * ",
"                            X + + + + + + + = i.: 4 4 y.4 6.p. .= @ @ +   . O X X     X o O   X *   ",
".   * *             O O   + X @ + X + + + + 8 a.s.4 4 y.4 d.p f.@ @ o o X     O   . X X + . * *   O ",
"          . X     . + @ + + O           . + = g.G 4 4 y.4 3 i h.@ + o . . .   .   O * + @ + . . . . ",
".                   @ + + + +     o = X   + 9.: ~ f.f.j.4 D k.g.= o   . .     * +   * + + +   O   . ",
"      .             @ + O   . O O @ o .   # l.a.4 D 4 y.y.S z.> ` *   . X . O . . .   O O . + .   O ",
"  *                 + @       # x.x.= @ = c.c.3 D D D y.y.S 4 v.< +       X       .   O . . O + . * ",
". .           .   + @ .     X u.P z b.n.l.m.3 S D D M.D 4 S ,.z., ` .   O .   o   .     X * * o . . ",
".             O + + + *     @ l.N.P q., B.~ f.S ,.,.M.D D D S D ^ V.+ . .   O       * * .   O * O * ",
"*           O X + @ +   *   & C.Z ~ 2 Z.3 S S S ,.,.D D D S ,.D 6.A.9..   *   . . *   .         .   ",
".     .       O @ @ +     @ x.S.l F i Y S f.,.,.,.S D D D D D D D A c.=   X   . . *   O X   X . O O ",
"              O @ @ O O O + _ D.r A g.4 f.f.S ,.S D D D D D D D D 3 i 9.+ * .   . * .     .   * + + ",
".               O O @ o .   u.A.g.Z.F.D S f.,.,.,.S S ,.,.D D D D D 0.u.o       *   . .       X     ",
"                    + + X   n.z / ..j.D S S S ,.,.,.S ,.,.D D D D D I w.X . .   . . X X O   O   O X ",
"                    + X O X 9.C d.D D D S f.,.D ,.S S ,.,.D D 4 D D k l.o O   .   *       .   O . * ",
"O                       O + ` G.F D D D D D D ,.,.,.S D D 4 4 D D D F.Z.= O X + . * * *   o   X . X ",
".                       + + @ G : ~ D D D D D ,.,.D D 4 D D D 4 D D F g.8 + X   X   .   O .   .   * ",
".     .                 O + @ 8.: z.D 4 D D D ,.,.,.,.D D D D D D D A w.= o O X O + O O X   *       ",
"  .       .             O @ + = a.c.4 S D 4 D ,.,.,.D D D D D D D 4 1 u.= O * O X + O O . X X     X ",
"  O           O   .     + @ @ @ L A.F S D D M.D D ,.D D D D D D D H.p J.@ X O O X O .     X     * * ",
"        .     X X + *   + @ + + @ n.> F D D D D D f.,.D D 4 D D H.K._ @ @ O             X           ",
"  *       O .   + o     O @ @ + + = b.> t...y.D S S S D D D 3 I , h.= @ @ O . .         *   .   .   ",
"  . X X   + + O           + + X X + = $ i L.P.k.3 f.D D D 6.5 : 9.8 = + + X                       . ",
"              *           o O . *     8 i.I.U.Y.b I k A k.L.4.r = @ O + + O           O O       .   ",
"  X   *                     O *   + + @ ` 4.U.T.( ^ v.l.b R.E.r @ X @ @ + O   .   O           . . * ",
"  O   * . X O             O .     X @ @ 8.u W.Q.J.8 = = <.E.!.r + + o + +             . . *         ",
". .   . . *   X . O . X     .     O X O O H.;.~.$ o = = L ^.W.k.@ X + + + + . . *         *   O     ",
"      . .     . O O             O + O + O J.Q./.e.8 = = = L.W.u @   + X + + o O O     . X     . . . ",
"O O * . *       O . X   X o + + . O + @ # <.Q E.2 8 = = _ (.R.).= = O + @ + O + .     .             ",
"* O   *     .   o @ 8 # x.e.I t._._._.c.`.;.'.E.b _.V.1 ].[.$.R 9 _.t._.t.t.t._.t._.t.e.9..         ",
"    X   X   . X O . = x.G.{.{.}.{.}.}.|.q  X XB K.{.> q 6 h h Y.b }.}.}.}.}.}.}.}.}.}.}.p.x..     . ",
"X X     .       X   o # % b.t.t.9 .X.X.Xg.g..X.X.X.X.XXXoXOX+X+XXXXXXXXXXX.XXXXXXX.X.X^ e.r..   *   ",
"  O O                   8 8 8 8 = @ = = = @ + o @ @ 8 8 8 8 8 8 = = 8 = = @ = @ = @ + = = o .   . . "
};
