/* XPM */
static char *result[] = {
/* columns rows colors chars-per-pixel */
"50 50 190 2 ",
"   c #FCFCFB",
".  c #FCFCFA",
"X  c #FCFBFA",
"o  c #FCFBF9",
"O  c #FBFBF9",
"+  c #FBFBFA",
"@  c #FAFAF8",
"#  c #F5F3F1",
"$  c #D8D5D2",
"%  c #D1CECA",
"&  c #D5D2CE",
"*  c #FBFCFA",
"=  c #FBF9F7",
"-  c #DDDBD7",
";  c #9C9792",
":  c #6A6762",
">  c #76706A",
",  c #443E38",
"<  c #B4B0AC",
"1  c #F8F7F4",
"2  c #827972",
"3  c #978A82",
"4  c #DAD1CA",
"5  c #F9F0E7",
"6  c #F5EEE7",
"7  c #AC9E95",
"8  c #442E23",
"9  c #9C8A7E",
"0  c #FCFAF8",
"q  c #A09B95",
"w  c #4F4036",
"e  c #6F5B4A",
"r  c #5B4A3F",
"t  c #A29991",
"y  c #A7A09B",
"u  c #C0B8B0",
"i  c #7A513A",
"p  c #853822",
"a  c #615B54",
"s  c #7E746C",
"d  c #3D1C10",
"f  c #6F3F2E",
"g  c #884532",
"h  c #4E6C6C",
"j  c #47777C",
"k  c #4A7174",
"l  c #45433D",
"z  c #9B3F25",
"x  c #7B3B2A",
"c  c #CBC5BF",
"v  c #4C3A31",
"b  c #5D2C1B",
"n  c #895040",
"m  c #634F3E",
"M  c #58635F",
"N  c #417075",
"B  c #4B858A",
"V  c #4F5350",
"C  c #735F55",
"Z  c #4D4741",
"A  c #8F8379",
"S  c #E4DBD3",
"D  c #FAF2E8",
"F  c #E8E0D8",
"G  c #C6C0BA",
"H  c #505E5D",
"J  c #F3F1ED",
"K  c #B2ABA5",
"L  c #F4ECE4",
"P  c #D2C9C1",
"I  c #F8F1E9",
"U  c #FAF2EA",
"Y  c #65605A",
"T  c #2A3837",
"R  c #2B2D28",
"E  c #736B65",
"W  c #7B684F",
"Q  c #8E7438",
"!  c #8A7553",
"~  c #9A8568",
"^  c #80693F",
"/  c #665348",
"(  c #90877E",
")  c #5C6A68",
"_  c #A59589",
"`  c #7F632D",
"'  c #DFB93A",
"]  c #F4CD3C",
"[  c #CEA838",
"{  c #B3A8A0",
"}  c #FAF3EB",
"|  c #F9F4EF",
" . c #EBE3DC",
".. c #54BED3",
"X. c #4B8D97",
"o. c #7F8A8A",
"O. c #EEECE9",
"+. c #897261",
"@. c #A78534",
"#. c #EAC53C",
"$. c #F6CF37",
"%. c #AC9585",
"&. c #F9F3EC",
"*. c #FBF2E9",
"=. c #4EC2DA",
"-. c #356068",
";. c #6B5F57",
":. c #B1943F",
">. c #9F7B31",
",. c #5C412F",
"<. c #CDC2BA",
"1. c #F8F2EC",
"2. c #438793",
"3. c #B9B4AF",
"4. c #967C45",
"5. c #A68A40",
"6. c #937A3C",
"7. c #7C6049",
"8. c #B5A293",
"9. c #D6CEC6",
"0. c #3E5050",
"q. c #4D929F",
"w. c #5F7274",
"e. c #E2DED9",
"r. c #E6E3E0",
"t. c #A49E99",
"y. c #858784",
"u. c #F2EFEB",
"i. c #7D7770",
"p. c #877C73",
"a. c #FBF8F4",
"s. c #86827D",
"d. c #B7AFA8",
"f. c #9A938E",
"g. c #DDD5CE",
"h. c #8C857F",
"j. c #837E78",
"k. c #E3E0DC",
"l. c #6F6760",
"z. c #CDC9C5",
"x. c #7E7A75",
"c. c #EEE6DE",
"v. c #C7BCB3",
"b. c #ECE9E6",
"n. c #C3BDB8",
"m. c #686F6C",
"M. c #585651",
"N. c #453A33",
"B. c #BDB9B5",
"V. c #BDB3AB",
"C. c #59524B",
"Z. c #383028",
"A. c #EAE6E3",
"S. c #928D87",
"D. c #544B44",
"F. c #97908A",
"G. c #9D938E",
"H. c #40362D",
"J. c #F1E9E1",
"K. c #948172",
"L. c #8E8983",
"P. c #695234",
"I. c #B89B44",
"U. c #523826",
"Y. c #9C8E85",
"T. c #614739",
"R. c #675950",
"E. c #7F6C59",
"W. c #C1A243",
"Q. c #876A37",
"!. c #96867B",
"~. c #A28B4A",
"^. c #8C6F31",
"/. c #ADA49D",
"(. c #9E8339",
"). c #71562B",
"_. c #866F4A",
"`. c #AEA7A2",
"'. c #ABA5A1",
"]. c #6E5937",
"[. c #888179",
"{. c #CEAF44",
"}. c #533E2C",
"|. c #786A65",
" X c #796C68",
".X c #6D635C",
"XX c #53443C",
"oX c #674926",
"OX c #9F928D",
"+X c black",
/* pixels */
"  . X . . o . X . X . X X o o o . . X . .   .   o X X X . . X   . X X X X . . X X o X . X X . X X X ",
". . X X .   X X . X . . . O O X . X + . . .   o X o O O o o O . X .     .   .   . .   .   X   . . . ",
"+ + + + X   O     . X + X X O X +   O +   .   X @ # $ % & # O X .         .   . .     X   .   .     ",
"O O . +   *   + .   . + X O O + + O O .     = - ; : > > : , < 1 + O   . X                 +         ",
"O @ O + * * + + *   o   + + + O * * X *   1 ; > 2 3 4 5 6 7 8 9 1 @           +         *           ",
"O O X .   . X   .   X * O O X X O + o o 0 q > w w e r t y u i p 7 = + O   *             X         + ",
"X + O X   + O + .   O O O O O *   X O o = a s d f g 8 h j k l z x c O + .     X             .     . ",
"X O X X * X O O .   +   O @ O     + X O 1 l v b p n m M h N B V p C = +         .         .         ",
"O + O     + + .     O X + + + *   + * o 1 , Z A S 5 D D F G H h , w = . +   O @ @   + *       +     ",
"+ @ @ X . X . X *   o O + O o   *     @ J , K L L P I U > Y G T R E = O X   @ O O +         . .     ",
"+ X X     O X +       . O + X + O X = 4 W Q ! ~ ^ / L D ( K S M B ) J = O + . X +     .           + ",
"    . +   . *   . X     + O O O O J _ ` ' ] ] ] [ { D } | }  .M ..X.o.# @ O @   *     *   .   X     ",
"  . +     *   +     O * O +   + O.+.@.#.$.$.$.$.[ %.D } &.*. .M ..=.-.< o O + X     X . .     X     ",
". + O + . X + X + + O X + O O = ;.:.] $.$.$.#.[ >.,.<.U } 1. .H ..=.2.o.@ O o X O             +   * ",
". + .     +   o * O + . O O + O 3.W 4.5.5.6.^ 7.8.9.L *.*.U 9.0.q.N w.& O O O + +   .         .     ",
". X +     . X + O O .   + + . @ @ O.e.- - r.9.2 U I D D U U t.a y.3.u.0 O O X       .         .   * ",
"  + + +   + + O   * * X   X X @ O + X @ O @ J i.6 I U D U U p.4 a.= 0 o O O . *     +   *     +     ",
"* X X   . + + +   +     O . X @ O O O O @ O = s.4 U I 5 I L > u.= @ @ O . O X o O   . O + .   .   * ",
"                            + @ O O @ O O O = ; d.I 5 5 I S p.a.0 O @ @ X   O @ X .   X + X   X *   ",
".   * *             . .   + + O O O + O O O = f.u D 5 5 D g.h.a.= O X X . . + O O + X X O . * *   + ",
"              .     O @ @ O +           . + 1 j.S 1.5 5 I g.h.a.a.@ o X .     .   . . + @ O * . . . ",
"+           *     . O O O X O     o 0 X   @ k.E I 1.I D I S p.a.0   .   . X + . O   * O O @       + ",
"      .             O O + . + O O X o +   O ; y U U I 5 I L l.z.= . .   X     . . .   + + X O .   X ",
"  .                 @ + .     O @ . X X X % x.c.U *.D 5 I I v.E b.      .     .   .   X .   . O . . ",
". *           . * . O X .     o   O @ = b.Y g.&.} *.D 5 I } I n.Y - o O @ O   + * *     + + O + + * ",
".             + @ @ O .         * O = e.a c I &.} U U U U U &.U P a f.m.M.; =       . + .   + . *   ",
"*           X X O O @             a.b.x.G 1.&.} } *.D U U U &.&.I F > N.n.Y r.X . .   .         * X ",
".     .       + @ @ @           @ I h.y I 1.&.*.} } *.*.*.U U U *.*.c.> B.: r.  . .   . X   X . + + ",
"              O O = @           @ c p.L 1.&.&.} U } } *.U U U U U *.I 3.; Y J . . * .     .   * O X ",
".               + + O O +     O # ;.4 U &.1.&.} &.&.} *.*.U U U U U U 5 V.C.#   +   . .       * .   ",
"                    @ + +     O k.E 5 &.1.&.} *.} &.&.*.} I U U U U U U { Z.A..   . + + +   + . . . ",
"                    O + + + * + B.; 5 U U &.} *.} &.} U U U D I U U U U { , J .   *       .       * ",
"+                       O @ + X S.n.I U *.*.U } *.} U U U I U I U U U U y j.= o . . * .   o   + . X ",
".                       + O O = s.c D U *.*.*.*.*.*.U U I I U I U U U D p.;.=   X       + *   . . * ",
".     *   X .           O O O = ; V.I I U D U } } *.*.*.*.*.U U U U U  .D.F.@ X o + O + X   .       ",
"  .                     O O O @ n.G.I U D D U } } } *.*.U *.*.D U U U d.H.k.@ + + O O X . + +     + ",
"  +           X   .     O @ @ @ b.Y  .U U U U U *.} U *.U U D D 5 D 5 h.q = O + + X       X     . . ",
"        .     * + O *   O @ @ + = 3.: F I *.U *.U &.U *.U *.U I *.I c 2 J @ O   .       +           ",
"  *       + .   + O     . @ O O O = 3.l.K J.U *.U &.&.U I I I 5 6 d.;.& 0 @ + . *       *   *       ",
"  . X X   o O O X       * + O X o o @ r.x.r K.4 &.&.U U U 6 P t l.L.b.@ @ +     * .               * ",
"        .                 + O     +   O b.P.I.U.( u 9.c Y.T.P.R.J.= 0 @ @ O   *                 .   ",
"  X   o   +   .             +   + O O @ a.E.W.Q.<.F.Y.G.!.~.I.3 = X X o O O X     .     +     * . . ",
"  +   * * . +               + +   o O + X c 6.^.F 0 = = e.Q.I./.@ + X O O O .   *     +             ",
". .   .       X . + X X     .     + + + O O.^ (.S 0 = = # ).:.{ @ X O O O O . * .         *   X     ",
"      . * X   . + +       X X     O X O O # _.(.c 0 = = = ).(.{ O o O O O O O + X .   .   * .     . ",
"+ + * . +       + . .   X X O O . o O @ J /.Q (.u 0 = = A.).5.3 @ o O O @ O O O X .   .   +         ",
"  +   *         o + = 1 k.G d.`.'.'.'.F.r ].:.).[.'./.S.e {.{.}./.'.`.`.`.`.`.'.`.`.`.G r..         ",
"X   X           + + = k.x.> |.|.|.|. X.XXXXXr / |. Xl.v ,.^.oX/ |.|.|.|.|.|.|. X X|.|.|.i.k.  + . * ",
"+ +       .   . X   o 1 & < `.`.y G.G.G.G.G.G.G.G.G.G.Y.9 !.3 Y.OXOXOXOXOXG.OXG.OXG.G.t.G J .       ",
"  + .     *             0 o 0 0 0 = = = @ @ O o @ = 0 0 @ = 0 = = = 0 0 = @ = = = o @ @ = 0 *     * "
};
