/* XPM */
static char *result[] = {
/* columns rows colors chars-per-pixel */
"50 50 191 2 ",
"   c #FCFCFB",
".  c #FCFCFA",
"X  c #FCFBFA",
"o  c #FCFBF9",
"O  c #FBFBFA",
"+  c #FCFAF8",
"@  c #FBFBF9",
"#  c #EEECE9",
"$  c #D5D2CE",
"%  c #C5C2BE",
"&  c #CBC5BF",
"*  c #F5F3F1",
"=  c #F8F7F4",
"-  c #D1CECA",
";  c #8E8983",
":  c #7E746C",
">  c #A7A09B",
",  c #ADA49D",
"<  c #78746E",
"1  c #6D635C",
"2  c #BDB3AB",
"3  c #ABA5A1",
"4  c #59524B",
"5  c #53443C",
"6  c #544B44",
"7  c #CDC2BA",
"8  c #F9F0E7",
"9  c #EEE6DE",
"0  c #614739",
"q  c #7B3B2A",
"w  c #96867B",
"e  c #76706A",
"r  c #634F3E",
"t  c #3D1C10",
"y  c #492215",
"u  c #B3A8A0",
"i  c #7A513A",
"p  c #D25128",
"a  c #9B3F25",
"s  c #9C8A7E",
"d  c #453A33",
"f  c #56291B",
"g  c #8F3B23",
"h  c #5D2C1B",
"j  c #485C59",
"k  c #4B858A",
"l  c #364948",
"z  c #853822",
"x  c #723220",
"c  c #E6E3E0",
"v  c #B2ABA5",
"b  c #443E38",
"n  c #34241B",
"m  c #79685E",
"M  c #9C8E85",
"N  c #90877E",
"B  c #3E5050",
"V  c #4F7E81",
"C  c #47777C",
"Z  c #6F3F2E",
"A  c #E3E0DC",
"S  c #B4B0AC",
"D  c #383028",
"F  c #A59589",
"G  c #FAF2EA",
"H  c #FBF2E9",
"J  c #6A6762",
"K  c #537472",
"L  c #F9F4EF",
"P  c #EAE6E3",
"I  c #675950",
"U  c #786A65",
"Y  c #F5EEE7",
"T  c #FAF3EB",
"R  c #C6C0BA",
"E  c #271D17",
"W  c #2A3837",
"Q  c #534E49",
"!  c #FAFAF8",
"~  c #F2EFEB",
"^  c #FAF2E8",
"/  c #E8E0D8",
"(  c #E0D9D2",
")  c #4FA5B6",
"_  c #356068",
"`  c #BDB9B5",
"'  c #FBF8F4",
"]  c #97908A",
"[  c #B5A293",
"{  c #C7BCB3",
"}  c #D6CEC6",
"|  c #D2C9C1",
" . c #DDD5CE",
".. c #58635F",
"X. c #54BED3",
"o. c #51B8CC",
"O. c #44696C",
"+. c #FBF9F7",
"@. c #F3F1ED",
"#. c #8C6F31",
"$. c #CEAF44",
"%. c #B08E36",
"&. c #A78534",
"*. c #E4DBD3",
"=. c #4E6464",
"-. c #4EC2DA",
";. c #4B8D97",
":. c #787F7D",
">. c #E2DED9",
",. c #775E40",
"<. c #F4CD3C",
"1. c #F6CF37",
"2. c #BF9B37",
"3. c #AC9585",
"4. c #4D929F",
"5. c #376B74",
"6. c #5C6A68",
"7. c #D8D5D2",
"8. c #8E7438",
"9. c #C4A139",
"0. c #EAC53C",
"q. c #E8C445",
"w. c #736B65",
"e. c #9C9792",
"r. c #CDC9C5",
"t. c #AB9247",
"y. c #F1E9E1",
"u. c #F4ECE4",
"i. c #857155",
"p. c #8B723F",
"a. c #967C45",
"s. c #6E5937",
"d. c #7F6C59",
"f. c #888179",
"g. c #6F6760",
"h. c #B7AFA8",
"j. c #EBE3DC",
"k. c #827972",
"l. c #928D87",
"z. c #DAD1CA",
"x. c #DDDBD7",
"c. c #7E7A75",
"v. c #F8F1E9",
"b. c #796C68",
"n. c #65605A",
"m. c #AC9E95",
"M. c #C0B8B0",
"N. c #7D7770",
"B. c #9A938E",
"V. c #837E78",
"C. c #C3BDB8",
"Z. c #ECE9E6",
"A. c #615B54",
"S. c #86827D",
"D. c #8C857F",
"F. c #4D4741",
"G. c #F8F2EC",
"H. c #F9F3EC",
"J. c #AEA7A2",
"K. c #40362D",
"L. c #5E554E",
"P. c #A69D95",
"I. c #A29991",
"U. c #B9B4AF",
"Y. c #A09B95",
"T. c #8F8379",
"R. c #876A37",
"E. c #937A3C",
"W. c #71562B",
"Q. c #695234",
"!. c #6B5F57",
"~. c #7B684F",
"^. c #B89B44",
"/. c #6F5840",
"(. c #C1A243",
"). c #B1943F",
"_. c #796339",
"`. c #62492F",
"'. c #4C3A31",
"]. c #442E23",
"[. c #5C412F",
"{. c #533E2C",
"}. c #735F55",
"|. c #523826",
" X c #674926",
".X c #5B4A3F",
"XX c #9D938E",
"oX c #9F928D",
"OX c #978A82",
"+X c #A49E99",
"@X c black",
/* pixels */
"  . X . . o . X . X . X X o o o . . X . .   .   o . . X . X .   . X X X X . . X X o X . X X . X X X ",
". . X X .   X X . X . . . o o X . o . . . . . o     X     . X   X .     .   .   . .   .   X   . . . ",
"o o o X X   o     . . X X o o o X . X X   .   X . .     .       . .       .   . .     X   .   .     ",
"o o . O   .   X o   X X . o o . . o + .                 .   .         . .                 .         ",
"o o o @ . . X O .   X   . . . X X . X       . X         .         . X   .     X         . . .       ",
"o o X .   . .   .   . X o o . . o X o X       X @ # $ % & $ * o X .   X . X             .         X ",
"X X . .   o o . .   o + o + o   . X o .     = - ; : ; > , < 1 2 * +   o X     .                   . ",
". o o   . . o o .   X . o + o     X X .   O 3 1 4 5 6 7 8 9 0 q w =   o X       .                   ",
"+ o o   . X o X     o X o o o     . O X + # e r t y t 6 < u i p a s + o .   o o +   X .   .   o     ",
"X o o X . X o X O   o o X o X . . .   o + $ d f a g h j k k l z p x c o .   o o o           X .     ",
"o X o     . . X       . o o o o o     . + v b n y m M N e B V C Z x A   X o o . X     .           . ",
"    . X   . X   . X     X o X o o     X + S D D F 8 G H 8 9 J l K d L o + o X   .   o     .   X     ",
"o   X       . .     o . o X . + o o X o + P I U Y H H T T 8 R E W Q = ! o +   .     . . .     X     ",
". o o . . X X X X X o X X o o + o o + o o ~ : 7 ^ H T T / : ( Q ) _ ` ' + o . o o X .         .   . ",
"X X .     .   X . X X X o o o o + o o + ' ] r [ { 7 } G | b  ...X.o.O.- o + . X . .           .     ",
"  X X . . . o X o X . . X X . o o ! +.@.u #.$.%.&.#.M ^ Y } *.=.X.-.;.:.@ o X   .   .         .   . ",
". o o .   X . X   X X     . .   +.>.M ,.&.<.1.1.1.2.3.8 T G R B 4.5.6.7.@ o X   .   .     .   X     ",
"  . .   . . . X . .     o . . ! N 8.9.0.<.1.1.1.1.q.,.( H G ] w.e.r.* + X . X o X   . o X     .   . ",
".           .               o ! w.t.q.<.<.<.<.0.9.#.M y.H u.: 9 ' + + + X   o o o     X o X   . .   ",
"    X O             . .   X X o A M i.p.a.8.a.s.d.7 Y ^ H ( f.' + @ +.+ .   o o . . X . o X . .   X ",
"          . .     . X o + o X     o = @.~ ~ = $ g.8 ^ ^ ^ h.u ' + X + + . .       . . o o o   X . . ",
".                   + o + o +     o o . o o + +.J j.^ ^ ^ k.} ' +.o o X .   . . .     o + o       . ",
"      .             o + . . X o o   X . .   o o l.*.^ ^ ^ w.z.' +.o X X . . + @.x.= X X o . o .   X ",
"  .                 o o .     + o . o . .   o ' c./ ^ ^ v.b.z.' +.o   . X X 7.c.< S . X     o o . . ",
". .           . . X o .       o o   X o . .   x.n.Y G G H m.h.' + +     X - < >.c n.X X . o   o . . ",
".             X o o +                 . X . = l.M.G H H H / N.Y o   . X @.J c L >.J + + o o X . . . ",
".           . o o o +               . + + * B.V.v.G G H H T , V.# X o o C.B.Z.L e.A.S.D.~ .   . .   ",
".     .       o + + o             . ' L 7.N.B.j.T G T T T T u.> < e.` S g.S.N.; F.> j.< >.o X . o . ",
"              X + + +             +.G.3 n.z.G.H.T T H T T T G v.9 M.V.Q g.j.G.w.h.L % V.* o . . o o ",
".             . . X o o       . + ~ c.B.u.G G H H H H H H H.G G H G G Y z.( L e / J.K.S ' + .   .   ",
"    X               o o .     o G.f.v Y G H.H.T G H H H H H H G H H H H H T u.6 b.{ R J A + X       ",
"                    o o . . . + h.f.Y T G H.H.G G H T H H H H H H H H H ^ H u.2 , M f.l.@.+   X . . ",
".                       o + o = A.*.G T G H.T T H H H H H v.G H H G H H H H H G N Q - +.. X .       ",
".                       X o o Z.g.8 G T H H G H H H H H H ^ ^ H H ^ H H H H H | d L.L + . X .   .   ",
".     .                 o o o 7.] H G H H G H G H H H G G G G G H ^ H H H H ^ P.} A.= o X .         ",
"  .                     o o o r.B.H T G v.G H H T H H G v.H H H H ^ H H H H 8 8 *.A.' o . . X   . X ",
"  X       .   X   .     o + + 7.] H G G G G ^ H T T G G H H H H G H H H H H H G I.3 + X X X     . . ",
"        .     X o o .   o + + P w.8 G H.v.H G G H H G G H H H G G H H H H H H  .A.=   . .           ",
"  .   .   . .   . .     . + + = A.9 v.G G G H H H H G H H H H G ^ ^ H H G H H M.w.o   X .   .   .   ",
"  .   X X o o o X       . X + +.B.> v.G.v.G H H G G.G H H H H H H H H H G G Y f.U.                . ",
"  X                       X o + ~ e J.y.v.G H H G H.H G G G H H 8 G H H H / V.S ' .           .     ",
"  X       .   . X           . X X @.Y.n.] & u.H T G G T G G H H H H G Y C.L.C.! o       .         . ",
"  .   .   . X             . .     o + c l.g.b.} Y v.G H G H H G G T { g.l.# o . .     X   .         ",
". .   X       . . o . X             o o +.G.M.r i.T.u M.2 { z.7 M.> g.r.+.X X . . .                 ",
"      .   X   . X X             . X X o o o R R.E.u v B.V.w.W.Q.!.U.@.o o . o X . .     .     . . . ",
"o .     .       . . X   . o + + . o o + ' c ~.^./.v.+.' Z.~.(.s.( + + + o . X o o .   X .           ",
". o X O .   .   X o + = A % h.J.3 3 3 B.: s.(.).I , ; m _.(.$.`.> , 3 3 3 J.3 3 3 3 J.R c           ",
"    X   X   .   + . ' A c.e U U b.U 1 '.].[.[.{.}.U K.|.W. X[..Xm U U U U U b.U U U U U N.A       . ",
". X     .       X . o = $ S J.J.> XXXXXX] ] XXoXXXXX] OXs M M oXoXoXoXoXoXoXoXoXoXXXXX+XR @.. . .   ",
"  X . . .               o o + + +.+ +.+.+ +.o + + + + + + + + + +.+.+.+.+.+ + +.+ o o + +.+       . "
};
