/* XPM */
static char *_f1a3d9d01dc4f949b7be08fe9ff14d2ag8Lu9TCBS9Php1n[] = {
/* columns rows colors chars-per-pixel */
"50 50 182 2 ",
"   c None",
".  c #0E090D",
"X  c #130C05",
"o  c #110C0D",
"O  c #19130D",
"+  c #1B1409",
"@  c #0F0A10",
"#  c #150E15",
"$  c #151015",
"%  c #171118",
"&  c #191319",
"*  c #1D191D",
"=  c #251B0A",
"-  c #2C1E09",
";  c #241B10",
":  c #2E2309",
">  c #3C2D0F",
",  c #34280F",
"<  c #3F340F",
"1  c #382C17",
"2  c #3E3411",
"3  c #3B321A",
"4  c #1F1A21",
"5  c #231D25",
"6  c #271F2A",
"7  c #281F2A",
"8  c #262226",
"9  c #282227",
"0  c #27202A",
"q  c #2A232C",
"w  c #2E2A2E",
"e  c #2D2630",
"r  c #2F2932",
"t  c #312B34",
"y  c #342F39",
"u  c #3B3434",
"i  c #36313A",
"p  c #38353E",
"a  c #3C3B3E",
"s  c #343134",
"d  c #3C3420",
"f  c #42350D",
"g  c #473805",
"h  c #413512",
"j  c #413818",
"k  c #423817",
"l  c #473F22",
"z  c #4A3F23",
"x  c #443726",
"c  c #4F401B",
"v  c #5E4D14",
"b  c #614F0D",
"n  c #614F12",
"m  c #695412",
"M  c #6E5D13",
"N  c #685819",
"B  c #706012",
"V  c #7C621A",
"C  c #51482D",
"Z  c #51472E",
"A  c #5F512A",
"S  c #534C31",
"D  c #554C37",
"F  c #635A3F",
"G  c #71602A",
"H  c #716438",
"J  c #393740",
"K  c #3E3B43",
"L  c #413E47",
"P  c #454346",
"I  c #45434B",
"U  c #49464C",
"Y  c #4D4A4F",
"T  c #4D4C53",
"R  c #504E54",
"E  c #535056",
"W  c #5B595C",
"Q  c #58555B",
"!  c #635B41",
"~  c #655F4B",
"^  c #746E5B",
"/  c #706A53",
"(  c #766C4F",
")  c #5E5C61",
"_  c #615F65",
"`  c #626165",
"'  c #686667",
"]  c #676569",
"[  c #6A696D",
"{  c #69686E",
"}  c #6C6E72",
"|  c #706E74",
" . c #6F7175",
".. c #737275",
"X. c #717578",
"o. c #7C7B7E",
"O. c #797878",
"+. c #85741D",
"@. c #8B721E",
"#. c #917420",
"$. c #927C2B",
"%. c #8D7737",
"&. c #89783A",
"*. c #917C36",
"=. c #8D7D43",
"-. c #927E40",
";. c #807A6D",
":. c #9B8333",
">. c #8E8037",
",. c #A78C2D",
"<. c #B69A2B",
"1. c #BD9A29",
"2. c #AC9337",
"3. c #B39634",
"4. c #BC9B32",
"5. c #B29837",
"6. c #BCA431",
"7. c #C1A52B",
"8. c #C7AA28",
"9. c #CBB42F",
"0. c #DDB22B",
"q. c #D6B729",
"w. c #CBA53A",
"e. c #C8A539",
"r. c #D9AF37",
"t. c #DBB133",
"y. c #D9BB34",
"u. c #C7B032",
"i. c #E1BA33",
"p. c #DFC23F",
"a. c #FCDF2F",
"s. c #E6CD3D",
"d. c #E8CA37",
"f. c #F0CF38",
"g. c #EED234",
"h. c #EED33B",
"j. c #F4D433",
"k. c #FADE34",
"l. c #F7DD3A",
"z. c #F9DE39",
"x. c #F5D836",
"c. c #E9C42E",
"v. c #FBE02F",
"b. c #FBE030",
"n. c #A99141",
"m. c #BBA941",
"M. c #BBA65D",
"N. c #918B7A",
"B. c #948B6B",
"V. c #B9A766",
"C. c #D6BD49",
"Z. c #DCC445",
"A. c #E2CC45",
"S. c #7E7C81",
"D. c #7D8083",
"F. c #818486",
"G. c #858489",
"H. c #8A8C8E",
"J. c #8C8F90",
"K. c #8D9293",
"L. c #979B9C",
"P. c #949799",
"I. c #A19D8D",
"U. c #A8A188",
"Y. c #9DA0A2",
"T. c #A7AAAB",
"R. c #ACB0B1",
"E. c #B3B4B5",
"W. c #BBBCBC",
"Q. c #CCBC87",
"!. c #D6C587",
"~. c #BFC0C0",
"^. c #C6C6C5",
"/. c #C8C9C6",
"(. c #C9C9C8",
"). c #CDCDD0",
"_. c #D9D8DA",
"`. c #DFDDE0",
"'. c gray92",
"]. c #E7E9EA",
"[. c #FCFCFD",
"{. c gray94",
/* pixels */
"                                                                                                    ",
"                                          F.F.F.F.F.F.F.                                            ",
"                                          X.X.X.X.X.X...                                            ",
"                                          X.X.J.P.K.X.X.                                            ",
"                                          X. .E./.W.X.X.                                            ",
"                                        W.....E.^.E.....                                            ",
"                                    P * * # $ & & & $ $ * * a                                       ",
"                                    a . . . . . . . . . . . s                                       ",
"                                W W Q T E ` ) P a a a a [ o.o.' W                                   ",
"                                . # D.L.T././.H.X.X.X.X._.[._.$ o ..                                ",
"                                . . S.K.L.~.~.G... . . .).{./.$ o ..                                ",
"                          U w 5 . . r J x Y T L L a s r w w 8 . . ..                                ",
"                          s . . . . 5 0 e p p p p i 6 0 $ . . . . ..                                ",
"                          w % & * * q r t J p J p p e r * & % % & T                                 ",
"                    ..o o 5 7 e p p J p p p p p p p p p q 6 0 0 6 & . 8                             ",
"                    | o @ 5 7 e J p J J p p p p p p p p e 6 6 6 0 & . 8                             ",
"                a 8 0 5 5 y J I } }  .} } } } I J J p p i i i p i e 5 6 9 9 [                       ",
"                8 @ % 6 0 i J U X.X.X.X.X.X.X.I J p p p J p p J J r 7 5 . . '                       ",
"                8 @ & r t T T ) F.F.D.F.D.X.X.) T T J p p p p p p r 6 5 . . Q | O.Q.!.              ",
"                8 . 4 J J { X.D.Y.L.L.L.K.X.X.X.X.{ p p p p p p J r 6 5 . . o . = n.5.Q.            ",
"                8 @ 5 K K } X.D.L.L.Y.L.K.D.o.X.X.{ J p p p p p p e 7 6 @ . . . = 2.<.!.            ",
"          ..t s 5 5 { `.`.G.X.D.L.L.L.L.R.].].K.X.{ p p p p p p J y p y 5 5 % . : Z.f.C.M.V.        ",
"          ' . @ 5 6 O.[.[.H.X.D.L.L.L.L.E.[.[.P.X.{ p p p p p p p p p p 6 6 % @ : s.k.y.3.5.        ",
"          ] . @ q e S.[.[.H. .S.K.K.K.K.R.[.[.P.X.{ J p p p p p p p p p 6 6 % . : s.f.7.$.*.        ",
"          ' . @ i p G.[.[.H.X.X.X.X.X.X.L.[.[.L.X.{ J p p p p p p p p y 6 6 & @ - w.t.#.f k         ",
"          ' . @ y p G.[.[.H.X.X.X.X.X.X.L.[.[.P.X.{ J p p p p p p p p p 6 6 % . - w.t.#.h j         ",
"          ' . @ i p G.[.[._ L R X.X.X.X.L.[.[.X.K K J p p J p p p p p p 6 7 & . - w.t.#.h k         ",
"          ' . @ i p G.[.{.) p U X.X.X.X.P.[.[.{ J J J p p i p p p p p p 6 6 % @ - w.t.#.2 j         ",
"          ' . @ i p S.'.].E J L _ _ ` ` D.{.{.{ p p p p p p p p J i y t 6 6 & . = *.,.*.! !         ",
"          ' . @ i p | /.^.T J p J J J J ` ~.(.) p p p p p p p p p r 6 6 6 6 & . X h g ;.            ",
"          [ . . i p } /.^.T p p p p J p ) (.~.) p p p p p p p p p r 6 6 6 6 & o O 3 h /             ",
"          ' . . q q J E E J p p p p p p L E E K p p p p p p s d 3 3 3 1 o # [                       ",
"          ' . o 5 7 r p p p p p p p p p p p p p p p p p J p u 2 2 h 2 1 X . ]                       ",
"            U P 5 5 q y i p p p p p p p p p p p p p p p D D A M M M B N + O O.                      ",
"                8 . & 6 6 p J p p p p p p p p p p p p i =.5.6.l.b.b.b.A.g 2 I.                      ",
"                8 . & 6 6 y p p J p p p p p p p p p a i *.<.7.k.b.b.b.s.g f U.                      ",
"                8 . % 6 6 e e e p p p p p p p p p p e q *.3.1.v.b.b.v.x.p.9.*.F ^                   ",
"                8 . & 5 6 6 6 e p p p p p p p p p y 7 9 %.<.7.k.b.b.v.v.b.b.+.< S                   ",
"                a 8 w 5 5 4 4 0 i y y y y i y y y u z c ,.8.q.k.b.b.b.b.j.x.+.< S                   ",
"                    ... @ @ . $ 6 6 6 6 6 6 6 6 6 x n.5.s.k.k.k.b.b.b.x.q.0.V < S                   ",
"                    O.X X o X O 7 7 7 7 6 6 7 6 0 x 2.5.d.v.v.v.a.a.a.k.0.t.V < C                   ",
"                ~ D =.m.6.m.m.>.# # # # # # # # % ; v b 9.v.v.v.a.a.a.k.0.t.V 2 S                   ",
"                C < +.k.b.b.b.6.X o o o o . . . . O 2 f 9.b.v.v.a.a.v.k.0.t.V 2 S                   ",
"                S < +.h.g.b.b.u.f h > > > > > , , , 2 h 6.g.g.v.a.k.j.f.1.4.&.! ^                   ",
"                C h N <.<.g.v.b.A.b.d.r.t.r.t.4.2.:.f f $.<.6.k.a.c.0.e.g h U.                      ",
"                S 3 N 5.3.h.b.b.b.b.i.r.t.t.t.4.3.:.h 2 $.3.6.k.k.c.r.e.g 2 I.                      ",
"                    B.v v M B B B B m m m m m n v H     ( n v M B m m G U.                          ",
"                    N.2 2 2 2 3 2 2 2 2 2 2 2 2 2 F     / 2 2 2 2 2 2 C                             ",
"                    N.c C d c C d c c C d c C d c ~     ^ c Z l c c l Y                             ",
"                                                                                                    "
};
