/* XPM */
static char *result[] = {
/* columns rows colors chars-per-pixel */
"48 50 169 2 ",
"   c #3E3B36",
".  c #363C39",
"X  c #3C3D3C",
"o  c #532D17",
"O  c #4D321F",
"+  c #5B311C",
"@  c #62341E",
"#  c #4D3323",
"$  c #573B23",
"%  c #5C3B26",
"&  c #533929",
"*  c #593B29",
"=  c #543F32",
"-  c #653621",
";  c #6A3723",
":  c #6C3922",
">  c #643923",
",  c #743C25",
"<  c #7A3E29",
"1  c #3C413F",
"2  c #5A4335",
"3  c #594639",
"4  c #5B4A3E",
"5  c #544133",
"6  c #664329",
"7  c #6A472A",
"8  c #6D4B2B",
"9  c #7A4226",
"0  c #7D432A",
"q  c #724E2D",
"w  c #7D4A29",
"e  c #764323",
"r  c #694932",
"t  c #714E33",
"y  c #7C4C31",
"u  c #765036",
"i  c #785331",
"p  c #3D4340",
"a  c #414543",
"s  c #454946",
"d  c #454B48",
"f  c #4A4D4A",
"g  c #514942",
"h  c #4C514D",
"j  c #5E574C",
"k  c #525652",
"l  c #555A55",
"z  c #585C56",
"x  c #5A5E59",
"c  c #685A4C",
"v  c #6E5343",
"b  c #7B5940",
"n  c #635E54",
"m  c #5D615B",
"M  c #61655E",
"N  c #66685F",
"B  c #6D6258",
"V  c #626660",
"C  c #666A63",
"Z  c #6A6D65",
"A  c #6A6E69",
"S  c #736C62",
"D  c #6D7167",
"F  c #6D726A",
"G  c #72756C",
"H  c #75786E",
"J  c #787B6F",
"K  c #737471",
"L  c #787777",
"P  c #767B72",
"I  c #7A7D73",
"U  c #7A7A79",
"Y  c #814E26",
"T  c #83442C",
"R  c #8A472F",
"E  c #854C2C",
"W  c #8C4B2E",
"Q  c #904C2F",
"!  c #86512A",
"~  c #8B532D",
"^  c #8D582D",
"/  c #94542F",
"(  c #93592E",
")  c #874331",
"_  c #8F4734",
"`  c #8D4930",
"'  c #934D32",
"]  c #984D37",
"[  c #8E5431",
"{  c #865D36",
"}  c #8B5D36",
"|  c #945332",
" . c #9C5334",
".. c #955A32",
"X. c #9C5B34",
"o. c #9F5938",
"O. c #A15735",
"+. c #A35A36",
"@. c #A85E37",
"#. c #A45D39",
"$. c #AA5E3A",
"%. c #A3553B",
"&. c #8F6539",
"*. c #9D6333",
"=. c #916539",
"-. c #A46534",
";. c #A86335",
":. c #A66936",
">. c #A96D37",
",. c #A5643A",
"<. c #AD633B",
"1. c #AC6B39",
"2. c #B3663C",
"3. c #B36B3C",
"4. c #BB6D3F",
"5. c #AE733A",
"6. c #B5733C",
"7. c #BB733E",
"8. c #B4793C",
"9. c #BB7B3E",
"0. c #B15E40",
"q. c #8B674B",
"w. c #8C6D53",
"e. c #B66B41",
"r. c #BB6C41",
"t. c #A07047",
"y. c #BC7242",
"u. c #BD7D42",
"i. c #C16E44",
"p. c #C37444",
"a. c #C87746",
"s. c #C57A45",
"d. c #CA7D46",
"f. c #CA7749",
"g. c #C77B48",
"h. c #CD7E48",
"j. c #D17E4D",
"k. c #7D8176",
"l. c #7E827A",
"z. c #BD8040",
"x. c #BA8256",
"c. c #808276",
"v. c #81857B",
"b. c #84897E",
"n. c #9F8572",
"m. c #C38343",
"M. c #CB8347",
"N. c #C78845",
"B. c #CB8946",
"V. c #CE8149",
"C. c #CC8948",
"Z. c #D2844B",
"A. c #D5894C",
"S. c #D98C4E",
"D. c #D4904C",
"F. c #DC914E",
"G. c #D78650",
"H. c #D88750",
"J. c #DC8C51",
"K. c #DE9151",
"L. c #E19254",
"P. c #868B81",
"I. c #898D84",
"U. c #8D8C8C",
"Y. c #92948F",
"T. c #AC9C93",
"R. c #B3A298",
"E. c #BAA99F",
"W. c None",
/* pixels */
"W.W.W.W.W.W.W.W.W.W.W.W.W.W.W.W.W.W.W.W.W.W.W.W.W.W.W.W.W.W.W.W.W.W.W.W.W.W.W.W.W.W.W.W.W.W.W.W.",
"W.W.W.W.W.W.W.W.W.W.W.W.W.W.W.W.W.W.W.W.W.W.W.W.W.W.W.W.W.W.W.W.W.W.W.W.W.W.W.W.W.W.W.W.W.W.W.W.",
"W.W.W.W.W.W.W.W.W.W.W.W.W.W.W.W.W.W.W.k P.P.v.v.v.v.l.F W.W.W.W.W.W.W.W.W.W.W.W.W.W.W.W.W.W.W.W.",
"W.W.W.W.W.W.W.W.W.W.W.W.W.W.W.W.W.W.W.C I v.c.k.l.G F F d W.W.W.W.W.W.W.W.W.W.W.W.W.W.W.W.W.W.W.",
"W.W.W.W.W.W.W.W.W.W.W.W.W.W.W.W.W.W.W.m P k.I k.k.V A V W.W.W.W.W.W.W.W.W.W.W.W.W.W.W.W.W.W.W.W.",
"W.W.W.W.W.W.W.W.W.W.W.W.W.W.W.W.W.W.W.h k.P k.P I F C f W.W.W.W.W.W.W.W.W.W.W.W.W.W.W.W.W.W.W.W.",
"W.W.W.W.W.W.W.W.W.W.W.W.W.W.W.W.W.W.W.a P P k.H P H G h h W.W.W.W.W.W.W.W.W.W.W.W.W.W.W.W.W.W.W.",
"W.W.W.W.W.W.W.W.W.W.W.x W.W.W.W.W.P P k N H F G I I F h P.P A W.W.W.G m W.W.W.W.W.W.W.W.W.W.W.W.",
"W.W.W.W.W.W.W.W.W.W.V l.C . W.k.k.P F z h H G P G P F V l.F P k.h W.b.I.x W.W.W.W.W.W.W.W.W.W.W.",
"W.W.W.W.W.W.W.W.W.Z l.P P Z C l.P P P A h l.k.l.l.P Z P P K A K l c.I.v.I z W.W.W.W.W.W.W.W.W.W.",
"W.W.W.W.W.W.W.W.k l.H P P k.m A l.H H V s V A A A Z x U F k.H V Z b.b.b.c.I l W.W.W.W.W.W.W.W.W.",
"W.W.W.W.W.W.W.W.1 F G H H G l.k F D 3 > T | o.[ $. .E > 4 C F m I.c.c.k.b.G W.W.W.W.W.W.W.W.W.W.",
"W.W.W.W.W.W.W.W.W.h F P H P P m 5 i [ X.#.,.,...e.0.0.,.*.t 2 Z v.l.v.l.Z h W.W.W.W.W.W.W.W.W.W.",
"W.W.W.W.W.W.W.W.W.C l A G G V # e 0.#.,.0.e.r.,.g.y.y.e.e.[ | 2 C F v.C F N W.W.W.W.W.W.W.W.W.W.",
"W.W.W.W.W.W.W.W.m P.P m F m & [ ~ e.e.y.g.g.h.t.J.Z.V.g.g...0...& l k C k.k.f W.W.W.W.W.W.W.W.W.",
"W.W.W.W.W.W.W.k k.J P F 5 & } *...g.s.g.V.V.Z.u.J.G.G.V.H.:.y.e.,.* Z l.b.v.G W.W.W.W.W.W.W.W.W.",
"W.W.W.W.W.W.W.l H P k.G * [ 2.6.,.Z.V.Z.Z.A.Z.z.L.J.A.V.J.1.g.g.r.,.5 F v.l.H h W.W.W.W.W.W.W.W.",
"W.W.W.W.W.W.W.M M D I j W -.4.7.:.A.V.A.A.J.A.m.K.J.A.Z.A.6.V.M.g.y.[ c H Z m l W.W.W.W.W.W.W.W.",
"W.W.W.W.W.W.M J I G Z r #.1.s.m.1.A.A.S.A.J.A.m.J.A.Z.A.Z.6.m.G.m.y.e.y l F P G h W.W.W.W.W.W.W.",
"W.W.W.W.W.W.G H G H g E 1.p.M.Z.8.K.A.K.Z.A.A.z.J.Z.V.A.Z.6.m.A.M.s.e.} n H G H N W.W.W.W.W.W.W.",
"W.W.W.W.W.W.C G G F v -.7.h.V.Z.8.K.A.L.Z.Z.Z.m.A.Z.V.Z.Z.6.N.A.d.d.y.1.B F G G N W.W.W.W.W.W.W.",
"W.W.W.W.W.p m C Z m w 3.p.h.Z.S.9.F.A.S.Z.Z.V.m.J.A.V.A.J.6.N.A.V.M.y.y.u m Z Z m W.W.W.W.W.W.W.",
"W.W.W.1 C l.l.v.v.m ( d.h.A.J.J.9.L.A.A.Z.Z.A.z.J.S.A.S.K.6.B.A.A.Z.M.s.q l U P l.P.I k W.W.W.W.",
"W.W.W.1 I I F Z P x -.h.j.Z.S.A.u.L.Z.A.A.Z.A.m.J.F.S.F.K.7.C.S.A.Z.V.d.{ l I I v.G H h W.W.W.W.",
"W.W.W.1 P.I l.H D z -.V.Z.A.A.J.9.L.Z.Z.A.Z.A.z.S.S.S.S.S.6.S.S.A.Z.Z.V.&.V P I l.I I h W.W.W.W.",
"W.W.W.1 v.I I c.J z -.M.V.A.Z.A.9.L.Z.Z.V.V.A.z.S.J.F.G.G.6.S.Z.Z.C.Z.S.&.F G I l.I I h W.W.W.W.",
"W.W.W.1 H P U P I z -.d.V.Z.Z.Z.9.K.Z.Z.Z.V.Z.9.S.A.J.Z.Z.6.D.Z.Z.V.V.S.=.A P P U H F h W.W.W.W.",
"W.W.W.1 C M V C D k -.d.M.A.Z.H.9.L.V.V.M.V.Z.z.A.A.S.G.Z.6.A.Z.V.V.V.S.&.M F Z C M V d W.W.W.W.",
"W.W.W.1 s s s s s a *.V.V.Z.Z.Z.7.F.V.V.V.V.Z.8.G.Z.Z.Z.Z.3.A.M.h.V.V.S.&.a s s s a a p W.W.W.W.",
"W.W.W.W.W.1 G Y.b.j -.V.j.A.h.V.>.F.d.h.h.V.V.8.G.V.Z.V.Z.-.B.V.d.h.h.A.{ m I.I.N W.W.W.W.W.W.W.",
"W.W.W.W.W.1 F I.J M ;.V.Z.Z.Z.Z.6.D.V.Z.V.V.Z.8.G.h.V.V.V.1.B.d.s.d.h.V.{ A P P N W.W.W.W.W.W.W.",
"W.W.W.W.W.1 N I c.M -.M.V.Z.V.M.7.S.V.V.h.V.Z.9.j.d.V.h.d.6.B.s.y.y.y.M.&.Z H F C W.W.W.W.W.W.W.",
"W.W.W.W.W.p M J I z -.d.V.V.V.V.7.S.V.V.V.Z.V.9.j.h.j.h.d.5.M.y.n.R.E.x.&.V F V m W.W.W.W.W.W.W.",
"W.W.W.W.W.p V G Z k -.d.V.V.V.V.>.S.V.V.h.V.h.8.Z.h.M.h.V.1.m.:.g U.V t.&.x D m x W.W.W.W.W.W.W.",
"W.W.W.W.W.p x V z f -.V.h.V.h.V.>.S.Z.V.h.Z.Z.5.A.V.Z.V.Z.:.N.1.K L Y.w.u k C m l W.W.W.W.W.W.W.",
"W.W.W.1 V F F G Z k :.V.h.M.h.V.6.S.Z.V.V.Z.Z.u.H.M.V.V.Z.,.N.q.U = f T.6 k F F A V V h W.W.W.W.",
"W.W.W.. v.P I I J k -.h.h.s.d.h.3.S.Z.V.V.Z.Z.1.S.d.V.V.V.>.B.u x k = A & A Z S G I k.f W.W.W.W.",
"W.W.W.. l.I I I J k -.d.h.d.s.h.-.S.Z.V.h.Z.h.-.Z.d.V.d.d.;.m.i L K A n * C V Z c.b.k.h W.W.W.W.",
"W.W.W.1 b.c.v.H D z -.a.d.a.i.d.X.S.h.h.d.Z.h.;.Z.p.d.d.d.( 9.! X k f * % F H H I c.I h W.W.W.W.",
"W.W.W.1 b.I c.I D l +.a.p.4.4.4.^ G.a.a.d.a.d.>.h.p.d.p.a./ 9.+.R E [ 1.t A I c.c.J P k W.W.W.W.",
"W.W.W.1 k.I I F D h +.i.i.3.2.3.^ j.i.a.a.i.p.*.p.3.4.4.4.W 6.2.4.p.:.p.u m k.I P I F d W.W.W.W.",
"W.W.W.a x m l l l h  .i.2.<.<.2./ f.2.4.i.4.4.*.7.;.2.2.3.Y 1.+.+.o.X.;.8 p l l z k a p W.W.W.W.",
"W.W.W.W.W.a m P G k W @.O.+.%.+.! p.<.2.2.2.2.X.2.+.@.@.$.Y ;./ X./ W X.7 k P P M W.W.W.W.W.W.W.",
"W.W.W.W.W.p M G I m T  . . .O. .Y i.%.<.@.;.$.+.;.+.O.O.+.< +.Q E 0 E / 7 F H G M W.W.W.W.W.W.W.",
"W.W.W.W.W.1 C P G n < ' ' ' ' Q e $. . . .$.+.| O. .'  .' , / T 0 9 9 Q q F G P V W.W.W.W.W.W.W.",
"W.W.W.W.W.p Z H G n , T T R T T , %._ ' Q Q ] W ] R T R T - E , , 9 , T % M G G D W.W.W.W.W.W.W.",
"W.W.W.W.W.p Z G Z k , < < < < , @ ] 0 R ` R R T _ 0 , T T - < , : < < 9 % x G I F W.W.W.W.W.W.W.",
"W.W.W.W.W.p x V V f : , , , , : @ _ < < T T T T R , , < , + : , @ , @ , % k F P Z W.W.W.W.W.W.W.",
"W.W.W.W.W.1 1 1 1 . @ @ @ @ @ + o : @ - - ; ; @ : - @ @ + o + + @ + + + O . 5 p d W.W.W.W.W.W.W.",
"W.W.W.W.W.W.W.W.W.W.W.W.W.W.W.W.W.W.W.W.W.W.W.W.W.W.W.W.W.W.W.W.W.W.W.W.W.W.W.W.W.W.W.W.W.W.W.W."
};
