/* XPM */
static char *result[] = {
/* columns rows colors chars-per-pixel */
"50 50 195 2 ",
"   c black",
".  c #010000",
"X  c #010100",
"o  c #000001",
"O  c #010001",
"+  c #010101",
"@  c #020100",
"#  c #020101",
"$  c #010103",
"%  c #020102",
"&  c #020103",
"*  c #020202",
"=  c #030203",
"-  c gray1",
";  c #040202",
":  c #060304",
">  c #040404",
",  c #040405",
"<  c #050405",
"1  c gray2",
"2  c #060404",
"3  c #0D0707",
"4  c #0E0807",
"5  c gray3",
"6  c #090909",
"7  c gray4",
"8  c #0E0808",
"9  c #0C0B0B",
"0  c gray5",
"q  c #0E0C0D",
"w  c #0E0E0E",
"e  c gray6",
"r  c #150D0D",
"t  c #160D0E",
"y  c #100F10",
"u  c #101010",
"i  c #131313",
"p  c #141413",
"a  c gray8",
"s  c #1A1112",
"d  c #1D1314",
"f  c #211312",
"g  c #251515",
"h  c #251615",
"j  c #251616",
"k  c #261616",
"l  c #2C1716",
"z  c #291817",
"x  c #261C1C",
"c  c #2D1919",
"v  c #2F1A1A",
"b  c #2B1C1C",
"n  c #2C1E1D",
"m  c gray13",
"M  c #222222",
"N  c #232323",
"B  c #282828",
"V  c gray17",
"C  c #3F2221",
"Z  c #373737",
"A  c gray22",
"S  c #442525",
"D  c #462626",
"F  c #4C2826",
"G  c #4D2928",
"H  c #4D2D2C",
"J  c #4C2F2F",
"K  c #552E2D",
"L  c #552F2D",
"P  c #562E2D",
"I  c #552F2E",
"U  c #562E2E",
"Y  c #572F2E",
"T  c #4D302F",
"R  c #4F3636",
"E  c #5F3938",
"W  c #633332",
"Q  c #613635",
"!  c #603736",
"~  c #673736",
"^  c #603836",
"/  c #653837",
"(  c #653937",
")  c #603B3A",
"_  c #643938",
"`  c #663B3A",
"'  c #603F3E",
"]  c #663D3C",
"[  c #6E3B39",
"{  c #733C3A",
"}  c #723E3E",
"|  c #753F3D",
" . c #7A4140",
".. c #795655",
"X. c #7A5E5C",
"o. c #777777",
"O. c gray48",
"+. c #7B7B7B",
"@. c #914D4B",
"#. c #924F4C",
"$. c #934F4C",
"%. c #954F4D",
"&. c #A15754",
"*. c #AC5B57",
"=. c #AD5D5B",
"-. c #B15E5B",
";. c #B25E5B",
":. c #B6605E",
">. c #BA615E",
",. c #8D7A79",
"<. c #B86360",
"1. c #A57E7C",
"2. c #C06461",
"3. c #C06663",
"4. c #C46764",
"5. c #C56764",
"6. c #CB6966",
"7. c #C96A67",
"8. c #CA6A67",
"9. c #CB6A67",
"0. c #CC6B67",
"q. c #CF6E6A",
"w. c #D16D69",
"e. c #D46F6B",
"r. c #D2716D",
"t. c #D4706C",
"y. c #DA736F",
"u. c #DB7370",
"i. c #DD7470",
"p. c #E27572",
"a. c #E17672",
"s. c #E17673",
"d. c #E27672",
"f. c #E37672",
"g. c #E37873",
"h. c #E37874",
"j. c #E27975",
"k. c #E47874",
"l. c #E97975",
"z. c #EB7975",
"x. c #EB7A77",
"c. c #EE7B77",
"v. c #EC7B79",
"b. c #EC7C78",
"n. c #EC7C79",
"m. c #EF7C78",
"M. c #F7817C",
"N. c #FA827E",
"B. c #FD837E",
"V. c #FF837F",
"C. c #FD847F",
"Z. c #FE847F",
"A. c #FF847F",
"S. c #FE857F",
"D. c #FF857F",
"F. c gray58",
"G. c gray61",
"H. c #AC9898",
"J. c #BC9593",
"K. c #B1B1B1",
"L. c #F38480",
"P. c #F68782",
"I. c #FD8480",
"U. c #FC8580",
"Y. c #FD8580",
"T. c #FE8480",
"R. c #FF8480",
"E. c #FF8580",
"W. c #FE8481",
"Q. c #FF8481",
"!. c #FE8581",
"~. c #FD8680",
"^. c #FD8782",
"/. c #FC8884",
"(. c #FC8D89",
"). c #F99F9B",
"_. c #FCA5A2",
"`. c #FBA8A5",
"'. c #F9AAA6",
"]. c #FCB0AD",
"[. c #FDB0AD",
"{. c #FDB3B0",
"}. c #FCB7B4",
"|. c #FDC2BF",
" X c #FDC2C0",
".X c #F6D0CD",
"XX c #F7D0CE",
"oX c #FDE1DF",
"OX c #FDE1E0",
"+X c #FCE9E9",
"@X c gray97",
"#X c gray98",
"$X c gray99",
"%X c white",
"&X c None",
/* pixels */
"&X&X&X&X&X&X&X&X&X&X&X&X&X&X&X&X&X&X&X&X&X&X&X&X&X&X&X&X&X&X&X&X&X&X&X&X&X&X&X&X&X&X&X&X&X&X&X&X&X&X",
"&X&X&X&X&X&X&X&X&X&X&X&X&X&X&X&X&X&X&X&X&X&X&X&X&X&X&X&X&X&X&X&X&X&X&X&X&X&X&X&X&X&X&X&X&X&X&X&X&X&X",
"&X&X&X&X&X&X&X&X&X&X&X&X&X&X&X&X&X&X&X&X&X&X&X&X&X&X&X&X&X&X&X&X&X&X&X&X&X&X&X&X&X&X&X&X&X&X&X&X&X&X",
"&X&X&X&X&X&X&X&X&X&X&X&X&X&X&X&X&X&X&X&X&X&X&X&X&X&X&X&X&X&X&X&X&X&X&X&X&X&X&X&X&X&X&X&X&X&X&X&X&X&X",
"&X&X&X&X&X&X&X&X&X&X&X&X&X&X&X&X&X&X&X&X&X&X&X&X&X&X&X&X&X&X&X&X&X&X&X&X&X&X&X&X&X&X&X&X&X&X&X&X&X&X",
"&X&X&X&X&X&X&X&X&X&X&X&X&X&X&X&X&X&X&X&X&X&X&X&X&X&X&X&X&X&X&X&X&X&X&X&X&X&X&X&X&X&X&X&X&X&X&X&X&X&X",
"&X&X&X&X&X&X&X&X&X&X&X&X&X&X&X&X&X&X&X&X&X&X&X&X&X&X&X&X&X&X&X&X&X&X&X&X&X&X&X&X&X&X&X&X&X&X&X&X&X&X",
"&X&X&X&X&X&X&X&X&X&X&X&X&X&X&X&X&X&X&X&X&X&X&X&X&X&X&X&X&X&X&X&X&X&X&X&X&X&X&X&X&X&X&X&X&X&X&X&X&X&X",
"&X&X&X&X&X&X&X&X&X&X&X&X&X&X&X&X&X&X&X&X&X&X&X&X&X&X&X&X&X&X&X&X&X&X&X&X&X&X&X&X&X&X&X&X&X&X&X&X&X&X",
"&X&X&X&X&X&X&X&X&X&X&X&X&X&X&X&X&X&X&X&X&X&X&X&X&X&X&X&X&X&X&X&X&X&X&X&X&X&X&X&X&X&X&X&X&X&X&X&X&X&X",
"&X&X&X&X&X&X&X&X&X&X&X&X&X&X&X&X&X&X&X&Xe                             7 &X&X&X&X&X&X&X&X&X&X&X&X&X&X",
"&X&X&X&X&X&X&X&X&X&X&X&X&X&X&X&X&X&X&X&X] / _ _ ( ( ( / ( ( / ( ( / ( E &X&X&X&X&X&X&X&X&X&X&X&X&X&X",
"&X&X&X&X&X&X&X&X&X&X&X&X&X&X&X&X&Xa + & p.A.A.A.A.A.A.A.A.A.A.A.A.A.A.7.# O B &X&X&X&X&X&X&X&X&X&X&X",
"&X&X&X&X&X&X&X&X&X&X&X&X&X&X&Xm M ) { { m.A.A.A.A.A.A.A.A.A.A.A.A.A.A.a.{ { ' N &X&X&X&X&X&X&X&X&X&X",
"&X&X&X&X&X&X&X&X&X&X&X&X&X&X&X+   $.E.A.A.A.A.A.A.A.A.R.R.R.A.A.A.A.R.R.A.R. .+ 5 &X&X&X&X&X&X&X&X&X",
"&X&X&X&X&X&X&X&X&X&X&X&X&X&X&X+   $.E.A.A.A.A.A.T.{. X X X|.'.I./.}. X X X XX.X 5 &X&X&X&X&X&X&X&X&X",
"&X&X&X&X&X&X&X&X&X&X&X&X&X&X&X+   $.E.A.A.A.A.A.Y.OX%X%X%X%X.XT.(.+X%X%X%X%XO.. 5 &X&X&X&X&X&X&X&X&X",
"&X&X&X&X&X&X&X&X&X&X&X&X&X&X&X+   $.E.A.A.A.A.A.~.oX%X#Xo.o.1.T.L.,.o.F.%X%X+.  5 &X&X&X&X&X&X&X&X&X",
"&X&X&X&X&X&X&X&X&X&X&X&X&X&X&X+   $.E.A.A.A.A.A.~.oX%X@X+   ^ W.n.c   A %X%X+.  5 &X&X&X&X&X&X&X&X&X",
"&X&X&X&X&X&X&X&X&X&X&X&X&X&X&X+   $.E.A.A.A.A.A.~.oX%X@X+   ^ !.n.c   A %X%X+.  5 &X&X&X&X&X&X&X&X&X",
"&X&X&X&X&X&X&X&X&X&X&X&X&X&X&X+   $.E.A.A.A.A.A.~.oX%X@X+   ^ !.n.c   A %X%X+.  5 &X&X&X&X&X&X&X&X&X",
"&X&X&X&X&X&X&X&X&X&X&X&X&X&X&X+   $.E.A.A.A.A.A.~.oX%X@X+   ^ !.n.c   A %X%X+.  5 &X&X&X&X&X&X&X&X&X",
"&X&X&X&X&X&X&X&X&X&X&X&X&X&X&X+   $.E.A.A.A.A.A.~.oX%X@X+   ! W.b.c   Z %X%X+.  5 &X&X&X&X&X&X&X&X&X",
"&X&X&X&X&X&X&X&X&X&X&X&X&X&X&X+   $.E.A.A.A.A.A.~.oX%X$XG.G.J.W.P.H.G.K.%X%X+.  5 &X&X&X&X&X&X&X&X&X",
"&X&X&X&X&X&X&X&X&X&X&X&X&X&X&X+   $.E.A.A.A.A.A.~.oX%X%X%X%XXXT.(.+X%X%X%X%XO.  5 &X&X&X&X&X&X&X&X&X",
"&X&X&X&X&X&X&X&X&X&X&X&X&X&X&X+   $.E.A.A.A.A.A.S._.[.].].].).C.^.`.].].].]...+ 5 &X&X&X&X&X&X&X&X&X",
"&X&X&X&X&X&X&X&X&X&X&X&X&X&X&X+ + #.R.A.A.A.A.A.A.A.R.R.R.R.A.A.A.A.R.R.A.T. .# 5 &X&X&X&X&X&X&X&X&X",
"&X&X&X&X&X&X&X&X&X&X&X&X&X&X&X&X&XT K L x.A.:.P Y t.A.A.A.A.A.A.A.A.A.u.U I R &X&X&X&X&X&X&X&X&X&X&X",
"&X&X&X&X&X&X&X&X&X&X&X&X&X&X&X&X&Xp @ % f.A.@.* ; 3.R.E.E.E.E.E.E.E.E.7.# @ B &X&X&X&X&X&X&X&X&X&X&X",
"&X&X&X&X&X&X&X&X&X&X&X&X&X&X&X&X&Xi + $ f.A.i.;.-.~ G G G G G G G G G H &X&X&X&X&X&X&X&X&X&X&X&X&X&X",
"&X&X&X&X&X&X&X&X&X&X&X&X&X&X&X&X&Xi + & d.D.R.A.U.C O .     o   .     6 &X&X&X&X&X&X&X&X&X&X&X&X&X&X",
"&X&X&X&X&X&X&X&X&X&X&X&X&X&X&X&X&X&X&X&XJ D %.A.Z.6.>.>.>.>.>.>.*.f   6 &X&X&X&X&X&X&X&X&X&X&X&X&X&X",
"&X&X&X&X&X&X&X&X&X&X&X&X&X&X&X&X&X&X&X&Xy o [ R.A.R.Q.Q.Q.Q.R.A.v.v = 9 &X&X&X&X&X&X&X&X&X&X&X&X&X&X",
"&X&X&X&X&X&X&X&X&X&X&X&X7 - - - - &X&X&Xe   [ R.A.A.A.A.A.A.A.A.N.9.2.&., - &X&X&X&X&X&X&X&X&X&X&X&X",
"&X&X&X&X&X&X&X&X&X&X&X&Xq 2 : : : &X&X&Xu   [ R.A.A.A.A.A.A.A.A.A.A.A.8.+   B &X&X&X&X&X&X&X&X&X&X&X",
"&X&X&X&X&X&X&X&X&X&Xe x =.5.4.4.4.` e w >   [ R.A.A.A.A.A.A.A.A.A.A.A.8.+   B &X&X&X&X&X&X&X&X&X&X&X",
"&X&X&X&X&X&X&X&X&X&X4 k y.A.A.A.A.| 8 3 3 3 | R.A.A.A.A.A.A.A.A.A.A.A.8.+   B &X&X&X&X&X&X&X&X&X&X&X",
"&X&X&X&X&X&X&X1 1 Q 0.w.M.A.A.A.A.d.0.0.0.0.s.V.A.A.A.A.A.A.A.A.A.A.A.8.+   B &X&X&X&X&X&X&X&X&X&X&X",
"&X&X&X&X&X&X&Xr t } T.B.c.z.m.A.A.A.A.R.R.R.A.A.A.A.A.A.A.A.A.A.A.A.A.8.+   B &X&X&X&X&X&X&X&X&X&X&X",
"&X&X&X&Xe , d r.e.k.R.l.F l W A.A.A.A.A.A.A.A.A.A.A.A.A.A.A.A.A.A.A.A.8.+   B &X&X&X&X&X&X&X&X&X&X&X",
"&X&X&X&Xe > s j.g.g.g.q.z > S h.g.g.g.g.g.g.g.g.g.g.g.g.g.g.g.g.g.g.g.<.< > V &X&X&X&X&X&X&X&X&X&X&X",
"&X&X&X&X&X&X&Xj j j g n &X&X&Xh j j j j j j j j j j j j j j j j j j j b &X&X&X&X&X&X&X&X&X&X&X&X&X&X",
"&X&X&X&X&X&X&X> > > > e &X&X&X1 > > > > > > > > > > > > > > > > > > > 0 &X&X&X&X&X&X&X&X&X&X&X&X&X&X",
"&X&X&X&X&X&X&X&X&X&X&X&X&X&X&X&X&X&X&X&X&X&X&X&X&X&X&X&X&X&X&X&X&X&X&X&X&X&X&X&X&X&X&X&X&X&X&X&X&X&X",
"&X&X&X&X&X&X&X&X&X&X&X&X&X&X&X&X&X&X&X&X&X&X&X&X&X&X&X&X&X&X&X&X&X&X&X&X&X&X&X&X&X&X&X&X&X&X&X&X&X&X",
"&X&X&X&X&X&X&X&X&X&X&X&X&X&X&X&X&X&X&X&X&X&X&X&X&X&X&X&X&X&X&X&X&X&X&X&X&X&X&X&X&X&X&X&X&X&X&X&X&X&X",
"&X&X&X&X&X&X&X&X&X&X&X&X&X&X&X&X&X&X&X&X&X&X&X&X&X&X&X&X&X&X&X&X&X&X&X&X&X&X&X&X&X&X&X&X&X&X&X&X&X&X",
"&X&X&X&X&X&X&X&X&X&X&X&X&X&X&X&X&X&X&X&X&X&X&X&X&X&X&X&X&X&X&X&X&X&X&X&X&X&X&X&X&X&X&X&X&X&X&X&X&X&X",
"&X&X&X&X&X&X&X&X&X&X&X&X&X&X&X&X&X&X&X&X&X&X&X&X&X&X&X&X&X&X&X&X&X&X&X&X&X&X&X&X&X&X&X&X&X&X&X&X&X&X",
"&X&X&X&X&X&X&X&X&X&X&X&X&X&X&X&X&X&X&X&X&X&X&X&X&X&X&X&X&X&X&X&X&X&X&X&X&X&X&X&X&X&X&X&X&X&X&X&X&X&X"
};
