/* XPM */
static char *_ba29247502f4391c2200c943053d25bdz4JUaWqruij5kMg[] = {
/* columns rows colors chars-per-pixel */
"50 50 202 2 ",
"   c None",
".  c #020101",
"X  c #0B0302",
"o  c #0B0905",
"O  c #0B0A0A",
"+  c #140303",
"@  c #1B0505",
"#  c #150D0D",
"$  c #1E0A0A",
"%  c #121212",
"&  c #1A1919",
"*  c #250605",
"=  c #2C0404",
"-  c #2D0904",
";  c #240A09",
":  c #2C0A0A",
">  c #300202",
",  c #350A05",
"<  c #3A0C01",
"1  c #330B0B",
"2  c #3C0A0A",
"3  c #3D0101",
"4  c #231413",
"5  c #2B1716",
"6  c #331515",
"7  c #351D1D",
"8  c #312D0F",
"9  c #362B12",
"0  c #332F0E",
"q  c #292121",
"w  c #460E02",
"e  c #4B0E03",
"r  c #450B0B",
"t  c #4B0C0C",
"y  c #420101",
"u  c #530404",
"i  c #5B0202",
"p  c #560E0E",
"a  c #561204",
"s  c #481816",
"d  c #551514",
"f  c #581817",
"g  c #660202",
"h  c #6A0C0C",
"j  c #610F0F",
"k  c #661111",
"l  c #6C1111",
"z  c #741212",
"x  c #7B1313",
"c  c #741E1C",
"v  c #7B100D",
"b  c #5F2714",
"n  c #432523",
"m  c #4B2928",
"M  c #512D2B",
"N  c #592B2A",
"B  c #693A37",
"V  c #474212",
"C  c #584214",
"Z  c #7A403E",
"A  c #4E4A49",
"S  c #6C4F4E",
"D  c #7F4442",
"F  c #7A7474",
"G  c #830404",
"H  c #880502",
"J  c #9C0303",
"K  c #990B0B",
"L  c #841515",
"P  c #8B1515",
"I  c #8E1911",
"U  c #8B1918",
"Y  c #941616",
"T  c #9E1919",
"R  c #9D1717",
"E  c #AB0302",
"W  c #A70B0C",
"Q  c #A30303",
"!  c #B40E0E",
"~  c #BB0808",
"^  c #A71F06",
"/  c #B01F01",
"(  c #AD1212",
")  c #A41919",
"_  c #AD1A1A",
"`  c #AB1615",
"'  c #B31414",
"]  c #BC1515",
"[  c #B41916",
"{  c #BC1D15",
"}  c #B51B1B",
"|  c #BA1C1C",
" . c #86211F",
".. c #97201F",
"X. c #AB2203",
"o. c #A12105",
"O. c #B52404",
"+. c #BB2602",
"@. c #BA220C",
"#. c #B7221C",
"$. c #BC201C",
"%. c #B9291A",
"&. c #A9211C",
"*. c #8D2421",
"=. c #952623",
"-. c #9B2523",
";. c #A32926",
":. c #A12724",
">. c #BE2221",
",. c #B02C29",
"<. c #BA2E2B",
"1. c #B12B27",
"2. c #BE302D",
"3. c #C20202",
"4. c #CD0605",
"5. c #C50D0D",
"6. c #CB0909",
"7. c #D20202",
"8. c #D40903",
"9. c #C11D16",
"0. c #C21713",
"q. c #C7190F",
"w. c #CC2802",
"e. c #CC240C",
"r. c #C62503",
"t. c #DA2402",
"y. c #D52806",
"u. c #D42807",
"i. c #DB2B02",
"p. c #DA2B03",
"a. c #D92903",
"s. c #D92A05",
"d. c #DA2B03",
"f. c #D12609",
"g. c #D72405",
"h. c #C32113",
"j. c #C52318",
"k. c #C42423",
"l. c #CC2928",
"z. c #C32B29",
"x. c #D22C2A",
"c. c #CF322F",
"v. c #C4312D",
"b. c #D9312E",
"n. c #D7302D",
"m. c #DC3431",
"M. c #D43330",
"N. c #E0382F",
"B. c #E13732",
"V. c #E13733",
"C. c #E43834",
"Z. c #E43834",
"A. c #E13D3A",
"S. c #DF413D",
"D. c #E1423E",
"F. c #E65D34",
"G. c #E86538",
"H. c #854643",
"J. c #8D4C4A",
"K. c #954E4B",
"L. c #845F5D",
"P. c #9D5452",
"I. c #A35552",
"U. c #B35E5B",
"Y. c #BA615E",
"T. c #88706F",
"R. c #856362",
"E. c #BE6460",
"W. c #DF4441",
"Q. c #D26540",
"!. c #E66942",
"~. c #C46763",
"^. c #C86965",
"/. c #DD7572",
"(. c #D56F6B",
"). c #EC7B76",
"_. c #E97D79",
"`. c #F37E79",
"'. c #BBAD33",
"]. c #DE8F2D",
"[. c #D08F30",
"{. c #C58838",
"}. c #E79D34",
"|. c #C5B632",
" X c #F3A839",
".X c #DCC838",
"XX c #F6C639",
"oX c #F5CD39",
"OX c #E9D637",
"+X c #E7C536",
"@X c #FEEA3C",
"#X c #FDE63C",
"$X c #FF847F",
"%X c #F6807B",
"&X c #989898",
"*X c #C98380",
"=X c #FF8480",
"-X c #F98C88",
";X c #F1B4B2",
":X c gray84",
">X c #FDD0CE",
",X c #F0C8C7",
/* pixels */
"                                . . . . . . . . . . . . . . . . . . . . . . .                       ",
"                                X . X . . X . . X . . X . X . . . . . X . . . o                     ",
"                              7 f d d d a a w e e w w w w < w w < < < , = : = *                     ",
"                        . . . : 2.C.C.B.s.i.w.w.w.w.w.+.+.+.+.O.X.X.X.^ I L x l @ . .               ",
"                        . . . 6 <.C.C.B.s.s.s.s.i.i.i.i.i.i.i.i.s.d.t.f.9.' [ Y * . . .             ",
"                        . . . 1 <.C.C.B.e.e.e.e.a.i.i.i.i.i.i.i.f.e.f.e.0.] 0.Y @ . . X             ",
"                        . . . : <.V.V.V.>.} } { y.a.i.i.i.i.i.f.{ | | ] 4.7.7.Q * . . .             ",
"                        o . o 6 =.,.,.,.>.k.| k.f.a.u.a.s.s.s.f.{ [ { ] 3.3.3.J * . . .             ",
"                                @ ; ; 1 c.m.b.n.j.$.| ] { @.$.9.6.4.4.W i 3 y 2                     ",
"                                . . . + c.B.B.b.$._ _ [ } } } 0.4.7.4.J = . . .                     ",
"                                O O . ; =.:.:.:.U L P Y [ $.| { E E E G , . o O                     ",
"                                        @ + @ @ + @ @ , O.a.y./ e = * =                             ",
"                                        X + X X . X X - +.i.i.X.< X X X                             ",
"                                o O o + G H H G z l l v r.i.a.r.H g g u                             ",
"                                . . . + 3.7.7.4.] } } { y.a.a.t.8.7.7.J = . . .                     ",
"                                . . . + ~ 7.4.6.] } } { y.s.t.t.8.7.7.J > . . .                     ",
"                                . . . + ` ] ] ] } } } | >.| h.q.8.7.7.J > . . .                     ",
"                                . X . + ) } } } } } } [ } [ | 0.4.7.7.Q > . . o                     ",
"                        %     = u i i i _ } } } } } } } } } } ] 6.4.7.J > X X .                     ",
"                        . . . > E 7.7.7.] } } } } } } } } } } } } #.} L : X . .                     ",
"                        . . . = E 7.7.7.{ } } } ] } } | | [ [ | } } } z @ . . . .                   ",
"% . . . . . . . . . . X X . . * / t.t.y.| } } } 6.6.6.6.6.6.6.5.} } _ z ; . . . . o                 ",
"O . . . . . . . . . . . X . . - O.a.a.i.{ } } ] 4.7.7.7.7.7.7.4.] } } R l * . . . . .               ",
"O . . . = 1 1 = X . . X @ * * w O.a.a.y.} } } ] 6.7.7.7.7.7.7.6.[ } } } ) z : . . . X . .           ",
"O . . + P } } Y : . . , o.a.i.y.$.} } } } } } } | | ] [ ] ] ] ] 6.5.] } } T z : . . . . . .         ",
"O . . @ L _ _ U : . . - o.a.a.f.$.} } } } } } } } } } } } } } 0.6.~ ` ` } } ) x 1 X . . . . .       ",
"        6 = : = X . . : I h.h.$.[ [ } } } } } } } } } } } } } } W h p x ) } } ) L 2 X . . . .       ",
"        o . . . . . . ; L } } | | } } } } } } } } } } } } } } } x @ X 2 x ) } } ` P r X . . . .     ",
"        o . . . . . . ; L } } } } } } } &.[ _ _ _ _ _ } } } } ) t X . X 1 z ) } } ' K u + . . . X   ",
"                O . . ; L } } } } } } ) r < 2 r r r r p ) } } Y 2 + X . X 1 l ) ] 5.4.E i + . . .   ",
"                O . . ; L } } } } #.} ) # o o o . . . @ Y } } P * .   . . . : z ! 4.7.4.E g X .     ",
"                O . . ; L } } } } } } &.C V n 0 O . . @ Y } ) j + n P.H.m X + h ! 7.7.7.7.J + .     ",
"                O . . ; L } } } } } } %..XOXOX|.8 . . + Y } T r . B -X`.J.4 r P ' 5.4.4.3.H + .     ",
"                O . . ; U >.>.} } } } %.oX@X#X.X8 . . @ Y } ) k 4 T.,X-XR.4 : P | [ 5.! ( v X .     ",
"                % . . : -.l.l.k.>.} } %.].}.}.[.b 2 2 t ) } } P 7 F q /.7 # X x } } [ ! ' K X .     ",
"                o . . : :.C.C.M.>.} | } } } #.} } } _ _ } ) h , M &X% (.5 & + t R } k.} ( K X .     ",
"                o . . ; *.<.2.<.>.} | $.| | $.$.} $.| } _ Y t ; L.:XA _.S A o @ x } x.x.} l X .     ",
"        % O O O . . . X @ ; : d <.m.b.m.m.n.n.b.n.n.n.z.p 2 : N *X>X>X-X;XT.# X t =.n.V.c ; . .     ",
"        O . . . . . . . . . . : ;.m.V.m.m.V.m.V.V.A.C.v.$ . 7 I.E.=X=X=X`.K.4 . X d :.c : . .       ",
"& O o O %           o o o . o 5 c *.*.*.=.=.=.-.-.;.;.=.+ . m U.D H.H.H.H.m O . . . : @ . .         ",
"O . . .                         . . . . . . . . . . . . . . 7 E.(.I.I.I.5 o   . . . . . . .         ",
"O . . .                         . . . . . . . . . . . . .   O K.$X$X$X$X~.B O o . . . . .           ",
"O . . o           C.A.A.              O . o . . . o . # B 4 X K.$X$X=X=X=XB &   O X . .             ",
"O . . .         W.A.C.A.                        O J.).`.`._._.$X$X$X=X=X=XD &     O o               ",
"% . . O         Q.G.F.G.                      O P.~.J.N ^.^.^.^.^.^.^.^.^.B &                       ",
"        o . . 8 '.@X#XXXG.C.C.A.                # #     # % # # # # # # #                           ",
"        % . . 9 '.#X@XXXG.C.C.A.                                                                    ",
"          O o 9 {. X X X!.D.C.D.                                                                    ",
"                W.C.C.m.                                                                            ",
"                W.C.C.D.                                                                            "
};
