/* XPM */
static char *_3b2322c738d40ddefa080ee9f65f014YuYDmmZtB5PIpQja[] = {
/* columns rows colors chars-per-pixel */
"50 50 196 2 ",
"   c None",
".  c #010101",
"X  c #0B0202",
"o  c #0B0A04",
"O  c #0B0B0B",
"+  c #140303",
"@  c #1B0505",
"#  c #130C0C",
"$  c #1C0B0A",
"%  c #131313",
"&  c #1E1010",
"*  c #191919",
"=  c #220606",
"-  c #2C0404",
";  c #2D0901",
":  c #240B0B",
">  c #2B0B0A",
",  c #360B01",
"<  c #3C0C01",
"1  c #330909",
"2  c #3C0B0B",
"3  c #3E0202",
"4  c #211111",
"5  c #271616",
"6  c #381817",
"7  c #361818",
"8  c #2D2A0F",
"9  c #312D0C",
"0  c #342F11",
"q  c #3F3A11",
"w  c #3B370E",
"e  c #292121",
"r  c #450101",
"t  c #4C0101",
"y  c #410D02",
"u  c #440C0C",
"i  c #4B0E0E",
"p  c #490F01",
"a  c #540202",
"s  c #5B0101",
"d  c #530E0E",
"f  c #5B0F0F",
"g  c #4E1105",
"h  c #571409",
"j  c #441312",
"k  c #4E1312",
"l  c #401918",
"z  c #5B1111",
"x  c #591817",
"c  c #561010",
"v  c #6C0404",
"b  c #640F0F",
"n  c #6A0A0A",
"m  c #7F0404",
"M  c #671005",
"N  c #641010",
"B  c #671716",
"V  c #721212",
"C  c #7C1414",
"Z  c #731D1B",
"A  c #443D11",
"S  c #5C2914",
"D  c #412322",
"F  c #502D2C",
"G  c #533434",
"H  c #6A3836",
"J  c #4D4544",
"K  c #7F4442",
"L  c #6F5150",
"P  c #850202",
"I  c #890808",
"U  c #940D0D",
"Y  c #980606",
"T  c #8F1103",
"R  c #841414",
"E  c #8C1515",
"W  c #931616",
"Q  c #971B1A",
"!  c #9D1818",
"~  c #921B0B",
"^  c #A20303",
"/  c #BA0101",
"(  c #B50D0C",
")  c #AD1111",
"_  c #A21A1A",
"`  c #AD1A1B",
"'  c #BC1515",
"]  c #B21815",
"[  c #BD1F16",
"{  c #B51B1B",
"}  c #B91C1C",
"|  c #B11414",
" . c #89211F",
".. c #A52102",
"X. c #AA2206",
"o. c #B52502",
"O. c #BA2402",
"+. c #A6211C",
"@. c #B7201C",
"#. c #BD201D",
"$. c #B82A1B",
"%. c #B8311B",
"&. c #8C2321",
"*. c #982623",
"=. c #AB2B28",
"-. c #A92927",
";. c #BE2120",
":. c #B42C29",
">. c #BA2E2B",
",. c #C40202",
"<. c #CE0505",
"1. c #CF0C07",
"2. c #C40D0D",
"3. c #CB0909",
"4. c #D30101",
"5. c #C8180D",
"6. c #D81002",
"7. c #C01112",
"8. c #CB2802",
"9. c #CB240D",
"0. c #C42705",
"q. c #D72405",
"w. c #DB2601",
"e. c #D52806",
"r. c #DB2B02",
"t. c #D12709",
"y. c #C42112",
"u. c #C3231B",
"i. c #C12322",
"p. c #CB2827",
"a. c #C72C2A",
"s. c #D42D2A",
"d. c #C4322E",
"f. c #D7302D",
"g. c #DA322E",
"h. c #DF382E",
"j. c #DD3431",
"k. c #E23630",
"l. c #E43834",
"z. c #E13D3A",
"x. c #AC7A39",
"c. c #DC433F",
"v. c #E1403D",
"b. c #E65A34",
"n. c #EA6239",
"m. c #854643",
"M. c #8F4D4B",
"N. c #924C4A",
"B. c #925856",
"V. c #A35754",
"C. c #B35E5B",
"Z. c #BA615E",
"A. c #BE6460",
"S. c #DC4B49",
"D. c #DC4541",
"F. c #E34844",
"G. c #C56444",
"H. c #E06549",
"J. c #C86965",
"K. c #D36E6A",
"L. c #DD7572",
"P. c #E97A75",
"I. c #E37975",
"U. c #F17D78",
"Y. c #958A2D",
"T. c #D29531",
"R. c #C4B532",
"E. c #E6A431",
"W. c #EEA136",
"Q. c #F3A839",
"!. c #DDCB38",
"~. c #E9D638",
"^. c #FEEA3C",
"/. c #FEE63E",
"(. c #E98E40",
"). c #E1827E",
"_. c #FF847F",
"`. c #F6807B",
"'. c #878787",
"]. c #939393",
"[. c #AF9F9E",
"{. c #A58786",
"}. c gray69",
"|. c #A4A4A4",
" X c #FF8580",
".X c #FC8E8A",
"XX c #FF8A85",
"oX c #FF908C",
"OX c #FDB1AE",
"+X c #FDBDB9",
"@X c #F3B0AD",
"#X c #CCCCCC",
"$X c gray84",
"%X c #FDD0CE",
"&X c #F0CECD",
"*X c #F8E1E0",
/* pixels */
"                                                                          S.l.l.l.S.                ",
"                                                                          D.l.l.l.S.                ",
"                                                                  D.l.z.F.(.Q.Q.Q.x.. o O           ",
"                      M.V.V.V.V.V.V.H                             v.l.l.l.W.^.^.^.Y.. . . %         ",
"                  5 A.U._. X.X.XXXoX).B.O                         z.l.l.l.W.^.^.^.Y.. . . o         ",
"                  & I. X_.@X*X&X.X@X*X[..                                 H.b.b.n.G.        O . . % ",
"          . o     & P._._.+X#Xe L.G ].}..                                 c.l.l.l.S.        . . . O ",
"        . . . o o & P._._.+X#X@ L.e ].}.o . . o . . . o . O                 z.l.l.          o . . O ",
"      . . . . . O O P. XU.+X$XJ I.L |.'.. . . . . . . . . . . . .                           . . . O ",
"    . . . . . . . o K._.U.OX%X%X.X+X{.% . . . . . . . . . . . . .                           . . . O ",
"    . . + 2 . . . . H L.C.J._._. X_.4 . @ =.=.=.=.*.*.-.&.*.&.&. .6 O . . o O o           % O o O * ",
"  . . = Z >.Z X . . . C.C.K m.m.m.H . . : l.l.l.l.l.l.l.l.l.l.l.l.j . . . . . . . . . . . O         ",
". . $ B l.l.-.V + . . F C.K.V.V.H = 1 2 z f.f.f.f.f.f.f.j.j.g.g.j.x > > = + . . . . O O O %         ",
". . n ] s.f.;.! 1 . . o N. X_._.6 X N ` { { } @.} @.@.} } } } } } a.d.d.d.k . . . O                 ",
". . U | ` ;.{ { V + . X N. X_.N.- u C { { ` ` ` { @.@.{ { { } { { f.l.l.l.x . . . O                 ",
". . U | ) ' { { { @ . 5 `. X_.D u { { { Q 1 1 1 S T.E.E.E.$.{ { { a.p.p.p.x . . . *                 ",
". . n ) ( 2.' { { u + 7 Z.J.J.& @ R { { E . . . 0 !.^.^./.%.{ { { { } @.} k . . . O                 ",
". X P ,.4.4.3.' ! b + o # # # . . b { { E . . . 8 R.~.~.~.%.{ { { { { { { i . . . %                 ",
". X Y 4.4.4.4.2.I $ . .       . @ R { { E . . . o 9 w A A +.{ { { { { { { j . . . %                 ",
". . s Y <.4.4.2.W i X . .     . u { { { E . . . . . . . . ! { { { { { { { i . . . O                 ",
". . . t Y ,.3.' { R d + . . @ + d } { { _ d i i u u u u 2 _ { { { { { { } i . . . %                 ",
". . . . 3 U | { { { W c @ . . X V } { { { { { { { { { { { { { { { { { { { i . . . . . . . O         ",
". . . . . - C ! { { { ! z @ . = { { { { { { { { { { { { { { { { } } { { { i . . . . . . . O         ",
"  . . . . . $ V ! { { { _ b f I 7.{ { { { { { { { { { { { { { { ] #.y.y.y.d . . . + 1 - - 7         ",
"  . . . . . . + N Q { { { ` ) 4.3.} { { { { { { { { { { { { { { { 9.r.r.r.h . . . i { { { C X . . O ",
"    . . . . . . X z W { { { ' <.2.' ' ' ' ] ' { } { { { { { { { } t.r.r.r.h . . . i { { { C . . . O ",
"      . . o . . . . d E { { { { ' 4.4.4.4.4.4.4.<.' } { } t.r.r.r.g @ @ @ X . . . + - > 1 = . . . O ",
"            . . . . . u R { { { 7.4.4.4.4.4.4.4.<.' { { { r.r.r.r.y . . . . . . . . . . . . . . . O ",
"              . . . . . u _ { { ' 3.3.3.3.3.3.3.3.{ { { { q.q.w.w.y . . . o . . . . . . . . . . . % ",
"                . . . X 1 { { { { { { { { { { { } { { { } 4.4.4.4.3 . . .                           ",
"                . . X X f { @.@.{ { { { { { { { { { { { } 4.4.4.4.r . . .                           ",
"                . . + . v 4.4.4.3.{ { { { { { { { { { { { a t a a -     %                           ",
"                o . . . v 4.4.4.1.} } { @.] { { { { { { { + . . .                                   ",
"                . . . . v 4.4.4.1.y.y.7.#.@.{ { } ' ' ' ' + . . .                                   ",
"                . . . . v 4.4.4.6.r.r.r.e.} } { ' <.<.4.<.+ . . .                                   ",
"                . . . . v 4.4.4.6.r.r.r.e.] { { ' <.4.4.4.@ . . .                                   ",
"                        u a s s T r.r.r.0.N b b B m P P P @ . O o                                   ",
"                        X . . . g r.r.r.X.. . . . . . X .                                           ",
"                        - - - - M e.e.r.X.@ @ @ + @ @ + @                                           ",
"                O o . o v / / / ( [ @.#.] W W W Q =.:.-.=.: . O O                                   ",
"                . . . . v 4.4.4.1.{ { { { { ] ] ;.j.l.l.l.@ . . .                                   ",
"                u t r r I 3.3.<.5.#.} O.#.7.#.#.#.f.j.j.j.2 = = =                                   ",
"        . . . . Y 4.4.4.2.{ } { y.r.r.r.r.r.e.r.t.#.} ;.;.>.>.>.>.l O . o                           ",
"        . . . . I 4.4.4.2.{ } { y.r.r.r.r.r.r.r.r.#.{ } } l.l.l.l.j . . .                           ",
"        o . . . R ' ' ' 5.t.t.t.e.r.r.r.r.r.r.r.w.9.9.9.9.k.l.l.l.j . . .                           ",
"        . . . . C } ] } 9.r.r.r.r.r.r.r.r.r.r.r.r.r.r.r.r.h.l.l.l.j . . .                           ",
"          . . X z V C C ~ ......X.o.o.o.O.O.8.8.8.8.8.r.r.h.l.l.l.j . . .                           ",
"                @ @ = @ ; ; ; ; ; , , , < < < , y y , g g k k k x 6                                 ",
"                o . . . . . . . . . . . . . . . . . . . . . . . .                                   ",
"                  . . . . . . . . . . . . . . . . . . . . . . . .                                   "
};
