/* XPM */
static char *df6921edbc1143ea97fedd5e9dde0322lW3epqt7PsgZOA7G[] = {
/* columns rows colors chars-per-pixel */
"50 50 205 2 ",
"   c None",
".  c #020101",
"X  c #0A0303",
"o  c #0A0905",
"O  c #0B0B0B",
"+  c #140303",
"@  c #1C0504",
"#  c #130A0A",
"$  c #1D0B0B",
"%  c #19120F",
"&  c gray7",
"*  c #181818",
"=  c #230606",
"-  c #2B0606",
";  c #2C0903",
":  c #230A0A",
">  c #2B0909",
",  c #250802",
"<  c #340303",
"1  c #330B03",
"2  c #3C0C02",
"3  c #310B0B",
"4  c #3C0A0A",
"5  c #37100F",
"6  c #38100F",
"7  c #2A1515",
"8  c #2C1B1A",
"9  c #211918",
"0  c #311918",
"q  c #371615",
"w  c #2C280D",
"e  c #302D0F",
"r  c #332B11",
"t  c #39350F",
"y  c #323232",
"u  c #3B2929",
"i  c #4C0303",
"p  c #400B0A",
"a  c #4B0C0C",
"s  c #450A02",
"d  c #530101",
"f  c #520E0E",
"g  c #5F0F0F",
"h  c #5A0704",
"j  c #4D1312",
"k  c #571514",
"l  c #4C1105",
"z  c #620E0E",
"x  c #690606",
"c  c #7C0202",
"v  c #780A08",
"b  c #641111",
"n  c #6B1111",
"m  c #751212",
"M  c #7B1414",
"N  c #73140D",
"B  c #522F12",
"V  c #76201E",
"C  c #472726",
"Z  c #532C2B",
"A  c #5B302E",
"S  c #5E3331",
"D  c #6A3837",
"F  c #773D3B",
"G  c #7A403E",
"H  c #575050",
"J  c #784847",
"K  c #725E5C",
"L  c #786E6D",
"P  c #980909",
"I  c #991D0B",
"U  c #841514",
"Y  c #8B1615",
"T  c #871A1A",
"R  c #941616",
"E  c #9C1919",
"W  c #9B1717",
"Q  c #A20303",
"!  c #AB0202",
"~  c #AE0D0D",
"^  c #BB0303",
"/  c #B60707",
"(  c #AF1F06",
")  c #AE1212",
"_  c #A41919",
"`  c #AB1A1A",
"'  c #B31413",
"]  c #BC1515",
"[  c #B41A16",
"{  c #BD1D15",
"}  c #B51B1B",
"|  c #B91C1B",
" . c #B91E01",
".. c #9F2004",
"X. c #9A201F",
"o. c #85211E",
"O. c #A42102",
"+. c #AB2303",
"@. c #B42403",
"#. c #BB2402",
"$. c #BA2309",
"%. c #B7201C",
"&. c #BC221D",
"*. c #B92A1C",
"=. c #BC2417",
"-. c #A8201C",
";. c #8E2320",
":. c #932523",
">. c #9C2623",
",. c #A62A27",
"<. c #AB2C29",
"1. c #AF2927",
"2. c #BD2120",
"3. c #BB2E2B",
"4. c #B42C28",
"5. c #C50303",
"6. c #CC0404",
"7. c #C50C0C",
"8. c #CA0A0A",
"9. c #D30101",
"0. c #D10904",
"q. c #C11514",
"w. c #C11C14",
"e. c #C91A0D",
"r. c #C52703",
"t. c #C82703",
"y. c #CC240C",
"u. c #CD2802",
"i. c #D52305",
"p. c #DA2402",
"a. c #D52906",
"s. c #DB2B02",
"d. c #D22709",
"f. c #C62211",
"g. c #C12219",
"h. c #C82A28",
"j. c #D42E2B",
"k. c #CB322F",
"l. c #C6322E",
"z. c #D9322E",
"x. c #D4322F",
"c. c #DC3431",
"v. c #E23732",
"b. c #E43834",
"n. c #E13D39",
"m. c #DF403C",
"M. c #E1423E",
"N. c #E65C38",
"B. c #E96B35",
"V. c #8B4946",
"C. c #884B49",
"Z. c #944E4C",
"A. c #904946",
"S. c #9A514E",
"D. c #9C5855",
"F. c #805857",
"G. c #A85855",
"H. c #B75F5C",
"J. c #B6605D",
"K. c #847A7A",
"L. c #BC6562",
"P. c #A3716F",
"I. c #A97977",
"U. c #DF4442",
"Y. c #D36240",
"T. c #E66A42",
"R. c #CC6A67",
"E. c #D36E6A",
"W. c #CE736F",
"Q. c #D7706C",
"!. c #D97E7B",
"~. c #E57C78",
"^. c #F47F7A",
"/. c #BCAC33",
"(. c #BAAC2F",
"). c #CC9135",
"_. c #EF9E3D",
"`. c #E2992F",
"'. c #DCBB34",
"]. c #E8A932",
"[. c #F3AA39",
"{. c #DCCA35",
"}. c #F6C639",
"|. c #F5D03A",
" X c #FDE93C",
".X c #FDE73C",
"XX c #F6807B",
"oX c #FD837E",
"OX c #978686",
"+X c #9A9898",
"@X c #B78F8E",
"#X c #CD8583",
"$X c #DB8582",
"%X c #FA8985",
"&X c #F9938F",
"*X c #FC9E9A",
"=X c #FE9490",
"-X c #E7918D",
";X c #C8B2B1",
":X c #E3ACAA",
">X c #F8ABA9",
",X c #F4B0AD",
"<X c #F5BBB9",
"1X c #E8BEBC",
"2X c #E4C2C0",
/* pixels */
"                                          O O O O O                           * O O O O &           ",
"                                          . . . . .                           O . . . . .           ",
"                                          . . . . .                           O . . . . o           ",
"                                          . . X = -                           O . . o . O           ",
"                                          . . = U R 6 O O                 & O &           o O       ",
"                                          . . > ` | < . .                 O .             . . O     ",
"                                          . . - ` } 4 . .                 O .             . . X     ",
"                                          . . @ M T - . .                 o .             e e r     ",
"                                          . . X - - X . . O o O O o O O . . .         U.Y././.).U.U.",
"                                          . . . . . . . . . . . . . . . . . .       b.b.N..X.X[.b.b.",
"                                          . . . . . . . . . . . . . . . . . . O     n.n.N..X X[.b.b.",
"                                          X . . 3 1 > > - > - : > > 3 3 > X . O       c.N.}.}._.M.M.",
"      . . . . o                     & . . . . + O.+.I Y Y Y Y T Y T >.,.:.: . .           B.B.T.    ",
"      . . . . .                       . . . . @ t.s.f.} } } } } } } h.v.k.3 . .           b.b.M.    ",
"      . . . . O                       . . . . @ u.s.f.} } } } } } | h.v.l.3 . O           b.b.b.    ",
"    q 6 5 5 3 q                     - < - 1 > 2 y.d.g.} } } } } } [ h.z.l.k 3 7           n.n.m.    ",
". . k k.k.k.k.<.> . O     o . . . . i ! ^  .@.#.{ | [ | } } } } } } %.&.2.3.1.V X .                 ",
". . j v.b.b.b.3.> . O     O . . . . i 5.9.p.s.s.| [ [ } } } } } } } } } } z.b.;.X .                 ",
". . j v.b.b.b.3.: . .     . . . . . i 5.9.p.s.s.| } } } } } } } } } } | | z.b.:.. .                 ",
". . j z.v.v.b.3.p @ :     @ @ + + + d 6.9.i.s.a.| } } } %._ _ -.*.*.*.%.| c.b.:.X . O               ",
". . s s.s.y.| | c.c.<.= . c 5.5.' ` ` | ] | | | } } } } } f + B {.|.`.%.| z.b.>.X . .               ",
". . l s.s.y.[ h.c.b.<.@ X c 9.9.] [ } } } | } } } } } } } a o t {. X].%.| x.b.>.o . o               ",
". . 2 r.s.y.[ | z.b.4.: . c 9.6.] } } } } } } } } } } } } a . t {. X].2.%.x.b.>.. . .               ",
". . s r.s.y.g.&.j.c.1.= . v 5.0.] [ } } } } ] ] } %.} } } a . w (.{.).2.} j.b.,.X . .               ",
". . 2 r.s.s.s.d.g.&.E @ . b ' } | } } } | 8.6.6.| } } } } a . o w r B } | j.b.<.X . .               ",
". . 2 r.s.s.s.s.&.[ R = . g } } } } } } } 8.0.9.| } } } } f . . . . 3 _ } j.b.<.X . o               ",
". . 2 r.s.s.s.a.w.} R = . g ` [ } } } } } 8.9.9.] } } } } f X . . . 3 _ | x.b.<.X . .               ",
". . 2 @.s.s.s.s.q.} W 4 , N [ { | } } } } 8.9.9.] } } } } n @ + + + p _ } h.k.>.. . .               ",
". . 2 @.s.s.s.s.g.} [ @.@.t.a.a.2.| } } } 8.9.9.] | } } } _ E R R R E } } g : @ . . % C             ",
". . 1 @.s.s.s.s.$.[ &.s.s.s.s.s.w.} } } } 8.9.9.] } } } } } } } } [ } ` E p . . X S Z.G.J           ",
". . 1 @.s.s.s.s.&.} | d.s.s.s.s.w.2.} } } 8.9.9.q.} } } } } } ` E _ } m a > # 7 F R.XX~.J.D         ",
". . 1 +.s.s.d.a.w.] ] ( ( r.p.p.e.q.] } } 7.6.6.q.q.| } _ R R n a b R p X > V.Q.XXoXoX%X~.S.        ",
". . ; O.s.d.w.=.8.0.^ h 1 v 0.0.0.0.6.| [ } ] } 8.6.) U f 4 3 + . $ 3 = $ D R.^.%X=X*X>X=XL.S       ",
". . ; O.s.d.| } 8.9.^ < . d 6.9.9.9.9.| } | } } 7.5.v = . + . 7 Z Z 9 # D G.R.%X*X>X1X2X,X!.Z.      ",
". . ; O.s.d.| } 6.9.^ < . d 6.9.9.9.9.| } ` } } ] ) z + . +   C R.Q.C Z Z.G.H.$X<X;XOXK.:X%XJ.C     ",
". . ; I d.y.] q.~ Q P - X i P Q Q Q Q Y M m W } } } U 4 + . . # V.E.H.H.E.H.S.~.<XOXF.Z.#X&XW.C.    ",
". . , U =.e.8.5.x < 1 -     < < < < < < $ = b E ` } ` U 4 X . . 7 F A.G.^.H.A.E.>X#XD.C.P.:X$XJ     ",
". . $ M [ ] 9.9.i . X       . . . . X X . . @ n E } } _ M 4 X . X @ # 0 F F J Z.~.-XI.L L ;X@XJ     ",
". . @ m } ] 9.9.d . X       . . . . X . . . . @ n E } } _ m 3 + 4 - + X + $ 7 0 G I.@X+X+XK.H u     ",
"  X @ b Y R ! ! i . O       . . . X . . . . . . > m _ } } _ m z U Y m f = X . . O 8 L L H y O       ",
"      , - - - <                         . . . . . - m _ | } ' ~ ' } } W M a X . . . & 9 o           ",
"      . . . . .                           o . . . X 3 U ' 7.6.9.7.] } } %.>.k X . . . O             ",
"      . . . . .                             . . . . X 4 P 5.9.9.9.q.] 2.h.x.>.> . . . o             ",
"        . X . .                               X . . . X i P 6.9.9./ ' ` j.b.;.- . . .               ",
"                                              . . . . . X d Q 9.5.~ ' ' | T 3 . . .                 ",
"                                                . . . . . X h Q P v W P m > o . .                   ",
"                                                  . . . . . X @ + + + + X X . .                     ",
"                                                      . . . . . . . . . . .                         ",
"                                                        o .                                         ",
"                                                                                                    "
};
