/* XPM */
static char *_91bd29a72e8418eec67e7884bc000b9dWomjnFcKabCi5a5[] = {
/* columns rows colors chars-per-pixel */
"50 50 198 2 ",
"   c None",
".  c #010101",
"X  c #0B0303",
"o  c #0B0A04",
"O  c #0B0B0B",
"+  c #140403",
"@  c #1B0505",
"#  c #140C0B",
"$  c #1B0C0C",
"%  c #131313",
"&  c #191919",
"*  c #220606",
"=  c #2C0404",
"-  c #2D0901",
";  c #240B0B",
":  c #2B0B0A",
">  c #360B01",
",  c #3C0C01",
"<  c #330909",
"1  c #3C0B0B",
"2  c #3E0202",
"3  c #241413",
"4  c #281514",
"5  c #381817",
"6  c #361919",
"7  c #2D2A0F",
"8  c #312D0C",
"9  c #342F11",
"0  c #3F3A11",
"q  c #3B370E",
"w  c #373636",
"e  c #450101",
"r  c #4C0101",
"t  c #410D02",
"y  c #440C0C",
"u  c #4B0E0E",
"i  c #490F01",
"p  c #540202",
"a  c #5B0101",
"s  c #530E0E",
"d  c #5B0F0F",
"f  c #4E1105",
"g  c #571409",
"h  c #441312",
"j  c #4E1312",
"k  c #401918",
"l  c #5B1111",
"z  c #591817",
"x  c #561010",
"c  c #6C0404",
"v  c #640F0F",
"b  c #6A0A0A",
"n  c #7F0404",
"m  c #671005",
"M  c #641010",
"N  c #671716",
"B  c #721212",
"V  c #7C1414",
"C  c #731D1B",
"Z  c #443D11",
"A  c #5C2914",
"S  c #422221",
"D  c #522C2B",
"F  c #59302D",
"G  c #563A39",
"H  c #6B3C3A",
"J  c gray35",
"K  c #595251",
"L  c #7B4341",
"P  c #6C6362",
"I  c #736969",
"U  c #850202",
"Y  c #890808",
"T  c #940D0D",
"R  c #980606",
"E  c #8F1103",
"W  c #841414",
"Q  c #8C1515",
"!  c #931616",
"~  c #971B1A",
"^  c #9D1818",
"/  c #921B0B",
"(  c #A20303",
")  c #BA0101",
"_  c #B50D0C",
"`  c #AD1111",
"'  c #A21A1A",
"]  c #AD1A1B",
"[  c #BC1515",
"{  c #B21815",
"}  c #B51B1B",
"|  c #B91C1C",
" . c #B71A15",
".. c #89211F",
"X. c #A52102",
"o. c #AA2206",
"O. c #B52502",
"+. c #BA2402",
"@. c #B7201C",
"#. c #BD201D",
"$. c #B82A1B",
"%. c #B8311B",
"&. c #A6211C",
"*. c #8C2321",
"=. c #982623",
"-. c #AB2B28",
";. c #A92927",
":. c #BE2120",
">. c #B42C29",
",. c #BA2E2B",
"<. c #C40202",
"1. c #CE0505",
"2. c #CF0C07",
"3. c #C40D0D",
"4. c #CB0909",
"5. c #D30101",
"6. c #C8180D",
"7. c #D81002",
"8. c #C01112",
"9. c #CB2802",
"0. c #CB240D",
"q. c #C42705",
"w. c #DB2601",
"e. c #D52806",
"r. c #DB2B02",
"t. c #D12709",
"y. c #D72405",
"u. c #C42112",
"i. c #C3231B",
"p. c #C12322",
"a. c #CB2827",
"s. c #C72C2A",
"d. c #D42D2A",
"f. c #C4322E",
"g. c #D7302D",
"h. c #DA322E",
"j. c #DF382E",
"k. c #DD3431",
"l. c #E23630",
"z. c #E43834",
"x. c #E13D3A",
"c. c #AC7A39",
"v. c #DC433F",
"b. c #E1403D",
"n. c #E65A34",
"m. c #EA6239",
"M. c #814341",
"N. c #894845",
"B. c #8B4C4A",
"V. c #8F504E",
"C. c #9C524F",
"Z. c #94504D",
"A. c #AF5E5A",
"S. c #A85957",
"D. c #B25E5A",
"F. c #BC625E",
"G. c #AE6D6B",
"H. c #B87573",
"J. c #DC4845",
"K. c #E34844",
"L. c #C56444",
"P. c #E06549",
"I. c #C66764",
"U. c #D56F6B",
"Y. c #DC736E",
"T. c #E57671",
"R. c #EE7C77",
"E. c #EE7B78",
"W. c #958A2D",
"Q. c #D29531",
"!. c #C4B532",
"~. c #E6A431",
"^. c #EEA136",
"/. c #F3A839",
"(. c #DDCB38",
"). c #E9D638",
"_. c #FEEA3C",
"`. c #FEE63E",
"'. c #E98E40",
"]. c #FD837E",
"[. c #F5807B",
"{. c #9B8C8C",
"}. c #A2A2A2",
"|. c #B0ABAB",
" X c #C89F9D",
".X c #FD8D88",
"XX c #EE908D",
"oX c #F5908C",
"OX c #E39B98",
"+X c #FD9996",
"@X c #FEA29E",
"#X c #DDBEBD",
"$X c #C6B6B5",
"%X c #FDA4A0",
"&X c #F9B8B5",
"*X c #DCC4C3",
"=X c #E4C7C5",
"-X c #FAC7C5",
/* pixels */
"        . . . . . O                           . . . . .                                             ",
"        . . . . . o                           . . . . .                                             ",
"        O . o . . O                           X . . . .                                             ",
"    % o           % O %                 O O 6 V V * . .                                             ",
"  O . .             . O                 . . = } } < . .                                             ",
"  o . .             . O                 . . = } } : . .                                             ",
"  . . .             . O                 . . < } } = . .                                             ",
"J.c.W.W.L.J.        . . O O & O % % O % . . + u u + . .                                             ",
"x./._._.m.z.z.      . . . . . . . . . . . . . . . . . .                                             ",
"z./._._.n.z.z.    o . . . . . . . . . . . . . . . . . .                                             ",
"z./._._.n.z.x.    O . . . . . . . . . . . . . . . . . .                                             ",
"J.'.^.^.P.v.      o . + j z z j u h u u u u s g g X . o                                             ",
"  K.z.z.          . . ; f.z.a.| } } } | } } u.r.r.@ . . . . %                     o . . . .         ",
"  x.z.z.          . . : f.z.a.@.} } } } } } u.r.r.@ . . . .                       . . . . .         ",
"  z.z.z.          O . : f.z.a.| } } } } } } u.r.r.@ . . . .                       O . . . .         ",
"  J.x.x.          5 h N ,.h.p.} } } } } } | #.0.t.f t , e e =                     k h h h h 5       ",
"              . . *.l.k.| } } } } } } } } | { } | r.r.w.5.5.p . . . . o     O . * ,.l.z.z.z.z . .   ",
"              . . *.z.h.| } } } } } } } } } } } } r.r.r.5.5.p . . . . O     O . ; ,.z.z.z.z.j . .   ",
"              . . *.z.k.| | } } } } } } } } } } } r.r.y.5.5.r . . . . .     . . ; ,.z.z.z.z.j . .   ",
"            O . . =.z.k.| } $.%.%.&.^ ' } } } } } e.r.y.5.5.p + + + @ @     ; @ 1 ,.z.l.l.j.j . .   ",
"            . . . =.z.h.| } ~.`.).Z . 1 } } } } } } } } | | } } [ 1.5.U . @ -.z.k.:.| 0.r.r.f . .   ",
"            o . . =.z.g.| } ~._.).Z . y } } } } } } } } } } } } [ 5.5.U X + -.z.k.:.} 0.r.r.f . .   ",
"            . . . =.z.g.@.@.~._.).q . y } } } } } } } } } } } } [ 1.5.U . @ >.l.h.| } 0.r.9., . .   ",
"            . . . ;.z.g.@.@.Q.(.!.8 . y } } } } } [ [ } } } } } [ 1.1.U . @ -.k.g.#.| 0.r.9.t . .   ",
"            . . . ;.z.g.} } A 9 7 o . y } } } } | 1.1.4.| } } } | [ [ M . @ ~ #.i.t.y.r.r.9.t . .   ",
"            o . . -.z.g.@.] < . . . . u } } } } | 5.5.4.} } } } } } } M . @ ! { #.r.r.r.r.9., . .   ",
"            . . . -.z.g.| ] < . . . . u } } } } [ 5.5.4.} } } } } } } M . @ ! { #.e.r.r.r.q., . .   ",
"            . . . -.z.g.} ] < . . . . s } } } } { 5.5.4.} } } { | } { M . @ ! } 8.r.r.r.r.+., . .   ",
"            o . . @ : l } } ~ Q Q Q Q ' } } } } [ 5.5.4.} } } | #.e.e.q.o.o.{ } #.r.r.r.r.+., . .   ",
"        O . . . . . . 1 ] } | } } } } } } } } } [ 5.5.4.} } } { #.r.r.r.r.r.#.} +.r.r.r.r.O.> . .   ",
"        G J J J w O . < v V } } } } } } } } } } [ 5.5.4.} } } | u.r.r.r.r.e.@. .#.r.r.r.r.O.> . .   ",
"      H H.$X}.}.|. XH * X y } W v W } | | } } | [ 5.5.4.} } } | u.r.r.r.r.e.#.} #.r.r.r.r.O.> . .   ",
"      C.XX#XI P {.&XU.9 @ = y @ . @ y s B } [ 4.3.[ [ [ } } 4.2.2.7.7.E f m _ 2.3.u.u.e.r.o.- . .   ",
"      A.oXOXZ.N.G.@XR.M.H M.S 4 . . . + X : Y 5.1.} } } } @.5.5.5.5.5.a . = ) 5.1.| } t.r.X.- . .   ",
"      A.oXOXV.N.G.@XR.N.A.].].[.D.#   @ . . s ` [ } } } } | 5.5.5.5.5.a . = ) 5.4.} | t.r.X.- . .   ",
"      A.+X*XI P {.-XE.N.A..X].[.F.#   . . @ M ] } } { ' } | 5.5.5.5.5.p . = ) 5.1.} } t.w.X.- . .   ",
"      F.+X-X=X=X=X&XU.N.I.].].T.C.O . . @ l ' } } } Q y < d c c c c c u X = b c Y 3.3.6.0./ - . .   ",
"      A.oX+X%X%X+XoXD.V.F.D : 5 6 . . + x ^ } } } Q y . X X . . . . .       o . e 5.4.[ | V @ . .   ",
"      S.[..X].].T.F.M.4 O . . @ + . X x ! } } } ! s . . . . + . . . .       . . e 5.5.[ { V * . .   ",
"      M.Y.[.R.M.F $ X . . + @ y M @ u W } } } ! d . . . . . . . . . .       o . r 5.5.[ | B * . .   ",
"        L B.D O . . . + < B } } ^ T Q } } } ^ M X . . . . . . o . . .       O . y R R V V l @ o     ",
"        3 # o . . . + M ^ } } } [ 3.3.[ | ' B + . . . .                           . . . . X         ",
"          O . . . . C >.:.| } [ 4.5.5.4.` V @ . . . .                             . . . . .         ",
"          . . . . 1 ,.x.g.:.{ 3.5.5.5.<.T = . . . o                               . . . . .         ",
"            . . . + C z.d.{ ` _ 5.5.5.R 2 . . . . .                               . . o .           ",
"              . . . @ N { ` ` ` <.5.( r . . . . . .                                                 ",
"                . . . $ B T T b Y R p . . . . . .                                                   ",
"                    . . . . . . . X . . . . . .                                                     ",
"                      . . . . . . . . . . .                                                         ",
"                                      . X                                                           "
};
