/* XPM */
static char *_d62edf69c6a47bf954390c8e987df83K6rw90tIvk8KzH2Y[] = {
/* columns rows colors chars-per-pixel */
"50 50 230 2 ",
"   c None",
".  c #060606",
"X  c #070809",
"o  c #0A0A0B",
"O  c #070708",
"+  c #110F0E",
"@  c #14110F",
"#  c #0B0E13",
"$  c #090E18",
"%  c #0D1015",
"&  c #0C111B",
"*  c #141313",
"=  c #191614",
"-  c #1B1B1B",
";  c #16171A",
":  c #0F100F",
">  c #211D1C",
",  c #271B17",
"<  c #2B211D",
"1  c #23211F",
"2  c #32231E",
"3  c #0B1524",
"4  c #0C182B",
"5  c #141A26",
"6  c #0E1D37",
"7  c #121D32",
"8  c #211F21",
"9  c #0E213E",
"0  c #13213B",
"q  c #232323",
"w  c #2C2623",
"e  c #2B2A2B",
"r  c #322A26",
"t  c #372D29",
"y  c #392925",
"u  c #3B302E",
"i  c #393635",
"p  c #2F3132",
"a  c #462D28",
"s  c #44332E",
"d  c #4B342A",
"f  c #59342D",
"g  c #55392C",
"h  c #56382C",
"j  c #463731",
"k  c #4B3B34",
"l  c #433C39",
"z  c #543D33",
"x  c #5A3C33",
"c  c #583935",
"v  c #5B2F2C",
"b  c #653D33",
"n  c #544036",
"m  c #54433A",
"M  c #5B4439",
"N  c #5C4135",
"B  c #4F4037",
"V  c #624333",
"C  c #63453A",
"Z  c #65493B",
"A  c #6C4B3B",
"S  c #6B4635",
"D  c #724B3C",
"F  c #744B37",
"G  c #7E523A",
"H  c #74513E",
"J  c #162B50",
"K  c #2B354A",
"L  c #153667",
"P  c #153D76",
"I  c #583B42",
"U  c #1F4070",
"Y  c #344A6C",
"T  c #484546",
"R  c #574A44",
"E  c #5D5451",
"W  c #514A52",
"Q  c #644D41",
"!  c #6E4F42",
"~  c #694540",
"^  c #774C43",
"/  c #6D5344",
"(  c #675349",
")  c #745142",
"_  c #7B5444",
"`  c #735A4C",
"'  c #7B5C4C",
"]  c #785548",
"[  c #695A59",
"{  c #735D54",
"}  c #7A5D52",
"|  c #785956",
" . c #674752",
".. c #786258",
"X. c #7F604D",
"o. c #5A5667",
"O. c #495878",
"+. c #5E5C79",
"@. c #6B5E67",
"#. c #665B79",
"$. c #75596B",
"%. c #5D6274",
"&. c #686669",
"*. c #786867",
"=. c #626176",
"-. c #7B6D75",
";. c #7D727A",
":. c #883F3F",
">. c #85583D",
",. c #89403F",
"<. c #835B4B",
"1. c #875848",
"2. c #875C53",
"3. c #975E5C",
"4. c #854747",
"5. c #88614C",
"6. c #9B6A4D",
"7. c #946448",
"8. c #846352",
"9. c #8B6453",
"0. c #8C6A5C",
"q. c #896759",
"w. c #9B6C53",
"e. c #926B5B",
"r. c #976A58",
"t. c #97705E",
"y. c #9D715F",
"u. c #A3745C",
"i. c #A6765A",
"p. c #8B6D64",
"a. c #846A68",
"s. c #946E64",
"d. c #986F60",
"f. c #89736B",
"g. c #957163",
"h. c #9A7364",
"j. c #94746B",
"k. c #9B756A",
"l. c #99796E",
"z. c #877173",
"x. c #8A777C",
"c. c #967974",
"v. c #836F71",
"b. c #A37564",
"n. c #AC7C65",
"m. c #A3766B",
"M. c #A37B6C",
"N. c #AC7C6B",
"B. c #A37864",
"V. c #A47C70",
"C. c #AB7D72",
"Z. c #A47E7B",
"A. c #99837A",
"S. c #AA806D",
"D. c #B1816C",
"F. c #A48174",
"G. c #AC8275",
"H. c #AD8479",
"J. c #AD8A7B",
"K. c #A3857B",
"L. c #B38472",
"P. c #B48A7D",
"I. c #B6897B",
"U. c #1A4B8B",
"Y. c #2C5993",
"T. c #39659F",
"R. c #1C5CA7",
"E. c #2667B3",
"W. c #3D77B9",
"Q. c #3971AE",
"!. c #475E84",
"~. c #5B5D81",
"^. c #4D6592",
"/. c #586D9A",
"(. c #576D94",
"). c #65698A",
"_. c #776F86",
"`. c #777589",
"'. c #6A7497",
"]. c #65799F",
"[. c #757C9D",
"{. c #797A97",
"}. c #697589",
"|. c #5878A8",
" X c #4977AE",
".X c #697AA4",
"XX c #727FB1",
"oX c #867887",
"OX c #907D80",
"+X c #807EA4",
"@X c #5681B9",
"#X c #6D81AB",
"$X c #7685A9",
"%X c #788BB5",
"&X c #728CBB",
"*X c #3D88CF",
"=X c #4693DA",
"-X c #5D98D6",
";X c #518CCA",
":X c #688EC7",
">X c #748DC1",
",X c #7995C7",
"<X c #649AD8",
"1X c #7096D0",
"2X c #68A1DB",
"3X c #75A3D8",
"4X c #539EE3",
"5X c #4A9DE2",
"6X c #6E9FE1",
"7X c #57B6FA",
"8X c #54A7EC",
"9X c #69A9E7",
"0X c #74ABE7",
"qX c #63BBFB",
"wX c #6EB5F2",
"eX c #6EB1F0",
"rX c #998487",
"tX c #888299",
"yX c #998A99",
"uX c #818484",
"iX c #A98881",
"pX c #B48D82",
"aX c #B88E83",
"sX c #B39085",
"dX c #BA9386",
"fX c #B49389",
"gX c #B99388",
"hX c #858CB5",
"jX c #888CAD",
"kX c #8898C7",
/* pixels */
"                                          ; o % o # % #                                             ",
"                                    % % . . O O O O O O o #                                         ",
"                              5 o O O O . . . . . . . O o # # & 4                                   ",
"                              o O . . O . . . . . . O O o $ # o $ &                                 ",
"                            O O O O . . . . O O O O o o $ 3 X . $ $ 3                               ",
"                        * O . O . O . . . . . . O o o # # o . . . o 3 6                             ",
"                      % X X O o O . o . . . o o O o X o o $ o X X $ 3 & 7                           ",
"                      : X X O O o o . o o . o o o O X X o # # X o $ $ $ 3                           ",
"                    4 o o o O O o . o o : : = + + + o + X # o # & 5 & 3 & 6                         ",
"                    o o + o + + o + = = 1 2 2 = o @ @ # : # : $ # & & 7 3 6                         ",
"                  3 o : @ @ @ @ , a a < 2 2 < @ @ = @ : % ; = * ; ; 5 5 7 4 J                       ",
"                  % o * = 2 g h F >.>.G S 2 , < d 2 , , h c a t > 5 5 3 4 6 $                       ",
"                  o o = y V S F >.7.7.6.6.6.7.7._ S V D 1.7.>.) W o.W K 7 J 3 6                     ",
"                % o * > g S F >.7.6.i.i.i.i.i.i.i.i.w.7.6.6.6.9.-.[.#X!.J J 4 4                     ",
"                : : * w g S >.>.7.i.i.D.D.D.n.n.i.D.n.u.w.u.y.g.x.$X>X#XU L 9 4                     ",
"                : * = r N S >.>.6.i.n.i.n.n.n.n.D.n.n.n.i.u.B.k.OX$X,X&XY.U J 4                     ",
"                : * 1 u V H >.5.6.i.S.S.D.D.S.D.D.D.D.D.D.S.i.j.oXtX1X<XQ.Y.P 6                     ",
"                * = < d V F _ 5.6.i.S.L.L.L.D.D.L.L.L.L.D.S.S.l.OXtX,X9XW.Y.U.9                     ",
"                * - 2 N V S M ` 0.g.A.P.J.P.P.P.I.I.I.I.P.J.S.l.OX{.,XeX=XE.Y.P                     ",
"                * 1 B n B t r i T E &.A.sXdXP.dXdXdXdXdXJ.A.j.p.*._.%XeX8XE.E.L                     ",
"                * w m u - - r 1 - * - e [ A.fXdXdXgXfXA.&.R l i i K O.<X7X*XE.P                     ",
"                * r m r k ( *.c.g...B w - E K.sXP.A...i - - ; - e i K T.7X5XR.L                     ",
"                : r B B S _ q...{ ` _ H M ( A.J.J...R B m Z ..f...[ =. X=X7XR.L                     ",
"                ; 2 B n V d l p q T E H H H 9.S.S.0.H A H ( R m ` } *.:X5X7XR.P                     ",
"            j a > u n V g t &.i 8 &.rX1.q.) 1.r.t.5.H _ ) uXT p e i T %.-X7XU.L                     ",
"            d h t k M S V N { ;.E -.p.q.8.H _ 6.t..._ _ ] z.o.- %.}.Y o.2X7XY.^..X@X                ",
"            h b d M Z H G H 5.0.p.e.k.0.] _ <.9.k.hX} 8.p.q.q.f.-.;.9X1XwXqX*X9X'.I                 ",
"            f b j M Z _ 5.0.j.K.K.l.g.q.<.1.4.1.p.kXoX} q.g.t.l.g.z.hXkX0XqX5X:XXXb                 ",
"            b ) k M ! _ r.y.M.C.M.b.k.k.<.^ A 1.2.{.hXoXe.y.M.J.C.H.OXoX,XqX7X+.>X .                ",
"            D ^ j m / <.d.b.b.b.b.m.k.r.1.D ^ 1.2.`.,XhXj.l.y.y.b.N.c.oX0X7X7XI a.#.                ",
"            S S m z / 5.h.m.C.C.C.C.V.k.A ^ 3.b.d.+X&X+Xm.V.M.N.C.C.Z.jX0XqX4X).^ ).                ",
"            x f z k / 8.e.N.C.I.I.C.m.p.D ^ k.fXgXOX3X{.k.C.H.H.C.OXiXkXeXeX;X[.^ ).                ",
"            c f 2 j Q ' t.M.J.P.aXP.m.2.] d ) g.j.o.$.hXs.C.gXpXH.OXyXkXeX8X XR @.~.                ",
"            k h h u Q ' e.M.J.P.aXP.b.1.D c M / [ x C | r.G.gXpXH.iXyXkX9X-XO.=.#.#.                ",
"            n z M j z ' 9.h.S.J.H.M.y.2._ ] f.p.j.f.} 2.r.b.P.iXH.iXyXkX2X;XXX.Xo.                  ",
"            x x ) s k ` 8.e.l.S.k.s.8.} | a.c.A.A.f.p.*.v.s.k.C.Z.rXyXhX1X|.'.(.o.                  ",
"              ~     B ` 5.8.t.t.q...( } 8.s.h.q.e.g.f.v.-.*.-.c.c.oXtX$X-X|.@..X:X                  ",
"                    B ( X.X.e.8.` R Q ! ^ 1.2.2.1.2.2.oX}.@.@.-.OXtX{.%X-X                          ",
"                    B Z X.' X.5.' C a y a v v v f f a d W j ( [ x.[.{.&X;X                          ",
"                      m ` ` X.8.0.q.~ x ~ 4.:.:.4.:.$.~.+.D ] 8.oX[.{.&X                            ",
"                      B ( ` X.8.q.e.<.) ^ 2.3.3.3.2.$._.[.z.q.p.`.$X$X X                            ",
"                      u m ` X.8.9.9.9.<._ ) ! C A ^ 2.*.oXx.a.z.oX[.|.*X                            ",
"                        i M ' X.2.' 5.8.9.<.' ] ] <.9.q.v.-.v.;.{.]. X                              ",
"                          B / X.` ' 8.e.d.d.k.k.h.h.s.s.v.;.;.`.'. XQ.                              ",
"                            m Z ` ` 8.p.j.k.l.l.V.k.c.x.oX$X`.'./.T.                                ",
"                            r k m R ..q.p.j.c.c.c.j.z.x.`..X/.^.Y.                                  ",
"                                r u R ( ..[ ..{ | ..{ &.(.!.Y                                       ",
"                                  1 w i R m R T R R T T L K                                         ",
"                                      - - 1 1 1 1 1 8 7                                             ",
"                                                                                                    "
};
