/* XPM */
static char *_c041d3d12c64763d12899a6f283fe9bnNt7G9fB8tHhg8vZ[] = {
/* columns rows colors chars-per-pixel */
"50 50 145 2 ",
"   c None",
".  c #010101",
"X  c #0C0202",
"o  c #0B0B0B",
"O  c #130303",
"+  c #1C0505",
"@  c #1A0808",
"#  c #111005",
"$  c #131313",
"%  c #1E1312",
"&  c gray10",
"*  c #230503",
"=  c #2F0203",
"-  c #250801",
";  c #280902",
":  c #260A0A",
">  c #290C0B",
",  c #320302",
"<  c #300A02",
"1  c #310909",
"2  c #2C1010",
"3  c #381211",
"4  c #3E3A11",
"5  c #3E2222",
"6  c #410101",
"7  c #430B0B",
"8  c #4B0B0B",
"9  c #550202",
"0  c #5A0404",
"q  c #530E0E",
"w  c #5B0F0F",
"e  c #541102",
"r  c #56100F",
"t  c #421312",
"y  c #4F1413",
"u  c #511010",
"i  c #5D1111",
"p  c #6D0707",
"a  c #610F0F",
"s  c #750202",
"d  c #7D0202",
"f  c #750B0B",
"g  c #6E1505",
"h  c #661111",
"j  c #6B1111",
"k  c #611917",
"l  c #6E1C1B",
"z  c #731312",
"x  c #751E1C",
"c  c #423D12",
"v  c #6B3318",
"b  c #810101",
"n  c #860F0F",
"m  c #940404",
"M  c #9C0E0E",
"N  c #811415",
"B  c #8D1616",
"V  c #961717",
"C  c #981717",
"Z  c #971718",
"A  c #A10202",
"S  c #A80101",
"D  c #B60302",
"F  c #BD0202",
"G  c #B30E0E",
"H  c #A91F0A",
"J  c #A51A1A",
"K  c #AA1B1B",
"L  c #BD1515",
"P  c #BE1F16",
"I  c #B51B1B",
"U  c #B81B1A",
"Y  c #A32206",
"T  c #AC2307",
"R  c #B62402",
"E  c #BA2502",
"W  c #A2211A",
"Q  c #BC2116",
"!  c #BE2C1A",
"~  c #8E2120",
"^  c #9B2825",
"/  c #A62A28",
"(  c #AE2C29",
")  c #B82725",
"_  c #B42E2B",
"`  c #BA2F2B",
"'  c #BF3620",
"]  c #BF3D21",
"[  c #BE302D",
"{  c #C00101",
"}  c #CC0101",
"|  c #C50D0E",
" . c #CA0A0A",
".. c #D40000",
"X. c #C11A03",
"o. c #C5170F",
"O. c #D21C07",
"+. c #DB1E02",
"@. c #C11111",
"#. c #C21E13",
"$. c #C42403",
"%. c #C92806",
"&. c #C0230B",
"*. c #CE250C",
"=. c #DB2002",
"-. c #D42907",
";. c #DC2B01",
":. c #D12709",
">. c #D32808",
",. c #C12013",
"<. c #CC2511",
"1. c #E1331C",
"2. c #C22422",
"3. c #CD2A28",
"4. c #D32D25",
"5. c #D12D2B",
"6. c #C1302C",
"7. c #D7302E",
"8. c #DB332F",
"9. c #DA3431",
"0. c #DB3834",
"q. c #E13632",
"w. c #E43834",
"e. c #E23D39",
"r. c #C44322",
"t. c #DF413E",
"y. c #D9533F",
"u. c #E54A34",
"i. c #E04F3B",
"p. c #C4723A",
"a. c #DF4542",
"s. c #DC4946",
"d. c #E04542",
"f. c #BA9534",
"g. c #AEA12F",
"h. c #EC8436",
"j. c #E8843E",
"k. c #E3A52F",
"l. c #E3A230",
"z. c #F2B13B",
"x. c #F6BF38",
"c. c #F7C139",
"v. c #F8CF3B",
"b. c #E9D738",
"n. c #FEEA3B",
/* pixels */
"                                                                                                    ",
"                                                                                                    ",
"                                                                                &                   ",
"                                          & . . . o                         . . . . .               ",
"                                          o . . . o                         . . . . .               ",
"                                          . . . . .                         . . . . .               ",
"                                          o . + 8 u 5                   o &         $ o &           ",
"                                          . . 7 U K 1 . o               . .           . .           ",
"                                          o . 7 U J 1 . o             $ . .           . .           ",
"                                          . . 7 U K 1 . o             $ . .           . .           ",
"                                          . . + q 8 + . o & & & o $ o o . .     s.d.p.g.f.s.d.      ",
"                                          o . . . . . . . . . . . . . . . .     u.w.h.n.c.u.w.      ",
"                                          o . . . . . . . . . . . . . . . .     e.w.h.n.c.u.w.      ",
"                                          o . . . . X X X . X X X O O X . .     a.0.j.v.z.i.a.      ",
"          . $ . $ $                   o . . . e -.-.Q I K I I I I 9.e.x . .         s.w.e.          ",
"          . . . . o                   . . . . e ;.;.,.I I I I I I 9.w.x . .           w.e.          ",
"          . . . . o                   . . . . e ;.;.,.U I U I I I 9.w.x . .           w.e.          ",
"          : > > > 2                   1 , < ; g >.:.P I I I I I I 5.5.~ t t           e.a.          ",
"      . 2 / [ [ [ ^ . .     o . . o X D F X.$.&.U I I I I I I I I I I 3.0._ . .                     ",
"      . > 6.w.w.w.( . .     . . . . . } ..=.;.*.U U I I I I I I I I I 3.w.[ . .                     ",
"      . > 6.w.w.w._ . .     o . . . . } ..+.;.:.I I I I I U I I I I I 3.w.` . .                     ",
"      . > ,.1.4.3.) l x 2 o 9 p p h h L @.o.,.,.I I I I z 3 v l.k.' I 3.w._ . .                     ",
"      . ; E ;.#.I #.w.w.O . b .. .U I I U I I I I I I I q . c n.n.r.U 3.w._ . .                     ",
"      . : E ;.#.I ) w.w.O . b .. .U I I I I I I I I I I w . c n.n.r.U 3.w.` . .                     ",
"      . ; E ;.#.U ) w.w.O . d .. .I I I I U I U I I I I q . 4 b.b.] U 3.q._ . .                     ",
"      . - E ;.:.*.<.2.3.X . f L L I I I I  . .L I I I I q . # c c W I 3.q._ . .                     ",
"      . ; E ;.;.;.-.I I X . j U I I I I I  ... .I I I I q . . . . V I 3.w._ . .                     ",
"      . ; E ;.;.;.>.I I O . z U I I I I I  ...| I U I I 8 . . . . V I 3.q._ . .                     ",
"      . - R ;.;.;.>.U I X . z U I I I I I  ... .I I I I q . X . . V U 3.0.( . .                     ",
"      . - R ;.;.;.>.I I T R $.-.*.I I I U  ... .I I I I K J J K J I I w X X . . . . . . X           ",
"      . ; R ;.;.;.>.I I ;.;.;.;.*.I I I I  ... .I I I I I I U U I I U q . . . . . . . . .           ",
"      . - R ;.;.;.:.I I ;.;.;.;.:.I I I I  ... .I I I I I I I I I I U q . . . . . . . . .           ",
"      . - R ;.-.-.*.L L Y Y $.+.O.@.L I I |  .| @.L U I B j j j h a j w 8 r r r l l 1 . .           ",
"      . - R ;.P U L ....O . d ........U I I I @.....L I q . . . . . . w I I I I q.w.k . .           ",
"      . - R ;.#.I L ....O . b ........U I I I @.....L I 8 . . . . . . a I U I I q.w.k . .           ",
"      . - R ;.P I L ....O . b ........U I I I @.....L I u . . . . . . a I I I I q.w.k . o           ",
"      . + H *.o.@.G d d O . 0 s s s s a h w w n | @.U I N a h h h h h M  . .|  .i y 3               ",
"      . + V U  ...S . .     X . . . . . . . . 8 I I I I I I I I I U I | ........X .                 ",
"      . + V U  ...S . .     o . . . . . . . . 7 I I I I I I I I I I I | ........X .                 ",
"      . + V I  ...S . .     . . . . . . . . . 8 I U I K K K K K J J J G F F F D X .                 ",
"          : : * * >                       o . 9 ..{ , . . . . . . . . . . . . .                     ",
"          . . . . o                       o . 9 ..{ , . . . . . . . . . . . . .                     ",
"          . . . . o                       o . 9 ..{ , . . . . . . . . . . . . .                     ",
"          . . . . $                       . . 6 A m , . . . . . . . . . . . . .                     ",
"                                          X . . O @                                                 ",
"                                          . . . . X                                                 ",
"                                          o . . . o                                                 ",
"                                            . . . .                                                 ",
"                                                                                                    ",
"                                                                                                    "
};
