/* XPM */
static char *ea249342e8534096c8fdf8b483175a5aLgkIdc0uCjm4nDmt[] = {
/* columns rows colors chars-per-pixel */
"50 50 149 2 ",
"   c None",
".  c #010101",
"X  c #0A0101",
"o  c #0E0D04",
"O  c #0A0A0A",
"+  c #140403",
"@  c #1A0404",
"#  c #1B0B0B",
"$  c #121212",
"%  c #1B1B1B",
"&  c #250505",
"*  c #2B0707",
"=  c #2B0902",
"-  c #210A0A",
";  c #2C0808",
":  c #3E0202",
">  c #320A0A",
",  c #3A0A0A",
"<  c #341616",
"1  c #391615",
"2  c #3B1918",
"3  c #2B270D",
"4  c #35270E",
"5  c #232323",
"6  c #4E0606",
"7  c #410D04",
"8  c #4B0F02",
"9  c #410C0B",
"0  c #4C0E0D",
"q  c #540606",
"w  c #5F0404",
"e  c #520E0E",
"r  c #5A0C0C",
"t  c #4F1002",
"y  c #551102",
"u  c #5B1303",
"i  c #431312",
"p  c #4A1413",
"a  c #551413",
"s  c #591615",
"d  c #5D1918",
"f  c #650101",
"g  c #6E0202",
"h  c #740607",
"j  c #770C0C",
"k  c #7D0808",
"l  c #601402",
"z  c #651211",
"x  c #6E1313",
"c  c #661916",
"v  c #661D1B",
"b  c #6B1C1A",
"n  c #701212",
"m  c #7D1414",
"M  c #731E1C",
"N  c #6C2214",
"B  c #7B201E",
"V  c #464012",
"C  c #554F15",
"Z  c #595016",
"A  c #810404",
"S  c #8F0102",
"D  c #920203",
"F  c #9B0101",
"G  c #821413",
"H  c #8D1515",
"J  c #871817",
"K  c #901615",
"L  c #981213",
"P  c #9C1919",
"I  c #A90E02",
"U  c #A80B08",
"Y  c #B20000",
"T  c #B40D0D",
"R  c #A21A1B",
"E  c #AD1B1A",
"W  c #BC1616",
"Q  c #B71F15",
"!  c #BD1F16",
"~  c #B51B1B",
"^  c #BA1C1B",
"/  c #90201E",
"(  c #BE2807",
")  c #BC2808",
"_  c #A9231B",
"`  c #B7261B",
"'  c #BD201F",
"]  c #B9311C",
"[  c #8F2623",
"{  c #9C2522",
"}  c #9D2825",
"|  c #A02825",
" . c #AE2B28",
".. c #BE2120",
"X. c #B52C2A",
"o. c #B92D2A",
"O. c #CE0405",
"+. c #CE0A07",
"@. c #C40F0F",
"#. c #CA0A0B",
"$. c #D30101",
"%. c #D60E02",
"&. c #C5140F",
"*. c #C21111",
"=. c #C11E13",
"-. c #CF2906",
";. c #CB250D",
":. c #D52806",
">. c #DC2B02",
",. c #D1270A",
"<. c #D32808",
"1. c #C32112",
"2. c #C2221C",
"3. c #C72625",
"4. c #CF2B29",
"5. c #D12C2A",
"6. c #D6302D",
"7. c #DA322E",
"8. c #D13531",
"9. c #DD3430",
"0. c #DF3E3B",
"q. c #E4372E",
"w. c #E3382E",
"e. c #E13630",
"r. c #E43834",
"t. c #E03D3A",
"y. c #AC763A",
"u. c #E1403C",
"i. c #C57328",
"p. c #E96737",
"a. c #E96837",
"s. c #DB4643",
"d. c #DB4C49",
"f. c #DE5451",
"g. c #E14945",
"h. c #E05B59",
"j. c #C26A47",
"k. c #E16D49",
"l. c #908529",
"z. c #D9832B",
"x. c #F19D39",
"c. c #D2B833",
"v. c #F0A339",
"b. c #D1C135",
"n. c #F8D73A",
"m. c #F8DA38",
"M. c #FBE73D",
"N. c #FEEA3B",
"B. c #E88942",
/* pixels */
"                                  . . . . . . . . . . . . . . . . . . . . . . . .                   ",
"                                  . . . . . . . . . . . . . . . . . . . . . . . . .                 ",
"                          . .   1 b b b c l l u u u u y y y y t t 8 8 t t 9 , , > >                 ",
"                          . . . i r.r.r.q.>.>.>.>.>.>.>.>.>.>.>.>.>.>.:.:.) ~ E E x . . . .         ",
"                          . . . i r.r.r.q.>.>.>.>.>.>.>.>.>.>.>.>.>.>.>.>.;.~ ~ ~ x . . . .         ",
"                          . . . i r.r.r.e.1.1.1.;.>.>.>.>.>.>.>.>.;.;.;.;.&.@.@.@.j . . . .         ",
"                          . . . i r.r.r.e.~ ~ ~ ! :.>.>.>.>.>.>.>.1.~ ~ ~ #.$.$.$.k . . . .         ",
"                          O O O i  . . .X.....3.2.,.:.:.:.:.:.:.:.=.W W W T Y Y Y k O . O O         ",
"                                  + + # > 9.e.9.7.' Q Q ^ ^ ^ ' ^ #.O.$.+.h & & & ;                 ",
"                                  . . . # r.r.e.7.' ~ ~ ~ ~ ~ ! ~ +.$.$.$.w . . . .                 ",
"                                  O O O - } } } } J G G G Q ! =.! U F F F q . O .                   ",
"                                          . X X X X X X X ) >.>.>.t + X + @                         ",
"                                          + X X X X X X X ( >.>.>.8 X X X                           ",
"                                  . . O @ D F F D G m G m -.>.>.>.I S S S 6 O . O                   ",
"                                  . . . @ $.$.$.$.W ~ ~ ^ :.>.>.>.%.$.$.$.w . . . O                 ",
"                                  . . . @ #.+.#.#.^ ~ ~ ~ ;.:.:.<.%.$.$.$.w . . . .                 ",
"                                  . . . + ^ ^ W W ~ ~ ~ ~ ! ! ! ! +.$.$.$.f . . . .                 ",
"                                  . . . + ~ ~ ~ ~ ~ ~ ~ ~ ~ ~ ~ ~ #.$.$.$.w . . . .                 ",
"                          $ O O , f f f g ~ ~ ~ ~ ~ ~ ~ ~ ~ ~ ~ ~ *.#.#.#.q . . . O                 ",
"                          . . . 7 $.$.$.$.~ ~ ~ ~ ~ ~ ~ ~ ~ ~ ~ ~ ~ ~ ~ ~ a . . . .                 ",
"                          . . . : $.$.$.$.~ ~ ~ ~ ~ ~ ~ ~ ~ ~ ~ ~ ~ ~ ~ ~ e . . . .                 ",
"O . . . . . . . . . . . . . . . 7 >.>.>.:.~ ~ ~ W #.$.$.$.$.$.$.$.W ~ ~ ~ e . . . . O O O O O O O . ",
"O . . . . . . . . . . . . . . . 7 >.>.>.:.~ ~ ~ W +.$.$.$.$.$.$.$.*.~ ~ ~ 0 . . . . . . . . . . . . ",
". . . . & ; ; * + . . . + = = = u :.:.>.:.^ ~ ~ W #.$.$.O.$.+.$.$.W W ~ ^ a . X X X . X . . . . . . ",
"O . . X m ~ ~ ~ e . . . u >.>.>.,.~ ~ ~ ~ ~ ~ ~ ~ ~ ~ ~ ~ ~ ~ ~ ~ #.$.$.$.*.~ ~ ~ W O.O.O.D X . . . ",
"O . . X m ~ ~ ~ 0 . . . u >.>.>.,.~ ~ ~ ~ ~ ~ ~ ~ ~ ~ ~ ~ ~ ~ ~ ~ #.$.$.$.&.~ ~ ~ @.$.$.$.F X . . . ",
"        < * ; ; + . . . 0 1.! 1.! ~ ~ ~ ~ ~ ~ ~ ~ ~ ~ ~ ~ ~ ~ ~ ~ *.@.*.@.W ~ ~ ~ L f h h w $ $ O $ ",
"        O . . . . . . . 0 ~ ~ ~ ~ ~ ~ ~ ~ ~ ~ ~ ~ ~ ~ ~ ~ ~ ~ ~ ~ ~ ~ ~ ^ ~ ~ ~ ~ x . . . .         ",
"        . . . . . . . . 0 ~ ~ ~ ~ ~ ~ ~ ~ ~ ~ ~ ~ ~ ~ ~ ~ ~ ~ ~ ~ ~ ~ ~ ~ ~ ~ ~ ~ x . . . .         ",
"                5 . . . 0 ~ ~ ~ ~ ~ ~ ~ R & & - & - * * * R ~ ~ ~ r ; > > m ~ ~ ~ x . . . .         ",
"                $ . . . 0 ~ ~ ~ ~ ~ ~ ~ R . . . . . . . . P ~ ~ ~ , . . . z ~ ~ ~ x . . . .         ",
"                % . . . 0 ~ ~ ~ ~ ~ ~ ~ _ Z C C V o . . . P ~ ~ ~ , . . . z ~ ~ ~ x . . . .         ",
"                % . . . 0 ~ ~ ~ ~ ~ ~ ~ ] M.N.M.b.3 . . . P ~ ~ ~ , . . . z ~ ~ ~ x . . . .         ",
"                $ . . . p ^ ' ^ ^ ~ ~ ~ ] n.n.n.c.4 X X X P ~ ~ ~ , . . . z ~ ~ ~ x . . . .         ",
"                5 . . . a 5.4.4.3.~ ~ ~ ` z.z.z.i.N e e e R ~ ~ ~ , . . . z ~ ~ ~ x . . . .         ",
"                $ . . . d r.r.r.6.~ ~ ~ ~ ~ ~ ~ ~ ~ ~ ~ ~ ~ ~ ~ ~ , . . . z ~ ~ ~ x . . . .         ",
"                $ . . . p X.o.o.o.^ ....' ' ..' ' ' ' ' ^ R P R P 9 + + + n W ~ ^ x . . . .         ",
"        $ O O . . . . . X - - - s 9.9.9.9.9.9.9.9.7.9.9.9., & - & x H H H T O.+.+.k . . . .         ",
"        O . . . . . . . . . . . i r.r.r.r.r.r.r.r.r.r.t.r.- . . . m ~ ~ ~ @.$.$.$.A . . . .         ",
"$ O . O                         2 b b M b b M M M M B J B + . . . m ~ ~ ~ #.$.$.$.A . . . .         ",
". . . .                           . . . . . . . . . . . . . . . . m ~ ~ ~ @.$.$.$.A . . . .         ",
"O . . O                           . . . . . . . . . . . . . . . . m ~ ~ ~ #.$.$.$.A . . . .         ",
"O . . .           t.r.r.                                  . . . . K 5.5.5.K w w f 6                 ",
"O . . .         h.r.r.r.s.                                . . . . } r.r.r.b . . . .                 ",
"O . . O         j.a.a.a.k.                                O . . . [ 8.8.8.v . . . .                 ",
"        . . . . l.N.N.N.v.r.r.r.t.                        . . . . . . . .                           ",
"        $ . . . l.N.N.N.v.r.r.r.u.                        . . . . . . . .                           ",
"          O . X y.x.x.x.B.g.0.u.                          $ . X O O . . O                           ",
"                f.r.r.r.s.                                                                          ",
"                h.r.r.t.d.                                                                          "
};
