/* XPM */
static char *fb57a22dddb0416cea7b99c1dc2573e7dJWRQkdZOuYVCWrB[] = {
/* columns rows colors chars-per-pixel */
"50 50 123 2 ",
"   c None",
".  c #010101",
"X  c #0E0303",
"o  c #0B0B0B",
"O  c #130403",
"+  c #1A0101",
"@  c #1C0807",
"#  c #1C0908",
"$  c #101010",
"%  c gray10",
"&  c #250606",
"*  c #2C0303",
"=  c #250802",
"-  c #250A09",
";  c #2B0A0A",
":  c #330202",
">  c #3F0202",
",  c #330C0B",
"<  c #3D0B0B",
"1  c #211F0A",
"2  c #4D0404",
"3  c #430A0A",
"4  c #4C0C0C",
"5  c #540101",
"6  c #560E0B",
"7  c #571202",
"8  c #5C1203",
"9  c #451616",
"0  c #4F1B1A",
"q  c #551513",
"w  c #5E1712",
"e  c #5F1816",
"r  c #620502",
"t  c #700707",
"y  c #7D0303",
"u  c #7E0A0A",
"i  c #6D1508",
"p  c #6F1212",
"a  c #621918",
"s  c #681C1A",
"d  c #721414",
"f  c #74211F",
"g  c #7B201E",
"h  c #762220",
"j  c #850404",
"k  c #811604",
"l  c #821B04",
"z  c #881A09",
"x  c #9D1E09",
"c  c #851111",
"v  c #8D1616",
"b  c #931515",
"n  c #971718",
"m  c #9F1919",
"M  c #A20303",
"N  c #A80101",
"B  c #BF0C0C",
"V  c #A81010",
"C  c #A61A1A",
"Z  c #AD1A1A",
"A  c #B71111",
"S  c #BD1515",
"D  c #BD1E16",
"F  c #B51B1B",
"G  c #B91A18",
"H  c #96201E",
"J  c #BD201F",
"K  c #BE361F",
"L  c #852321",
"P  c #8F2422",
"I  c #9F2423",
"U  c #AD2C29",
"Y  c #BC2524",
"T  c #B42927",
"R  c #B42D2A",
"E  c #B93D20",
"W  c #CE0505",
"Q  c #C90A0A",
"!  c #D40101",
"~  c #C11112",
"^  c #C41C11",
"/  c #CB240D",
"(  c #D32407",
")  c #DB2301",
"_  c #D42807",
"`  c #DC2B01",
"'  c #D32708",
"]  c #DE2E0E",
"[  c #C42112",
"{  c #C6241B",
"}  c #CB271B",
"|  c #C42523",
" . c #C92826",
".. c #D32E2B",
"X. c #C8302D",
"o. c #DB322E",
"O. c #D13532",
"+. c #DE3F3B",
"@. c #E23629",
"#. c #E43834",
"$. c #E23E3A",
"%. c #BA7629",
"&. c #C44722",
"*. c #DE413D",
"=. c #D67C2B",
"-. c #D87439",
";. c #ED7B37",
":. c #E7733F",
">. c #DE4D49",
",. c #E14643",
"<. c #E24845",
"1. c #E77441",
"2. c #988D29",
"3. c #BDAF32",
"4. c #C5952D",
"5. c #E29B2F",
"6. c #F19E39",
"7. c #F19E3A",
"8. c #CBBA32",
"9. c #CCBC31",
"0. c #EBB834",
"q. c #FEEA3B",
"w. c #FEEA3C",
/* pixels */
"                                                                                                    ",
"                                                                                                    ",
"                                                                                                    ",
"                                                                                                    ",
"            o . . o .                           . o o . $                                           ",
"            . . . . .                           . . . . o                                           ",
"            . . . . .                           . . . . .                                           ",
"        $ o           % o %               o o 9 v v , . o                                           ",
"        . .           . . o               . . 3 F F 4 . .                                           ",
"        . .           . . o               . . < F F 3 . o                                           ",
"        1 1           . . o               o . < n m < . .                                           ",
"  <.$.-.8.8.-.$.<.    . . o . . o . o . o . . X & & X . o                                           ",
"  $.#.;.w.w.;.#.$.    . . . . . . . . . . . . . . . . . .                                           ",
"  $.#.;.w.w.;.#.#.    . . . . . . . . . . . . . . . . . o                                           ",
"  >.*.1.6.6.1.*.      . . - a a q 6 4 4 4 6 4 6 8 8 = . .                                           ",
"        #.#.          . . q #.$.| F F F F F F [ ` ` 7 . . . .                     o . . . .         ",
"        #.#.          . . q #.#.| F F F F F F [ ` ` 7 . . . .                     o . . . .         ",
"        #.#.          . . q #.#. .F F F F F F [ ` ` 7 . . . .                     o . . . .         ",
"                  $ . h L I  . .Y F F F F F F D [ [ x l k y y * o o o o       o o f L L L L 0 o     ",
"                  . . R #...F F F F F F F F F F F F / ` ) ! ! : . . . .       . . U #.#.#.#.e . .   ",
"                  . . R #...F F F F F F F F F F F F / ` ) ! ! : . . . .       . . U #.#.#.#.e . .   ",
"                  . . R #...F F K &.K b v Z F F F F / _ ( ! W 2 & & * * -     , ; T o.o.@.@.w . .   ",
"                  . . R #...F F =.0.4.; ; n F F F F D D D S S n v b M M 5 $ ; U U Y | } ] ] 8 . .   ",
"                  . . R #...F F 5.q.8.. . v F F F F F F F F F F F S ! ! 5 . ; #.#.| F ^ ` ` 8 . .   ",
"                  . . R #...F F 5.q.8.. . v F F F F F F F F F F F ~ ! ! 5 . - #.#.{ F [ ` ` 8 . .   ",
"                  . . R #...F F %.3.2.. . v F F F F S S S F F F F S W W 5 . - ..o.{ J / ` ` 8 . .   ",
"                  . . R #...F F 3 . . . . v F F F F Q ! W F F F F F F F 4 . @ F F ( ` ` ` ` 8 . .   ",
"                  . . R #...F F 3 . . . . v F F F F Q ! W F F F F F F F 4 . & F F ' ` ` ` ` 8 . .   ",
"                  . . R #...F F 3 . . . . v F F F F Q ! W F F F F F F F 4 . @ F F ' ` ` ` ` 8 . .   ",
"                . . . s L H F F d 6 4 4 4 m F F F F Q ! ! F F F F D [ [ z 8 i F F ' ` ` ` ` 8 . .   ",
"        . . . . . . . . . 3 F F F F F F F F F F F F Q ! W F F F F [ ` ` ` ` _ F F ' ` ` ` ` 8 . .   ",
"        . . . . . . . . . 3 F F F F F F F F F F F F Q ! W F F F F [ ` ` ` ` ' F F ' ` ` ` ` 8 . .   ",
"        . . . . . . . . . 3 F F F F F F F F F F F F Q ! W F F F F { ` ` ` ` _ F F _ ` ` ` ` 8 . .   ",
"        . . L O.X.C C C C p O X O X X X O v F S ! ! ~ F F F F Q ! ! ! ! r O : ! ! ^ F [ ` ` 8 . .   ",
"        . . P #.o.F F F F d . . . . . . . v F ~ ! ! ~ F F F F W ! ! ! ! 5 . & ! ! S F [ ` ` 8 . .   ",
"        . . P #.o.F F F F d . . . . . . . v F ~ ! ! ~ F F F F W ! ! ! ! 5 . & ! ! S F [ ` ` 8 . .   ",
"        . . g R T S S S S c & - & & - & & b G S ! W V v b v b M N N N N 5 . & N N A S ^ _ _ 8 . .   ",
"            # @ 3 W W ! ! B m C m m C m C Z F F G G 6 + O @ O + + + + +       + + M ! Q G G 4 . .   ",
"            . . * ! ! ! ! Q F F F F F F F F F F F F 4 . . . . . . . . .       . . M ! Q F F 4 . .   ",
"            . . * ! ! ! ! Q F F F F F F F F F F F F 3 . . . . . . . . .       . . M ! Q F F 4 . .   ",
"              . * j j j j u d d d d d d d d p v ~ ~ 2 . . . . . . o . .       . . t j u d d < . .   ",
"                  . . . . . . . . . . . . . . 2 ! ! 5 . o                         o . . . .         ",
"                  . . . . . . . . . . . . . . 2 ! ! 5 . o                         o . . . .         ",
"                  . . . . . . . . . . . . . . 2 W W 5 . .                         o . . . .         ",
"                                              ; > > + . o                                           ",
"                                                . . . . .                                           ",
"                                                . . . . o                                           ",
"                                                . . . . .                                           ",
"                                                                                                    ",
"                                                                                                    "
};
