/* XPM */
static char *e4ac8501b03a4d66efe7e86932ee8812fPVGla42NVY0bLCh[] = {
/* columns rows colors chars-per-pixel */
"50 50 169 2 ",
"   c None",
".  c #010101",
"X  c #0C0201",
"o  c #0B0B0B",
"O  c #0B0A04",
"+  c #150303",
"@  c #1B0504",
"#  c #131313",
"$  c #191919",
"%  c #210606",
"&  c #2C0404",
"*  c #2D0901",
"=  c #230A0A",
"-  c #2B0B0A",
";  c #3F0202",
":  c #360B01",
">  c #3C0C01",
",  c #330909",
"<  c #3D0A0A",
"1  c #36100F",
"2  c #341211",
"3  c #381817",
"4  c #341919",
"5  c #2D2A0F",
"6  c #312D0C",
"7  c #3B370E",
"8  c #342F11",
"9  c #3F3A11",
"0  c #450101",
"q  c #4D0101",
"w  c #410D02",
"e  c #490F01",
"r  c #430C0C",
"t  c #4B0E0E",
"y  c #540202",
"u  c #5B0101",
"i  c #540E0E",
"p  c #4E1105",
"a  c #501204",
"s  c #5B1507",
"d  c #50110C",
"f  c #441312",
"g  c #4E1312",
"h  c #401918",
"j  c #5B1111",
"k  c #591817",
"l  c #6C0404",
"z  c #680808",
"x  c #7F0404",
"c  c #7F0E0E",
"v  c #671005",
"b  c #651010",
"n  c #6B1111",
"m  c #611917",
"M  c #731212",
"N  c #7C1414",
"B  c #751F1D",
"V  c #7D1818",
"C  c #5C2914",
"Z  c #443D11",
"A  c #850202",
"S  c #880303",
"D  c #880C0C",
"F  c #920404",
"G  c #9F0202",
"H  c #8F1103",
"J  c #921B0B",
"K  c #811313",
"L  c #8D1616",
"P  c #931616",
"I  c #981010",
"U  c #971B1A",
"Y  c #9F1919",
"T  c #A30101",
"R  c #A80E0E",
"E  c #AB0303",
"W  c #BA0101",
"Q  c #B80B09",
"!  c #AF1313",
"~  c #A31B1C",
"^  c #AD1A1B",
"/  c #BC1515",
"(  c #BD1F16",
")  c #B51B1B",
"_  c #B91C1C",
"`  c #B21815",
"'  c #84211F",
"]  c #89211F",
"[  c #A52102",
"{  c #A92204",
"}  c #AC2109",
"|  c #B52502",
" . c #BA2402",
".. c #A6211C",
"X. c #B7201C",
"o. c #BD201D",
"O. c #B82A1B",
"+. c #B7301B",
"@. c #B9311B",
"#. c #8C2321",
"$. c #942523",
"%. c #9B2623",
"&. c #A12926",
"*. c #AE2A27",
"=. c #A62B29",
"-. c #AB2B28",
";. c #BE2120",
":. c #B02B28",
">. c #BA2E2B",
",. c #CE0505",
"<. c #CF0C07",
"1. c #C50E0E",
"2. c #CB0909",
"3. c #D30101",
"4. c #C3100F",
"5. c #C8110D",
"6. c #C81E0D",
"7. c #D81002",
"8. c #C01112",
"9. c #C62803",
"0. c #CB2802",
"q. c #CB240D",
"w. c #C12506",
"e. c #D72405",
"r. c #DB2601",
"t. c #D52806",
"y. c #DB2B02",
"u. c #D12709",
"i. c #C42112",
"p. c #C3231B",
"a. c #C32423",
"s. c #CB2827",
"d. c #C12E2B",
"f. c #CC2928",
"g. c #C4322E",
"h. c #D7302D",
"j. c #DA322E",
"k. c #DF382E",
"l. c #DD3431",
"z. c #E4372E",
"x. c #E23630",
"c. c #E43834",
"v. c #E13D3A",
"b. c #AC7A39",
"n. c #DC433F",
"m. c #E1403D",
"M. c #E65A34",
"N. c #EA6239",
"B. c #DC4B49",
"V. c #DC4541",
"C. c #DD504D",
"Z. c #E34844",
"A. c #C56444",
"S. c #E06549",
"D. c #958A2D",
"F. c #D29531",
"G. c #C4B532",
"H. c #E6A431",
"J. c #EEA136",
"K. c #F4AB3A",
"L. c #F1A336",
"P. c #DDCB38",
"I. c #E9D638",
"U. c #ECD83A",
"Y. c #E5D336",
"T. c #FEE63E",
"R. c #FEEA3B",
"E. c #FEEA3C",
"W. c #E98E40",
/* pixels */
"                                                                          B.c.c.c.B.                ",
"                                                                          V.c.c.c.B.                ",
"                        . . . . . . . . o                         V.c.v.Z.W.K.K.L.b.. O o           ",
"                        O . . . . . . . O                         m.c.c.c.J.E.E.E.D.. . . #         ",
"                        2 2 , - @ . . . O                         v.c.c.c.J.E.E.E.D.. . . O         ",
"                . . . . B c.c.c.$.. . . o                                 S.M.M.N.A.        o . . # ",
"                . . . . B c.c.c.$.. . . .                                 n.c.c.c.B.        . . . o ",
"        O . . . x E T T ! a.a.a.V . . . O . . O . . . O . o                 v.c.c.          O . . o ",
"        . . . . F 3.3.3.1.) ) ) M . . . . . . . . . . . . . . . .                           . . . o ",
"        . . . . F 3.3.3.1.) ) ) M . . . . . . . . . . . . . . . .                           . . . o ",
"        . . . . F 3.3.3.1.) ) ) M . . . - -.-.-.=.&.%.%.$.$.#.] #.3 o . . O o O           # o O o $ ",
"        . . . . F 3.3.3.1.) ) ) M . . . 2 c.c.c.c.c.c.c.c.c.c.c.x.f . . . . . . . . . . . o         ",
"        . . . . D 2.1.1.I n n M b < < < j h.h.h.h.h.h.h.j.l.j.j.l.m - - = + . . . . o o o #         ",
"        . . . . N _ ) ) j . . . r ) ) ^ ) ) _ X._ X.X._ _ _ _ _ _ d.g.g.g.g . . . o                 ",
"        . . . . N ) ) ) j . . . r ) ) ) ) ^ ^ ^ ) X.X.) ) ) _ ) ) h.c.c.c.k . . . o                 ",
"        O . . . N _ ) ) j . . . r ) ) ) U , , , C F.H.H.H.O.) ) ) a.s.s.f.k . . . $                 ",
"        . . . . N ) ) ) j . . . < ) ) ) L . . . 8 P.E.E.T.@.) ) ) ) _ X._ g . . . o                 ",
"        . . . . N ) ) ) j . . . r _ ) ) L . . . 5 G.Y.I.U.+.) ) ) ) ) ) ) t . . . #                 ",
"        . . . . N ) ) ) j . . . < ) ) ) L . . . O 6 7 9 Z ..) ) ) ) ) ) ) f . . . #                 ",
"        . . . . V ) ) ) j . . . r ) ) ) L . . . . . . . . Y ) ) ) ) ) ) ) t . . . o                 ",
"        . . . . N ) ) ) L n b b N _ ) ) Y i t t r r r r < ~ ) ) ) ) ) ) _ t . . . #                 ",
"        . . . . N ) ) ) ) ) ) ) ) _ ) ) ) ) ) ) ) ) ) ) ) ) ) ) ) ) ) ) ) t . . . . . . . o         ",
"        @ + + + N ) ) ) ) _ ) ) ) ) ) ) ) ) ) ) ) ) ) ) ) ) ) ) _ _ ) ) ) t . . . . . . . o         ",
"O o . + A T T T ! ) ) ) 8.2.,.2.8.) ) ) ) ) ) ) ) ) ) ) ) ) ) ) ` o.i.i.i.d . . . + , & & 4         ",
". . . + G ,.3.3./ ) ) ) 1.3.3.3.2._ ) ) ) ) ) ) ) ) ) ) ) ) ) ) ) q.y.y.y.s . . . t ) ) ) N X . . o ",
". . . X z A A A c N K K R ,.2.,.1./ / / / ` / _ _ ) ) ) ) ) ) ) _ u.y.y.y.s . . . t ) ) ) N . . . o ",
". . . . . . . . . . . . j ) ) ) / 3.3.3.3.3.3.3.,./ ) ) ) t.y.y.y.p @ @ @ X . . . + & - , % . . . o ",
". . . . . . . . . . . . b ) ) ) 8.3.3.3.3.3.3.3.,./ ) ) ) y.y.y.y.w . . . . . . . . . . . . . . . o ",
"          # # # . . . . j ) ) ) / 2.2.2.2.2.2.2.2.) ) ) ) e.e.r.r.w . . . O . . . . . . . . . . . # ",
"                . . . . j ) ) ) ) ) ) ) ) ) ) ) _ ) ) ) _ 3.3.3.3.; . . .                           ",
"                . . . . j ) X.X.) ) ) ) ) ) ) ) ) ) ) ) _ 3.3.3.3.0 . . .                           ",
"                . . . . l 3.3.3.2.) ) ) ) ) ) ) ) ) ) ) ) y q y y &     #                           ",
"                O . . . l 3.3.3.<._ _ ` _ ` ) ) ) ) ) ) ) + . . .                                   ",
"                . . . . l 3.3.3.<.i.i.o.o._ ) ) _ / / / / + . . .                                   ",
"                . . . . l 3.3.3.7.y.y.y.t.) ) ) / ,.,.3.,.+ . . .                                   ",
"                . . . . l 3.3.3.7.y.y.y.t.` ) ) / ,.3.3.3.@ . . .                                   ",
"                        r y u u H y.y.y.w.b b b n x A A A @ . o O                                   ",
"                        X . . . p y.y.y.{ . . . . . . X .                                           ",
"                        & & & & v t.t.y.} @ @ @ + @ @ + @                                           ",
"                o O . O z W W W Q ( X.o.` P P P U *.:.-.-.= . o o                                   ",
"                . . . . l 3.3.3.<.) ) ) ) ) ` ` ;.l.c.c.c.@ . . .                                   ",
"                r q 0 0 D ,.2.,.5.o.o. .o.8.o.o.p.h.j.l.l.< = = %                                   ",
"        . . . . F 3.3.3.1.) ) ) i.y.y.y.y.y.t.y.u.o._ ;.;.>.>.>.>.h o . O                           ",
"        . . . . F 3.3.,.1.) _ ) i.y.y.y.y.y.y.y.t.( ) ) _ c.c.c.c.f . . .                           ",
"        O . . . K / / / 6.u.u.u.t.y.y.y.y.y.y.y.r.q.q.q.q.x.c.c.c.f . . .                           ",
"        . . . . N _ ` _ q.r.y.y.y.y.y.y.y.y.y.y.y.y.y.y.y.x.c.c.c.f . . .                           ",
"          . . X j M N N J [ [ [ { | | |  . .9.0.0.0.0.y.y.k.c.c.c.f . . .                           ",
"                @ % % @ * * * * * : : : > > > > w w > p e g g g k 3                                 ",
"                O . . . . . . . . . . . . . . . . . . . . . . . .                                   ",
"                  . . . . . . . . . . . . . . . . . . . . . . . .                                   "
};
