/* XPM */
static char *result[] = {
/* columns rows colors chars-per-pixel */
"50 50 146 2 ",
"   c #010101",
".  c #0A0502",
"X  c #0F0903",
"o  c #0A0A0A",
"O  c #100703",
"+  c #120904",
"@  c #1A0E07",
"#  c #140E0B",
"$  c #15100D",
"%  c #1B120C",
"&  c #131313",
"*  c #181716",
"=  c #1D1915",
"-  c #1B1919",
";  c #270A0A",
":  c #280B0B",
">  c #24140A",
",  c #2A160B",
"<  c #2D190D",
"1  c #331D0E",
"2  c #281710",
"3  c #271C14",
"4  c #211E1C",
"5  c #331E10",
"6  c #3A1F11",
"7  c #37200F",
"8  c #38210F",
"9  c #26221F",
"0  c #372112",
"q  c #3D2312",
"w  c #34251B",
"e  c #232423",
"r  c #2B2520",
"t  c #2A2B29",
"y  c #2E312F",
"u  c #313433",
"i  c #353936",
"p  c #3B3B36",
"a  c #373B39",
"s  c #393D3B",
"d  c #432514",
"f  c #482715",
"g  c #462915",
"h  c #4C2B16",
"j  c #45271B",
"k  c #4D2D18",
"l  c #502F17",
"z  c #502E18",
"x  c #5A2F1E",
"c  c #553316",
"v  c #593517",
"b  c #55321A",
"n  c #59341B",
"m  c #5D381A",
"M  c #613A1C",
"N  c #463324",
"B  c #533D2D",
"V  c #5B3D2A",
"C  c #653321",
"Z  c #6A3722",
"A  c #6C3923",
"S  c #743D24",
"D  c #783F27",
"F  c #3C413F",
"G  c #42413C",
"H  c #4E443B",
"J  c #50463C",
"K  c #544A3D",
"L  c #6C4224",
"P  c #704023",
"I  c #7C4427",
"U  c #7E432A",
"Y  c #7B492A",
"T  c #7D593A",
"R  c #3D4341",
"E  c #414643",
"W  c #454945",
"Q  c #464B48",
"!  c #4A4E4A",
"~  c #4D514D",
"^  c #51544E",
"/  c #4F5450",
"(  c #515652",
")  c #565A54",
"_  c #595C56",
"`  c #5A5E58",
"'  c #615E53",
"]  c #5E625B",
"[  c #606057",
"{  c #61655E",
"}  c #65685F",
"|  c #6F6B5E",
" . c #626660",
".. c #656A63",
"X. c #6A6D65",
"o. c #676D68",
"O. c #696F69",
"+. c #6D7067",
"@. c #6E726A",
"#. c #72766C",
"$. c #75796E",
"%. c #787B6F",
"&. c #757A71",
"*. c #7A7E74",
"=. c #7C7F78",
"-. c #854A2B",
";. c #8B4D2C",
":. c #86542C",
">. c #8F532C",
",. c #8E592E",
"<. c #92522E",
"1. c #945A2E",
"2. c #965530",
"3. c #945C31",
"4. c #9C5C33",
"5. c #A25F36",
"6. c #A85F37",
"7. c #9F6037",
"8. c #A56236",
"9. c #A86537",
"0. c #A56238",
"q. c #AB6639",
"w. c #AE693B",
"e. c #B36C3C",
"r. c #AF703A",
"t. c #BA713F",
"y. c #BE7A3F",
"u. c #BC7240",
"i. c #BF7D40",
"p. c #C27E41",
"a. c #7D8076",
"s. c #7E8279",
"d. c #BF8041",
"f. c #808277",
"g. c #81857B",
"h. c #85897E",
"j. c #C48543",
"k. c #C98744",
"l. c #C58844",
"z. c #CA8A46",
"x. c #CE8B48",
"c. c #868B81",
"v. c #898E84",
"b. c #8D9187",
"n. c #8E9289",
"m. c None",
/* pixels */
"m.m.m.m.m.m.m.m.m.m.m.m.m.m.m.m.m.m.m.m.m.m.m.m.m.m.m.m.m.m.m.m.m.m.m.m.m.m.m.m.m.m.m.m.m.m.m.m.m.m.",
"m.m.m.m.m.m.m.m.m.m.m.m.m.m.m.m.m.m.m.m.m.+.O.O.O.O.O.O.O.m.m.m.m.m.m.m.m.m.m.m.m.m.m.m.m.m.m.m.m.m.",
"m.m.m.m.m.m.m.m.m.m.m.m.m.m.m.m.m.m.m.m.&.c.h.h.c.c.g.f.*.+.m.m.m.m.m.m.m.m.m.m.m.m.m.m.m.m.m.m.m.m.",
"m.m.m.m.m.m.m.m.m.m.m.m.m.m.m.m.m.m.m.R #.*.f.a.*.g.O...@.] R m.m.m.m.m.m.m.m.m.m.m.m.m.m.m.m.m.m.m.",
"m.m.m.m.m.m.m.m.m.m.m.m.m.m.m.m.m.m.m.m. .*.*.*.=.f.@...+.) m.m.m.m.m.m.m.m.m.m.m.m.m.m.m.m.m.m.m.m.",
"m.m.m.m.m.m.m.m.m.m.m.m.m.m.m.m.m.m.m.m.` *.$.a.#.f.#.@.@.! m.m.m.m.m.m.m.m.m.m.m.m.m.m.m.m.m.m.m.m.",
"m.m.m.m.m.m.m.m.m.m.m.m.m.m.m.m.m.m.] ` / #.*.&.#.=.&.$.@./ O. .m.m.m.m.m.m.m.m.m.m.m.m.m.m.m.m.m.m.",
"m.m.m.m.m.m.m.m.m.m...@.m.m.m.] @.=.a.&.~ { $.@.@.&.&.=.....c.=.*.@._ m.m.&.*._ m.m.m.m.m.m.m.m.m.m.",
"m.m.m.m.m.m.m.m.m.@.g.a.] ~  .v.a.#.+.+./ ) s.*.f.*.*.*.{ @.=.@.+.&.s.~ @.b.h.a.( m.m.m.m.m.m.m.m.m.",
"m.m.m.m.m.m.m._ &.$.&.@.@.@.] a.a.a.a.#.] ] $.a.=.=.&.#.` &.&.&.#.#..._ v.h.h.a.*.( m.m.m.m.m.m.m.m.",
"m.m.m.m.m.m.m. .a.@.*.a.a.a... .a.#.+._ G F Q W W W W W a (  .&.$.+.) b.h.h.h.h.g.@.m.m.m.m.m.m.m.m.",
"m.m.m.m.m.m.m.m.] $.&.$.#.&.*._ ] K N 7 < , . .             & t ^ ) #.g.f.s.a.s.@.~ m.m.m.m.m.m.m.m.",
"m.m.m.m.m.m.m.m.! / @.&.$.a.&.H b k g q 1 < + .                   t &.=.*.h.g._ [ m.m.m.m.m.m.m.m.m.",
"m.m.m.m.m.m.m.~ a.@._ &.+.+.J L Y n k q 1 < . .                     & ) +.#._ $.a.( m.m.m.m.m.m.m.m.",
"m.m.m.m.m.m.E &.a.&.O.Q / B -.3.7.m k q 7 < . .                       o s ~ g.s.h.a.) m.m.m.m.m.m.m.",
"m.m.m.m.m.m. .*.&.a.a.) H :.7.8.7.m l g 0 < . .                         o ~ *.g.g.a.X.m.m.m.m.m.m.m.",
"m.m.m.m.m.~ ) +.&.*.&.V 3.d.9.9.7.V v h 8 1 + .                           . ] s.*.$.[ ~ m.m.m.m.m.m.",
"m.m.m.m.m.$...] X.#.| Y e.l.e.w.7.m n g 1 < + .                             e @.+.] ] ] m.m.m.m.m.m.",
"m.m.m.m.+.$.$.a.*.] T e.e.k.e.w.7.C n d 1 < O .                               G ..a.$.#.) m.m.m.m.m.",
"m.m.m.m.( $.$.+.+.' :.e.t.x.e.e.1.v k d 1 < O .                               i +.#.$.$.X.m.m.m.m.m.",
"m.m.m.m.^ $.$.$.+.K 1.t.e.z.w.e.7.v k q 7 < X .                               e { $.#.$.} m.m.m.m.m.",
"m.m.m.m.Q ~ ! ! ~ h 1.e.8.l.9.e.0.M b g q w = @                                 a ! ~ ~ ~ F m.m.m.m.",
"m.F X.*.b.v.n.n.] c 1.8.w.j.w.e.0.Z n g w t - %                                 y h.h.s.b.b.*.@.F m.",
"m.R s.&.$.o.o.#.] m 7.w.e.z.e.e.7.m b g 3 e e 4                                 y a.a.a.g.*.$.+.R m.",
"m.F c.&.a.f.&.#._ M 1.r.e.z.e.w.4.m b d 3 e - =                                 u f.$.=.f.*.*.+.F m.",
"m.F a.&.=.=.7.%.) M 3.t.t.z.e.9.3.n k 0 9 - & %                                 t c.&.&.=.=.%.X.F m.",
"m.R #.@.&.O.=.=._ M 1.t.t.z.w.8.3.z h 0 9 - = #                                 u c.&.$.&.$.@.{ F m.",
"m.F ..] ] ] o.o.^ m 1.t.t.z.9.5.1.b h < 4 9 % @                                 y @..... .[ ` ( F m.",
"m.R R R R / ( / W M ,.t.t.y.5.e.5.z f 1 $ % 2 %                                 y ~ ) ) ! F F F R m.",
"m.m.m.m. .n.n.s._ v ,.t.t.y.8.w.4.h d 1 , < 2 @                                 y c.g.*.{ F m.m.m.m.",
"m.m.m.m.` s.v.=.] c 1.t.t.y.8.e.4.f d 6 0 5 > @                                 y c.&.&.{ F m.m.m.m.",
"m.m.m.m.( &.=.=.] v ,.t.t.y.8.w.4.b f 0 5 < @ O                                 y c.$.@...F m.m.m.m.",
"m.m.m.m.( #.a.$.) m ,.t.t.z.e.t.9.m h d 1 < + .                                 y *...{ ` F m.m.m.m.",
"m.m.m.m.) @.#.X.^ m 1.t.t.y.w.e.4.c h d 1 , . .                                 y #.o.] _ F m.m.m.m.",
"m.m.m.m.! ) ) ~ W v ,.t.e.d.9.8.1.h d d 1 , O .                                 y ) ) ) / F m.m.m.m.",
"m.R  .@.@.@.@.X.( v ,.e.t.j.8.4.<.l f d 1 1 O .                                 y O.@.@.o.{ ..] E m.",
"m.F g.&.&.=.a.$.^ M 1.t.e.p.5.<.;.h d d 8 , .                                   y =.O.O.#.=.f.O.F m.",
"m.a s.&.a.f.%.$._ v ,.e.e.y.2.;.-.l d d 6 , .                                   y =.o.O.s.v.&.#.R m.",
"m.F c.&.g.f.#.+.) v 1.q.9.d.<.-.-.f 6 6 1 >                                     y v.&.&.7.f.%.+.R m.",
"m.R s.&.*.f.$.+.^ m ,.4.6.e.-.D I f 6 1 , .                                     y c.s.s.c.*.#.+.Q m.",
"m.F a.&.*.&.X.X.^ m 1.,.<.q.I M L d 6 , .                                       y s.c.a.a.s.O. .F m.",
"m.R ( _ ~ ~ ( ( Q v :.;.;.2.S Z Z d %             o . o . o . o . o .   o   o   i R R / / / R R F m.",
"m.m.m.m.^ @.*.@.^ v :.-.D ;.Z M Z >     . o o o o o o o o o o o o o o o . o o o u O.a.&. .E m.m.m.m.",
"m.m.m.m.) @.&.*.[ v ,.I D -.C x 2 o o o o o o o o o o o   o   o o     o   o . o i c.@.&.] R m.m.m.m.",
"m.m.m.m.) $.&.$.` c :.S A U x > o o o o o o . o o o   o o   . .   o   . . o o o a h.$.$. .R m.m.m.m.",
"m.m.m.m.] *.@.$.] v :.A U S $ o o o o o o   o o . m.m.m.m.m.m.m.m.m.m.m.m.m.m.m.a =.#.$.+.R m.m.m.m.",
"m.m.m.m._ $.+.X.^ v :.Z Z o o o o o o o   m.m.m.m.m.m.m.m.m.m.m.m.m.m.m.m.m.m.m.a #.&.=.@.F m.m.m.m.",
"m.m.m.m.) ..{ ] ~ g A j & o o o o o & m.m.m.m.m.m.m.m.m.m.m.m.m.m.m.m.m.m.m.m.m.s X.#.&...R m.m.m.m.",
"m.m.m.m.F F R F a $ % & : : o & & m.m.m.m.m.m.m.m.m.m.m.m.m.m.m.m.m.m.m.m.m.m.m.i R R E Q R m.m.m.m.",
"m.m.m.m.m.m.m.m.m.m.m.m.m.m.m.m.m.m.m.m.m.m.m.m.m.m.m.m.m.m.m.m.m.m.m.m.m.m.m.m.m.m.m.m.m.m.m.m.m.m."
};
