/* XPM */
static char *_dee8b316a924fe985ba73d2e964bdd0IUMCnKLCyxv7xpfS[] = {
/* columns rows colors chars-per-pixel */
"50 50 174 2 ",
"   c None",
".  c black",
"X  c #010101",
"o  c #020202",
"O  c gray1",
"+  c #040404",
"@  c gray2",
"#  c #060606",
"$  c #070707",
"%  c gray3",
"&  c #090909",
"*  c gray4",
"=  c #0B0B0B",
"-  c #0C0C0C",
";  c gray5",
":  c #0E0E0E",
">  c gray6",
",  c #101010",
"<  c gray7",
"1  c #131313",
"2  c gray8",
"3  c #151515",
"4  c #161616",
"5  c gray9",
"6  c #181818",
"7  c #191919",
"8  c gray10",
"9  c #1B1B1B",
"0  c gray11",
"q  c #1D1D1D",
"w  c #1E1E1E",
"e  c gray12",
"r  c #202020",
"t  c gray13",
"y  c #222222",
"u  c #232323",
"i  c gray14",
"p  c #252525",
"a  c gray15",
"s  c #272727",
"d  c #282828",
"f  c #2A2A2A",
"g  c gray17",
"h  c #2D2D2D",
"j  c #2F2F2F",
"k  c gray19",
"l  c #313131",
"z  c gray20",
"x  c #343434",
"c  c #353535",
"v  c gray21",
"b  c gray22",
"n  c #393939",
"m  c gray23",
"M  c #3C3C3C",
"N  c gray24",
"B  c #3E3E3E",
"V  c #3F3F3F",
"C  c gray25",
"Z  c #414141",
"A  c gray26",
"S  c #434343",
"D  c #444444",
"F  c #484848",
"G  c #4B4B4B",
"H  c #4E4E4E",
"J  c gray31",
"K  c #505050",
"L  c #515151",
"P  c gray32",
"I  c #535353",
"U  c gray34",
"Y  c gray35",
"T  c #5A5A5A",
"R  c #5B5B5B",
"E  c gray36",
"W  c #5D5D5D",
"Q  c #5F5F5F",
"!  c #606060",
"~  c gray38",
"^  c #626262",
"/  c gray39",
"(  c #646464",
")  c #656565",
"_  c DimGray",
"`  c gray42",
"'  c #6C6C6C",
"]  c #6D6D6D",
"[  c gray43",
"{  c gray44",
"}  c #727272",
"|  c #747474",
" . c gray46",
".. c #767676",
"X. c #777777",
"o. c gray48",
"O. c #7B7B7B",
"+. c #7C7C7C",
"@. c gray49",
"#. c gray50",
"$. c #818181",
"%. c gray51",
"&. c #838383",
"*. c #848484",
"=. c gray52",
"-. c #868686",
";. c gray53",
":. c #888888",
">. c #898989",
",. c gray54",
"<. c #8B8B8B",
"1. c gray55",
"2. c #8E8E8E",
"3. c gray56",
"4. c #909090",
"5. c gray57",
"6. c #929292",
"7. c #939393",
"8. c gray59",
"9. c #989898",
"0. c gray60",
"q. c #9B9B9B",
"w. c gray61",
"e. c #9D9D9D",
"r. c gray62",
"t. c #9F9F9F",
"y. c #A0A0A0",
"u. c gray63",
"i. c #A2A2A2",
"p. c gray64",
"a. c #A4A4A4",
"s. c #A5A5A5",
"d. c gray65",
"f. c #A7A7A7",
"g. c gray66",
"h. c #A9A9A9",
"j. c #AAAAAA",
"k. c #ACACAC",
"l. c gray68",
"z. c #AEAEAE",
"x. c #AFAFAF",
"c. c gray69",
"v. c #B1B1B1",
"b. c #B2B2B2",
"n. c gray70",
"m. c #B4B4B4",
"M. c gray71",
"N. c #B6B6B6",
"B. c #B7B7B7",
"V. c gray72",
"C. c #B9B9B9",
"Z. c gray73",
"A. c #BBBBBB",
"S. c #BCBCBC",
"D. c gray",
"F. c gray75",
"G. c #C1C1C1",
"H. c gray76",
"J. c #C3C3C3",
"K. c #C5C5C5",
"L. c #C6C6C6",
"P. c gray78",
"I. c #C8C8C8",
"U. c gray79",
"Y. c #CACACA",
"T. c #CBCBCB",
"R. c gray80",
"E. c #CDCDCD",
"W. c #CECECE",
"Q. c gray81",
"!. c #D0D0D0",
"~. c gray82",
"^. c #D2D2D2",
"/. c LightGray",
/* pixels */
"                                                                                                    ",
"                                                                                                    ",
"                                                                                                    ",
"                                                                                                    ",
"                                                                                                    ",
"                                                                                                    ",
"                                                                                                    ",
"                                      1 X X X X X X X X X X X a                                     ",
"                                      M v M Z Z Z Z Z M v k d M                                     ",
"                                  > 3 +.b.L./././././.L.b.t.1.G X 9                                 ",
"                                  n Z 4.Z.L.I.I.I.I.I.F.z.t.<.E d n                                 ",
"                              > > 8.u.F.W.Z.m.b.m.m.m.b.z.t.<.&.+.G > r                             ",
"                              > X f.m.L./.Z.z.b.b.z.b.z.b.t.<.<.<.K X 0                             ",
"                          X 3 0.b.z.m.I./.Z.b.z.z.b.z.b.z.b.z.t.<.<.<.` X +                         ",
"                          3 d t.m.b.m.I.W.Z.b.z.b.z.b.z.b.z.b.t.1.1.<.` 1 1                         ",
"                      > > 8.t.L.W.W.I.F.m.b.z.b.z.b.z.b.z.b.z.z.j.0.<.;.o.~ > 0                     ",
"                      = + b.b.W././.W.Z.b.z.b.z.b.z.b.z.b.z.b.z.b.t.<.<.<.[ + 0                     ",
"                      > + z.b.b.b.b.b.z.z.b.z.b.z.b.z.b.z.b.z.b.b.z.z.u.<.} = 0                     ",
"                      0 3 b.b.m.b.z.z.b.b.z.b.z.b.z.b.z.b.z.b.z.b.z.z.f.<.} 3 a                     ",
"                  3 M } o.L.I.I.L.b.b.b.z.b.z.b.z.b.z.b.z.b.z.b.z.b.b.f.<.+.~ E 3 a                 ",
"                  X v t.b.W.W.G.G.f.u.u.f.j.b.z.b.j.u.f.b.z.b.j.u.f.u.8.+.&.<.+.X >                 ",
"                  X k 0.b.m.f.M h a a a a &.z.b.z.) a T z.b.b.[ a a a a 0 k ;.+.X >                 ",
"                  X v t.b.b.0.9 X X X X X | b.z.b.K X Z b.z.z.E X X X X X 0 &.o.X >                 ",
"                  X k t.b.I.b.0 X ;.;.h X | z.b.b.K X Z b.b.b.~ X Z 4.} X 0 ;.+.X >                 ",
"                  X k t.z.W.Z.0 X u.t.v X | b.z.z.K X Z b.b.z.E X G b.;.X 0 &.o.X >                 ",
"                  X v t.z.Z.u.3 X a a > X | z.b.b.K X D b.z.b.~ X 3 d r X 0 ;.+.X >                 ",
"                  X k t.b.b.0.9 X X X X X | b.z.b.K X D b.b.b.E X X X X X 0 &.+.X >                 ",
"                  X v 0.z.L.z.9 X X > K } t.z.b.z.K X Z z.b.b.E X k } ` T ~ <.o.X >                 ",
"                  X k t.z./.Z.0 X X 1 o.b.z.b.z.b.K X Z b.b.z.E X G b.f.<.<.<.+.X >                 ",
"                  X v t.b./.Z.0 X K I T E 8.z.b.b.K X D b.z.b.~ X K b.f.;.<.<.+.X >                 ",
"                  X k 0.b./.Z.0 X f.u.n X | b.z.z.K X D b.z.z.E X K z.f.<.<.<.o.X >                 ",
"                  X v t.z.G.m.[ ~ z.j.} K 4.z.b.b.+.I | z.b.b.;.K o.b.f.;.<.<.o.X >                 ",
"                  X v t.z.z.m.W.W.b.b.z.b.z.b.z.b.z.b.z.b.z.b.z.b.z.b.f.;.<.<.o.X >                 ",
"                  X k 0.b.F.G.W./.b.z.b.z.b.z.b.z.b.z.b.z.b.z.b.z.b.z.f.<.<.<.o.X >                 ",
"                  X k t.b././././.b.b.z.b.z.b.z.b.z.b.z.b.z.b.z.b.z.z.f.;.<.<.+.X >                 ",
"                  X v t.z.I.I.W./.b.z.b.z.b.z.b.z.b.z.b.z.b.z.b.z.b.z.f.<.<.<.+.X >                 ",
"                  X k t.b.b.m.W./.z.b.z.b.z.b.z.b.z.b.z.b.z.b.z.b.z.z.f.<.<.<.o.X >                 ",
"                a X k t.z.m.Z.W./.b.z.b.z.b.z.b.z.b.z.b.z.b.z.b.z.b.z.f.<.<.<.+.X >                 ",
"          > > > = X k t.b.W.W././.b.b.z.b.z.b.z.b.z.b.z.b.z.b.z.b.z.b.f.;.<.;.+.X >                 ",
"        3 X + > = X k t.b.W.W.W./.b.z.b.z.b.z.b.z.b.z.b.z.b.z.b.z.b.z.f.<.<.<.o.X >                 ",
"    v X X X k <.~ X k t.b.b.m.W.W.b.b.z.b.z.b.z.b.z.b.z.b.z.b.z.z.b.z.f.<.<.<.+.X >                 ",
"    v X > r D <.E X k t.z.m.Z.W./.b.z.b.z.b.z.b.z.b.z.b.z.b.z.b.b.z.b.f.;.<.<.+.X >                 ",
"    k X Z u.0.1.~ X v t.b.W.W././.b.z.b.b.z.b.z.b.z.b.z.b.z.b.z.z.b.z.f.<.<.<.o.X X + X + + + =     ",
"    v X F b.u.<.~ X k t.b.W.W././.b.b.z.z.b.z.b.z.b.z.b.z.b.z.b.b.z.z.f.;.<.<.+.X X > = = = X X     ",
"0 X X X F b.u.<.~ X k t.z.z.m.W./.b.z.b.b.z.b.b.b.z.b.z.b.z.b.z.z.b.z.f.<.<.<.+.X r f.z.<.<.0 X X X ",
"0 X X X F b.f.<.~ X k t.z.b.b.W./.b.b.z.z.b.z.b.z.b.z.b.b.b.z.b.b.z.z.f.;.<.;.o.X 0 u.z.<.<.0 X X X ",
"0 X Z [ +.4.1.<.~ X d ;.4.4.4.0.0.4.4.4.4.4.4.4.4.4.4.4.4.4.4.4.4.4.4.4.<.<.<.o.X 9 <.4.<.<.| [ 9 X ",
"0 X G <.;.<.<.<.~ X a o.<.<.<.<.;.<.<.<.<.<.;.<.<.<.<.<.;.<.<.<.<.<.<.<.;.<.<.o.X 3 +.;.;.<.;.<.r X ",
"r X 3 a r r a r 9 X = 0 r a r r a r r a r r a r r a r r a r r a r r r a r r a 0 X = 0 a r r a r = X ",
"0 X X X X X X X X X X X X X X X X X X X X X X X X X X X X X X X X X X X X X X X X X X X X X X X X X "
};
