/* XPM */
static char *_4ddebbe654c4c8c8b7d3ff627c4d612c7r5VBLupKAKkSOY[] = {
/* columns rows colors chars-per-pixel */
"50 50 39 1 ",
"  c #1E1B17",
". c #1F1D18",
"X c #211E1A",
"o c #24211C",
"O c #28251F",
"+ c #272420",
"@ c #2A2621",
"# c #2D2A23",
"$ c #312E26",
"% c #332F28",
"& c #343027",
"* c #35322A",
"= c #3A352D",
"- c #3D382F",
"; c #3C3730",
": c #3E3A31",
"> c #423D33",
", c #464136",
"< c #484237",
"1 c #474238",
"2 c #4C463B",
"3 c #4E483C",
"4 c #504B3E",
"5 c #534D41",
"6 c #575144",
"7 c #595346",
"8 c #5D5649",
"9 c #5E584A",
"0 c #635C4D",
"q c #665F50",
"w c #676050",
"e c #6A6353",
"r c #6F6856",
"t c #6F6858",
"y c #706757",
"u c #706857",
"i c #736B59",
"p c #7A715E",
"a c #7B7260",
/* pixels */
"2<<<7e<X165112222,1555552>6q>o>7<22<2222245556>X>0",
"222225,X>65522222522>;222526*o<7<2332222345558>+>0",
"224328>+:555511252255>522226=+<633<33222>53550>X>0",
"233228>X;5555551122255>22255>+>6<33323325>5560>+*7",
"222>28>X1555552225>552224645*O>523222423>55526>X>7",
"258855>X16555555215525554355=O<523334443>55556>+*7",
"522225:X>66755655152222>*$>5>@<532424343608556>+*4",
"5<::25:X1511555655>5222>$$>3>@<5232243435>5556>#>4",
"2>>,42=X>4<>23686533332,>>25>O<5233323232:,557>O&4",
"222222=X>4223586555423322255>@<3233>>224225557>X&2",
"222532-X=2324564565654354355*O><44>#=244555543>o&>",
";;*%$=%X#=>=&**=:;><,>==>>=*@X$=**#O$>>>::>**%#X#$",
"XXXX XXXXXXXXX  XXXXXXXXXoo.XXX  o.X....o...XXXXXX",
">>>>>>>>>>>=>=XO&=:::::;#o+#>>>>>22>>=@o&=#+O=>>>>",
"i00w0805704402o$3470wwe7*o*7eeeew00006#o2a0:#=7ie7",
"a7454242340ry2o$0545335q2o>w756665236w=o,ie6%$<e53",
"w<<4443423225,o&63774226<o,7444754>*,4*o:053>*,436",
"w<,<444432226,o&62>>2334,o,4464644<>-4*o:92544443:",
"0<<2444432324>X*53>>3235>o>64464344<<4*o,e2344444,",
"4334444433335>O%63<<2335,o>46443334434*o-832234233",
"7444433322224>X#64233334>o>4443332<*,5&o=643332333",
"0444433348044>O#64333334>X>44432322*,5=o-644333333",
"8664444344423>O#53323323>o=22432333335=o-444434333",
"08644443<>,<3:O#35332233>o>23224332334:o-444343432",
"846644442:>33>o#,5532233>X%<3333333325=o>445542543",
"3664644652223:o#:444223,&X$><32332232,&o=,<2<<>>,3",
"&>>--:,>:===*$oo#:-=*;==$XO$=>>=::::-&@o@$****%%*-",
"oXXX. ooXXXX.Xoo o.oooooXXXXXXXX.oooX.. XX..XO.XXX",
":>:,,>&OX@$:=:33>:>>::>;=*#o@*>>;*-,>:::><<>*$O##>",
"puwrir2@X&7iwea0990trwewe3$X%3qiw23ee0w0e0ipq*X*<u",
"556569e*X2e74444883433537e>X=064443333433558y,X>w0",
"3353360:X202223>,353333338=O=7323332332223335>O>w5",
"2233357:X292333->444224428=o=6223333333423336>X>w5",
"2233559;o1633322<224642420=o=7233333322233350>X>75",
"2222269;o16223233345403338-o*7333322455632440<O>65",
"2355150;o,5322322322><4330-o*7333333455533447>X=55",
"3333258-+,523223232>>-2437-o-62223322>>>>5557>+>55",
"32::266=+,522322322,>><236,O>62333323<2>57756>X>55",
"31::256*o,5222322222<<2228:O=4322322222352556>X>65",
"222233,&O>3232232222222222:O*42222233222<;*56>X>53",
"34335<*#o*,3223222333333,=%+#=<32211>252>;*<>%X%:2",
">>,>:=#+.#&=:;;:>>>>-*--=#@o##$*;;;:>;==%%#*%@X#=;",
"XOOooXoX.XXooooooooooooooXX.oOooooooooXXXOXXXXXXoo",
"$+@Oo@%&***&%&=*&oXo$**&$$$#@@O@##&$#$$#%%%#XO@%*&",
"e5%o#,7e0qeq0wi5,$o$3w000we6=OO=2,qi9ww67i7&X@50et",
"303o=003552222204*X>e724445wq$O,e976525156e5##q85:",
"<72X*755>>2522<30*o>042444466$O,8>:,22212263##821:",
"27,o*55>*>2>22228=X>723344447#O,6&:,25252272#%651:",
"<7,X*65::,2,22227=X:822234557$O,8,1222222275#&7522",
"272O=63>,22223326=X:822233358$O>822222322265$$5655"
};
