/* XPM */
static char *acf429f00b6b4553c639b7d84d671ed3KDfZsyhCR0MODwxA[] = {
/* columns rows colors chars-per-pixel */
"50 50 91 1 ",
"  c #5786CD",
". c #5886CD",
"X c #5B8ACF",
"o c #5E8DD1",
"O c #5F90D2",
"+ c #608ED1",
"@ c #6394D5",
"# c #6B96D4",
"$ c #6698D7",
"% c #6B9BD6",
"& c #6697D8",
"* c #679AD8",
"= c #6A9CDA",
"- c #719DD7",
"; c #6EA1DD",
": c #72A4DC",
"> c #77A9DD",
", c #7AABDE",
"< c #7EB0DE",
"1 c #6FA4E0",
"2 c #71A5E0",
"3 c #75AAE3",
"4 c #79AEE4",
"5 c #7CB1E5",
"6 c #7DB4E9",
"7 c #7FB8EB",
"8 c #88A7DB",
"9 c #83ADDE",
"0 c #8AABDC",
"q c #8AB2DF",
"w c #83B5E3",
"e c #8CB1E0",
"r c #86B9E5",
"t c #8BBEE6",
"y c #80B7EB",
"u c #84BBEB",
"i c #89BEEB",
"p c #95B5E1",
"a c #99B5E1",
"s c #9ABBE3",
"d c #91BEEB",
"f c #8CC1E6",
"g c #8CC2EC",
"h c #92C6EA",
"j c #9BC4EE",
"k c #94CAED",
"l c #99CEEE",
"z c #9CD1EF",
"x c #8EC6F0",
"c c #90C7F0",
"v c #95CDF1",
"b c #9BCDF1",
"n c #97D0F1",
"m c #9CD3F2",
"M c #9FD8F4",
"N c #A6C3E7",
"B c #A7C3E8",
"V c #A3CCEF",
"C c #AECEEF",
"Z c #B1CCEB",
"A c #A2D0EE",
"S c #A4CCF0",
"D c #AACEF0",
"F c #A2D4F2",
"G c #ABD6F3",
"H c #A4DBF4",
"J c #AADCF4",
"K c #B4D6F1",
"L c #B3DBF4",
"P c #BBDDF5",
"I c #A7E0F6",
"U c #AAE1F7",
"Y c #AAE1F8",
"T c #B4E3F7",
"R c #BCE4F7",
"E c #B3E3F8",
"W c #BAE5F8",
"Q c #C3DEF5",
"! c #C4E3F6",
"~ c #CBE4F6",
"^ c #CDE8F7",
"/ c #C3E6F8",
"( c #CBE7F8",
") c #CCE8F9",
"_ c #D4E7F7",
"` c #D6E9F7",
"' c #D8E9F7",
"] c #D1E7F8",
"[ c #D5E9F8",
"{ c #DAE9F8",
"} c #E1EBF9",
/* pixels */
"YF:3777yyv^'w.......   9(YF:>77yyyc~'ro.........3~",
"F;  :72;;=FK32*..... o*6HH: X;73;=;mP32&....  .*6H",
"l   @3o...>h@36222221172hzXX @2o.. :k+3y222212173f",
"l  o5=X...ogwo4yy76455@oXz  .5;X . orr+3yyy5557@XX",
"bo &77=O  Xi]p;yy3X.X23o.n+.@67=@ .oy^s*yy4oXX:3X.",
"M3;64=47;;:mPbvg3o....1=>H4=75=47==2lPbvc3X.  X;::",
"My76@.O&$3nHiygcvhX...$iFH766&.+$@2lHi7xclh+ ..@iF",
"uy4o    X4vX;y7;4Jl##%H({x76o....X4k@*762>HF#@#F/}",
"Hi* ...XrF4X$54 .wT'EMnKLHg*  ..XqH5X@56..wE{TMmGT",
"YHxiitthRl@. 37*..e/F7=*:JHhftftgTS@  ;7%  9/Gy=*:",
">J/{^/WE'V@X*6y6*o:my@.. :H/{]RRU'C$X*677=o=M7$...",
".3H['mlvFvgu53335dHv* ..o :F'{Fllzniu63333gFk;....",
"..5JP:..%HJH3...4PPy*..... 4YR3..#mYI<..X>RPy=....",
".$7Hg5323i>:whZh5:hy*...  @5Hg5233i4;9hZhw-hy=....",
"#hMi7yy77y@.,!_f+.$y=....@gHi7yy7yy@.>!_ho.@7;X...",
"lTi222337y*.Xht...*y7*&++hTg33233yy=X th...*7y=@++",
"W{8....X277;5A@..*y77yyrkE{eX.. X;7714m$X *76yyyrh",
"W]F@....oO47lY@.*y4+@@6DRE'F@... o@37hY$.$64@@@6SR",
"gkFm#.$%=%iH/'Jm63o ..:AgglMF%.@%%=yH/'Lmw3o...;Fg",
"3.>Jm>mHnnbgKFJYg+. .Xrw$3 :HF,lYmnbgGFJYh@....wt$",
"7$.,Hccxy;$@y24TRhX..rl# 5$ ,Hccx72*@y:3ERlX..ez$.",
"y=.@muy63X.@=olJJJmmA~-XX7: Ozy762..+=+kJYHnzFQ:oX",
"y;.:YFy&o $2+ivw33imLFHg3y:X:JFi*o @3orb633iMLFHh4",
"vfwJ]'F6*=552==&..=3yyvHmvf5J^'F7==47=;=$X.%>7yvmm",
"vYYF00Ammmmm3......o&@@wYvYYH08lmmnmm6......o@@&wY",
"UH,5wyyium]'w+ooXXXXXoow^YJ<5w7iuub]'ioXXo.oXooX,~",
"H:.X373222FK4;&...   .&5HH,.X273:22bP32&....   *5H",
"lX..@3o ..>v@46==:;;;;63km...o3o...>l+471-2=:=;73g",
"l .X4=....og9o4yyy6656@o+z..X32....Xyr+3yyy6666OXO",
"lo.@76*o..ou~e&yy6oXX33X.bo.O77*+..ow!p$yy5oXX>3XX",
"F3*66=56*=;bQFvg3o.. X;;:F3*66;4y*==bQFvg4o. XX;:;",
"H7y6&.@**3vHi7xvhtX. X@imHyy6&.@%*3vHiygcki+   @wz",
"uy7+.....3l@;yy3rHk+X@zR{gy7@X  .X:b*=yy3wYl@X@zR{",
"Hu*....o5H6X$64. tR`EFMPRHi=    X,H7o@66..wL`EHmLR",
"YHgwrwwtTl@..2y# .t(G7;=,HFgwrwwrEV@  27&..e(Gy;=>",
"5H/[^RRU'C@.&675#X%Mu*  X,HR`^RRY`C$o&4y6&X%Mu=X..",
"X9J{'JFmJnyw45564yFv=... X,J'{JAzJbyy54444ymn;X ..",
" XwY!3..-HYF2.  >!P7*...  .<Y/4..$HYH,...:QT7;  ..",
"X@5Mg4213x4>wiBiw:jy*... .@4Hx42:3g5>wfBtw>j7;.. .",
"@gmgyy7y77@.<~'h@.*y=... oimgyyyyy7$.>!{l@ @w;...X",
"kEg3334477$..hh  .*yy&+oogTg33334yy*..tl.. &77*@XX",
"W'9X...X2y7;>z@  &6yyy77iE{qX.X..2y7=>l%..&577676g",
"W[Ao....o@4ylU@.*63$&$7DWT'G@  ..o@3ycU%.@66@$&6SR",
"gFFz@.+$@@yF!'Fl55O.  :FhiFHz@ O#@$wHR'Jl64o...=Fh",
"3.,Hm:lHMmnkKGJYfo   Xwr=4 3HF:lYMmnkJGHYf@ ...4t$",
"6@.wHvkk73=@72wERfX .9z=.5@.5Hlkcy3=O73wERfo..>F: ",
"y;.+Fyy62o @;okYYIlll~-..62.+Fyyy3o.O2XfYEHzll~-X ",
"y:.:Jmy$. @:@rmy53gMPGFt371 =HFu*. @>Orz755iMLLFg3",
"kr,H^`F5**54;;3* X;3yunMnci,F(`Fy$=45=12=.o=3y7vMm",
"nIYJapFnnvvn>      o==*iYnYIHsaFnvvnn5  ..  o==*wY"
};
